<?xml version="1.0" standalone="no"?>
<!DOCTYPE svg PUBLIC "-//W3C//DTD SVG 1.1//EN" "http://www.w3.org/Graphics/SVG/1.1/DTD/svg11.dtd" >
<svg xmlns="http://www.w3.org/2000/svg" xmlns:xlink="http://www.w3.org/1999/xlink" version="1.1">
<metadata>
Created by FontForge 20170924 at Wed Apr 18 17:04:36 2018
 By www-data
Copyright 2018 Airbnb. All rights reserved.
</metadata>
<defs>
<font id="AirbnbCerealApp-Book" horiz-adv-x="0" >
  <font-face 
    font-family="Airbnb Cereal App Book"
    font-weight="400"
    font-stretch="normal"
    units-per-em="1000"
    panose-1="2 11 5 2 2 2 3 2 2 4"
    ascent="800"
    descent="-200"
    x-height="516"
    cap-height="710"
    bbox="-206 -257 1519 947"
    underline-thickness="63"
    underline-position="-131"
    unicode-range="U+000D-F9001"
  />
<missing-glyph horiz-adv-x="500" 
d="M450 0h-400v750h400v-750zM100 50h300v650h-300v-650z" />
    <glyph glyph-name="f_i.liga" unicode="fi" horiz-adv-x="593" 
d="M111 0v448h-95v68h95v48q0 57 20.5 99.5t57 65.5t84.5 23t85 -23l-23 -62q-12 7 -26.5 11t-30.5 4q-42 0 -64.5 -30.5t-22.5 -89.5v-46h332v-516h-80v448h-252v-448h-80zM538 667q0 -15 -7.5 -27.5t-20 -20t-27.5 -7.5t-27.5 7.5t-20 20t-7.5 27.5t7.5 27.5t20 20
t27.5 7.5t27.5 -7.5t20 -20t7.5 -27.5z" />
    <glyph glyph-name="f_f.liga" unicode="ff" horiz-adv-x="710" 
d="M111 0v448h-95v68h95v48q0 57 21 99.5t59.5 65.5t89.5 23q54 0 97 -26l-23 -62q-15 8 -33 13t-36 5q-47 0 -71 -31t-24 -89v-46h252v48q0 57 21.5 99.5t59.5 65.5t89 23q54 0 97 -26l-23 -62q-15 8 -33 13t-36 5q-47 0 -71 -31t-24 -89v-46h163v-68h-163v-448h-80v448
h-252v-448h-80z" />
    <glyph glyph-name="f_f_i.liga" unicode="ffi" horiz-adv-x="925" 
d="M111 0v448h-95v68h95v48q0 57 21 99.5t59.5 65.5t89.5 23q54 0 97 -26l-23 -62q-15 8 -33 13t-36 5q-47 0 -71 -31t-24 -89v-46h252v48q0 57 20.5 99.5t57 65.5t84.5 23t85 -23l-23 -62q-12 7 -26.5 11t-30.5 4q-42 0 -64.5 -30.5t-22.5 -89.5v-46h332v-516h-80v448h-252
v-448h-80v448h-252v-448h-80zM870 667q0 -15 -7.5 -27.5t-20 -20t-27.5 -7.5t-27.5 7.5t-20 20t-7.5 27.5t7.5 27.5t20 20t27.5 7.5t27.5 -7.5t20 -20t7.5 -27.5z" />
    <glyph glyph-name=".notdef" horiz-adv-x="500" 
d="M450 0h-400v750h400v-750zM100 50h300v650h-300v-650z" />
    <glyph glyph-name="uni0000" 
 />
    <glyph glyph-name="uni000D" unicode="&#xd;" horiz-adv-x="219" 
 />
    <glyph glyph-name="space" unicode=" " horiz-adv-x="219" 
 />
    <glyph glyph-name="period" unicode="." horiz-adv-x="233" 
d="M116 -3q-16 0 -29.5 8t-21.5 21.5t-8 30.5t8 30.5t21.5 21.5t29.5 8t29.5 -8t22 -21.5t8.5 -30.5t-8.5 -30.5t-22 -21.5t-29.5 -8z" />
    <glyph glyph-name="colon" unicode=":" horiz-adv-x="233" 
d="M116 -3q-16 0 -29.5 8t-21.5 21.5t-8 30.5t8 30.5t21.5 21.5t29.5 8t29.5 -8t22 -21.5t8.5 -30.5t-8.5 -30.5t-22 -21.5t-29.5 -8zM116 399q-16 0 -29.5 8t-21.5 21.5t-8 30.5t8 30.5t21.5 21.5t29.5 8t29.5 -8t22 -21.5t8.5 -30.5t-8.5 -30.5t-22 -21.5t-29.5 -8z" />
    <glyph glyph-name="comma" unicode="," horiz-adv-x="233" 
d="M74 -180l-22 49q40 19 63.5 50t23.5 68q0 22 -8 39q-11 -12 -29 -12q-20 0 -34.5 15t-14.5 36q0 14 8 26t21 19t29 7q25 0 45 -16.5t32 -44t12 -61.5q0 -38 -15 -71.5t-43.5 -60.5t-67.5 -43z" />
    <glyph glyph-name="semicolon" unicode=";" horiz-adv-x="233" 
d="M74 -180l-22 49q40 19 63.5 50t23.5 68q0 22 -8 39q-11 -12 -29 -12q-20 0 -34.5 15t-14.5 36q0 14 8 26t21 19t29 7q25 0 45 -16.5t32 -44t12 -61.5q0 -38 -15 -71.5t-43.5 -60.5t-67.5 -43zM116 399q-16 0 -29.5 8t-21.5 21.5t-8 30.5t8 30.5t21.5 21.5t29.5 8t29.5 -8
t22 -21.5t8.5 -30.5t-8.5 -30.5t-22 -21.5t-29.5 -8z" />
    <glyph glyph-name="question" unicode="?" horiz-adv-x="503" 
d="M197 189v156q88 21 135 66t47 107q0 38 -17.5 68.5t-48.5 47.5t-71 17q-35 0 -65 -13.5t-51.5 -39.5t-31.5 -61l-74 21q13 50 44.5 88t77.5 58.5t101 20.5q48 0 88.5 -15.5t70.5 -43t46.5 -64.5t16.5 -80q0 -52 -23 -96.5t-66 -77.5t-101 -51v-108h-78zM236 -3
q-16 0 -29 8t-21 21.5t-8 28.5t8 28.5t21 21.5t29 8t29 -8t21 -21.5t8 -28.5t-8 -28.5t-21 -21.5t-29 -8z" />
    <glyph glyph-name="exclam" unicode="!" horiz-adv-x="232" 
d="M77 189l-4 521h86l-4 -521h-78zM116 -3q-16 0 -29 8t-21 21.5t-8 28.5t8 28.5t21 21.5t29 8t29 -8t21 -21.5t8 -28.5t-8 -28.5t-21 -21.5t-29 -8z" />
    <glyph glyph-name="questiondown" unicode="&#xbf;" horiz-adv-x="474" 
d="M258 403q-16 0 -29 8t-21 21.5t-8 28.5t8 28.5t21 21.5t29 8t29 -8t21 -21.5t8 -28.5t-8 -28.5t-21 -21.5t-29 -8zM251 -209q-48 0 -88.5 15.5t-70.5 43t-46.5 64.5t-16.5 80q0 52 23 96.5t66 77.5t101 51v108h78v-156q-88 -21 -135 -66t-47 -107q0 -38 17.5 -68.5
t48.5 -47.5t71 -17q35 0 65 13.5t51.5 39.5t31.5 61l74 -21q-13 -50 -44.5 -88t-77.5 -58.5t-101 -20.5z" />
    <glyph glyph-name="exclamdown" unicode="&#xa1;" horiz-adv-x="232" 
d="M116 403q-16 0 -29 8t-21 21.5t-8 28.5t8 28.5t21 21.5t29 8t29 -8t21 -21.5t8 -28.5t-8 -28.5t-21 -21.5t-29 -8zM73 -194l4 521h78l4 -521h-86z" />
    <glyph glyph-name="quotesingle" unicode="'" horiz-adv-x="191" 
d="M62 451l-3 259h73l-3 -259h-67z" />
    <glyph glyph-name="quotedbl" unicode="&#x22;" horiz-adv-x="362" 
d="M62 451l-3 259h73l-3 -259h-67zM233 451l-3 259h73l-3 -259h-67z" />
    <glyph glyph-name="ellipsis" unicode="&#x2026;" horiz-adv-x="699" 
d="M116 -3q-16 0 -29.5 8t-21.5 21.5t-8 30.5t8 30.5t21.5 21.5t29.5 8t29.5 -8t22 -21.5t8.5 -30.5t-8.5 -30.5t-22 -21.5t-29.5 -8zM349 -3q-16 0 -29.5 8t-21.5 21.5t-8 30.5t8 30.5t21.5 21.5t29.5 8t29.5 -8t22 -21.5t8.5 -30.5t-8.5 -30.5t-22 -21.5t-29.5 -8zM582 -3
q-16 0 -29.5 8t-21.5 21.5t-8 30.5t8 30.5t21.5 21.5t29.5 8t29.5 -8t22 -21.5t8.5 -30.5t-8.5 -30.5t-22 -21.5t-29.5 -8z" />
    <glyph glyph-name="uni00A0" unicode="&#xa0;" horiz-adv-x="219" 
 />
    <glyph glyph-name="uni2000" unicode="&#x2000;" horiz-adv-x="500" 
 />
    <glyph glyph-name="uni2001" unicode="&#x2001;" horiz-adv-x="1000" 
 />
    <glyph glyph-name="uni2002" unicode="&#x2002;" horiz-adv-x="500" 
 />
    <glyph glyph-name="uni2003" unicode="&#x2003;" horiz-adv-x="1000" 
 />
    <glyph glyph-name="uni2004" unicode="&#x2004;" horiz-adv-x="333" 
 />
    <glyph glyph-name="uni2005" unicode="&#x2005;" horiz-adv-x="250" 
 />
    <glyph glyph-name="uni2006" unicode="&#x2006;" horiz-adv-x="166" 
 />
    <glyph glyph-name="uni2007" unicode="&#x2007;" horiz-adv-x="594" 
 />
    <glyph glyph-name="uni2008" unicode="&#x2008;" horiz-adv-x="233" 
 />
    <glyph glyph-name="uni2009" unicode="&#x2009;" horiz-adv-x="200" 
 />
    <glyph glyph-name="uni200A" unicode="&#x200a;" horiz-adv-x="63" 
 />
    <glyph glyph-name="uni200B" unicode="&#x200b;" 
 />
    <glyph glyph-name="zero" unicode="0" horiz-adv-x="603" 
d="M301 -15q-78 0 -134.5 43.5t-87 124.5t-30.5 192t31 192t88 124.5t135 43.5t134.5 -43.5t87 -124.5t30.5 -192t-31 -192t-88 -124.5t-135 -43.5zM302 60q54 0 91.5 33.5t57.5 97.5t20 154q0 91 -20 154.5t-57.5 97t-91.5 33.5t-91.5 -33.5t-57.5 -97t-20 -154.5
q0 -90 20 -154t57.5 -97.5t91.5 -33.5z" />
    <glyph glyph-name="one" unicode="1" horiz-adv-x="415" 
d="M220 0v599l-164 -92l-33 66l212 117h67v-690h-82z" />
    <glyph glyph-name="two" unicode="2" horiz-adv-x="563" 
d="M52 0v68q68 56 127.5 109.5t104.5 99.5q47 48 74.5 84t39.5 66.5t12 62.5q0 42 -17 73.5t-46.5 49t-69.5 17.5q-54 0 -93 -33t-56 -92l-76 19q13 55 46 95.5t79.5 63t101.5 22.5q46 0 85 -15.5t68 -43.5t45.5 -66t16.5 -82q0 -64 -37.5 -129.5t-118.5 -144.5
q-19 -18 -45.5 -42t-57 -51t-62.5 -54h333v-77h-454z" />
    <glyph glyph-name="three" unicode="3" horiz-adv-x="563" 
d="M276 -15q-58 0 -106.5 20t-83 59t-50.5 95l77 18q19 -56 61 -86.5t100 -30.5q44 0 79 17t55 47t20 68q0 40 -19.5 69t-55 45t-83.5 16h-75v75h72q45 0 77.5 15t50.5 42.5t18 63.5q0 33 -17.5 58.5t-47.5 39.5t-70 14q-55 0 -94.5 -29.5t-56.5 -82.5l-76 18
q13 52 45.5 89.5t80.5 58.5t105 21q46 0 85.5 -13.5t68.5 -38t45 -58t16 -73.5q0 -54 -27 -95t-78 -64q56 -20 88 -65t32 -107q0 -43 -18 -80.5t-50 -66t-75 -44t-93 -15.5z" />
    <glyph glyph-name="four" unicode="4" horiz-adv-x="580" 
d="M369 0v163h-331v64l328 463h82v-457h89v-70h-89v-163h-79zM126 233h243v343z" />
    <glyph glyph-name="five" unicode="5" horiz-adv-x="550" 
d="M277 -15q-57 0 -105.5 21.5t-83 60.5t-50.5 93l77 18q12 -37 36 -63.5t56 -40.5t70 -14q44 0 78 20t54 55t20 79t-19.5 78t-54 53.5t-79.5 19.5q-23 0 -47.5 -7t-46 -19.5t-36.5 -28.5l-67 9v371h384v-77h-307v-221q51 48 134 48q48 0 88.5 -17t71 -47.5t47 -72
t16.5 -89.5q0 -49 -18 -90.5t-50.5 -72.5t-75 -48.5t-92.5 -17.5z" />
    <glyph glyph-name="six" unicode="6" horiz-adv-x="583" 
d="M305 -15q-57 0 -104 23.5t-81 67t-52.5 105t-18.5 138.5q0 84 22 154.5t62 122.5t96 80.5t124 28.5q43 0 82 -12t73 -36l-31 -66q-26 19 -57 29t-64 10q-51 0 -92.5 -22.5t-72 -63.5t-46.5 -97.5t-16 -125.5q22 57 71 89.5t116 32.5q49 0 91 -17t73.5 -48t48.5 -71.5
t17 -88.5q0 -49 -18 -91t-51 -74t-77 -50t-95 -18zM308 60q32 0 60 12t49 33.5t33 50.5t12 62q0 44 -20 78t-54.5 53.5t-78.5 19.5q-45 0 -80.5 -19.5t-56 -53.5t-20.5 -76q0 -33 12 -62t33 -51t49.5 -34.5t61.5 -12.5z" />
    <glyph glyph-name="seven" unicode="7" horiz-adv-x="543" 
d="M141 0l268 613h-371v77h460v-67l-267 -623h-90z" />
    <glyph glyph-name="eight" unicode="8" horiz-adv-x="583" 
d="M291 -15q-54 0 -98.5 14.5t-77 41.5t-50.5 64t-18 81q0 63 34 109t95 67q-51 22 -78.5 62.5t-27.5 93.5q0 40 17 74t47.5 59.5t71 39.5t87.5 14t87 -14t70 -39.5t46.5 -59.5t16.5 -73q0 -52 -27 -92.5t-78 -63.5q61 -21 94.5 -66t33.5 -108q0 -44 -18 -81.5t-51 -65
t-77.5 -42.5t-98.5 -15zM292 397q41 0 72 15.5t48.5 41.5t17.5 59t-17.5 59.5t-48.5 42t-72 15.5t-72 -15.5t-49 -42t-18 -59.5t18 -59t49 -41.5t72 -15.5zM292 60q49 0 84.5 16.5t55.5 46t20 68.5t-20 68.5t-55.5 46t-84.5 16.5q-48 0 -84.5 -16.5t-56.5 -46t-20 -68.5
t20 -68.5t56.5 -46t84.5 -16.5z" />
    <glyph glyph-name="nine" unicode="9" horiz-adv-x="579" 
d="M228 -15q-90 0 -158 48l31 66q53 -39 124 -39t122 36.5t77.5 104t26.5 160.5v10q-22 -56 -71 -87.5t-115 -31.5q-50 0 -92 17t-73.5 47t-48.5 70.5t-17 87.5q0 48 18 90t51 73.5t77 49.5t95 18q57 0 104 -24t81 -69t52.5 -108.5t18.5 -142.5q0 -83 -21 -152t-60 -119
t-95.5 -77.5t-126.5 -27.5zM272 326q44 0 79.5 19.5t56 53t20.5 75.5q0 32 -12 60.5t-33 50t-49.5 33.5t-61.5 12q-32 0 -60 -12t-49 -33t-33 -49t-12 -61q0 -43 20 -76.5t54.5 -53t79.5 -19.5z" />
    <glyph glyph-name="zero.aalt" horiz-adv-x="594" 
d="M296 -15q-78 0 -134.5 43.5t-87 124.5t-30.5 192t31 192t88 124.5t135 43.5t134.5 -43.5t87 -124.5t30.5 -192t-31 -192t-88 -124.5t-135 -43.5zM297 60q54 0 91.5 33.5t57.5 97.5t20 154q0 91 -20 154.5t-57.5 97t-91.5 33.5t-91.5 -33.5t-57.5 -97t-20 -154.5
q0 -90 20 -154t57.5 -97.5t91.5 -33.5z" />
    <glyph glyph-name="one.aalt" horiz-adv-x="594" 
d="M303 0v599l-164 -92l-33 66l212 117h67v-690h-82z" />
    <glyph glyph-name="two.aalt" horiz-adv-x="594" 
d="M67 0v68q68 56 127.5 109.5t104.5 99.5q47 48 74.5 84t39.5 66.5t12 62.5q0 42 -17 73.5t-46.5 49t-69.5 17.5q-54 0 -93 -33t-56 -92l-76 19q13 55 46 95.5t79.5 63t101.5 22.5q46 0 85 -15.5t68 -43.5t45.5 -66t16.5 -82q0 -64 -37.5 -129.5t-118.5 -144.5
q-19 -18 -45.5 -42t-57 -51t-62.5 -54h333v-77h-454z" />
    <glyph glyph-name="three.aalt" horiz-adv-x="594" 
d="M292 -15q-58 0 -106.5 20t-83 59t-50.5 95l77 18q19 -56 61 -86.5t100 -30.5q44 0 79 17t55 47t20 68q0 40 -19.5 69t-55 45t-83.5 16h-75v75h72q45 0 77.5 15t50.5 42.5t18 63.5q0 33 -17.5 58.5t-47.5 39.5t-70 14q-55 0 -94.5 -29.5t-56.5 -82.5l-76 18
q13 52 45.5 89.5t80.5 58.5t105 21q46 0 85.5 -13.5t68.5 -38t45 -58t16 -73.5q0 -54 -27 -95t-78 -64q56 -20 88 -65t32 -107q0 -43 -18 -80.5t-50 -66t-75 -44t-93 -15.5z" />
    <glyph glyph-name="four.aalt" horiz-adv-x="594" 
d="M376 0v163h-331v64l328 463h82v-457h89v-70h-89v-163h-79zM133 233h243v343z" />
    <glyph glyph-name="five.aalt" horiz-adv-x="594" 
d="M302 -15q-57 0 -105.5 21.5t-83 60.5t-50.5 93l77 18q12 -37 36 -63.5t56 -40.5t70 -14q44 0 78 20t54 55t20 79t-19.5 78t-54 53.5t-79.5 19.5q-23 0 -47.5 -7t-46 -19.5t-36.5 -28.5l-67 9v371h384v-77h-307v-221q51 48 134 48q48 0 88.5 -17t71 -47.5t47 -72
t16.5 -89.5q0 -49 -18 -90.5t-50.5 -72.5t-75 -48.5t-92.5 -17.5z" />
    <glyph glyph-name="six.aalt" horiz-adv-x="594" 
d="M306 -15q-57 0 -104 23.5t-81 67t-52.5 105t-18.5 138.5q0 84 22 154.5t62 122.5t96 80.5t124 28.5q43 0 82 -12t73 -36l-31 -66q-26 19 -57 29t-64 10q-51 0 -92.5 -22.5t-72 -63.5t-46.5 -97.5t-16 -125.5q22 57 71 89.5t116 32.5q49 0 91 -17t73.5 -48t48.5 -71.5
t17 -88.5q0 -49 -18 -91t-51 -74t-77 -50t-95 -18zM309 60q32 0 60 12t49 33.5t33 50.5t12 62q0 44 -20 78t-54.5 53.5t-78.5 19.5q-45 0 -80.5 -19.5t-56 -53.5t-20.5 -76q0 -33 12 -62t33 -51t49.5 -34.5t61.5 -12.5z" />
    <glyph glyph-name="seven.aalt" horiz-adv-x="594" 
d="M167 0l268 613h-371v77h460v-67l-267 -623h-90z" />
    <glyph glyph-name="eight.aalt" horiz-adv-x="594" 
d="M296 -15q-54 0 -98.5 14.5t-77 41.5t-50.5 64t-18 81q0 63 34 109t95 67q-51 22 -78.5 62.5t-27.5 93.5q0 40 17 74t47.5 59.5t71 39.5t87.5 14t87 -14t70 -39.5t46.5 -59.5t16.5 -73q0 -52 -27 -92.5t-78 -63.5q61 -21 94.5 -66t33.5 -108q0 -44 -18 -81.5t-51 -65
t-77.5 -42.5t-98.5 -15zM297 397q41 0 72 15.5t48.5 41.5t17.5 59t-17.5 59.5t-48.5 42t-72 15.5t-72 -15.5t-49 -42t-18 -59.5t18 -59t49 -41.5t72 -15.5zM297 60q49 0 84.5 16.5t55.5 46t20 68.5t-20 68.5t-55.5 46t-84.5 16.5q-48 0 -84.5 -16.5t-56.5 -46t-20 -68.5
t20 -68.5t56.5 -46t84.5 -16.5z" />
    <glyph glyph-name="nine.aalt" horiz-adv-x="594" 
d="M244 -15q-90 0 -158 48l31 66q53 -39 124 -39t122 36.5t77.5 104t26.5 160.5v10q-22 -56 -71 -87.5t-115 -31.5q-50 0 -92 17t-73.5 47t-48.5 70.5t-17 87.5q0 48 18 90t51 73.5t77 49.5t95 18q57 0 104 -24t81 -69t52.5 -108.5t18.5 -142.5q0 -83 -21 -152t-60 -119
t-95.5 -77.5t-126.5 -27.5zM288 326q44 0 79.5 19.5t56 53t20.5 75.5q0 32 -12 60.5t-33 50t-49.5 33.5t-61.5 12q-32 0 -60 -12t-49 -33t-33 -49t-12 -61q0 -43 20 -76.5t54.5 -53t79.5 -19.5z" />
    <glyph glyph-name="uni2080" unicode="&#x2080;" horiz-adv-x="354" 
d="M176 -9q-45 0 -77.5 24t-50 68.5t-17.5 106.5t18 106.5t50.5 68.5t78.5 24q45 0 77.5 -23.5t50 -68t17.5 -106.5t-18 -107t-50.5 -69t-78.5 -24zM177 50q38 0 59 36t21 104t-21 104t-59 36t-59 -36t-21 -104t21 -104t59 -36z" />
    <glyph glyph-name="uni2081" unicode="&#x2081;" horiz-adv-x="354" 
d="M176 0v311l-90 -48l-22 53l121 64h57v-380h-66z" />
    <glyph glyph-name="uni2082" unicode="&#x2082;" horiz-adv-x="354" 
d="M47 0v49q23 19 46.5 38.5t43 37t31.5 29.5q38 37 54.5 63.5t16.5 49.5q0 29 -17.5 47t-45.5 18q-25 0 -44.5 -15.5t-26.5 -43.5l-60 12q7 31 26 54.5t47 36.5t62 13q36 0 64 -15.5t44.5 -41.5t16.5 -60q0 -35 -20.5 -70.5t-68.5 -79.5q-15 -15 -33 -30t-40 -33h169v-59
h-265z" />
    <glyph glyph-name="uni2083" unicode="&#x2083;" horiz-adv-x="354" 
d="M173 -9q-53 0 -90 27t-50 72l61 12q8 -26 28.5 -40t49.5 -14q32 0 52.5 17t20.5 44t-19.5 43t-52.5 16h-43v57h39q31 0 49 15t18 40q0 23 -17.5 37.5t-45.5 14.5q-26 0 -45 -13.5t-26 -37.5l-61 12q7 29 26 50.5t47 33.5t62 12q36 0 64.5 -13.5t45 -36.5t16.5 -54
q0 -29 -14.5 -51t-42.5 -35q31 -11 48.5 -35.5t17.5 -57.5t-18 -59t-49.5 -41t-70.5 -15z" />
    <glyph glyph-name="uni2084" unicode="&#x2084;" horiz-adv-x="354" 
d="M207 0v83h-181v50l173 247h72v-244h45v-53h-45v-83h-64zM90 136h117v167z" />
    <glyph glyph-name="fraction" unicode="&#x2044;" horiz-adv-x="94" 
d="M-205 0l435 690h69l-435 -690h-69z" />
    <glyph glyph-name="percent" unicode="%" horiz-adv-x="725" 
d="M189 389q-43 0 -77 20t-54 55t-20 80q0 44 20 79.5t54.5 55.5t78.5 20q43 0 77 -20t54 -55t20 -80q0 -44 -20 -79.5t-54.5 -55.5t-78.5 -20zM184 0h-74l431 690h74zM108 544q0 -28 10.5 -48.5t29 -32.5t42.5 -12t42.5 12t29 32.5t10.5 48.5t-10.5 48.5t-29 32.5t-42.5 12
t-42.5 -12t-29 -32.5t-10.5 -48.5zM534 -9q-43 0 -77 20t-54 55t-20 80q0 44 20 79.5t54.5 55.5t78.5 20q43 0 77 -20t54 -55t20 -80q0 -44 -20 -79.5t-54.5 -55.5t-78.5 -20zM535 53q24 0 42.5 12t29 32.5t10.5 48.5t-10.5 48.5t-29 32.5t-42.5 12t-42.5 -12t-29 -32.5
t-10.5 -48.5t10.5 -48.5t29 -32.5t42.5 -12z" />
    <glyph glyph-name="perthousand" unicode="&#x2030;" horiz-adv-x="1081" 
d="M189 389q-43 0 -77 20t-54 55t-20 80q0 44 20 79.5t54.5 55.5t78.5 20q43 0 77 -20t54 -55t20 -80q0 -44 -20 -79.5t-54.5 -55.5t-78.5 -20zM184 0h-74l431 690h74zM108 544q0 -28 10.5 -48.5t29 -32.5t42.5 -12t42.5 12t29 32.5t10.5 48.5t-10.5 48.5t-29 32.5t-42.5 12
t-42.5 -12t-29 -32.5t-10.5 -48.5zM534 -9q-43 0 -77 20t-54 55t-20 80q0 44 20 79.5t54.5 55.5t78.5 20q43 0 77 -20t54 -55t20 -80q0 -44 -20 -79.5t-54.5 -55.5t-78.5 -20zM890 -9q-43 0 -77 20t-54 55t-20 80q0 44 20 79.5t54.5 55.5t78.5 20q43 0 77 -20t54 -55t20 -80
q0 -44 -20 -79.5t-54.5 -55.5t-78.5 -20zM535 53q24 0 42.5 12t29 32.5t10.5 48.5t-10.5 48.5t-29 32.5t-42.5 12t-42.5 -12t-29 -32.5t-10.5 -48.5t10.5 -48.5t29 -32.5t42.5 -12zM891 53q24 0 42.5 12t29 32.5t10.5 48.5t-10.5 48.5t-29 32.5t-42.5 12t-42.5 -12
t-29 -32.5t-10.5 -48.5t10.5 -48.5t29 -32.5t42.5 -12z" />
    <glyph glyph-name="onehalf" unicode="&#xbd;" horiz-adv-x="802" 
d="M141 0l435 690h69l-435 -690h-69zM495 0v49q23 19 46.5 38.5t43 37t31.5 29.5q38 37 54.5 63.5t16.5 49.5q0 29 -17.5 47t-45.5 18q-25 0 -44.5 -15.5t-26.5 -43.5l-60 12q7 31 26 54.5t47 36.5t62 13q36 0 64 -15.5t44.5 -41.5t16.5 -60q0 -35 -20.5 -70.5t-68.5 -79.5
q-15 -15 -33 -30t-40 -33h169v-59h-265zM176 310v311l-90 -48l-22 53l121 64h57v-380h-66z" />
    <glyph glyph-name="onequarter" unicode="&#xbc;" horiz-adv-x="802" 
d="M160 0l435 690h69l-435 -690h-69zM655 0v83h-181v50l173 247h72v-244h45v-53h-45v-83h-64zM538 136h117v167zM176 310v311l-90 -48l-22 53l121 64h57v-380h-66z" />
    <glyph glyph-name="threequarters" unicode="&#xbe;" horiz-adv-x="802" 
d="M163 0l435 690h69l-435 -690h-69zM655 0v83h-181v50l173 247h72v-244h45v-53h-45v-83h-64zM538 136h117v167zM173 301q-53 0 -90 27t-50 72l61 12q8 -26 28.5 -40t49.5 -14q32 0 52.5 17t20.5 44t-19.5 43t-52.5 16h-43v57h39q31 0 49 15t18 40q0 23 -17.5 37.5
t-45.5 14.5q-26 0 -45 -13.5t-26 -37.5l-61 12q7 29 26 50.5t47 33.5t62 12q36 0 64.5 -13.5t45 -36.5t16.5 -54q0 -29 -14.5 -51t-42.5 -35q31 -11 48.5 -35.5t17.5 -57.5t-18 -59t-49.5 -41t-70.5 -15z" />
    <glyph glyph-name="dollar" unicode="$" horiz-adv-x="594" 
d="M273 -140v132q-76 8 -132 53t-81 120l74 18q40 -106 139 -121v263h-2q-97 18 -145.5 66t-48.5 119q0 52 24.5 93t69 66.5t102.5 29.5v121h58v-122q73 -9 124 -52.5t71 -115.5l-73 -18q-19 51 -48.5 79.5t-73.5 35.5v-236l17 -3q58 -10 99.5 -36t64 -65.5t22.5 -91.5
q0 -56 -26 -100t-71.5 -71.5t-105.5 -32.5v-131h-58zM155 514q0 -43 29 -70t89 -41v226q-55 -6 -86.5 -37t-31.5 -78zM457 191q0 47 -32 78t-94 45v-252q38 4 66.5 21.5t44 45t15.5 62.5z" />
    <glyph glyph-name="cent" unicode="&#xa2;" horiz-adv-x="594" 
d="M283 -139v130q-47 6 -86.5 28t-68.5 57.5t-45 81.5t-16 100t16 100.5t45 83.5t68.5 60.5t86.5 29.5v119h58v-117q44 -4 80.5 -22.5t63 -48t40.5 -66.5l-73 -25q-19 37 -47 60t-64 30v-400q38 6 69 29t48 60l73 -25q-15 -38 -43 -67t-66 -46.5t-81 -22.5v-129h-58z
M149 259q0 -51 17 -92t47 -68.5t70 -35.5v397q-39 -9 -69.5 -37t-47.5 -70t-17 -94z" />
    <glyph glyph-name="sterling" unicode="&#xa3;" horiz-adv-x="594" 
d="M36 0v77h65l19 222h-85v68h90l10 118q5 68 32 117.5t72 76t104 26.5q79 0 132 -45t72 -126l-78 -19q-13 56 -46 85.5t-81 29.5q-54 0 -87 -38t-38 -107l-10 -118h202v-68h-207l-19 -222h365v-77h-512z" />
    <glyph glyph-name="yen" unicode="&#xa5;" horiz-adv-x="594" 
d="M106 128v59h150v97h-150v59h121l-195 347h93l173 -331l174 331h90l-195 -347h121v-59h-150v-97h150v-59h-150v-128h-82v128h-150z" />
    <glyph glyph-name="Euro" unicode="&#x20ac;" horiz-adv-x="594" 
d="M-4 231l14 59h67q-2 24 -2 50q0 28 2 54h-81l14 59h75q14 79 48 135.5t85 86.5t117 30q54 0 99 -21.5t77.5 -61.5t47.5 -95l-75 -18q-18 58 -57 89.5t-92 31.5q-66 0 -109.5 -46t-60.5 -131h243l-13 -59h-238q-2 -25 -2 -52t2 -52h218l-14 -59h-196q17 -83 60 -127
t109 -44q56 0 96.5 32.5t57.5 89.5l75 -19q-15 -55 -48 -94.5t-80 -61.5t-103 -22q-66 0 -116.5 29t-84 84t-47.5 133h-88z" />
    <glyph glyph-name="uni20BA" unicode="&#x20ba;" horiz-adv-x="594" 
d="M129 0v205l-74 -35v65l74 35v98l-73 -35v65l73 35v257h82v-218l164 78v-65l-164 -78v-98l164 78v-65l-164 -78v-167h19q98 0 157.5 55.5t76.5 162.5l78 -8q-22 -141 -102.5 -214t-214.5 -73h-96z" />
    <glyph glyph-name="uni20B9" unicode="&#x20b9;" horiz-adv-x="594" 
d="M76 285v61q14 -4 34 -6.5t44 -4t46 -1.5q78 0 123.5 29t54.5 83h-302v69h301q-11 50 -50.5 78t-102.5 28h-148v69h462l-16 -69h-121q49 -40 60 -106h77l-16 -69h-59q-6 -54 -37 -94t-81 -62t-114 -22h-13l320 -268h-125z" />
    <glyph glyph-name="colonmonetary" unicode="&#x20a1;" horiz-adv-x="594" 
d="M131 -140l31 183q-51 43 -79 118.5t-28 177.5q0 100 26 176t74.5 122.5t115.5 58.5l20 119h53l-19 -115q38 -1 72 -13l21 128h53l-26 -152q34 -23 58.5 -57t37.5 -79l-78 -18q-12 37 -33 64l-85 -508q44 8 76 38t47 78l78 -18q-15 -50 -45.5 -87.5t-73 -59.5t-94.5 -25
l-22 -131h-53l22 132q-38 5 -71 20l-25 -152h-53zM315 628h-2l-90 -537q30 -23 69 -28l92 549q-31 16 -69 16zM137 342q0 -128 41 -200l80 476q-59 -23 -90 -94t-31 -182z" />
    <glyph glyph-name="uni20AA" unicode="&#x20aa;" horiz-adv-x="902" 
d="M94 0v690h280q67 0 116.5 -27.5t77 -78t27.5 -117.5v-269h-75v267q0 67 -40 105t-110 38h-201v-608h-75zM307 0v491h75v-409h201q71 0 110.5 38t39.5 105v465h75v-467q0 -67 -27.5 -117.5t-77 -78t-116.5 -27.5h-280z" />
    <glyph glyph-name="uni20A9" unicode="&#x20a9;" horiz-adv-x="929" 
d="M241 0l-63 239h-140v55h125l-26 102h-99v57h84l-63 237h84l57 -237h169l58 237h78l58 -237h169l57 237h81l-63 -237h84v-57h-99l-26 -102h125v-55h-140l-63 -239h-82l-58 239h-167l-58 -239h-82zM433 453h63l-32 128zM602 294h92l25 102h-142zM238 294h93l24 102h-141z
M395 294h139l-24 102h-91zM615 239l34 -137l32 137h-66zM251 239l33 -137l33 137h-66z" />
    <glyph glyph-name="uni20AD" unicode="&#x20ad;" horiz-adv-x="594" 
d="M101 0v329h-74v68h74v293h80v-311l267 311h97l-263 -293h217v-68h-215l297 -329h-107l-293 339v-339h-80z" />
    <glyph glyph-name="uni20A8" unicode="&#x20a8;" horiz-adv-x="1017" 
d="M77 0v690h181q76 0 132 -25t86 -72t30 -111t-34 -114t-96 -76l165 -292h-92l-146 272q-15 -1 -30.5 -2.5t-27.5 -1.5q-18 0 -41 2t-47 5v-275h-80zM157 616v-267q21 -3 45 -5t46 -2q85 0 130.5 35.5t45.5 101.5q0 64 -43.5 100.5t-121.5 36.5h-102zM773 -15q-45 0 -84 15
t-68.5 43t-44.5 66l70 26q20 -38 52.5 -59t73.5 -21q33 0 58.5 11t39.5 30.5t14 43.5q0 65 -94 84l-39 8q-82 16 -121 52.5t-39 92.5q0 45 23 80t64.5 54.5t94.5 19.5q44 0 81 -14.5t63.5 -42.5t40.5 -66l-70 -24q-16 37 -46 57.5t-69 20.5q-30 0 -53 -10t-36 -27t-13 -40
q0 -32 24.5 -51t79.5 -30l39 -8q74 -15 113 -52.5t39 -95.5q0 -36 -14.5 -65.5t-40 -51.5t-61 -34t-77.5 -12z" />
    <glyph glyph-name="uni20B1" unicode="&#x20b1;" horiz-adv-x="594" 
d="M96 0v363h-76v55h76v78h-75v55h75v139h172q85 0 144 -37t84 -102h78v-55h-64q3 -20 3 -41q0 -19 -2 -37h63v-55h-78q-17 -44 -50.5 -76t-81 -49.5t-106.5 -17.5q-18 0 -39 2t-44 5v-227h-79zM175 620v-69h234q-21 33 -57.5 51t-84.5 18h-92zM435 455q0 22 -4 41h-256v-78
h257q3 18 3 37zM253 290q55 0 95 19t63 54h-236v-66q42 -7 78 -7z" />
    <glyph glyph-name="uni0E3F" unicode="&#xe3f;" horiz-adv-x="594" 
d="M84 0v690h180v125h58v-126q60 -3 103.5 -25t67 -60.5t23.5 -89.5q0 -50 -23 -88.5t-67 -58.5q57 -20 88.5 -65t31.5 -109q0 -56 -27.5 -98.5t-78 -67t-118.5 -27.5v-140h-58v140h-180zM163 620v-225h101v225h-101zM433 507q0 49 -29.5 78.5t-81.5 33.5v-223q53 4 82 33
t29 78zM163 70h101v257h-101v-257zM463 198q0 59 -37.5 92.5t-103.5 36.5v-257q65 3 103 37t38 91z" />
    <glyph glyph-name="dong" unicode="&#x20ab;" horiz-adv-x="594" 
d="M257 -15q-48 0 -89.5 19.5t-72 54t-47.5 81t-17 101.5t17.5 101.5t48.5 81.5t73 54.5t91 19.5q53 0 96 -24t69 -66v143h-138v60h138v79h82v-79h71v-60h-71v-551h-75l-3 83q-27 -46 -71.5 -72t-101.5 -26zM271 57q46 0 81.5 23.5t55.5 65.5t20 95t-20 95t-55.5 65.5
t-81.5 23.5t-81.5 -23.5t-55.5 -65.5t-20 -95t20 -95t55.5 -65.5t81.5 -23.5zM33 -142v61h504v-61h-504z" />
    <glyph glyph-name="currency" unicode="&#xa4;" horiz-adv-x="594" 
d="M59 166l77 80q-17 25 -26 54.5t-9 62.5t9 62.5t26 54.5l-77 80l48 48l76 -79q24 17 53 26.5t61 9.5t61 -9.5t53 -26.5l76 79l48 -48l-77 -80q17 -25 26 -54.5t9 -62.5t-9 -62.5t-26 -54.5l77 -80l-48 -48l-76 79q-24 -17 -53 -26.5t-61 -9.5t-61 9.5t-53 26.5l-76 -79z
M297 228q35 0 63 17.5t43.5 48t15.5 69.5t-15.5 69.5t-43.5 48t-63 17.5t-63 -17.5t-43.5 -48t-15.5 -69.5t15.5 -69.5t43.5 -48t63 -17.5z" />
    <glyph glyph-name="asciicircum" unicode="^" horiz-adv-x="594" 
d="M90 350l172 340h70l172 -340h-81l-127 256l-128 -256h-78z" />
    <glyph glyph-name="plus" unicode="+" horiz-adv-x="594" 
d="M90 242v67h171v174h71v-174h172v-67h-172v-180h-71v180h-171z" />
    <glyph glyph-name="minus" unicode="&#x2212;" horiz-adv-x="594" 
d="M99 240v71h396v-71h-396z" />
    <glyph glyph-name="plusminus" unicode="&#xb1;" horiz-adv-x="594" 
d="M261 136v169h-170v67h170v164h71v-164h171v-67h-171v-169h-71zM101 0v71h392v-71h-392z" />
    <glyph glyph-name="equal" unicode="=" horiz-adv-x="594" 
d="M94 353v71h406v-71h-406zM94 126v71h406v-71h-406z" />
    <glyph glyph-name="divide" unicode="&#xf7;" horiz-adv-x="594" 
d="M297 379q-21 0 -36 15t-15 36t15 36t36 15t36 -15t15 -36t-15 -36t-36 -15zM98 240v71h398v-71h-398zM297 70q-21 0 -36 15t-15 36t15 36t36 15t36 -15t15 -36t-15 -36t-36 -15z" />
    <glyph glyph-name="less" unicode="&#x3c;" horiz-adv-x="594" 
d="M462 472v-74l-278 -122l278 -121v-77l-358 164v66z" />
    <glyph glyph-name="greater" unicode="&#x3e;" horiz-adv-x="594" 
d="M132 78v74l278 122l-278 121v77l358 -164v-66z" />
    <glyph glyph-name="asciitilde" unicode="~" horiz-adv-x="594" 
d="M386 196q-25 0 -45 8.5t-37 21t-32 24.5t-30 20.5t-31 8.5q-23 0 -39 -20t-24 -56h-72q12 73 47 112.5t85 39.5q25 0 45 -8.5t37 -20.5t32 -24.5t30 -21t31 -8.5q23 0 39 20t24 56h72q-12 -73 -47 -112.5t-85 -39.5z" />
    <glyph glyph-name="logicalnot" unicode="&#xac;" horiz-adv-x="594" 
d="M85 283v67h404v-246h-71v179h-333z" />
    <glyph glyph-name="multiply" unicode="&#xd7;" horiz-adv-x="594" 
d="M150 84l-46 46l147 147l-140 140l46 46l140 -140l140 140l46 -46l-140 -140l147 -147l-46 -46l-147 147z" />
    <glyph glyph-name="underscore" unicode="_" horiz-adv-x="546" 
d="M30 -132v63h486v-63h-486z" />
    <glyph glyph-name="section" unicode="&#xa7;" horiz-adv-x="494" 
d="M243 -95q-47 0 -87.5 15t-71 43.5t-47.5 68.5l69 26q46 -85 140 -85q35 0 61.5 11t41.5 30.5t15 45.5q0 33 -27.5 58t-79.5 33l-48 8q-51 9 -88 30t-56.5 52t-19.5 71q0 48 25.5 84.5t70.5 54.5q-83 41 -83 121q0 45 24 79.5t67 54t99 19.5q68 0 120 -33t75 -94l-70 -24
q-19 40 -52 61.5t-76 21.5q-32 0 -56.5 -10t-38 -27.5t-13.5 -41.5q0 -32 27 -54.5t83 -31.5l48 -8q79 -14 120.5 -53.5t41.5 -99.5q0 -49 -27 -86t-73 -54q87 -41 87 -125q0 -35 -15 -64.5t-42 -51t-63.5 -33.5t-80.5 -12zM378 317q0 37 -25.5 61.5t-78.5 34.5l-28 5
q-14 3 -26 3q-27 0 -49 -12.5t-35 -34.5t-13 -49q0 -37 25.5 -61.5t78.5 -34.5l28 -5q13 -3 26 -3q27 0 49 12.5t35 34.5t13 49z" />
    <glyph glyph-name="paragraph" unicode="&#xb6;" horiz-adv-x="582" 
d="M286 -94v359q-74 5 -127.5 33.5t-82.5 76.5t-29 112q0 69 31.5 119t89.5 77t139 27h44v-804h-65zM432 -92v802h65v-802h-65z" />
    <glyph glyph-name="numbersign" unicode="#" horiz-adv-x="657" 
d="M147 0l16 194h-110l5 58h109l16 192h-107l5 58h107l15 188h66l-15 -188h176l15 188h66l-15 -188h108l-5 -58h-108l-16 -192h106l-5 -58h-105l-16 -194h-66l16 194h-176l-16 -194h-66zM233 252h176l16 192h-176z" />
    <glyph glyph-name="bar" unicode="|" horiz-adv-x="247" 
d="M88 -105v858h71v-858h-71z" />
    <glyph glyph-name="dagger" unicode="&#x2020;" horiz-adv-x="459" 
d="M193 -82v543h-163v65h163v184h73v-184h163v-65h-163v-543h-73z" />
    <glyph glyph-name="daggerdbl" unicode="&#x2021;" horiz-adv-x="514" 
d="M58 107v65h163v289h-163v65h163v184h73v-184h163v-65h-163v-289h163v-65h-163v-189h-73v189h-163z" />
    <glyph glyph-name="ampersand" unicode="&#x26;" horiz-adv-x="686" 
d="M272 -20q-50 0 -92 15t-73 42t-48 63.5t-17 80.5q0 41 17 79t49 69.5t75 52.5q-45 47 -66.5 89t-21.5 85q0 36 13.5 67t37.5 53.5t56 35.5t70 13q50 0 89 -20.5t61.5 -56.5t22.5 -82q0 -57 -35 -105t-108 -90l189 -186q23 40 37.5 90t19.5 109l76 -7q-8 -73 -28.5 -134.5
t-51.5 -109.5l135 -133h-108l-74 73q-44 -45 -101 -69t-124 -24zM247 426l6 -5q114 57 114 142q0 26 -12 46.5t-33.5 32.5t-48.5 12q-28 0 -50 -13.5t-35 -36t-13 -50.5q0 -29 17 -59.5t55 -68.5zM126 186q0 -38 19.5 -68t54 -46.5t79.5 -16.5q48 0 90 18t76 51l-213 211
q-52 -27 -79 -65t-27 -84z" />
    <glyph glyph-name="asterisk" unicode="*" horiz-adv-x="394" 
d="M113 354l-54 40l93 118l-139 39l20 64l137 -51l-7 146h68l-7 -146l137 51l20 -64l-139 -39l93 -118l-54 -40l-84 127z" />
    <glyph glyph-name="hyphen" unicode="-" horiz-adv-x="373" 
d="M49 239v73h275v-73h-275z" />
    <glyph glyph-name="endash" unicode="&#x2013;" horiz-adv-x="500" 
d="M0 243v65h500v-65h-500z" />
    <glyph glyph-name="emdash" unicode="&#x2014;" horiz-adv-x="1000" 
d="M0 243v65h1000v-65h-1000z" />
    <glyph glyph-name="parenleft" unicode="(" horiz-adv-x="323" 
d="M305 -135h-84q-85 97 -128.5 213.5t-43.5 245.5t43.5 245.5t128.5 213.5h84q-89 -99 -135 -216t-46 -243t46 -243t135 -216z" />
    <glyph glyph-name="parenright" unicode=")" horiz-adv-x="323" 
d="M18 783h84q85 -97 128.5 -213.5t43.5 -245.5t-43.5 -245.5t-128.5 -213.5h-84q89 99 135 216t46 243t-46 243t-135 216z" />
    <glyph glyph-name="slash" unicode="/" horiz-adv-x="425" 
d="M13 -105l324 858h75l-324 -858h-75z" />
    <glyph glyph-name="backslash" unicode="\" horiz-adv-x="425" 
d="M337 -105l-324 858h75l324 -858h-75z" />
    <glyph glyph-name="bracketleft" unicode="[" horiz-adv-x="340" 
d="M88 -135v918h212v-62h-141v-794h141v-62h-212z" />
    <glyph glyph-name="bracketright" unicode="]" horiz-adv-x="340" 
d="M40 -135v62h141v794h-141v62h212v-918h-212z" />
    <glyph glyph-name="braceleft" unicode="{" horiz-adv-x="346" 
d="M306 783v-62h-32q-44 0 -69 -24.5t-25 -73.5q0 -29 4 -60.5t7.5 -62.5t3.5 -57q0 -31 -9 -55.5t-23.5 -41t-32.5 -22.5q18 -6 32.5 -22.5t23.5 -41t9 -55.5q0 -26 -3.5 -57t-7.5 -62.5t-4 -60.5q0 -49 25 -73.5t69 -24.5h32v-62h-33q-56 0 -93 19.5t-55 53.5t-18 79
q0 34 3.5 69.5t7.5 67.5t4 57q0 37 -20 60t-57 23h-15v60h15q37 0 57 23t20 60q0 24 -4 56.5t-7.5 68t-3.5 69.5q0 45 18 79t55 53.5t93 19.5h33z" />
    <glyph glyph-name="braceright" unicode="}" horiz-adv-x="346" 
d="M40 -135v62h32q44 0 69 24.5t25 73.5q0 29 -4 60.5t-7.5 62.5t-3.5 57q0 31 9 55.5t23.5 41t32.5 22.5q-18 6 -32.5 22.5t-23.5 41t-9 55.5q0 26 3.5 57t7.5 62.5t4 60.5q0 49 -25 73.5t-69 24.5h-32v62h33q56 0 93 -19.5t55 -53.5t18 -79q0 -34 -3.5 -69.5t-7.5 -67.5
t-4 -57q0 -37 20 -60t57 -23h15v-60h-15q-37 0 -57 -23t-20 -60q0 -24 4 -56.5t7.5 -68t3.5 -69.5q0 -45 -18 -79t-55 -53.5t-93 -19.5h-33z" />
    <glyph glyph-name="bullet" unicode="&#x2022;" horiz-adv-x="248" 
d="M124 197q-22 0 -40 11t-29 29t-11 39q0 22 11 39.5t29 28.5t40 11t40 -11t29 -28.5t11 -39.5q0 -21 -11 -39t-29 -29t-40 -11z" />
    <glyph glyph-name="guilsinglleft" unicode="&#x2039;" horiz-adv-x="275" 
d="M159 97l-139 188l139 188h81l-136 -188l136 -188h-81z" />
    <glyph glyph-name="guilsinglright" unicode="&#x203a;" horiz-adv-x="275" 
d="M35 97l136 188l-136 188h81l139 -188l-139 -188h-81z" />
    <glyph glyph-name="guillemotleft" unicode="&#xab;" horiz-adv-x="470" 
d="M159 97l-139 188l139 188h81l-136 -188l136 -188h-81zM354 97l-139 188l139 188h81l-136 -188l136 -188h-81z" />
    <glyph glyph-name="guillemotright" unicode="&#xbb;" horiz-adv-x="470" 
d="M35 97l136 188l-136 188h81l139 -188l-139 -188h-81zM230 97l136 188l-136 188h81l139 -188l-139 -188h-81z" />
    <glyph glyph-name="at" unicode="@" horiz-adv-x="1006" 
d="M486 26q-45 0 -83 17.5t-66.5 49.5t-44.5 74.5t-16 91.5t16 92t44.5 75.5t66 50.5t81.5 18q52 0 94 -25t65 -68l4 80h70v-303q0 -40 18 -63t46 -23q29 0 51 25t34.5 68t12.5 97q0 79 -26.5 144.5t-75 113t-114.5 73.5t-145 26q-67 0 -126.5 -19t-108 -54t-83 -82.5
t-53.5 -105.5t-19 -123q0 -64 18.5 -121.5t52.5 -105t81.5 -82t105.5 -53t124 -18.5q58 0 115 15t106 44l33 -60q-112 -67 -261 -67q-77 0 -145 22t-124 62.5t-97 96t-63 123.5t-22 144q0 77 22.5 145t64.5 124.5t100 97.5t128.5 63t150.5 22q75 0 141.5 -20t120.5 -57.5
t93 -90t60 -117t21 -139.5q0 -57 -12.5 -104.5t-35.5 -81.5t-55.5 -53t-72.5 -19q-47 0 -81.5 26.5t-46.5 76.5q-23 -49 -65.5 -76t-98.5 -27zM498 97q42 0 74.5 21t51 58t18.5 84q0 48 -18.5 85t-51 58t-74.5 21t-74.5 -21t-51 -58t-18.5 -85q0 -47 18.5 -84t51 -58
t74.5 -21z" />
    <glyph glyph-name="periodcentered" unicode="&#xb7;" horiz-adv-x="233" 
d="M116 216q-16 0 -29.5 8t-21.5 21.5t-8 30.5t8 30.5t21.5 21.5t29.5 8t29.5 -8t22 -21.5t8.5 -30.5t-8.5 -30.5t-22 -21.5t-29.5 -8z" />
    <glyph glyph-name="hyphen.aalt" horiz-adv-x="373" 
d="M49 331v73h275v-73h-275z" />
    <glyph glyph-name="endash.aalt" horiz-adv-x="500" 
d="M0 335v65h500v-65h-500z" />
    <glyph glyph-name="emdash.aalt" horiz-adv-x="1000" 
d="M0 335v65h1000v-65h-1000z" />
    <glyph glyph-name="parenleft.aalt" horiz-adv-x="323" 
d="M305 -104h-84q-85 97 -128.5 213.5t-43.5 245.5t43.5 245.5t128.5 213.5h84q-89 -99 -135 -216t-46 -243t46 -243t135 -216z" />
    <glyph glyph-name="parenright.aalt" horiz-adv-x="323" 
d="M18 814h84q85 -97 128.5 -213.5t43.5 -245.5t-43.5 -245.5t-128.5 -213.5h-84q89 99 135 216t46 243t-46 243t-135 216z" />
    <glyph glyph-name="slash.case" horiz-adv-x="425" 
d="M13 -74l324 858h75l-324 -858h-75z" />
    <glyph glyph-name="backslash.aalt" horiz-adv-x="425" 
d="M337 -74l-324 858h75l324 -858h-75z" />
    <glyph glyph-name="bracketleft.aalt" horiz-adv-x="340" 
d="M88 -104v918h212v-62h-141v-794h141v-62h-212z" />
    <glyph glyph-name="bracketright.aalt" horiz-adv-x="340" 
d="M40 -104v62h141v794h-141v62h212v-918h-212z" />
    <glyph glyph-name="braceleft.aalt" horiz-adv-x="346" 
d="M306 814v-62h-32q-44 0 -69 -24.5t-25 -73.5q0 -29 4 -60.5t7.5 -62.5t3.5 -57q0 -31 -9 -55.5t-23.5 -41t-32.5 -22.5q18 -6 32.5 -22.5t23.5 -41t9 -55.5q0 -26 -3.5 -57t-7.5 -62.5t-4 -60.5q0 -49 25 -73.5t69 -24.5h32v-62h-33q-56 0 -93 19.5t-55 53.5t-18 79
q0 34 3.5 69.5t7.5 67.5t4 57q0 37 -20 60t-57 23h-15v60h15q37 0 57 23t20 60q0 24 -4 56.5t-7.5 68t-3.5 69.5q0 45 18 79t55 53.5t93 19.5h33z" />
    <glyph glyph-name="braceright.aalt" horiz-adv-x="346" 
d="M40 -104v62h32q44 0 69 24.5t25 73.5q0 29 -4 60.5t-7.5 62.5t-3.5 57q0 31 9 55.5t23.5 41t32.5 22.5q-18 6 -32.5 22.5t-23.5 41t-9 55.5q0 26 3.5 57t7.5 62.5t4 60.5q0 49 -25 73.5t-69 24.5h-32v62h33q56 0 93 -19.5t55 -53.5t18 -79q0 -34 -3.5 -69.5t-7.5 -67.5
t-4 -57q0 -37 20 -60t57 -23h15v-60h-15q-37 0 -57 -23t-20 -60q0 -24 4 -56.5t7.5 -68t3.5 -69.5q0 -45 -18 -79t-55 -53.5t-93 -19.5h-33z" />
    <glyph glyph-name="bullet.aalt" horiz-adv-x="248" 
d="M124 286q-22 0 -40 11t-29 29t-11 39q0 22 11 39.5t29 28.5t40 11t40 -11t29 -28.5t11 -39.5q0 -21 -11 -39t-29 -29t-40 -11z" />
    <glyph glyph-name="guilsinglleft.aalt" horiz-adv-x="275" 
d="M159 167l-139 188l139 188h81l-136 -188l136 -188h-81z" />
    <glyph glyph-name="guilsinglright.aalt" horiz-adv-x="275" 
d="M35 167l136 188l-136 188h81l139 -188l-139 -188h-81z" />
    <glyph glyph-name="guillemotleft.aalt" horiz-adv-x="470" 
d="M159 167l-139 188l139 188h81l-136 -188l136 -188h-81zM354 167l-139 188l139 188h81l-136 -188l136 -188h-81z" />
    <glyph glyph-name="guillemotright.aalt" horiz-adv-x="470" 
d="M35 167l136 188l-136 188h81l139 -188l-139 -188h-81zM230 167l136 188l-136 188h81l139 -188l-139 -188h-81z" />
    <glyph glyph-name="at.aalt" horiz-adv-x="1006" 
d="M486 122q-45 0 -83 17.5t-66.5 49.5t-44.5 74.5t-16 91.5t16 92t44.5 75.5t66 50.5t81.5 18q52 0 94 -25t65 -68l4 80h70v-303q0 -40 18 -63t46 -23q29 0 51 25t34.5 68t12.5 97q0 79 -26.5 144.5t-75 113t-114.5 73.5t-145 26q-67 0 -126.5 -19t-108 -54t-83 -82.5
t-53.5 -105.5t-19 -123q0 -64 18.5 -121.5t52.5 -105t81.5 -82t105.5 -53t124 -18.5q58 0 115 15t106 44l33 -60q-112 -67 -261 -67q-77 0 -145 22t-124 62.5t-97 96t-63 123.5t-22 144q0 77 22.5 145t64.5 124.5t100 97.5t128.5 63t150.5 22q75 0 141.5 -20t120.5 -57.5
t93 -90t60 -117t21 -139.5q0 -57 -12.5 -104.5t-35.5 -81.5t-55.5 -53t-72.5 -19q-47 0 -81.5 26.5t-46.5 76.5q-23 -49 -65.5 -76t-98.5 -27zM498 193q42 0 74.5 21t51 58t18.5 84q0 48 -18.5 85t-51 58t-74.5 21t-74.5 -21t-51 -58t-18.5 -85q0 -47 18.5 -84t51 -58
t74.5 -21z" />
    <glyph glyph-name="periodcentered.case" horiz-adv-x="233" 
d="M116 280q-16 0 -29.5 8t-21.5 21.5t-8 30.5t8 30.5t21.5 21.5t29.5 8t29.5 -8t22 -21.5t8.5 -30.5t-8.5 -30.5t-22 -21.5t-29.5 -8z" />
    <glyph glyph-name="exclamdown.aalt" horiz-adv-x="232" 
d="M116 597q-16 0 -29 8t-21 21.5t-8 28.5t8 28.5t21 21.5t29 8t29 -8t21 -21.5t8 -28.5t-8 -28.5t-21 -21.5t-29 -8zM73 0l4 521h78l4 -521h-86z" />
    <glyph glyph-name="questiondown.aalt" horiz-adv-x="503" 
d="M267 597q-16 0 -29 8t-21 21.5t-8 28.5t8 28.5t21 21.5t29 8t29 -8t21 -21.5t8 -28.5t-8 -28.5t-21 -21.5t-29 -8zM260 -15q-48 0 -88.5 15.5t-70.5 43t-46.5 64.5t-16.5 80q0 52 23 96.5t66 77.5t101 51v108h78v-156q-88 -21 -135 -66t-47 -107q0 -38 17.5 -68.5
t48.5 -47.5t71 -17q35 0 65 13.5t51.5 39.5t31.5 61l74 -21q-13 -50 -44.5 -88t-77.5 -58.5t-101 -20.5z" />
    <glyph glyph-name="A" unicode="A" horiz-adv-x="707" 
d="M23 0l286 710h89l286 -710h-90l-79 202h-326l-79 -202h-87zM219 279h265l-132 338z" />
    <glyph glyph-name="B" unicode="B" horiz-adv-x="602" 
d="M78 0v710h227q67 0 116 -22t75.5 -63t26.5 -96q0 -52 -25 -91t-71 -61q60 -20 93 -67t33 -111q0 -61 -30 -105.5t-84.5 -69t-128.5 -24.5h-232zM162 635v-227h139q66 0 101 29t35 84t-36 84.5t-100 29.5h-139zM162 75h146q75 0 117 34t42 95q0 62 -41.5 96.5t-117.5 34.5
h-146v-260z" />
    <glyph glyph-name="C" unicode="C" horiz-adv-x="722" 
d="M389 -20q-73 0 -134.5 27.5t-107 77t-70.5 117t-25 147.5q0 65 16.5 122.5t47 105t72 82t92.5 53t108 18.5q64 0 119.5 -22t98 -62t65.5 -96l-77 -29q-31 63 -84.5 97.5t-120.5 34.5q-54 0 -99.5 -23t-79.5 -64t-53 -96t-19 -120q0 -64 18.5 -117.5t52.5 -93t80.5 -61
t101.5 -21.5q69 0 122.5 34t87.5 98l77 -29q-24 -56 -67 -96.5t-100 -62t-122 -21.5z" />
    <glyph glyph-name="D" unicode="D" horiz-adv-x="741" 
d="M78 0v710h235q85 0 154.5 -25t119 -71.5t76 -111.5t26.5 -145q0 -81 -26.5 -146.5t-76 -112.5t-118.5 -72.5t-154 -25.5h-236zM162 77h149q67 0 121 19.5t92 56t58.5 87.5t20.5 115t-20.5 115t-59 87.5t-92 56t-120.5 19.5h-149v-556z" />
    <glyph glyph-name="E" unicode="E" horiz-adv-x="561" 
d="M78 0v710h409v-75h-325v-228h297v-76h-297v-255h335v-76h-419z" />
    <glyph glyph-name="F" unicode="F" horiz-adv-x="530" 
d="M78 0v710h400v-77h-316v-244h287v-77h-287v-312h-84z" />
    <glyph glyph-name="G" unicode="G" horiz-adv-x="781" 
d="M404 -20q-77 0 -141.5 27.5t-111.5 77.5t-73 118t-26 148q0 65 17 123t49 105t75.5 80.5t96.5 52t113 18.5q64 0 120 -21t98.5 -59.5t68.5 -91.5l-78 -32q-32 60 -85.5 93.5t-122.5 33.5q-57 0 -105.5 -22.5t-84.5 -63t-56 -95.5t-20 -120q0 -63 19.5 -117t55.5 -94
t85 -62t108 -22q51 0 93.5 17t74.5 48t50 74t19 96h-217v74h303v-57q0 -73 -24 -133t-67.5 -104t-103 -68t-130.5 -24z" />
    <glyph glyph-name="H" unicode="H" horiz-adv-x="718" 
d="M78 0v710h84v-302h394v302h84v-710h-84v331h-394v-331h-84z" />
    <glyph glyph-name="I" unicode="I" horiz-adv-x="240" 
d="M78 0v710h84v-710h-84z" />
    <glyph glyph-name="J" unicode="J" horiz-adv-x="525" 
d="M239 -15q-51 0 -94 19.5t-75 55.5t-49 87l80 24q45 -109 138 -109q41 0 71 19.5t46.5 56t16.5 85.5v487h84v-486q0 -72 -27 -126t-76.5 -83.5t-114.5 -29.5z" />
    <glyph glyph-name="K" unicode="K" horiz-adv-x="647" 
d="M78 0v710h84v-321l326 321h110l-344 -335l380 -375h-121l-351 349v-349h-84z" />
    <glyph glyph-name="L" unicode="L" horiz-adv-x="525" 
d="M78 0v710h84v-633h316v-77h-400z" />
    <glyph glyph-name="M" unicode="M" horiz-adv-x="832" 
d="M78 0v710h79l260 -476l261 476h76v-710h-82v554l-223 -406h-66l-223 406v-554h-82z" />
    <glyph glyph-name="N" unicode="N" horiz-adv-x="708" 
d="M78 0v710h74l396 -569v569h82v-710h-74l-396 569v-569h-82z" />
    <glyph glyph-name="O" unicode="O" horiz-adv-x="798" 
d="M52 354q0 65 17 122t48 104t74 80.5t96 51.5t114 18q75 0 138 -27.5t109.5 -78t72 -119t25.5 -150.5q0 -65 -17 -122t-48 -104t-74 -80.5t-96 -51.5t-114 -18q-75 0 -138 27.5t-109.5 78t-72 119t-25.5 150.5zM138 355q0 -65 19.5 -120t54.5 -95t82.5 -62t104.5 -22
t104.5 22t82.5 62t54.5 95t19.5 120t-19.5 119.5t-54.5 94.5t-82.5 62t-104.5 22t-104.5 -22t-82.5 -62t-54.5 -94.5t-19.5 -119.5z" />
    <glyph glyph-name="P" unicode="P" horiz-adv-x="571" 
d="M78 0v710h196q81 0 139.5 -27t89.5 -77t31 -120q0 -68 -33 -118t-94 -77t-144 -27q-22 0 -47.5 2t-53.5 6v-272h-84zM162 635v-288q24 -4 50.5 -6t48.5 -2q89 0 138 38.5t49 109.5q0 46 -21 79t-60 51t-94 18h-111z" />
    <glyph glyph-name="Q" unicode="Q" horiz-adv-x="798" 
d="M52 354q0 65 17 122t48 104t74 80.5t96 51.5t114 18q75 0 138 -27.5t109.5 -78t72 -119t25.5 -150.5q0 -86 -29.5 -158.5t-81.5 -123.5l90 -111l-59 -48l-91 113q-39 -23 -83.5 -35.5t-94.5 -12.5q-75 0 -138 27.5t-109.5 78t-72 119t-25.5 150.5zM138 355
q0 -65 19.5 -120t54.5 -95t82.5 -62t104.5 -22q35 0 66.5 8.5t59.5 24.5l-132 162l59 48l131 -162q36 40 56.5 96t20.5 122q0 65 -19.5 119.5t-54.5 94.5t-82.5 62t-104.5 22t-104.5 -22t-82.5 -62t-54.5 -94.5t-19.5 -119.5z" />
    <glyph glyph-name="R" unicode="R" horiz-adv-x="600" 
d="M78 0v710h193q81 0 140.5 -26t91.5 -74t32 -113q0 -67 -36.5 -118t-101.5 -77l172 -302h-98l-154 280q-13 -1 -28.5 -2t-31.5 -1q-20 0 -44.5 2t-50.5 6v-285h-84zM162 635v-275q23 -4 49.5 -6t48.5 -2q91 0 140 37t49 104t-47 104.5t-131 37.5h-109z" />
    <glyph glyph-name="S" unicode="S" horiz-adv-x="551" 
d="M274 -15q-56 0 -104 19.5t-83 55.5t-51 85l79 25q20 -52 61.5 -81t96.5 -29q43 0 77.5 17.5t54 48t19.5 68.5q0 49 -33.5 80.5t-96.5 45.5l-44 10q-98 22 -147 72t-49 123q0 44 16.5 80.5t46.5 63.5t69.5 41.5t85.5 14.5q54 0 99.5 -19.5t78.5 -55.5t48 -84l-79 -25
q-20 53 -58 81t-89 28q-39 0 -69 -15.5t-47 -42t-17 -61.5q0 -46 33 -75.5t105 -46.5l44 -10q95 -22 141.5 -74t46.5 -126q0 -47 -17.5 -86.5t-49 -68t-74.5 -44t-94 -15.5z" />
    <glyph glyph-name="T" unicode="T" horiz-adv-x="614" 
d="M265 0v633h-217v77h518v-77h-217v-633h-84z" />
    <glyph glyph-name="U" unicode="U" horiz-adv-x="698" 
d="M348 -20q-64 0 -115.5 20.5t-88.5 59.5t-56.5 93.5t-19.5 121.5v435h84v-432q0 -68 24 -117.5t68 -76.5t105 -27t105 27t68 76.5t24 117.5v432h84v-435q0 -67 -20 -121t-57 -93t-89 -60t-116 -21z" />
    <glyph glyph-name="V" unicode="V" horiz-adv-x="683" 
d="M297 0l-274 710h92l229 -612l228 612h88l-274 -710h-89z" />
    <glyph glyph-name="W" unicode="W" horiz-adv-x="1008" 
d="M974 710l-213 -710h-86l-171 604l-170 -604h-87l-213 710h91l167 -602l170 602h86l172 -602l167 602h87z" />
    <glyph glyph-name="X" unicode="X" horiz-adv-x="640" 
d="M14 0l259 375l-231 335h99l181 -273l180 273h96l-231 -335l259 -375h-104l-204 308l-204 -308h-100z" />
    <glyph glyph-name="Y" unicode="Y" horiz-adv-x="620" 
d="M268 0v286l-250 424h96l197 -348l197 348h94l-250 -424v-286h-84z" />
    <glyph glyph-name="Z" unicode="Z" horiz-adv-x="616" 
d="M47 0v64l393 570h-378v76h485v-64l-393 -570h415v-76h-522z" />
    <glyph glyph-name="a" unicode="a" horiz-adv-x="540" 
d="M230 -15q-54 0 -96 20.5t-65.5 56.5t-23.5 83q0 51 26.5 88t74.5 57.5t112 20.5q36 0 73 -8t66 -21v38q0 42 -16.5 73.5t-45.5 49t-68 17.5q-47 0 -81.5 -22t-51.5 -62l-70 24q14 40 43.5 69t71 45t89.5 16q62 0 108.5 -26.5t72 -74t25.5 -111.5v-318h-70l-5 80
q-22 -43 -66.5 -69t-102.5 -26zM126 148q0 -29 15 -50.5t42 -33.5t62 -12q43 0 77.5 19.5t54.5 53t20 76.5v19q-33 13 -66.5 20.5t-63.5 7.5q-66 0 -103.5 -27t-37.5 -73z" />
    <glyph glyph-name="b" unicode="b" horiz-adv-x="622" 
d="M70 0v742h80v-317q28 49 76.5 77.5t109.5 28.5q51 0 95 -20.5t77 -57.5t51.5 -86.5t18.5 -107.5t-18.5 -108t-52 -87t-78.5 -58t-97 -21q-60 0 -109 29t-77 80l-4 -94h-72zM322 58q38 0 69.5 15t55 41.5t36.5 63t13 80.5t-13 80.5t-36.5 63t-55 41.5t-69.5 15t-69.5 -15
t-55 -41.5t-36.5 -63t-13 -80.5t13 -80.5t36.5 -63t55 -41.5t69.5 -15z" />
    <glyph glyph-name="c" unicode="c" horiz-adv-x="546" 
d="M292 -15q-53 0 -98 20t-79 56.5t-52.5 85.5t-18.5 107t19 108.5t53 88.5t80 59t100 21q50 0 90.5 -18t70 -49t45.5 -71l-73 -25q-22 42 -57 66t-79 24q-36 0 -66 -15.5t-53 -42.5t-35.5 -64.5t-12.5 -80.5t12.5 -79t34.5 -62.5t52.5 -41t66.5 -14.5q46 0 84.5 23.5
t58.5 65.5l73 -25q-16 -42 -48.5 -72.5t-76 -47.5t-91.5 -17z" />
    <glyph glyph-name="d" unicode="d" horiz-adv-x="622" 
d="M286 -15q-51 0 -95 20.5t-77 57.5t-51.5 86.5t-18.5 107.5t18.5 108t52 87t78.5 58t97 21q59 0 106.5 -27t75.5 -76v314h80v-742h-72l-4 98q-28 -53 -77.5 -83t-112.5 -30zM300 58q38 0 69.5 15t55 41.5t36.5 63t13 80.5t-13 80.5t-36.5 63t-55 41.5t-69.5 15t-69.5 -15
t-55 -41.5t-36.5 -63t-13 -80.5t13 -80.5t36.5 -63t55 -41.5t69.5 -15z" />
    <glyph glyph-name="e" unicode="e" horiz-adv-x="572" 
d="M304 -15q-57 0 -104.5 20t-82.5 56.5t-54 86t-19 109.5q0 59 18.5 108.5t52 86.5t78.5 57.5t98 20.5q51 0 94.5 -19t75.5 -53t49.5 -81t17.5 -102v-33h-401q4 -56 26.5 -98t60.5 -65t88 -23q49 0 85.5 20.5t62.5 60.5l68 -31q-20 -38 -52 -65t-73.5 -41.5t-88.5 -14.5z
M291 462q-41 0 -74.5 -20t-56 -55.5t-29.5 -82.5h313q-4 47 -25 82.5t-54 55.5t-74 20z" />
    <glyph glyph-name="f" unicode="f" horiz-adv-x="378" 
d="M111 0v448h-95v68h95v48q0 57 21 99.5t59.5 65.5t89.5 23q54 0 97 -26l-23 -62q-15 8 -33 13t-36 5q-47 0 -71 -31t-24 -89v-46h163v-68h-163v-448h-80z" />
    <glyph glyph-name="g" unicode="g" horiz-adv-x="616" 
d="M283 5q-51 0 -94.5 20t-76 55.5t-50.5 83.5t-18 103q0 56 18.5 104t51.5 84t77.5 56t95.5 20q59 0 107.5 -28t75.5 -77l4 90h72v-472q0 -59 -18 -107.5t-51 -83.5t-79 -53.5t-102 -18.5q-49 0 -92 14.5t-76.5 42t-55.5 65.5l67 34q29 -42 68.5 -64.5t88.5 -22.5
q52 0 90.5 23.5t59 66.5t20.5 101v66q-28 -48 -76 -75t-107 -27zM297 78q37 0 68.5 14t54.5 39.5t35.5 60.5t12.5 76t-12.5 76t-35.5 60.5t-54.5 39.5t-68.5 14t-68.5 -14t-54.5 -39.5t-35.5 -60.5t-12.5 -76t12.5 -76t35.5 -60.5t54.5 -39.5t68.5 -14z" />
    <glyph glyph-name="h" unicode="h" horiz-adv-x="573" 
d="M70 0v742h80v-301q23 41 66 65.5t97 24.5q59 0 103 -28t67.5 -79.5t23.5 -121.5v-302h-80v297q0 77 -33.5 119t-95.5 42q-43 0 -76.5 -19.5t-52.5 -54t-19 -78.5v-306h-80z" />
    <glyph glyph-name="i" unicode="i" horiz-adv-x="220" 
d="M165 667q0 -15 -7.5 -27.5t-20 -20t-27.5 -7.5t-27.5 7.5t-20 20t-7.5 27.5t7.5 27.5t20 20t27.5 7.5t27.5 -7.5t20 -20t7.5 -27.5zM70 0v516h80v-516h-80z" />
    <glyph glyph-name="j" unicode="j" horiz-adv-x="225" 
d="M170 667q0 -15 -7.5 -27.5t-20 -20t-27.5 -7.5t-27.5 7.5t-20 20t-7.5 27.5t7.5 27.5t20 20t27.5 7.5t27.5 -7.5t20 -20t7.5 -27.5zM9 -214q-23 0 -45 6t-39 17l25 62q10 -5 23.5 -9.5t28.5 -4.5q33 0 53 24t20 66v569h80v-571q0 -47 -18.5 -83t-51.5 -56t-76 -20z" />
    <glyph glyph-name="k" unicode="k" horiz-adv-x="529" 
d="M70 0v742h80v-442l244 216h103l-264 -231l288 -285h-110l-261 264v-264h-80z" />
    <glyph glyph-name="l" unicode="l" horiz-adv-x="220" 
d="M70 0v742h80v-742h-80z" />
    <glyph glyph-name="m" unicode="m" horiz-adv-x="902" 
d="M70 0v516h72l4 -79q22 43 64 68.5t96 25.5q58 0 101 -30t64 -84q13 34 39 59.5t61.5 40t76.5 14.5q58 0 100.5 -27.5t65 -77.5t22.5 -120v-306h-80v301q0 76 -31 116.5t-90 40.5q-41 0 -73 -19.5t-50.5 -53t-18.5 -75.5v-310h-80v301q0 76 -32 116.5t-91 40.5
q-40 0 -72 -19.5t-50 -53t-18 -75.5v-310h-80z" />
    <glyph glyph-name="n" unicode="n" horiz-adv-x="573" 
d="M70 0v516h72l4 -82q23 44 66.5 70.5t100.5 26.5q59 0 103 -28t67.5 -79.5t23.5 -121.5v-302h-80v297q0 77 -33.5 119t-95.5 42q-43 0 -76.5 -19.5t-52.5 -54t-19 -78.5v-306h-80z" />
    <glyph glyph-name="o" unicode="o" horiz-adv-x="600" 
d="M299 -15q-55 0 -101.5 20.5t-81 57t-53.5 86.5t-19 109t19.5 109t54 86.5t81.5 57t102 20.5t101.5 -20.5t81 -57t53.5 -86.5t19 -109t-19.5 -109t-54 -86.5t-81.5 -57t-102 -20.5zM300 58q38 0 69.5 15t55 41.5t36.5 63t13 80.5t-13 80.5t-36.5 63t-55 41.5t-69.5 15
t-69.5 -15t-55 -41.5t-36.5 -63t-13 -80.5t13 -80.5t36.5 -63t55 -41.5t69.5 -15z" />
    <glyph glyph-name="p" unicode="p" horiz-adv-x="622" 
d="M70 -204v720h72l4 -98q28 53 77.5 83t112.5 30q51 0 95 -20.5t77 -57.5t51.5 -86.5t18.5 -107.5t-18.5 -108t-52 -87t-78.5 -58t-97 -21q-59 0 -106.5 27t-75.5 76v-292h-80zM322 58q38 0 69.5 15t55 41.5t36.5 63t13 80.5t-13 80.5t-36.5 63t-55 41.5t-69.5 15
t-69.5 -15t-55 -41.5t-36.5 -63t-13 -80.5t13 -80.5t36.5 -63t55 -41.5t69.5 -15z" />
    <glyph glyph-name="q" unicode="q" horiz-adv-x="622" 
d="M286 -15q-51 0 -95 20.5t-77 57.5t-51.5 86.5t-18.5 107.5t18.5 108t52 87t78.5 58t97 21q60 0 109 -29t77 -80l4 94h72v-720h-80v295q-28 -49 -76.5 -77.5t-109.5 -28.5zM300 58q38 0 69.5 15t55 41.5t36.5 63t13 80.5t-13 80.5t-36.5 63t-55 41.5t-69.5 15t-69.5 -15
t-55 -41.5t-36.5 -63t-13 -80.5t13 -80.5t36.5 -63t55 -41.5t69.5 -15z" />
    <glyph glyph-name="r" unicode="r" horiz-adv-x="375" 
d="M70 0v516h72l5 -96q19 48 57 75.5t89 27.5q17 0 30.5 -2.5t23.5 -6.5l-10 -76q-11 4 -23 5.5t-24 1.5q-42 0 -73.5 -21t-49 -59.5t-17.5 -90.5v-274h-80z" />
    <glyph glyph-name="s" unicode="s" horiz-adv-x="462" 
d="M233 -15q-45 0 -84.5 15t-68.5 43t-44 66l72 26q20 -38 52 -59t73 -21q33 0 58 11t39 30.5t14 43.5q0 65 -94 84l-39 8q-82 16 -121 52.5t-39 92.5q0 45 23 80t64.5 54.5t94.5 19.5q44 0 81 -14.5t63.5 -42.5t40.5 -66l-72 -24q-16 37 -45.5 57.5t-68.5 20.5
q-30 0 -52.5 -10t-35.5 -27t-13 -40q0 -32 24.5 -51t79.5 -30l39 -8q74 -15 113 -52.5t39 -95.5q0 -36 -14.5 -65.5t-40 -51.5t-61 -34t-77.5 -12z" />
    <glyph glyph-name="t" unicode="t" horiz-adv-x="408" 
d="M263 -15q-47 0 -81 19t-52.5 56t-18.5 90v298h-95v68h95v173h80v-173h162v-68h-162v-294q0 -46 19.5 -71.5t59.5 -25.5q21 0 42.5 6.5t38.5 17.5l24 -62q-21 -15 -49 -24.5t-63 -9.5z" />
    <glyph glyph-name="u" unicode="u" horiz-adv-x="564" 
d="M280 -15q-66 0 -114 29t-74 82.5t-26 127.5v292h80v-293q0 -51 16.5 -88t47 -57t72.5 -20t72.5 20t47 57t16.5 88v293h80v-292q0 -72 -27 -126t-76 -83.5t-115 -29.5z" />
    <glyph glyph-name="v" unicode="v" horiz-adv-x="523" 
d="M220 0l-202 516h88l157 -430l157 430h85l-202 -516h-83z" />
    <glyph glyph-name="w" unicode="w" horiz-adv-x="797" 
d="M192 0l-174 516h84l129 -418l133 418h72l132 -418l129 418h82l-174 -516h-77l-129 413l-130 -413h-77z" />
    <glyph glyph-name="x" unicode="x" horiz-adv-x="521" 
d="M15 0l199 272l-177 244h95l131 -193l131 193h90l-177 -244l199 -272h-98l-150 219l-148 -219h-95z" />
    <glyph glyph-name="y" unicode="y" horiz-adv-x="523" 
d="M114 -214q-21 0 -39 4.5t-37 14.5l23 64q10 -6 22.5 -9t26.5 -3q31 0 54.5 19.5t40.5 61.5l27 67l-214 511h88l165 -424l149 424h85l-230 -597q-26 -68 -66 -100.5t-95 -32.5z" />
    <glyph glyph-name="z" unicode="z" horiz-adv-x="496" 
d="M44 0v56l292 392h-285v68h384v-55l-294 -393h311v-68h-408z" />
    <glyph glyph-name="a.ss01" horiz-adv-x="622" 
d="M286 -15q-51 0 -95 20.5t-77 57.5t-51.5 86.5t-18.5 107.5t18.5 108t52 87t78.5 58t97 21q60 0 109 -29t77 -80l4 94h72v-516h-72l-4 98q-28 -53 -77.5 -83t-112.5 -30zM300 58q38 0 69.5 15t55 41.5t36.5 63t13 80.5t-13 80.5t-36.5 63t-55 41.5t-69.5 15t-69.5 -15
t-55 -41.5t-36.5 -63t-13 -80.5t13 -80.5t36.5 -63t55 -41.5t69.5 -15z" />
    <glyph glyph-name="trademark" unicode="&#x2122;" horiz-adv-x="780" 
d="M134 359v295h-105v56h273v-56h-105v-295h-63zM368 359v351h63l112 -217l113 217h61v-351h-61v251l-92 -178h-43l-92 178v-251h-61z" />
    <glyph glyph-name="ordfeminine.ss01" horiz-adv-x="430" 
d="M326 326l-4 60q-21 -32 -54 -50t-73 -18q-36 0 -67 14.5t-54 40t-35.5 60t-12.5 74.5q0 41 13 76t36.5 61t55 41t68.5 15q41 0 72.5 -18t51.5 -50l3 60h66v-366h-66zM210 383q32 0 57.5 16.5t39.5 44.5t14 65t-14 65t-39.5 44.5t-57.5 16.5t-57.5 -16.5t-39.5 -44.5
t-14 -65t14 -65t39.5 -44.5t57.5 -16.5z" />
    <glyph glyph-name="ordfeminine" unicode="&#xaa;" horiz-adv-x="375" 
d="M157 318q-37 0 -66.5 14.5t-46.5 40t-17 59.5q0 35 18.5 61t51.5 40t77 14q27 0 51 -5t43 -15v25q0 40 -22.5 64.5t-59.5 24.5q-30 0 -52 -13.5t-32 -38.5l-62 16q10 29 31 50t51 33t65 12q45 0 78.5 -19t52.5 -53t19 -79v-223h-63l-3 51q-16 -28 -46 -43.5t-68 -15.5z
M97 434q0 -28 21 -44.5t53 -16.5q28 0 50 12.5t34.5 34.5t12.5 50v9q-20 8 -41 12.5t-42 4.5q-40 0 -64 -16.5t-24 -45.5z" />
    <glyph glyph-name="ordmasculine" unicode="&#xba;" horiz-adv-x="420" 
d="M210 318q-40 0 -73.5 14.5t-58.5 40.5t-38.5 60.5t-13.5 75.5t13.5 75.5t38.5 60.5t58.5 40.5t73.5 14.5t73.5 -14.5t58.5 -40.5t38.5 -60.5t13.5 -75.5t-13.5 -75.5t-38.5 -60.5t-58.5 -40.5t-73.5 -14.5zM210 383q32 0 57.5 16.5t39.5 44.5t14 65t-14 65t-39.5 44.5
t-57.5 16.5t-57.5 -16.5t-39.5 -44.5t-14 -65t14 -65t39.5 -44.5t57.5 -16.5z" />
    <glyph glyph-name="degree" unicode="&#xb0;" horiz-adv-x="364" 
d="M337 597q0 -31 -12 -59.5t-33.5 -49.5t-49.5 -33.5t-60 -12.5t-60 12.5t-49.5 33.5t-33.5 49.5t-12 59.5t12 59.5t33.5 49.5t49.5 33.5t60 12.5t60 -12.5t49.5 -33.5t33.5 -49.5t12 -59.5zM269 597q0 26 -11.5 47t-31.5 33.5t-44 12.5t-44 -12.5t-31.5 -33.5t-11.5 -47
t11.5 -47t31.5 -33.5t44 -12.5t44 12.5t31.5 33.5t11.5 47z" />
    <glyph glyph-name="copyright" unicode="&#xa9;" horiz-adv-x="866" 
d="M433 -21q-64 0 -121 18.5t-103.5 52.5t-80.5 80.5t-52.5 103.5t-18.5 121t18.5 120.5t52.5 103.5t80.5 80.5t103.5 52t121 18.5t121 -18.5t103.5 -52t80.5 -80.5t52.5 -103.5t18.5 -120.5t-18.5 -121t-52.5 -103.5t-80.5 -80.5t-103.5 -52.5t-121 -18.5zM433 39
q52 0 98.5 16t85.5 45t67.5 68.5t44.5 86.5t16 100q0 52 -16 99.5t-44.5 87t-67.5 68t-85.5 44.5t-98.5 16t-98.5 -16t-85.5 -44.5t-67.5 -68t-44.5 -86.5t-16 -100t16 -100t44.5 -86.5t67.5 -68.5t85.5 -45t98.5 -16zM438 149q-42 0 -77 15.5t-60.5 43.5t-40 66t-14.5 83
t14.5 83t41 67t61.5 45t75 16q38 0 70 -13.5t56 -38t37 -59.5l-63 -21q-16 32 -42 50t-58 18q-34 0 -61.5 -19t-43.5 -52.5t-16 -75.5t15.5 -74.5t42.5 -51t63 -18.5q33 0 61 18.5t43 49.5l63 -21q-13 -33 -38 -58t-58.5 -39t-70.5 -14z" />
    <glyph glyph-name="registered" unicode="&#xae;" horiz-adv-x="536" 
d="M268 269q-48 0 -89.5 17t-72.5 48t-48.5 72t-17.5 89t17.5 89t48.5 71.5t72.5 47.5t89.5 17t89.5 -17t72.5 -47.5t48.5 -71.5t17.5 -89t-17.5 -89t-48.5 -72t-72.5 -48t-89.5 -17zM268 312q38 0 71 14t57.5 39t38.5 58.5t14 71.5t-14 71t-38.5 58t-57.5 39t-71 14
t-71 -14t-57.5 -39t-38.5 -58t-14 -71t14 -71.5t38.5 -58.5t57.5 -39t71 -14zM189 377v240h79q44 0 69.5 -20.5t25.5 -55.5q0 -22 -11 -40t-31 -28l55 -96h-52l-44 83h-9h-7q-5 0 -12.5 0.5t-15.5 1.5v-85h-47zM236 577v-75q13 -2 28 -2q25 0 38 10.5t13 28.5
q0 17 -13.5 27.5t-36.5 10.5h-29z" />
    <glyph glyph-name="quoteleft" unicode="&#x2018;" horiz-adv-x="228" 
d="M122 455q-22 0 -40.5 14.5t-29 39.5t-10.5 56q0 51 30 92.5t83 65.5l21 -46q-36 -17 -56.5 -45t-20.5 -60q0 -19 6 -34q10 10 25 10q19 0 32 -13t13 -33t-15.5 -33.5t-37.5 -13.5z" />
    <glyph glyph-name="quoteright" unicode="&#x2019;" horiz-adv-x="228" 
d="M106 713q22 0 40.5 -14.5t29 -39.5t10.5 -56q0 -51 -30 -92.5t-83 -65.5l-21 46q36 17 56.5 45t20.5 60q0 19 -6 34q-10 -10 -25 -10q-19 0 -32 13t-13 33t15.5 33.5t37.5 13.5z" />
    <glyph glyph-name="quotesinglbase" unicode="&#x201a;" horiz-adv-x="219" 
d="M106 112q22 0 40.5 -14.5t29 -39.5t10.5 -56q0 -51 -30 -92.5t-83 -65.5l-21 46q36 17 56.5 45t20.5 60q0 19 -6 34q-10 -10 -25 -10q-19 0 -32 13t-13 33t15.5 33.5t37.5 13.5z" />
    <glyph glyph-name="quotedblleft" unicode="&#x201c;" horiz-adv-x="410" 
d="M122 455q-22 0 -40.5 14.5t-29 39.5t-10.5 56q0 51 30 92.5t83 65.5l21 -46q-36 -17 -56.5 -45t-20.5 -60q0 -19 6 -34q10 10 25 10q19 0 32 -13t13 -33t-15.5 -33.5t-37.5 -13.5zM304 455q-22 0 -40.5 14.5t-29 39.5t-10.5 56q0 51 30 92.5t83 65.5l21 -46
q-36 -17 -56.5 -45t-20.5 -60q0 -19 6 -34q10 10 25 10q19 0 32 -13t13 -33t-15.5 -33.5t-37.5 -13.5z" />
    <glyph glyph-name="quotedblright" unicode="&#x201d;" horiz-adv-x="410" 
d="M106 713q22 0 40.5 -14.5t29 -39.5t10.5 -56q0 -51 -30 -92.5t-83 -65.5l-21 46q36 17 56.5 45t20.5 60q0 19 -6 34q-10 -10 -25 -10q-19 0 -32 13t-13 33t15.5 33.5t37.5 13.5zM288 713q22 0 40.5 -14.5t29 -39.5t10.5 -56q0 -51 -30 -92.5t-83 -65.5l-21 46
q36 17 56.5 45t20.5 60q0 19 -6 34q-10 -10 -25 -10q-19 0 -32 13t-13 33t15.5 33.5t37.5 13.5z" />
    <glyph glyph-name="quotedblbase" unicode="&#x201e;" horiz-adv-x="401" 
d="M106 112q22 0 40.5 -14.5t29 -39.5t10.5 -56q0 -51 -30 -92.5t-83 -65.5l-21 46q36 17 56.5 45t20.5 60q0 19 -6 34q-10 -10 -25 -10q-19 0 -32 13t-13 33t15.5 33.5t37.5 13.5zM288 112q22 0 40.5 -14.5t29 -39.5t10.5 -56q0 -51 -30 -92.5t-83 -65.5l-21 46
q36 17 56.5 45t20.5 60q0 19 -6 34q-10 -10 -25 -10q-19 0 -32 13t-13 33t15.5 33.5t37.5 13.5z" />
    <glyph glyph-name="glyph199" horiz-adv-x="78" 
d="M39 322q-15 0 -27 7.5t-19.5 20t-7.5 26.5t7.5 26.5t19.5 20t27 7.5t27 -7.5t19.5 -20t7.5 -26.5t-7.5 -26.5t-19.5 -20t-27 -7.5z" />
    <glyph glyph-name="glyph200" 
d="M-149 325q-15 0 -28 7.5t-21 20.5t-8 28t8 28t21 20.5t28 7.5t28 -7.5t21 -20.5t8 -28t-8 -28t-21 -20.5t-28 -7.5z" />
    <glyph glyph-name="dotlessi" unicode="&#x131;" horiz-adv-x="220" 
d="M70 0v516h80v-516h-80z" />
    <glyph glyph-name="uni0237" unicode="&#x237;" horiz-adv-x="225" 
d="M9 -214q-23 0 -45 6t-39 17l25 62q10 -5 23.5 -9.5t28.5 -4.5q33 0 53 24t20 66v569h80v-571q0 -47 -18.5 -83t-51.5 -56t-76 -20z" />
    <glyph glyph-name="IJ" unicode="&#x132;" horiz-adv-x="672" 
d="M68 291v419h84v-419h-84zM331 -20q-62 0 -113.5 21t-88.5 60.5t-58 95.5l79 24q26 -61 72 -92.5t108 -31.5q58 0 100.5 27t66 76.5t23.5 117.5v432h84v-432q0 -68 -19.5 -123t-55.5 -94t-86 -60t-112 -21z" />
    <glyph glyph-name="ij" unicode="&#x133;" horiz-adv-x="573" 
d="M161 667q0 -15 -7.5 -27.5t-20 -20t-27.5 -7.5t-27.5 7.5t-20 20t-7.5 27.5t7.5 27.5t20 20t27.5 7.5t27.5 -7.5t20 -20t7.5 -27.5zM518 667q0 -15 -7.5 -27.5t-20 -20t-27.5 -7.5t-27.5 7.5t-20 20t-7.5 27.5t7.5 27.5t20 20t27.5 7.5t27.5 -7.5t20 -20t7.5 -27.5z
M260 5q-60 0 -103.5 28t-67 79.5t-23.5 121.5v282h80v-277q0 -77 34 -119t95 -42q43 0 76.5 19.5t52.5 54t19 78.5v286h80v-490q0 -74 -28.5 -129.5t-80.5 -85.5t-120 -30t-122 29.5t-83 82.5l67 34q25 -37 59.5 -57t78.5 -20q46 0 79 21t51.5 60t18.5 92v72
q-23 -41 -66 -65.5t-97 -24.5z" />
    <glyph glyph-name="glyph205" horiz-adv-x="573" 
d="M260 5q-60 0 -103.5 28t-67 79.5t-23.5 121.5v282h80v-277q0 -77 34 -119t95 -42q43 0 76.5 19.5t52.5 54t19 78.5v286h80v-490q0 -74 -28.5 -129.5t-80.5 -85.5t-120 -30t-122 29.5t-83 82.5l67 34q25 -37 59.5 -57t78.5 -20q46 0 79 21t51.5 60t18.5 92v72
q-23 -41 -66 -65.5t-97 -24.5z" />
    <glyph glyph-name="Thorn" unicode="&#xde;" horiz-adv-x="571" 
d="M78 0v710h84v-129h112q81 0 139.5 -27t89.5 -77t31 -120q0 -68 -33 -118t-94 -77t-144 -27q-22 0 -47.5 2t-53.5 6v-143h-84zM162 506v-288q24 -4 50.5 -6t48.5 -2q89 0 138 38.5t49 109.5q0 46 -21 79t-60 51t-94 18h-111z" />
    <glyph glyph-name="AE" unicode="&#xc6;" horiz-adv-x="999" 
d="M23 0l182 277v2h2l283 431h435v-75h-315v-228h287v-76h-287v-255h325v-76h-409v202h-278l-130 -202h-95zM297 279h229v356z" />
    <glyph glyph-name="OE" unicode="&#x152;" horiz-adv-x="1037" 
d="M428 0q-86 0 -155 25t-118.5 71.5t-76 111.5t-26.5 145q0 81 26.5 146.5t76 112.5t118.5 72.5t154 25.5h536v-75h-315v-228h287v-76h-287v-255h325v-76h-545zM430 77h134v556h-134q-67 0 -121 -19.5t-92 -56t-58.5 -87.5t-20.5 -115t20.5 -115t59 -87.5t92 -56
t120.5 -19.5z" />
    <glyph glyph-name="uni1E9E" unicode="&#x1e9e;" horiz-adv-x="627" 
d="M359 -15q-37 0 -70.5 9.5t-64.5 28.5l29 67q19 -13 47.5 -21.5t57.5 -8.5q43 0 76.5 19t53 52t19.5 76q0 45 -20.5 78.5t-56.5 53t-84 20.5l-11 51l140 175q-27 29 -64.5 46t-78.5 17q-54 0 -94 -26t-62.5 -74t-22.5 -113v-435h-84v435q0 65 18.5 118t53.5 91.5t83 59.5
t106 21q74 0 137 -33.5t107 -97.5l-144 -180q49 -11 86 -40t57.5 -71.5t20.5 -94.5q0 -48 -17.5 -89t-49 -71t-74.5 -46.5t-94 -16.5z" />
    <glyph glyph-name="thorn" unicode="&#xfe;" horiz-adv-x="622" 
d="M70 -204v946h80v-317q28 49 76.5 77.5t109.5 28.5q51 0 95 -20.5t77 -57.5t51.5 -86.5t18.5 -107.5t-18.5 -108t-52 -87t-78.5 -58t-97 -21q-59 0 -106.5 27t-75.5 76v-292h-80zM322 58q38 0 69.5 15t55 41.5t36.5 63t13 80.5t-13 80.5t-36.5 63t-55 41.5t-69.5 15
t-69.5 -15t-55 -41.5t-36.5 -63t-13 -80.5t13 -80.5t36.5 -63t55 -41.5t69.5 -15z" />
    <glyph glyph-name="ae.ss01" horiz-adv-x="976" 
d="M281 -15q-50 0 -93.5 20.5t-75.5 57.5t-50 86.5t-18 107.5t18.5 108t51 87t76 58t94.5 21q40 0 75.5 -14t62.5 -40.5t44 -63.5l1 103h66l1 -83q30 46 74.5 71.5t100.5 25.5q47 0 87.5 -19t71 -53t47.5 -81t17 -102v-33h-391q3 -56 25.5 -98t59.5 -65t86 -23
q46 0 81.5 20.5t60.5 60.5l68 -31q-19 -40 -51 -66.5t-72.5 -40.5t-82.5 -14q-60 0 -106 23.5t-76 69.5l-1 -78h-66l-1 105q-26 -55 -74.5 -87.5t-110.5 -32.5zM700 462q-40 0 -72.5 -20t-54 -55.5t-28.5 -82.5h303q-4 47 -24 82.5t-52 55.5t-72 20zM295 58q37 0 68 15
t53.5 41.5t35 63t12.5 80.5t-12.5 80.5t-35 63t-53.5 41.5t-68 15t-68 -15t-53.5 -41.5t-35 -63t-12.5 -80.5t12.5 -80.5t35 -63t53.5 -41.5t68 -15z" />
    <glyph glyph-name="ae" unicode="&#xe6;" horiz-adv-x="899" 
d="M233 -15q-40 0 -74.5 12t-60 33.5t-39.5 51.5t-14 66q0 48 25.5 85t71.5 57.5t106 20.5q38 0 74.5 -8t64.5 -21v38q0 42 -15.5 73.5t-43.5 49t-66 17.5q-45 0 -78.5 -22t-49.5 -62l-70 24q13 40 42 69t69 45t88 16q60 0 104.5 -28t67.5 -77q31 49 79.5 77t109.5 28
q50 0 92 -19t73 -53t48.5 -81t17.5 -102v-33h-391q3 -56 25.5 -98t59.5 -65t86 -23q46 0 81.5 20.5t60.5 60.5l68 -31q-19 -38 -50.5 -65t-72 -41.5t-86.5 -14.5q-70 0 -125 32.5t-87 88.5q-12 -34 -39 -61.5t-66 -43.5t-86 -16zM623 462q-40 0 -72.5 -20t-54 -55.5
t-28.5 -82.5h303q-4 47 -24 82.5t-52 55.5t-72 20zM126 148q0 -29 14.5 -50.5t40 -33.5t58.5 -12q43 0 76.5 19.5t52.5 53t19 76.5v19q-31 13 -64 20.5t-64 7.5q-40 0 -70 -12t-46.5 -34.5t-16.5 -53.5z" />
    <glyph glyph-name="oe" unicode="&#x153;" horiz-adv-x="981" 
d="M293 -15q-54 0 -99.5 20.5t-79 57t-52 86.5t-18.5 109t19 109t52.5 86.5t79 57t99.5 20.5q68 0 122.5 -32.5t87.5 -87.5q31 55 83 87t118 32q50 0 92.5 -19t73.5 -53t48.5 -81t17.5 -102v-33h-391q3 -56 25.5 -98t59.5 -65t86 -23q46 0 81.5 20.5t60.5 60.5l68 -31
q-19 -38 -50.5 -65t-72 -41.5t-87.5 -14.5q-48 0 -89 15t-72.5 41.5t-52.5 62.5q-33 -55 -87.5 -87t-122.5 -32zM705 462q-40 0 -72.5 -20t-54 -55.5t-28.5 -82.5h303q-4 47 -24 82.5t-52 55.5t-72 20zM295 58q37 0 68 15t53.5 41.5t35 63t12.5 80.5t-12.5 80.5t-35 63
t-53.5 41.5t-68 15t-68 -15t-53.5 -41.5t-35 -63t-12.5 -80.5t12.5 -80.5t35 -63t53.5 -41.5t68 -15z" />
    <glyph glyph-name="germandbls" unicode="&#xdf;" horiz-adv-x="584" 
d="M318 -10q-26 0 -52.5 5t-46.5 14l16 69q15 -7 37 -11t41 -4q41 0 74 19.5t51.5 52.5t18.5 75q0 44 -20.5 78t-56 53t-80.5 19h-33v69h23q36 0 65.5 16.5t46.5 45.5t17 64t-17 63t-47 44.5t-68 16.5q-40 0 -71 -19t-48.5 -52.5t-17.5 -77.5v-530h-80v527q0 49 16 90.5
t45 71.5t69 46.5t88 16.5q45 0 84 -14.5t68 -40.5t45 -60.5t16 -75.5q0 -51 -25.5 -93.5t-71.5 -65.5q41 -14 71 -41.5t47 -66t17 -85.5q0 -46 -16.5 -86t-46.5 -70t-70.5 -46.5t-87.5 -16.5z" />
    <glyph glyph-name="kgreenlandic" unicode="&#x138;" horiz-adv-x="529" 
d="M70 0v516h80v-228l244 228h103l-264 -242l288 -274h-110l-261 252v-252h-80z" />
    <glyph glyph-name="Eng" unicode="&#x14a;" horiz-adv-x="708" 
d="M78 0v710h74l396 -569v569h82v-736q0 -58 -22.5 -101.5t-63 -67t-94.5 -23.5q-32 0 -63 10.5t-53 27.5l30 63q17 -13 39 -20t42 -7q47 0 75 32t28 87v36l-388 558v-569h-82z" />
    <glyph glyph-name="eng" unicode="&#x14b;" horiz-adv-x="573" 
d="M70 0v516h72l4 -82q23 44 66.5 70.5t100.5 26.5q59 0 103 -28t67.5 -79.5t23.5 -121.5v-357q0 -47 -18.5 -83t-52.5 -56t-78 -20q-24 0 -46.5 6t-39.5 17l25 62q11 -5 24.5 -9.5t29.5 -4.5q35 0 55.5 24t20.5 66v350q0 77 -33.5 119t-95.5 42q-43 0 -76.5 -19.5
t-52.5 -54t-19 -78.5v-306h-80z" />
    <glyph glyph-name="Eth" unicode="&#xd0;" horiz-adv-x="751" 
d="M88 0v336h-89v67h89v307h235q85 0 154.5 -25t119 -71.5t76 -111.5t26.5 -145q0 -81 -26.5 -146.5t-76 -112.5t-118.5 -72.5t-154 -25.5h-236zM172 77h149q67 0 121 19.5t92 56t58.5 87.5t20.5 115t-20.5 115t-59 87.5t-92 56t-120.5 19.5h-149v-230h169v-67h-169v-259z
" />
    <glyph glyph-name="Dcroat" unicode="&#x110;" horiz-adv-x="751" 
d="M88 0v336h-89v67h89v307h235q85 0 154.5 -25t119 -71.5t76 -111.5t26.5 -145q0 -81 -26.5 -146.5t-76 -112.5t-118.5 -72.5t-154 -25.5h-236zM172 77h149q67 0 121 19.5t92 56t58.5 87.5t20.5 115t-20.5 115t-59 87.5t-92 56t-120.5 19.5h-149v-230h169v-67h-169v-259z
" />
    <glyph glyph-name="Hbar" unicode="&#x126;" horiz-adv-x="738" 
d="M88 0v540h-89v64h89v106h84v-106h394v106h84v-106h89v-64h-89v-540h-84v326h-394v-326h-84zM172 403h394v137h-394v-137z" />
    <glyph glyph-name="Tbar" unicode="&#x166;" horiz-adv-x="614" 
d="M265 0v314h-130v67h130v252h-217v77h518v-77h-217v-252h130v-67h-130v-314h-84z" />
    <glyph glyph-name="Lslash" unicode="&#x141;" horiz-adv-x="535" 
d="M88 0v250l-89 -66v80l89 66v380h84v-317l135 100v-80l-135 -100v-236h316v-77h-400z" />
    <glyph glyph-name="Oslash" unicode="&#xd8;" horiz-adv-x="799" 
d="M150 -35h-88l89 118q-47 50 -73 119.5t-26 151.5q0 65 17 122t48 104t74 80.5t96 51.5t114 18q55 0 103.5 -15t89.5 -43l55 73h88l-90 -119q47 -50 73 -119.5t26 -151.5q0 -65 -17 -122t-48 -104t-74 -80.5t-96 -51.5t-114 -18q-55 0 -103.5 15t-89.5 43zM135 355
q0 -62 17 -114.5t48 -91.5l347 460q-31 23 -68.5 35t-79.5 12q-57 0 -105.5 -22t-84 -62.5t-55 -95.5t-19.5 -121zM663 355q0 61 -17 113.5t-48 91.5l-347 -460q31 -23 68.5 -35t79.5 -12q57 0 105.5 22t84 63t55 96t19.5 121z" />
    <glyph glyph-name="eth" unicode="&#xf0;" horiz-adv-x="606" 
d="M298 -15q-54 0 -100 20t-81 56.5t-54 84.5t-19 105q0 56 19 104.5t52.5 85.5t77.5 57.5t95 20.5q48 0 89.5 -20t69.5 -56q-16 43 -42.5 86.5t-60.5 82.5l-98 -50l-27 52l84 43q-36 35 -75 63l82 29q34 -26 64 -56l89 46l28 -51l-77 -39q45 -54 76.5 -115.5t48.5 -126
t17 -128.5q0 -66 -18 -120.5t-52 -93t-82 -59.5t-106 -21zM300 58q38 0 69.5 14.5t55 40.5t36.5 62t13 78t-13 78t-36.5 62t-55 40.5t-69.5 14.5t-69.5 -14.5t-55 -40.5t-36.5 -62t-13 -78t13 -78t36.5 -62t55 -40.5t69.5 -14.5z" />
    <glyph glyph-name="dcroat" unicode="&#x111;" horiz-adv-x="622" 
d="M286 -15q-51 0 -95 20.5t-77 57.5t-51.5 86.5t-18.5 107.5t18.5 108t52 87t78.5 58t97 21q59 0 106.5 -27t75.5 -76v169h-164v62h164v83h80v-83h79v-62h-79v-597h-72l-4 98q-28 -53 -77.5 -83t-112.5 -30zM300 58q38 0 69.5 15t55 41.5t36.5 63t13 80.5t-13 80.5
t-36.5 63t-55 41.5t-69.5 15t-69.5 -15t-55 -41.5t-36.5 -63t-13 -80.5t13 -80.5t36.5 -63t55 -41.5t69.5 -15z" />
    <glyph glyph-name="hbar" unicode="&#x127;" horiz-adv-x="573" 
d="M70 0v599h-79v58h79v85h80v-85h164v-58h-164v-158q23 41 66 65.5t97 24.5q59 0 103 -28t67.5 -79.5t23.5 -121.5v-302h-80v297q0 77 -33.5 119t-95.5 42q-43 0 -76.5 -19.5t-52.5 -54t-19 -78.5v-306h-80z" />
    <glyph glyph-name="tbar" unicode="&#x167;" horiz-adv-x="408" 
d="M26 242v61h85v145h-95v68h95v173h80v-173h162v-68h-162v-145h152v-61h-152v-88q0 -46 19.5 -71.5t59.5 -25.5q21 0 42.5 6.5t38.5 17.5l24 -62q-21 -15 -49 -24.5t-63 -9.5q-47 0 -81 19t-52.5 56t-18.5 90v92h-85z" />
    <glyph glyph-name="lslash" unicode="&#x142;" horiz-adv-x="242" 
d="M81 0v303l-79 -59v74l79 59v365h80v-304l79 59v-74l-79 -59v-364h-80z" />
    <glyph glyph-name="oslash" unicode="&#xf8;" horiz-adv-x="600" 
d="M131 -25h-80l65 88q-34 36 -53 86t-19 109t19.5 109t54 86.5t81.5 57t102 20.5q37 0 71 -9.5t62 -27.5l35 47h80l-65 -88q34 -36 53 -86t19 -109t-19.5 -109t-54 -86.5t-81.5 -57t-102 -20.5q-37 0 -71 9.5t-62 27.5zM124 258q0 -39 10.5 -72t28.5 -59l227 307
q-19 13 -42 19.5t-48 6.5q-38 0 -70.5 -15t-56 -42t-36.5 -64t-13 -81zM300 56q38 0 70.5 15t56 42t36.5 64t13 81q0 39 -10.5 72t-28.5 59l-227 -307q19 -13 42 -19.5t48 -6.5z" />
    <glyph glyph-name="uni0327" unicode="&#x327;" 
d="M-25 11h56l-17 -62q22 -4 39 -16t27 -28.5t10 -36.5q0 -26 -15 -46.5t-41 -32t-60 -11.5q-42 0 -75 15l15 53q31 -10 55 -10q23 0 36.5 9.5t13.5 25.5q0 39 -73 39z" />
    <glyph glyph-name="glyph234" 
d="M-21 7h58l-18 -64q22 -4 39 -16t27 -28.5t10 -36.5q0 -27 -15 -47.5t-41.5 -32t-60.5 -11.5q-46 0 -80 15l15 55q17 -6 31.5 -8.5t27.5 -2.5q22 0 36.5 9.5t14.5 25.5q0 19 -19 29t-55 10z" />
    <glyph glyph-name="cedilla" unicode="&#xb8;" horiz-adv-x="573" 
d="M267 11h56l-17 -62q22 -4 39 -16t27 -28.5t10 -36.5q0 -26 -15 -46.5t-41 -32t-60 -11.5q-42 0 -75 15l15 53q31 -10 55 -10q23 0 36.5 9.5t13.5 25.5q0 39 -73 39z" />
    <glyph glyph-name="uni0326" unicode="&#x326;" 
d="M-29 -242l-19 44q24 11 37.5 27.5t13.5 32.5q-8 -5 -19 -5q-16 0 -27 11.5t-11 29.5q0 19 13.5 31.5t35.5 12.5q17 0 31 -9.5t22 -26t8 -37.5q0 -37 -23 -66.5t-62 -44.5z" />
    <glyph glyph-name="glyph237" 
d="M-31 -254l-19 43q24 12 37.5 27.5t13.5 31.5q-8 -5 -19 -5q-16 0 -27 12t-11 30q0 19 14 32t36 13q18 0 32 -9.5t22 -26.5t8 -37q0 -37 -23 -66.5t-64 -44.5z" />
    <glyph glyph-name="uni0312" unicode="&#x312;" 
d="M7 581q-17 0 -31 9.5t-22 26.5t-8 37q0 37 23 66.5t62 44.5l19 -44q-24 -11 -37.5 -27.5t-13.5 -32.5q8 5 19 5q16 0 27 -11.5t11 -29.5q0 -19 -13.5 -31.5t-35.5 -12.5z" />
    <glyph glyph-name="uni0328" unicode="&#x328;" 
d="M-66 -213q-28 0 -50.5 11t-35 30.5t-12.5 44.5q0 35 27 71t86 79l51 -23q-49 -38 -72 -66.5t-23 -50.5q0 -17 11 -27t30 -10q14 0 29 3t24 7l14 -53q-21 -7 -41 -11.5t-38 -4.5z" />
    <glyph glyph-name="glyph240" 
d="M-67 -216q-29 0 -51.5 11t-35 31t-12.5 46q0 35 27 72.5t85 78.5l54 -23q-49 -38 -72 -66.5t-23 -50.5q0 -17 11 -27t30 -10q13 0 28 3t25 7l14 -55q-19 -8 -40 -12.5t-40 -4.5z" />
    <glyph glyph-name="glyph241" 
d="M-58 -213q-48 0 -77 24.5t-29 65.5q0 77 117 168l54 2q-52 -50 -77 -89.5t-25 -68.5q0 -20 13 -31.5t37 -11.5q11 0 24 3t20 7l14 -53q-17 -7 -35.5 -11.5t-35.5 -4.5z" />
    <glyph glyph-name="glyph242" 
d="M-65 -216q-46 0 -73.5 25.5t-27.5 68.5q0 81 118 176l55 2q-52 -53 -77 -94t-25 -72q0 -20 11.5 -32t31.5 -12q13 0 27.5 3t23.5 7l14 -55q-18 -8 -38.5 -12.5t-39.5 -4.5z" />
    <glyph glyph-name="ogonek" unicode="&#x2db;" horiz-adv-x="573" 
d="M296 -213q-28 0 -50.5 11t-35 30.5t-12.5 44.5q0 35 27 71t86 79l51 -23q-49 -38 -72 -66.5t-23 -50.5q0 -17 11 -27t30 -10q14 0 29 3t24 7l14 -53q-21 -7 -41 -11.5t-38 -4.5z" />
    <glyph glyph-name="Ccedilla" unicode="&#xc7;" horiz-adv-x="722" 
d="M389 -20q-73 0 -134.5 27.5t-107 77t-70.5 117t-25 147.5q0 65 16.5 122.5t47 105t72 82t92.5 53t108 18.5q64 0 119.5 -22t98 -62t65.5 -96l-77 -29q-31 63 -84.5 97.5t-120.5 34.5q-54 0 -99.5 -23t-79.5 -64t-53 -96t-19 -120q0 -64 18.5 -117.5t52.5 -93t80.5 -61
t101.5 -21.5q69 0 122.5 34t87.5 98l77 -29q-24 -56 -67 -96.5t-100 -62t-122 -21.5zM369 7h58l-18 -64q22 -4 39 -16t27 -28.5t10 -36.5q0 -27 -15 -47.5t-41.5 -32t-60.5 -11.5q-46 0 -80 15l15 55q17 -6 31.5 -8.5t27.5 -2.5q22 0 36.5 9.5t14.5 25.5q0 19 -19 29t-55 10
z" />
    <glyph glyph-name="Scedilla" unicode="&#x15e;" horiz-adv-x="551" 
d="M274 -15q-56 0 -104 19.5t-83 55.5t-51 85l79 25q20 -52 61.5 -81t96.5 -29q43 0 77.5 17.5t54 48t19.5 68.5q0 49 -33.5 80.5t-96.5 45.5l-44 10q-98 22 -147 72t-49 123q0 44 16.5 80.5t46.5 63.5t69.5 41.5t85.5 14.5q54 0 99.5 -19.5t78.5 -55.5t48 -84l-79 -25
q-20 53 -58 81t-89 28q-39 0 -69 -15.5t-47 -42t-17 -61.5q0 -46 33 -75.5t105 -46.5l44 -10q95 -22 141.5 -74t46.5 -126q0 -47 -17.5 -86.5t-49 -68t-74.5 -44t-94 -15.5zM251 7h58l-18 -64q22 -4 39 -16t27 -28.5t10 -36.5q0 -27 -15 -47.5t-41.5 -32t-60.5 -11.5
q-46 0 -80 15l15 55q17 -6 31.5 -8.5t27.5 -2.5q22 0 36.5 9.5t14.5 25.5q0 19 -19 29t-55 10z" />
    <glyph glyph-name="uni0122" unicode="&#x122;" horiz-adv-x="781" 
d="M404 -20q-77 0 -141.5 27.5t-111.5 77.5t-73 118t-26 148q0 65 17 123t49 105t75.5 80.5t96.5 52t113 18.5q64 0 120 -21t98.5 -59.5t68.5 -91.5l-78 -32q-32 60 -85.5 93.5t-122.5 33.5q-57 0 -105.5 -22.5t-84.5 -63t-56 -95.5t-20 -120q0 -63 19.5 -117t55.5 -94
t85 -62t108 -22q51 0 93.5 17t74.5 48t50 74t19 96h-217v74h303v-57q0 -73 -24 -133t-67.5 -104t-103 -68t-130.5 -24zM371 -254l-19 43q24 12 37.5 27.5t13.5 31.5q-8 -5 -19 -5q-16 0 -27 12t-11 30q0 19 14 32t36 13q18 0 32 -9.5t22 -26.5t8 -37q0 -37 -23 -66.5
t-64 -44.5z" />
    <glyph glyph-name="uni0136" unicode="&#x136;" horiz-adv-x="647" 
d="M78 0v710h84v-321l326 321h110l-344 -335l380 -375h-121l-351 349v-349h-84zM297 -254l-19 43q24 12 37.5 27.5t13.5 31.5q-8 -5 -19 -5q-16 0 -27 12t-11 30q0 19 14 32t36 13q18 0 32 -9.5t22 -26.5t8 -37q0 -37 -23 -66.5t-64 -44.5z" />
    <glyph glyph-name="uni013B" unicode="&#x13b;" horiz-adv-x="525" 
d="M78 0v710h84v-633h316v-77h-400zM246 -254l-19 43q24 12 37.5 27.5t13.5 31.5q-8 -5 -19 -5q-16 0 -27 12t-11 30q0 19 14 32t36 13q18 0 32 -9.5t22 -26.5t8 -37q0 -37 -23 -66.5t-64 -44.5z" />
    <glyph glyph-name="uni0145" unicode="&#x145;" horiz-adv-x="708" 
d="M78 0v710h74l396 -569v569h82v-710h-74l-396 569v-569h-82zM322 -254l-19 43q24 12 37.5 27.5t13.5 31.5q-8 -5 -19 -5q-16 0 -27 12t-11 30q0 19 14 32t36 13q18 0 32 -9.5t22 -26.5t8 -37q0 -37 -23 -66.5t-64 -44.5z" />
    <glyph glyph-name="uni0218" unicode="&#x218;" horiz-adv-x="551" 
d="M274 -15q-56 0 -104 19.5t-83 55.5t-51 85l79 25q20 -52 61.5 -81t96.5 -29q43 0 77.5 17.5t54 48t19.5 68.5q0 49 -33.5 80.5t-96.5 45.5l-44 10q-98 22 -147 72t-49 123q0 44 16.5 80.5t46.5 63.5t69.5 41.5t85.5 14.5q54 0 99.5 -19.5t78.5 -55.5t48 -84l-79 -25
q-20 53 -58 81t-89 28q-39 0 -69 -15.5t-47 -42t-17 -61.5q0 -46 33 -75.5t105 -46.5l44 -10q95 -22 141.5 -74t46.5 -126q0 -47 -17.5 -86.5t-49 -68t-74.5 -44t-94 -15.5zM241 -254l-19 43q24 12 37.5 27.5t13.5 31.5q-8 -5 -19 -5q-16 0 -27 12t-11 30q0 19 14 32t36 13
q18 0 32 -9.5t22 -26.5t8 -37q0 -37 -23 -66.5t-64 -44.5z" />
    <glyph glyph-name="uni021A" unicode="&#x21a;" horiz-adv-x="614" 
d="M265 0v633h-217v77h518v-77h-217v-633h-84zM276 -254l-19 43q24 12 37.5 27.5t13.5 31.5q-8 -5 -19 -5q-16 0 -27 12t-11 30q0 19 14 32t36 13q18 0 32 -9.5t22 -26.5t8 -37q0 -37 -23 -66.5t-64 -44.5z" />
    <glyph glyph-name="Aogonek" unicode="&#x104;" horiz-adv-x="707" 
d="M23 0l286 710h89l286 -710h-90l-79 202h-326l-79 -202h-87zM219 279h265l-132 338zM617 -216q-29 0 -51.5 11t-35 31t-12.5 46q0 35 27 72.5t85 78.5l54 -23q-49 -38 -72 -66.5t-23 -50.5q0 -17 11 -27t30 -10q13 0 28 3t25 7l14 -55q-19 -8 -40 -12.5t-40 -4.5z" />
    <glyph glyph-name="Eogonek" unicode="&#x118;" horiz-adv-x="561" 
d="M78 0v710h409v-75h-325v-228h297v-76h-297v-255h335v-76h-419zM430 -216q-29 0 -51.5 11t-35 31t-12.5 46q0 35 27 72.5t85 78.5l54 -23q-49 -38 -72 -66.5t-23 -50.5q0 -17 11 -27t30 -10q13 0 28 3t25 7l14 -55q-19 -8 -40 -12.5t-40 -4.5z" />
    <glyph glyph-name="Iogonek" unicode="&#x12e;" horiz-adv-x="240" 
d="M78 0v710h84v-710h-84zM95 -216q-29 0 -51.5 11t-35 31t-12.5 46q0 35 27 72.5t85 78.5l54 -23q-49 -38 -72 -66.5t-23 -50.5q0 -17 11 -27t30 -10q13 0 28 3t25 7l14 -55q-19 -8 -40 -12.5t-40 -4.5z" />
    <glyph glyph-name="Uogonek" unicode="&#x172;" horiz-adv-x="698" 
d="M348 -20q-64 0 -115.5 20.5t-88.5 59.5t-56.5 93.5t-19.5 121.5v435h84v-432q0 -68 24 -117.5t68 -76.5t105 -27t105 27t68 76.5t24 117.5v432h84v-435q0 -67 -20 -121t-57 -93t-89 -60t-116 -21zM473 -216q-46 0 -73.5 25.5t-27.5 68.5q0 81 118 176l55 2
q-52 -53 -77 -94t-25 -72q0 -20 11.5 -32t31.5 -12q13 0 27.5 3t23.5 7l14 -55q-18 -8 -38.5 -12.5t-39.5 -4.5z" />
    <glyph glyph-name="ccedilla" unicode="&#xe7;" horiz-adv-x="546" 
d="M292 -15q-53 0 -98 20t-79 56.5t-52.5 85.5t-18.5 107t19 108.5t53 88.5t80 59t100 21q50 0 90.5 -18t70 -49t45.5 -71l-73 -25q-22 42 -57 66t-79 24q-36 0 -66 -15.5t-53 -42.5t-35.5 -64.5t-12.5 -80.5t12.5 -79t34.5 -62.5t52.5 -41t66.5 -14.5q46 0 84.5 23.5
t58.5 65.5l73 -25q-16 -42 -48.5 -72.5t-76 -47.5t-91.5 -17zM268 11h56l-17 -62q22 -4 39 -16t27 -28.5t10 -36.5q0 -26 -15 -46.5t-41 -32t-60 -11.5q-42 0 -75 15l15 53q31 -10 55 -10q23 0 36.5 9.5t13.5 25.5q0 39 -73 39z" />
    <glyph glyph-name="scedilla" unicode="&#x15f;" horiz-adv-x="462" 
d="M233 -15q-45 0 -84.5 15t-68.5 43t-44 66l72 26q20 -38 52 -59t73 -21q33 0 58 11t39 30.5t14 43.5q0 65 -94 84l-39 8q-82 16 -121 52.5t-39 92.5q0 45 23 80t64.5 54.5t94.5 19.5q44 0 81 -14.5t63.5 -42.5t40.5 -66l-72 -24q-16 37 -45.5 57.5t-68.5 20.5
q-30 0 -52.5 -10t-35.5 -27t-13 -40q0 -32 24.5 -51t79.5 -30l39 -8q74 -15 113 -52.5t39 -95.5q0 -36 -14.5 -65.5t-40 -51.5t-61 -34t-77.5 -12zM207 11h56l-17 -62q22 -4 39 -16t27 -28.5t10 -36.5q0 -26 -15 -46.5t-41 -32t-60 -11.5q-42 0 -75 15l15 53q31 -10 55 -10
q23 0 36.5 9.5t13.5 25.5q0 39 -73 39z" />
    <glyph glyph-name="uni0123" unicode="&#x123;" horiz-adv-x="616" 
d="M283 5q-51 0 -94.5 20t-76 55.5t-50.5 83.5t-18 103q0 56 18.5 104t51.5 84t77.5 56t95.5 20q59 0 107.5 -28t75.5 -77l4 90h72v-472q0 -59 -18 -107.5t-51 -83.5t-79 -53.5t-102 -18.5q-49 0 -92 14.5t-76.5 42t-55.5 65.5l67 34q29 -42 68.5 -64.5t88.5 -22.5
q52 0 90.5 23.5t59 66.5t20.5 101v66q-28 -48 -76 -75t-107 -27zM297 78q37 0 68.5 14t54.5 39.5t35.5 60.5t12.5 76t-12.5 76t-35.5 60.5t-54.5 39.5t-68.5 14t-68.5 -14t-54.5 -39.5t-35.5 -60.5t-12.5 -76t12.5 -76t35.5 -60.5t54.5 -39.5t68.5 -14zM307 581
q-17 0 -31 9.5t-22 26.5t-8 37q0 37 23 66.5t62 44.5l19 -44q-24 -11 -37.5 -27.5t-13.5 -32.5q8 5 19 5q16 0 27 -11.5t11 -29.5q0 -19 -13.5 -31.5t-35.5 -12.5z" />
    <glyph glyph-name="uni0137" unicode="&#x137;" horiz-adv-x="529" 
d="M70 0v742h80v-442l244 216h103l-264 -231l288 -285h-110l-261 264v-264h-80zM249 -242l-19 44q24 11 37.5 27.5t13.5 32.5q-8 -5 -19 -5q-16 0 -27 11.5t-11 29.5q0 19 13.5 31.5t35.5 12.5q17 0 31 -9.5t22 -26t8 -37.5q0 -37 -23 -66.5t-62 -44.5z" />
    <glyph glyph-name="uni013C" unicode="&#x13c;" horiz-adv-x="220" 
d="M70 0v742h80v-742h-80zM80 -242l-19 44q24 11 37.5 27.5t13.5 32.5q-8 -5 -19 -5q-16 0 -27 11.5t-11 29.5q0 19 13.5 31.5t35.5 12.5q17 0 31 -9.5t22 -26t8 -37.5q0 -37 -23 -66.5t-62 -44.5z" />
    <glyph glyph-name="uni0146" unicode="&#x146;" horiz-adv-x="573" 
d="M70 0v516h72l4 -82q23 44 66.5 70.5t100.5 26.5q59 0 103 -28t67.5 -79.5t23.5 -121.5v-302h-80v297q0 77 -33.5 119t-95.5 42q-43 0 -76.5 -19.5t-52.5 -54t-19 -78.5v-306h-80zM259 -242l-19 44q24 11 37.5 27.5t13.5 32.5q-8 -5 -19 -5q-16 0 -27 11.5t-11 29.5
q0 19 13.5 31.5t35.5 12.5q17 0 31 -9.5t22 -26t8 -37.5q0 -37 -23 -66.5t-62 -44.5z" />
    <glyph glyph-name="uni0219" unicode="&#x219;" horiz-adv-x="462" 
d="M233 -15q-45 0 -84.5 15t-68.5 43t-44 66l72 26q20 -38 52 -59t73 -21q33 0 58 11t39 30.5t14 43.5q0 65 -94 84l-39 8q-82 16 -121 52.5t-39 92.5q0 45 23 80t64.5 54.5t94.5 19.5q44 0 81 -14.5t63.5 -42.5t40.5 -66l-72 -24q-16 37 -45.5 57.5t-68.5 20.5
q-30 0 -52.5 -10t-35.5 -27t-13 -40q0 -32 24.5 -51t79.5 -30l39 -8q74 -15 113 -52.5t39 -95.5q0 -36 -14.5 -65.5t-40 -51.5t-61 -34t-77.5 -12zM203 -242l-19 44q24 11 37.5 27.5t13.5 32.5q-8 -5 -19 -5q-16 0 -27 11.5t-11 29.5q0 19 13.5 31.5t35.5 12.5q17 0 31 -9.5
t22 -26t8 -37.5q0 -37 -23 -66.5t-62 -44.5z" />
    <glyph glyph-name="uni021B" unicode="&#x21b;" horiz-adv-x="408" 
d="M263 -15q-47 0 -81 19t-52.5 56t-18.5 90v298h-95v68h95v173h80v-173h162v-68h-162v-294q0 -46 19.5 -71.5t59.5 -25.5q21 0 42.5 6.5t38.5 17.5l24 -62q-21 -15 -49 -24.5t-63 -9.5zM210 -242l-19 44q24 11 37.5 27.5t13.5 32.5q-8 -5 -19 -5q-16 0 -27 11.5t-11 29.5
q0 19 13.5 31.5t35.5 12.5q17 0 31 -9.5t22 -26t8 -37.5q0 -37 -23 -66.5t-62 -44.5z" />
    <glyph glyph-name="aogonek.ss01" horiz-adv-x="622" 
d="M286 -15q-51 0 -95 20.5t-77 57.5t-51.5 86.5t-18.5 107.5t18.5 108t52 87t78.5 58t97 21q60 0 109 -29t77 -80l4 94h72v-516h-72l-4 98q-28 -53 -77.5 -83t-112.5 -30zM300 58q38 0 69.5 15t55 41.5t36.5 63t13 80.5t-13 80.5t-36.5 63t-55 41.5t-69.5 15t-69.5 -15
t-55 -41.5t-36.5 -63t-13 -80.5t13 -80.5t36.5 -63t55 -41.5t69.5 -15zM486 -213q-28 0 -50.5 11t-35 30.5t-12.5 44.5q0 35 27 71t86 79l51 -23q-49 -38 -72 -66.5t-23 -50.5q0 -17 11 -27t30 -10q14 0 29 3t24 7l14 -53q-21 -7 -41 -11.5t-38 -4.5z" />
    <glyph glyph-name="aogonek" unicode="&#x105;" horiz-adv-x="540" 
d="M230 -15q-54 0 -96 20.5t-65.5 56.5t-23.5 83q0 51 26.5 88t74.5 57.5t112 20.5q36 0 73 -8t66 -21v38q0 42 -16.5 73.5t-45.5 49t-68 17.5q-47 0 -81.5 -22t-51.5 -62l-70 24q14 40 43.5 69t71 45t89.5 16q62 0 108.5 -26.5t72 -74t25.5 -111.5v-318h-70l-5 80
q-22 -43 -66.5 -69t-102.5 -26zM126 148q0 -29 15 -50.5t42 -33.5t62 -12q43 0 77.5 19.5t54.5 53t20 76.5v19q-33 13 -66.5 20.5t-63.5 7.5q-66 0 -103.5 -27t-37.5 -73zM408 -213q-28 0 -50.5 11t-35 30.5t-12.5 44.5q0 35 27 71t86 79l51 -23q-49 -38 -72 -66.5
t-23 -50.5q0 -17 11 -27t30 -10q14 0 29 3t24 7l14 -53q-21 -7 -41 -11.5t-38 -4.5z" />
    <glyph glyph-name="eogonek" unicode="&#x119;" horiz-adv-x="572" 
d="M304 -15q-57 0 -104.5 20t-82.5 56.5t-54 86t-19 109.5q0 59 18.5 108.5t52 86.5t78.5 57.5t98 20.5q51 0 94.5 -19t75.5 -53t49.5 -81t17.5 -102v-33h-401q4 -56 26.5 -98t60.5 -65t88 -23q49 0 85.5 20.5t62.5 60.5l68 -31q-20 -38 -52 -65t-73.5 -41.5t-88.5 -14.5z
M291 462q-41 0 -74.5 -20t-56 -55.5t-29.5 -82.5h313q-4 47 -25 82.5t-54 55.5t-74 20zM402 -213q-48 0 -77 24.5t-29 65.5q0 77 117 168l54 2q-52 -50 -77 -89.5t-25 -68.5q0 -20 13 -31.5t37 -11.5q11 0 24 3t20 7l14 -53q-17 -7 -35.5 -11.5t-35.5 -4.5z" />
    <glyph glyph-name="iogonek" unicode="&#x12f;" horiz-adv-x="220" 
d="M165 667q0 -15 -7.5 -27.5t-20 -20t-27.5 -7.5t-27.5 7.5t-20 20t-7.5 27.5t7.5 27.5t20 20t27.5 7.5t27.5 -7.5t20 -20t7.5 -27.5zM70 0v516h80v-516h-80zM84 -213q-28 0 -50.5 11t-35 30.5t-12.5 44.5q0 35 27 71t86 79l51 -23q-49 -38 -72 -66.5t-23 -50.5
q0 -17 11 -27t30 -10q14 0 29 3t24 7l14 -53q-21 -7 -41 -11.5t-38 -4.5z" />
    <glyph glyph-name="uogonek" unicode="&#x173;" horiz-adv-x="564" 
d="M280 -15q-66 0 -114 29t-74 82.5t-26 127.5v292h80v-293q0 -51 16.5 -88t47 -57t72.5 -20t72.5 20t47 57t16.5 88v293h80v-292q0 -72 -27 -126t-76 -83.5t-115 -29.5zM371 -213q-48 0 -77 24.5t-29 65.5q0 77 117 168l54 2q-52 -50 -77 -89.5t-25 -68.5q0 -20 13 -31.5
t37 -11.5q11 0 24 3t20 7l14 -53q-17 -7 -35.5 -11.5t-35.5 -4.5z" />
    <glyph glyph-name="acutecomb" unicode="&#x301;" 
d="M-74 599l119 143h95l-134 -143h-80z" />
    <glyph glyph-name="glyph270" 
d="M-86 789l136 121h108l-154 -121h-90z" />
    <glyph glyph-name="acute" unicode="&#xb4;" horiz-adv-x="573" 
d="M179 599l119 143h95l-134 -143h-80z" />
    <glyph glyph-name="uni030B" unicode="&#x30b;" 
d="M-128 599l100 143h87l-115 -143h-72zM25 599l100 143h87l-115 -143h-72z" />
    <glyph glyph-name="glyph273" 
d="M-171 789l142 121h104l-160 -121h-86zM15 789l142 121h104l-160 -121h-86z" />
    <glyph glyph-name="hungarumlaut" unicode="&#x2dd;" horiz-adv-x="573" 
d="M116 599l100 143h87l-115 -143h-72zM269 599l100 143h87l-115 -143h-72z" />
    <glyph glyph-name="Aacute" unicode="&#xc1;" horiz-adv-x="707" 
d="M23 0l286 710h89l286 -710h-90l-79 202h-326l-79 -202h-87zM219 279h265l-132 338zM267 789l136 121h108l-154 -121h-90z" />
    <glyph glyph-name="Cacute" unicode="&#x106;" horiz-adv-x="722" 
d="M389 -20q-73 0 -134.5 27.5t-107 77t-70.5 117t-25 147.5q0 65 16.5 122.5t47 105t72 82t92.5 53t108 18.5q64 0 119.5 -22t98 -62t65.5 -96l-77 -29q-31 63 -84.5 97.5t-120.5 34.5q-54 0 -99.5 -23t-79.5 -64t-53 -96t-19 -120q0 -64 18.5 -117.5t52.5 -93t80.5 -61
t101.5 -21.5q69 0 122.5 34t87.5 98l77 -29q-24 -56 -67 -96.5t-100 -62t-122 -21.5zM302 789l136 121h108l-154 -121h-90z" />
    <glyph glyph-name="Eacute" unicode="&#xc9;" horiz-adv-x="561" 
d="M78 0v710h409v-75h-325v-228h297v-76h-297v-255h335v-76h-419zM196 789l136 121h108l-154 -121h-90z" />
    <glyph glyph-name="Iacute" unicode="&#xcd;" horiz-adv-x="240" 
d="M78 0v710h84v-710h-84zM33 789l136 121h108l-154 -121h-90z" />
    <glyph glyph-name="Iacute_J_acutecomb.locl" horiz-adv-x="672" 
d="M68 291v419h84v-419h-84zM331 -20q-62 0 -113.5 21t-88.5 60.5t-58 95.5l79 24q26 -61 72 -92.5t108 -31.5q58 0 100.5 27t66 76.5t23.5 117.5v432h84v-432q0 -68 -19.5 -123t-55.5 -94t-86 -60t-112 -21zM24 789l136 121h108l-154 -121h-90zM476 789l136 121h108
l-154 -121h-90z" />
    <glyph glyph-name="Lacute" unicode="&#x139;" horiz-adv-x="525" 
d="M78 0v710h84v-633h316v-77h-400zM34 789l136 121h108l-154 -121h-90z" />
    <glyph glyph-name="Nacute" unicode="&#x143;" horiz-adv-x="708" 
d="M78 0v710h74l396 -569v569h82v-710h-74l-396 569v-569h-82zM267 789l136 121h108l-154 -121h-90z" />
    <glyph glyph-name="Oacute" unicode="&#xd3;" horiz-adv-x="798" 
d="M52 354q0 65 17 122t48 104t74 80.5t96 51.5t114 18q75 0 138 -27.5t109.5 -78t72 -119t25.5 -150.5q0 -65 -17 -122t-48 -104t-74 -80.5t-96 -51.5t-114 -18q-75 0 -138 27.5t-109.5 78t-72 119t-25.5 150.5zM138 355q0 -65 19.5 -120t54.5 -95t82.5 -62t104.5 -22
t104.5 22t82.5 62t54.5 95t19.5 120t-19.5 119.5t-54.5 94.5t-82.5 62t-104.5 22t-104.5 -22t-82.5 -62t-54.5 -94.5t-19.5 -119.5zM313 789l136 121h108l-154 -121h-90z" />
    <glyph glyph-name="Racute" unicode="&#x154;" horiz-adv-x="600" 
d="M78 0v710h193q81 0 140.5 -26t91.5 -74t32 -113q0 -67 -36.5 -118t-101.5 -77l172 -302h-98l-154 280q-13 -1 -28.5 -2t-31.5 -1q-20 0 -44.5 2t-50.5 6v-285h-84zM162 635v-275q23 -4 49.5 -6t48.5 -2q91 0 140 37t49 104t-47 104.5t-131 37.5h-109zM180 789l136 121
h108l-154 -121h-90z" />
    <glyph glyph-name="Sacute" unicode="&#x15a;" horiz-adv-x="551" 
d="M274 -15q-56 0 -104 19.5t-83 55.5t-51 85l79 25q20 -52 61.5 -81t96.5 -29q43 0 77.5 17.5t54 48t19.5 68.5q0 49 -33.5 80.5t-96.5 45.5l-44 10q-98 22 -147 72t-49 123q0 44 16.5 80.5t46.5 63.5t69.5 41.5t85.5 14.5q54 0 99.5 -19.5t78.5 -55.5t48 -84l-79 -25
q-20 53 -58 81t-89 28q-39 0 -69 -15.5t-47 -42t-17 -61.5q0 -46 33 -75.5t105 -46.5l44 -10q95 -22 141.5 -74t46.5 -126q0 -47 -17.5 -86.5t-49 -68t-74.5 -44t-94 -15.5zM188 789l136 121h108l-154 -121h-90z" />
    <glyph glyph-name="Uacute" unicode="&#xda;" horiz-adv-x="698" 
d="M348 -20q-64 0 -115.5 20.5t-88.5 59.5t-56.5 93.5t-19.5 121.5v435h84v-432q0 -68 24 -117.5t68 -76.5t105 -27t105 27t68 76.5t24 117.5v432h84v-435q0 -67 -20 -121t-57 -93t-89 -60t-116 -21zM262 789l136 121h108l-154 -121h-90z" />
    <glyph glyph-name="Wacute" unicode="&#x1e82;" horiz-adv-x="1008" 
d="M974 710l-213 -710h-86l-171 604l-170 -604h-87l-213 710h91l167 -602l170 602h86l172 -602l167 602h87zM417 789l136 121h108l-154 -121h-90z" />
    <glyph glyph-name="Yacute" unicode="&#xdd;" horiz-adv-x="620" 
d="M268 0v286l-250 424h96l197 -348l197 348h94l-250 -424v-286h-84zM224 789l136 121h108l-154 -121h-90z" />
    <glyph glyph-name="Zacute" unicode="&#x179;" horiz-adv-x="616" 
d="M47 0v64l393 570h-378v76h485v-64l-393 -570h415v-76h-522zM219 789l136 121h108l-154 -121h-90z" />
    <glyph glyph-name="Ohungarumlaut" unicode="&#x150;" horiz-adv-x="798" 
d="M52 354q0 65 17 122t48 104t74 80.5t96 51.5t114 18q75 0 138 -27.5t109.5 -78t72 -119t25.5 -150.5q0 -65 -17 -122t-48 -104t-74 -80.5t-96 -51.5t-114 -18q-75 0 -138 27.5t-109.5 78t-72 119t-25.5 150.5zM138 355q0 -65 19.5 -120t54.5 -95t82.5 -62t104.5 -22
t104.5 22t82.5 62t54.5 95t19.5 120t-19.5 119.5t-54.5 94.5t-82.5 62t-104.5 22t-104.5 -22t-82.5 -62t-54.5 -94.5t-19.5 -119.5zM228 789l142 121h104l-160 -121h-86zM414 789l142 121h104l-160 -121h-86z" />
    <glyph glyph-name="Uhungarumlaut" unicode="&#x170;" horiz-adv-x="698" 
d="M348 -20q-64 0 -115.5 20.5t-88.5 59.5t-56.5 93.5t-19.5 121.5v435h84v-432q0 -68 24 -117.5t68 -76.5t105 -27t105 27t68 76.5t24 117.5v432h84v-435q0 -67 -20 -121t-57 -93t-89 -60t-116 -21zM177 789l142 121h104l-160 -121h-86zM363 789l142 121h104l-160 -121h-86
z" />
    <glyph glyph-name="aacute" unicode="&#xe1;" horiz-adv-x="540" 
d="M230 -15q-54 0 -96 20.5t-65.5 56.5t-23.5 83q0 51 26.5 88t74.5 57.5t112 20.5q36 0 73 -8t66 -21v38q0 42 -16.5 73.5t-45.5 49t-68 17.5q-47 0 -81.5 -22t-51.5 -62l-70 24q14 40 43.5 69t71 45t89.5 16q62 0 108.5 -26.5t72 -74t25.5 -111.5v-318h-70l-5 80
q-22 -43 -66.5 -69t-102.5 -26zM126 148q0 -29 15 -50.5t42 -33.5t62 -12q43 0 77.5 19.5t54.5 53t20 76.5v19q-33 13 -66.5 20.5t-63.5 7.5q-66 0 -103.5 -27t-37.5 -73zM194 599l119 143h95l-134 -143h-80z" />
    <glyph glyph-name="cacute" unicode="&#x107;" horiz-adv-x="546" 
d="M292 -15q-53 0 -98 20t-79 56.5t-52.5 85.5t-18.5 107t19 108.5t53 88.5t80 59t100 21q50 0 90.5 -18t70 -49t45.5 -71l-73 -25q-22 42 -57 66t-79 24q-36 0 -66 -15.5t-53 -42.5t-35.5 -64.5t-12.5 -80.5t12.5 -79t34.5 -62.5t52.5 -41t66.5 -14.5q46 0 84.5 23.5
t58.5 65.5l73 -25q-16 -42 -48.5 -72.5t-76 -47.5t-91.5 -17zM220 599l119 143h95l-134 -143h-80z" />
    <glyph glyph-name="eacute" unicode="&#xe9;" horiz-adv-x="572" 
d="M304 -15q-57 0 -104.5 20t-82.5 56.5t-54 86t-19 109.5q0 59 18.5 108.5t52 86.5t78.5 57.5t98 20.5q51 0 94.5 -19t75.5 -53t49.5 -81t17.5 -102v-33h-401q4 -56 26.5 -98t60.5 -65t88 -23q49 0 85.5 20.5t62.5 60.5l68 -31q-20 -38 -52 -65t-73.5 -41.5t-88.5 -14.5z
M291 462q-41 0 -74.5 -20t-56 -55.5t-29.5 -82.5h313q-4 47 -25 82.5t-54 55.5t-74 20zM217 599l119 143h95l-134 -143h-80z" />
    <glyph glyph-name="iacute" unicode="&#xed;" horiz-adv-x="220" 
d="M70 0v516h80v-516h-80zM35 599l119 143h95l-134 -143h-80z" />
    <glyph glyph-name="iacute_j_acutecomb.locl" horiz-adv-x="573" 
d="M260 5q-60 0 -103.5 28t-67 79.5t-23.5 121.5v282h80v-277q0 -77 34 -119t95 -42q43 0 76.5 19.5t52.5 54t19 78.5v286h80v-490q0 -74 -28.5 -129.5t-80.5 -85.5t-120 -30t-122 29.5t-83 82.5l67 34q25 -37 59.5 -57t78.5 -20q46 0 79 21t51.5 60t18.5 92v72
q-23 -41 -66 -65.5t-97 -24.5zM32 599l119 143h95l-134 -143h-80zM389 599l119 143h95l-134 -143h-80z" />
    <glyph glyph-name="lacute" unicode="&#x13a;" horiz-adv-x="220" 
d="M70 0v742h80v-742h-80zM35 799l119 143h95l-134 -143h-80z" />
    <glyph glyph-name="nacute" unicode="&#x144;" horiz-adv-x="573" 
d="M70 0v516h72l4 -82q23 44 66.5 70.5t100.5 26.5q59 0 103 -28t67.5 -79.5t23.5 -121.5v-302h-80v297q0 77 -33.5 119t-95.5 42q-43 0 -76.5 -19.5t-52.5 -54t-19 -78.5v-306h-80zM214 599l119 143h95l-134 -143h-80z" />
    <glyph glyph-name="oacute" unicode="&#xf3;" horiz-adv-x="600" 
d="M299 -15q-55 0 -101.5 20.5t-81 57t-53.5 86.5t-19 109t19.5 109t54 86.5t81.5 57t102 20.5t101.5 -20.5t81 -57t53.5 -86.5t19 -109t-19.5 -109t-54 -86.5t-81.5 -57t-102 -20.5zM300 58q38 0 69.5 15t55 41.5t36.5 63t13 80.5t-13 80.5t-36.5 63t-55 41.5t-69.5 15
t-69.5 -15t-55 -41.5t-36.5 -63t-13 -80.5t13 -80.5t36.5 -63t55 -41.5t69.5 -15zM226 599l119 143h95l-134 -143h-80z" />
    <glyph glyph-name="racute" unicode="&#x155;" horiz-adv-x="375" 
d="M70 0v516h72l5 -96q19 48 57 75.5t89 27.5q17 0 30.5 -2.5t23.5 -6.5l-10 -76q-11 4 -23 5.5t-24 1.5q-42 0 -73.5 -21t-49 -59.5t-17.5 -90.5v-274h-80zM134 599l119 143h95l-134 -143h-80z" />
    <glyph glyph-name="sacute" unicode="&#x15b;" horiz-adv-x="462" 
d="M233 -15q-45 0 -84.5 15t-68.5 43t-44 66l72 26q20 -38 52 -59t73 -21q33 0 58 11t39 30.5t14 43.5q0 65 -94 84l-39 8q-82 16 -121 52.5t-39 92.5q0 45 23 80t64.5 54.5t94.5 19.5q44 0 81 -14.5t63.5 -42.5t40.5 -66l-72 -24q-16 37 -45.5 57.5t-68.5 20.5
q-30 0 -52.5 -10t-35.5 -27t-13 -40q0 -32 24.5 -51t79.5 -30l39 -8q74 -15 113 -52.5t39 -95.5q0 -36 -14.5 -65.5t-40 -51.5t-61 -34t-77.5 -12zM157 599l119 143h95l-134 -143h-80z" />
    <glyph glyph-name="uacute" unicode="&#xfa;" horiz-adv-x="564" 
d="M280 -15q-66 0 -114 29t-74 82.5t-26 127.5v292h80v-293q0 -51 16.5 -88t47 -57t72.5 -20t72.5 20t47 57t16.5 88v293h80v-292q0 -72 -27 -126t-76 -83.5t-115 -29.5zM208 599l119 143h95l-134 -143h-80z" />
    <glyph glyph-name="wacute" unicode="&#x1e83;" horiz-adv-x="797" 
d="M192 0l-174 516h84l129 -418l133 418h72l132 -418l129 418h82l-174 -516h-77l-129 413l-130 -413h-77zM324 599l119 143h95l-134 -143h-80z" />
    <glyph glyph-name="yacute" unicode="&#xfd;" horiz-adv-x="523" 
d="M114 -214q-21 0 -39 4.5t-37 14.5l23 64q10 -6 22.5 -9t26.5 -3q31 0 54.5 19.5t40.5 61.5l27 67l-214 511h88l165 -424l149 424h85l-230 -597q-26 -68 -66 -100.5t-95 -32.5zM187 599l119 143h95l-134 -143h-80z" />
    <glyph glyph-name="zacute" unicode="&#x17a;" horiz-adv-x="496" 
d="M44 0v56l292 392h-285v68h384v-55l-294 -393h311v-68h-408zM168 599l119 143h95l-134 -143h-80z" />
    <glyph glyph-name="aacute.ss01" horiz-adv-x="622" 
d="M286 -15q-51 0 -95 20.5t-77 57.5t-51.5 86.5t-18.5 107.5t18.5 108t52 87t78.5 58t97 21q60 0 109 -29t77 -80l4 94h72v-516h-72l-4 98q-28 -53 -77.5 -83t-112.5 -30zM300 58q38 0 69.5 15t55 41.5t36.5 63t13 80.5t-13 80.5t-36.5 63t-55 41.5t-69.5 15t-69.5 -15
t-55 -41.5t-36.5 -63t-13 -80.5t13 -80.5t36.5 -63t55 -41.5t69.5 -15zM231 599l119 143h95l-134 -143h-80z" />
    <glyph glyph-name="ohungarumlaut" unicode="&#x151;" horiz-adv-x="600" 
d="M299 -15q-55 0 -101.5 20.5t-81 57t-53.5 86.5t-19 109t19.5 109t54 86.5t81.5 57t102 20.5t101.5 -20.5t81 -57t53.5 -86.5t19 -109t-19.5 -109t-54 -86.5t-81.5 -57t-102 -20.5zM300 58q38 0 69.5 15t55 41.5t36.5 63t13 80.5t-13 80.5t-36.5 63t-55 41.5t-69.5 15
t-69.5 -15t-55 -41.5t-36.5 -63t-13 -80.5t13 -80.5t36.5 -63t55 -41.5t69.5 -15zM172 599l100 143h87l-115 -143h-72zM325 599l100 143h87l-115 -143h-72z" />
    <glyph glyph-name="uhungarumlaut" unicode="&#x171;" horiz-adv-x="564" 
d="M280 -15q-66 0 -114 29t-74 82.5t-26 127.5v292h80v-293q0 -51 16.5 -88t47 -57t72.5 -20t72.5 20t47 57t16.5 88v293h80v-292q0 -72 -27 -126t-76 -83.5t-115 -29.5zM154 599l100 143h87l-115 -143h-72zM307 599l100 143h87l-115 -143h-72z" />
    <glyph glyph-name="gravecomb" unicode="&#x300;" 
d="M-6 599l-134 143h95l119 -143h-80z" />
    <glyph glyph-name="glyph309" 
d="M-4 789l-154 121h108l136 -121h-90z" />
    <glyph glyph-name="grave" unicode="`" horiz-adv-x="573" 
d="M313 599l-134 143h95l119 -143h-80z" />
    <glyph glyph-name="uni02CB" unicode="&#x2cb;" horiz-adv-x="573" 
d="M313 599l-134 143h95l119 -143h-80z" />
    <glyph glyph-name="Agrave" unicode="&#xc0;" horiz-adv-x="707" 
d="M23 0l286 710h89l286 -710h-90l-79 202h-326l-79 -202h-87zM219 279h265l-132 338zM349 789l-154 121h108l136 -121h-90z" />
    <glyph glyph-name="Egrave" unicode="&#xc8;" horiz-adv-x="561" 
d="M78 0v710h409v-75h-325v-228h297v-76h-297v-255h335v-76h-419zM278 789l-154 121h108l136 -121h-90z" />
    <glyph glyph-name="Igrave" unicode="&#xcc;" horiz-adv-x="240" 
d="M78 0v710h84v-710h-84zM115 789l-154 121h108l136 -121h-90z" />
    <glyph glyph-name="Ograve" unicode="&#xd2;" horiz-adv-x="798" 
d="M52 354q0 65 17 122t48 104t74 80.5t96 51.5t114 18q75 0 138 -27.5t109.5 -78t72 -119t25.5 -150.5q0 -65 -17 -122t-48 -104t-74 -80.5t-96 -51.5t-114 -18q-75 0 -138 27.5t-109.5 78t-72 119t-25.5 150.5zM138 355q0 -65 19.5 -120t54.5 -95t82.5 -62t104.5 -22
t104.5 22t82.5 62t54.5 95t19.5 120t-19.5 119.5t-54.5 94.5t-82.5 62t-104.5 22t-104.5 -22t-82.5 -62t-54.5 -94.5t-19.5 -119.5zM395 789l-154 121h108l136 -121h-90z" />
    <glyph glyph-name="Ugrave" unicode="&#xd9;" horiz-adv-x="698" 
d="M348 -20q-64 0 -115.5 20.5t-88.5 59.5t-56.5 93.5t-19.5 121.5v435h84v-432q0 -68 24 -117.5t68 -76.5t105 -27t105 27t68 76.5t24 117.5v432h84v-435q0 -67 -20 -121t-57 -93t-89 -60t-116 -21zM344 789l-154 121h108l136 -121h-90z" />
    <glyph glyph-name="Wgrave" unicode="&#x1e80;" horiz-adv-x="1008" 
d="M974 710l-213 -710h-86l-171 604l-170 -604h-87l-213 710h91l167 -602l170 602h86l172 -602l167 602h87zM499 789l-154 121h108l136 -121h-90z" />
    <glyph glyph-name="Ygrave" unicode="&#x1ef2;" horiz-adv-x="620" 
d="M268 0v286l-250 424h96l197 -348l197 348h94l-250 -424v-286h-84zM306 789l-154 121h108l136 -121h-90z" />
    <glyph glyph-name="agrave" unicode="&#xe0;" horiz-adv-x="540" 
d="M230 -15q-54 0 -96 20.5t-65.5 56.5t-23.5 83q0 51 26.5 88t74.5 57.5t112 20.5q36 0 73 -8t66 -21v38q0 42 -16.5 73.5t-45.5 49t-68 17.5q-47 0 -81.5 -22t-51.5 -62l-70 24q14 40 43.5 69t71 45t89.5 16q62 0 108.5 -26.5t72 -74t25.5 -111.5v-318h-70l-5 80
q-22 -43 -66.5 -69t-102.5 -26zM126 148q0 -29 15 -50.5t42 -33.5t62 -12q43 0 77.5 19.5t54.5 53t20 76.5v19q-33 13 -66.5 20.5t-63.5 7.5q-66 0 -103.5 -27t-37.5 -73zM262 599l-134 143h95l119 -143h-80z" />
    <glyph glyph-name="egrave" unicode="&#xe8;" horiz-adv-x="572" 
d="M304 -15q-57 0 -104.5 20t-82.5 56.5t-54 86t-19 109.5q0 59 18.5 108.5t52 86.5t78.5 57.5t98 20.5q51 0 94.5 -19t75.5 -53t49.5 -81t17.5 -102v-33h-401q4 -56 26.5 -98t60.5 -65t88 -23q49 0 85.5 20.5t62.5 60.5l68 -31q-20 -38 -52 -65t-73.5 -41.5t-88.5 -14.5z
M291 462q-41 0 -74.5 -20t-56 -55.5t-29.5 -82.5h313q-4 47 -25 82.5t-54 55.5t-74 20zM285 599l-134 143h95l119 -143h-80z" />
    <glyph glyph-name="igrave" unicode="&#xec;" horiz-adv-x="220" 
d="M70 0v516h80v-516h-80zM103 599l-134 143h95l119 -143h-80z" />
    <glyph glyph-name="ograve" unicode="&#xf2;" horiz-adv-x="600" 
d="M299 -15q-55 0 -101.5 20.5t-81 57t-53.5 86.5t-19 109t19.5 109t54 86.5t81.5 57t102 20.5t101.5 -20.5t81 -57t53.5 -86.5t19 -109t-19.5 -109t-54 -86.5t-81.5 -57t-102 -20.5zM300 58q38 0 69.5 15t55 41.5t36.5 63t13 80.5t-13 80.5t-36.5 63t-55 41.5t-69.5 15
t-69.5 -15t-55 -41.5t-36.5 -63t-13 -80.5t13 -80.5t36.5 -63t55 -41.5t69.5 -15zM294 599l-134 143h95l119 -143h-80z" />
    <glyph glyph-name="ugrave" unicode="&#xf9;" horiz-adv-x="564" 
d="M280 -15q-66 0 -114 29t-74 82.5t-26 127.5v292h80v-293q0 -51 16.5 -88t47 -57t72.5 -20t72.5 20t47 57t16.5 88v293h80v-292q0 -72 -27 -126t-76 -83.5t-115 -29.5zM276 599l-134 143h95l119 -143h-80z" />
    <glyph glyph-name="wgrave" unicode="&#x1e81;" horiz-adv-x="797" 
d="M192 0l-174 516h84l129 -418l133 418h72l132 -418l129 418h82l-174 -516h-77l-129 413l-130 -413h-77zM392 599l-134 143h95l119 -143h-80z" />
    <glyph glyph-name="ygrave" unicode="&#x1ef3;" horiz-adv-x="523" 
d="M114 -214q-21 0 -39 4.5t-37 14.5l23 64q10 -6 22.5 -9t26.5 -3q31 0 54.5 19.5t40.5 61.5l27 67l-214 511h88l165 -424l149 424h85l-230 -597q-26 -68 -66 -100.5t-95 -32.5zM255 599l-134 143h95l119 -143h-80z" />
    <glyph glyph-name="agrave.ss01" horiz-adv-x="622" 
d="M286 -15q-51 0 -95 20.5t-77 57.5t-51.5 86.5t-18.5 107.5t18.5 108t52 87t78.5 58t97 21q60 0 109 -29t77 -80l4 94h72v-516h-72l-4 98q-28 -53 -77.5 -83t-112.5 -30zM300 58q38 0 69.5 15t55 41.5t36.5 63t13 80.5t-13 80.5t-36.5 63t-55 41.5t-69.5 15t-69.5 -15
t-55 -41.5t-36.5 -63t-13 -80.5t13 -80.5t36.5 -63t55 -41.5t69.5 -15zM299 599l-134 143h95l119 -143h-80z" />
    <glyph glyph-name="uni0302" unicode="&#x302;" 
d="M-156 599l122 143h69l122 -143h-78l-79 86l-80 -86h-76z" />
    <glyph glyph-name="glyph328" 
d="M-183 789l142 121h83l142 -121h-90l-94 71l-95 -71h-88z" />
    <glyph glyph-name="circumflex" unicode="&#x2c6;" horiz-adv-x="573" 
d="M130 599l122 143h69l122 -143h-78l-79 86l-80 -86h-76z" />
    <glyph glyph-name="tildecomb" unicode="&#x303;" 
d="M62 595q-22 0 -38.5 7.5t-30 18t-26 18t-24.5 7.5q-30 0 -39 -47h-61q7 55 33 83t63 28q22 0 38.5 -7.5t30 -18t26 -18t24.5 -7.5q30 0 39 47h61q-7 -55 -32.5 -83t-63.5 -28z" />
    <glyph glyph-name="glyph331" 
d="M72 788q-24 0 -43 8t-34.5 18.5t-30.5 18.5t-30 8q-18 0 -31 -12.5t-18 -35.5h-63q8 53 36.5 83t71.5 30q24 0 42.5 -8t34 -18.5t30.5 -18.5t30 -8q18 0 31 12.5t18 35.5h63q-7 -53 -36 -83t-71 -30z" />
    <glyph glyph-name="tilde" unicode="&#x2dc;" horiz-adv-x="573" 
d="M348 595q-22 0 -38.5 7.5t-30 18t-26 18t-24.5 7.5q-30 0 -39 -47h-61q7 55 33 83t63 28q22 0 38.5 -7.5t30 -18t26 -18t24.5 -7.5q30 0 39 47h61q-7 -55 -32.5 -83t-63.5 -28z" />
    <glyph glyph-name="Acircumflex" unicode="&#xc2;" horiz-adv-x="707" 
d="M23 0l286 710h89l286 -710h-90l-79 202h-326l-79 -202h-87zM219 279h265l-132 338zM170 789l142 121h83l142 -121h-90l-94 71l-95 -71h-88z" />
    <glyph glyph-name="Ecircumflex" unicode="&#xca;" horiz-adv-x="561" 
d="M78 0v710h409v-75h-325v-228h297v-76h-297v-255h335v-76h-419zM99 789l142 121h83l142 -121h-90l-94 71l-95 -71h-88z" />
    <glyph glyph-name="Icircumflex" unicode="&#xce;" horiz-adv-x="240" 
d="M78 0v710h84v-710h-84zM-64 789l142 121h83l142 -121h-90l-94 71l-95 -71h-88z" />
    <glyph glyph-name="Ocircumflex" unicode="&#xd4;" horiz-adv-x="798" 
d="M52 354q0 65 17 122t48 104t74 80.5t96 51.5t114 18q75 0 138 -27.5t109.5 -78t72 -119t25.5 -150.5q0 -65 -17 -122t-48 -104t-74 -80.5t-96 -51.5t-114 -18q-75 0 -138 27.5t-109.5 78t-72 119t-25.5 150.5zM138 355q0 -65 19.5 -120t54.5 -95t82.5 -62t104.5 -22
t104.5 22t82.5 62t54.5 95t19.5 120t-19.5 119.5t-54.5 94.5t-82.5 62t-104.5 22t-104.5 -22t-82.5 -62t-54.5 -94.5t-19.5 -119.5zM216 789l142 121h83l142 -121h-90l-94 71l-95 -71h-88z" />
    <glyph glyph-name="Ucircumflex" unicode="&#xdb;" horiz-adv-x="698" 
d="M348 -20q-64 0 -115.5 20.5t-88.5 59.5t-56.5 93.5t-19.5 121.5v435h84v-432q0 -68 24 -117.5t68 -76.5t105 -27t105 27t68 76.5t24 117.5v432h84v-435q0 -67 -20 -121t-57 -93t-89 -60t-116 -21zM165 789l142 121h83l142 -121h-90l-94 71l-95 -71h-88z" />
    <glyph glyph-name="Wcircumflex" unicode="&#x174;" horiz-adv-x="1008" 
d="M974 710l-213 -710h-86l-171 604l-170 -604h-87l-213 710h91l167 -602l170 602h86l172 -602l167 602h87zM320 789l142 121h83l142 -121h-90l-94 71l-95 -71h-88z" />
    <glyph glyph-name="Ycircumflex" unicode="&#x176;" horiz-adv-x="620" 
d="M268 0v286l-250 424h96l197 -348l197 348h94l-250 -424v-286h-84zM127 789l142 121h83l142 -121h-90l-94 71l-95 -71h-88z" />
    <glyph glyph-name="Atilde" unicode="&#xc3;" horiz-adv-x="707" 
d="M23 0l286 710h89l286 -710h-90l-79 202h-326l-79 -202h-87zM219 279h265l-132 338zM425 788q-24 0 -43 8t-34.5 18.5t-30.5 18.5t-30 8q-18 0 -31 -12.5t-18 -35.5h-63q8 53 36.5 83t71.5 30q24 0 42.5 -8t34 -18.5t30.5 -18.5t30 -8q18 0 31 12.5t18 35.5h63
q-7 -53 -36 -83t-71 -30z" />
    <glyph glyph-name="Itilde" unicode="&#x128;" horiz-adv-x="240" 
d="M78 0v710h84v-710h-84zM191 788q-24 0 -43 8t-34.5 18.5t-30.5 18.5t-30 8q-18 0 -31 -12.5t-18 -35.5h-63q8 53 36.5 83t71.5 30q24 0 42.5 -8t34 -18.5t30.5 -18.5t30 -8q18 0 31 12.5t18 35.5h63q-7 -53 -36 -83t-71 -30z" />
    <glyph glyph-name="Ntilde" unicode="&#xd1;" horiz-adv-x="708" 
d="M78 0v710h74l396 -569v569h82v-710h-74l-396 569v-569h-82zM425 788q-24 0 -43 8t-34.5 18.5t-30.5 18.5t-30 8q-18 0 -31 -12.5t-18 -35.5h-63q8 53 36.5 83t71.5 30q24 0 42.5 -8t34 -18.5t30.5 -18.5t30 -8q18 0 31 12.5t18 35.5h63q-7 -53 -36 -83t-71 -30z" />
    <glyph glyph-name="Otilde" unicode="&#xd5;" horiz-adv-x="798" 
d="M52 354q0 65 17 122t48 104t74 80.5t96 51.5t114 18q75 0 138 -27.5t109.5 -78t72 -119t25.5 -150.5q0 -65 -17 -122t-48 -104t-74 -80.5t-96 -51.5t-114 -18q-75 0 -138 27.5t-109.5 78t-72 119t-25.5 150.5zM138 355q0 -65 19.5 -120t54.5 -95t82.5 -62t104.5 -22
t104.5 22t82.5 62t54.5 95t19.5 120t-19.5 119.5t-54.5 94.5t-82.5 62t-104.5 22t-104.5 -22t-82.5 -62t-54.5 -94.5t-19.5 -119.5zM471 788q-24 0 -43 8t-34.5 18.5t-30.5 18.5t-30 8q-18 0 -31 -12.5t-18 -35.5h-63q8 53 36.5 83t71.5 30q24 0 42.5 -8t34 -18.5
t30.5 -18.5t30 -8q18 0 31 12.5t18 35.5h63q-7 -53 -36 -83t-71 -30z" />
    <glyph glyph-name="Utilde" unicode="&#x168;" horiz-adv-x="698" 
d="M348 -20q-64 0 -115.5 20.5t-88.5 59.5t-56.5 93.5t-19.5 121.5v435h84v-432q0 -68 24 -117.5t68 -76.5t105 -27t105 27t68 76.5t24 117.5v432h84v-435q0 -67 -20 -121t-57 -93t-89 -60t-116 -21zM420 788q-24 0 -43 8t-34.5 18.5t-30.5 18.5t-30 8q-18 0 -31 -12.5
t-18 -35.5h-63q8 53 36.5 83t71.5 30q24 0 42.5 -8t34 -18.5t30.5 -18.5t30 -8q18 0 31 12.5t18 35.5h63q-7 -53 -36 -83t-71 -30z" />
    <glyph glyph-name="acircumflex" unicode="&#xe2;" horiz-adv-x="540" 
d="M230 -15q-54 0 -96 20.5t-65.5 56.5t-23.5 83q0 51 26.5 88t74.5 57.5t112 20.5q36 0 73 -8t66 -21v38q0 42 -16.5 73.5t-45.5 49t-68 17.5q-47 0 -81.5 -22t-51.5 -62l-70 24q14 40 43.5 69t71 45t89.5 16q62 0 108.5 -26.5t72 -74t25.5 -111.5v-318h-70l-5 80
q-22 -43 -66.5 -69t-102.5 -26zM126 148q0 -29 15 -50.5t42 -33.5t62 -12q43 0 77.5 19.5t54.5 53t20 76.5v19q-33 13 -66.5 20.5t-63.5 7.5q-66 0 -103.5 -27t-37.5 -73zM112 599l122 143h69l122 -143h-78l-79 86l-80 -86h-76z" />
    <glyph glyph-name="ecircumflex" unicode="&#xea;" horiz-adv-x="572" 
d="M304 -15q-57 0 -104.5 20t-82.5 56.5t-54 86t-19 109.5q0 59 18.5 108.5t52 86.5t78.5 57.5t98 20.5q51 0 94.5 -19t75.5 -53t49.5 -81t17.5 -102v-33h-401q4 -56 26.5 -98t60.5 -65t88 -23q49 0 85.5 20.5t62.5 60.5l68 -31q-20 -38 -52 -65t-73.5 -41.5t-88.5 -14.5z
M291 462q-41 0 -74.5 -20t-56 -55.5t-29.5 -82.5h313q-4 47 -25 82.5t-54 55.5t-74 20zM135 599l122 143h69l122 -143h-78l-79 86l-80 -86h-76z" />
    <glyph glyph-name="icircumflex" unicode="&#xee;" horiz-adv-x="220" 
d="M70 0v516h80v-516h-80zM-47 599l122 143h69l122 -143h-78l-79 86l-80 -86h-76z" />
    <glyph glyph-name="ocircumflex" unicode="&#xf4;" horiz-adv-x="600" 
d="M299 -15q-55 0 -101.5 20.5t-81 57t-53.5 86.5t-19 109t19.5 109t54 86.5t81.5 57t102 20.5t101.5 -20.5t81 -57t53.5 -86.5t19 -109t-19.5 -109t-54 -86.5t-81.5 -57t-102 -20.5zM300 58q38 0 69.5 15t55 41.5t36.5 63t13 80.5t-13 80.5t-36.5 63t-55 41.5t-69.5 15
t-69.5 -15t-55 -41.5t-36.5 -63t-13 -80.5t13 -80.5t36.5 -63t55 -41.5t69.5 -15zM144 599l122 143h69l122 -143h-78l-79 86l-80 -86h-76z" />
    <glyph glyph-name="ucircumflex" unicode="&#xfb;" horiz-adv-x="564" 
d="M280 -15q-66 0 -114 29t-74 82.5t-26 127.5v292h80v-293q0 -51 16.5 -88t47 -57t72.5 -20t72.5 20t47 57t16.5 88v293h80v-292q0 -72 -27 -126t-76 -83.5t-115 -29.5zM126 599l122 143h69l122 -143h-78l-79 86l-80 -86h-76z" />
    <glyph glyph-name="wcircumflex" unicode="&#x175;" horiz-adv-x="797" 
d="M192 0l-174 516h84l129 -418l133 418h72l132 -418l129 418h82l-174 -516h-77l-129 413l-130 -413h-77zM242 599l122 143h69l122 -143h-78l-79 86l-80 -86h-76z" />
    <glyph glyph-name="ycircumflex" unicode="&#x177;" horiz-adv-x="523" 
d="M114 -214q-21 0 -39 4.5t-37 14.5l23 64q10 -6 22.5 -9t26.5 -3q31 0 54.5 19.5t40.5 61.5l27 67l-214 511h88l165 -424l149 424h85l-230 -597q-26 -68 -66 -100.5t-95 -32.5zM105 599l122 143h69l122 -143h-78l-79 86l-80 -86h-76z" />
    <glyph glyph-name="acircumflex.ss01" horiz-adv-x="622" 
d="M286 -15q-51 0 -95 20.5t-77 57.5t-51.5 86.5t-18.5 107.5t18.5 108t52 87t78.5 58t97 21q60 0 109 -29t77 -80l4 94h72v-516h-72l-4 98q-28 -53 -77.5 -83t-112.5 -30zM300 58q38 0 69.5 15t55 41.5t36.5 63t13 80.5t-13 80.5t-36.5 63t-55 41.5t-69.5 15t-69.5 -15
t-55 -41.5t-36.5 -63t-13 -80.5t13 -80.5t36.5 -63t55 -41.5t69.5 -15zM149 599l122 143h69l122 -143h-78l-79 86l-80 -86h-76z" />
    <glyph glyph-name="atilde.ss01" horiz-adv-x="622" 
d="M286 -15q-51 0 -95 20.5t-77 57.5t-51.5 86.5t-18.5 107.5t18.5 108t52 87t78.5 58t97 21q60 0 109 -29t77 -80l4 94h72v-516h-72l-4 98q-28 -53 -77.5 -83t-112.5 -30zM300 58q38 0 69.5 15t55 41.5t36.5 63t13 80.5t-13 80.5t-36.5 63t-55 41.5t-69.5 15t-69.5 -15
t-55 -41.5t-36.5 -63t-13 -80.5t13 -80.5t36.5 -63t55 -41.5t69.5 -15zM367 595q-22 0 -38.5 7.5t-30 18t-26 18t-24.5 7.5q-30 0 -39 -47h-61q7 55 33 83t63 28q22 0 38.5 -7.5t30 -18t26 -18t24.5 -7.5q30 0 39 47h61q-7 -55 -32.5 -83t-63.5 -28z" />
    <glyph glyph-name="atilde" unicode="&#xe3;" horiz-adv-x="540" 
d="M230 -15q-54 0 -96 20.5t-65.5 56.5t-23.5 83q0 51 26.5 88t74.5 57.5t112 20.5q36 0 73 -8t66 -21v38q0 42 -16.5 73.5t-45.5 49t-68 17.5q-47 0 -81.5 -22t-51.5 -62l-70 24q14 40 43.5 69t71 45t89.5 16q62 0 108.5 -26.5t72 -74t25.5 -111.5v-318h-70l-5 80
q-22 -43 -66.5 -69t-102.5 -26zM126 148q0 -29 15 -50.5t42 -33.5t62 -12q43 0 77.5 19.5t54.5 53t20 76.5v19q-33 13 -66.5 20.5t-63.5 7.5q-66 0 -103.5 -27t-37.5 -73zM330 595q-22 0 -38.5 7.5t-30 18t-26 18t-24.5 7.5q-30 0 -39 -47h-61q7 55 33 83t63 28
q22 0 38.5 -7.5t30 -18t26 -18t24.5 -7.5q30 0 39 47h61q-7 -55 -32.5 -83t-63.5 -28z" />
    <glyph glyph-name="itilde" unicode="&#x129;" horiz-adv-x="220" 
d="M70 0v516h80v-516h-80zM171 595q-22 0 -38.5 7.5t-30 18t-26 18t-24.5 7.5q-30 0 -39 -47h-61q7 55 33 83t63 28q22 0 38.5 -7.5t30 -18t26 -18t24.5 -7.5q30 0 39 47h61q-7 -55 -32.5 -83t-63.5 -28z" />
    <glyph glyph-name="ntilde" unicode="&#xf1;" horiz-adv-x="573" 
d="M70 0v516h72l4 -82q23 44 66.5 70.5t100.5 26.5q59 0 103 -28t67.5 -79.5t23.5 -121.5v-302h-80v297q0 77 -33.5 119t-95.5 42q-43 0 -76.5 -19.5t-52.5 -54t-19 -78.5v-306h-80zM350 595q-22 0 -38.5 7.5t-30 18t-26 18t-24.5 7.5q-30 0 -39 -47h-61q7 55 33 83t63 28
q22 0 38.5 -7.5t30 -18t26 -18t24.5 -7.5q30 0 39 47h61q-7 -55 -32.5 -83t-63.5 -28z" />
    <glyph glyph-name="otilde" unicode="&#xf5;" horiz-adv-x="600" 
d="M299 -15q-55 0 -101.5 20.5t-81 57t-53.5 86.5t-19 109t19.5 109t54 86.5t81.5 57t102 20.5t101.5 -20.5t81 -57t53.5 -86.5t19 -109t-19.5 -109t-54 -86.5t-81.5 -57t-102 -20.5zM300 58q38 0 69.5 15t55 41.5t36.5 63t13 80.5t-13 80.5t-36.5 63t-55 41.5t-69.5 15
t-69.5 -15t-55 -41.5t-36.5 -63t-13 -80.5t13 -80.5t36.5 -63t55 -41.5t69.5 -15zM362 595q-22 0 -38.5 7.5t-30 18t-26 18t-24.5 7.5q-30 0 -39 -47h-61q7 55 33 83t63 28q22 0 38.5 -7.5t30 -18t26 -18t24.5 -7.5q30 0 39 47h61q-7 -55 -32.5 -83t-63.5 -28z" />
    <glyph glyph-name="utilde" unicode="&#x169;" horiz-adv-x="564" 
d="M280 -15q-66 0 -114 29t-74 82.5t-26 127.5v292h80v-293q0 -51 16.5 -88t47 -57t72.5 -20t72.5 20t47 57t16.5 88v293h80v-292q0 -72 -27 -126t-76 -83.5t-115 -29.5zM344 595q-22 0 -38.5 7.5t-30 18t-26 18t-24.5 7.5q-30 0 -39 -47h-61q7 55 33 83t63 28
q22 0 38.5 -7.5t30 -18t26 -18t24.5 -7.5q30 0 39 47h61q-7 -55 -32.5 -83t-63.5 -28z" />
    <glyph glyph-name="uni030C" unicode="&#x30c;" 
d="M-34 599l-122 143h78l79 -86l80 86h76l-122 -143h-69z" />
    <glyph glyph-name="glyph360" 
d="M-41 789l-142 121h90l95 -71l94 71h88l-142 -121h-83z" />
    <glyph glyph-name="caron" unicode="&#x2c7;" horiz-adv-x="573" 
d="M252 599l-122 143h78l79 -86l80 86h76l-122 -143h-69z" />
    <glyph glyph-name="uni0315" unicode="&#x315;" 
d="M75 564l19 178h72l-36 -178h-55z" />
    <glyph glyph-name="glyph363" 
d="M78 589l16 153h72l-33 -153h-55z" />
    <glyph glyph-name="uni0304" unicode="&#x304;" 
d="M-146 611v64h292v-64h-292z" />
    <glyph glyph-name="glyph365" 
d="M-166 794v65h332v-65h-332z" />
    <glyph glyph-name="uni02C9" unicode="&#x2c9;" horiz-adv-x="573" 
d="M140 611v64h292v-64h-292z" />
    <glyph glyph-name="macron" unicode="&#xaf;" horiz-adv-x="573" 
d="M140 611v64h292v-64h-292z" />
    <glyph glyph-name="Ccaron" unicode="&#x10c;" horiz-adv-x="722" 
d="M389 -20q-73 0 -134.5 27.5t-107 77t-70.5 117t-25 147.5q0 65 16.5 122.5t47 105t72 82t92.5 53t108 18.5q64 0 119.5 -22t98 -62t65.5 -96l-77 -29q-31 63 -84.5 97.5t-120.5 34.5q-54 0 -99.5 -23t-79.5 -64t-53 -96t-19 -120q0 -64 18.5 -117.5t52.5 -93t80.5 -61
t101.5 -21.5q69 0 122.5 34t87.5 98l77 -29q-24 -56 -67 -96.5t-100 -62t-122 -21.5zM347 789l-142 121h90l95 -71l94 71h88l-142 -121h-83z" />
    <glyph glyph-name="Dcaron" unicode="&#x10e;" horiz-adv-x="741" 
d="M78 0v710h235q85 0 154.5 -25t119 -71.5t76 -111.5t26.5 -145q0 -81 -26.5 -146.5t-76 -112.5t-118.5 -72.5t-154 -25.5h-236zM162 77h149q67 0 121 19.5t92 56t58.5 87.5t20.5 115t-20.5 115t-59 87.5t-92 56t-120.5 19.5h-149v-556zM303 789l-142 121h90l95 -71l94 71
h88l-142 -121h-83z" />
    <glyph glyph-name="Ecaron" unicode="&#x11a;" horiz-adv-x="561" 
d="M78 0v710h409v-75h-325v-228h297v-76h-297v-255h335v-76h-419zM241 789l-142 121h90l95 -71l94 71h88l-142 -121h-83z" />
    <glyph glyph-name="Lcaron" unicode="&#x13d;" horiz-adv-x="525" 
d="M78 0v710h84v-633h316v-77h-400zM237 564l19 178h72l-36 -178h-55z" />
    <glyph glyph-name="Ncaron" unicode="&#x147;" horiz-adv-x="708" 
d="M78 0v710h74l396 -569v569h82v-710h-74l-396 569v-569h-82zM312 789l-142 121h90l95 -71l94 71h88l-142 -121h-83z" />
    <glyph glyph-name="Rcaron" unicode="&#x158;" horiz-adv-x="600" 
d="M78 0v710h193q81 0 140.5 -26t91.5 -74t32 -113q0 -67 -36.5 -118t-101.5 -77l172 -302h-98l-154 280q-13 -1 -28.5 -2t-31.5 -1q-20 0 -44.5 2t-50.5 6v-285h-84zM162 635v-275q23 -4 49.5 -6t48.5 -2q91 0 140 37t49 104t-47 104.5t-131 37.5h-109zM225 789l-142 121
h90l95 -71l94 71h88l-142 -121h-83z" />
    <glyph glyph-name="Scaron" unicode="&#x160;" horiz-adv-x="551" 
d="M274 -15q-56 0 -104 19.5t-83 55.5t-51 85l79 25q20 -52 61.5 -81t96.5 -29q43 0 77.5 17.5t54 48t19.5 68.5q0 49 -33.5 80.5t-96.5 45.5l-44 10q-98 22 -147 72t-49 123q0 44 16.5 80.5t46.5 63.5t69.5 41.5t85.5 14.5q54 0 99.5 -19.5t78.5 -55.5t48 -84l-79 -25
q-20 53 -58 81t-89 28q-39 0 -69 -15.5t-47 -42t-17 -61.5q0 -46 33 -75.5t105 -46.5l44 -10q95 -22 141.5 -74t46.5 -126q0 -47 -17.5 -86.5t-49 -68t-74.5 -44t-94 -15.5zM233 789l-142 121h90l95 -71l94 71h88l-142 -121h-83z" />
    <glyph glyph-name="Tcaron" unicode="&#x164;" horiz-adv-x="614" 
d="M265 0v633h-217v77h518v-77h-217v-633h-84zM266 789l-142 121h90l95 -71l94 71h88l-142 -121h-83z" />
    <glyph glyph-name="Zcaron" unicode="&#x17d;" horiz-adv-x="616" 
d="M47 0v64l393 570h-378v76h485v-64l-393 -570h415v-76h-522zM264 789l-142 121h90l95 -71l94 71h88l-142 -121h-83z" />
    <glyph glyph-name="Amacron" unicode="&#x100;" horiz-adv-x="707" 
d="M23 0l286 710h89l286 -710h-90l-79 202h-326l-79 -202h-87zM219 279h265l-132 338zM187 794v65h332v-65h-332z" />
    <glyph glyph-name="Emacron" unicode="&#x112;" horiz-adv-x="561" 
d="M78 0v710h409v-75h-325v-228h297v-76h-297v-255h335v-76h-419zM116 794v65h332v-65h-332z" />
    <glyph glyph-name="Imacron" unicode="&#x12a;" horiz-adv-x="240" 
d="M78 0v710h84v-710h-84zM-47 794v65h332v-65h-332z" />
    <glyph glyph-name="Umacron" unicode="&#x16a;" horiz-adv-x="698" 
d="M348 -20q-64 0 -115.5 20.5t-88.5 59.5t-56.5 93.5t-19.5 121.5v435h84v-432q0 -68 24 -117.5t68 -76.5t105 -27t105 27t68 76.5t24 117.5v432h84v-435q0 -67 -20 -121t-57 -93t-89 -60t-116 -21zM182 794v65h332v-65h-332z" />
    <glyph glyph-name="ccaron" unicode="&#x10d;" horiz-adv-x="546" 
d="M292 -15q-53 0 -98 20t-79 56.5t-52.5 85.5t-18.5 107t19 108.5t53 88.5t80 59t100 21q50 0 90.5 -18t70 -49t45.5 -71l-73 -25q-22 42 -57 66t-79 24q-36 0 -66 -15.5t-53 -42.5t-35.5 -64.5t-12.5 -80.5t12.5 -79t34.5 -62.5t52.5 -41t66.5 -14.5q46 0 84.5 23.5
t58.5 65.5l73 -25q-16 -42 -48.5 -72.5t-76 -47.5t-91.5 -17zM260 599l-122 143h78l79 -86l80 86h76l-122 -143h-69z" />
    <glyph glyph-name="dcaron" unicode="&#x10f;" horiz-adv-x="622" 
d="M286 -15q-51 0 -95 20.5t-77 57.5t-51.5 86.5t-18.5 107.5t18.5 108t52 87t78.5 58t97 21q59 0 106.5 -27t75.5 -76v314h80v-742h-72l-4 98q-28 -53 -77.5 -83t-112.5 -30zM300 58q38 0 69.5 15t55 41.5t36.5 63t13 80.5t-13 80.5t-36.5 63t-55 41.5t-69.5 15t-69.5 -15
t-55 -41.5t-36.5 -63t-13 -80.5t13 -80.5t36.5 -63t55 -41.5t69.5 -15zM627 564l19 178h72l-36 -178h-55z" />
    <glyph glyph-name="ecaron" unicode="&#x11b;" horiz-adv-x="572" 
d="M304 -15q-57 0 -104.5 20t-82.5 56.5t-54 86t-19 109.5q0 59 18.5 108.5t52 86.5t78.5 57.5t98 20.5q51 0 94.5 -19t75.5 -53t49.5 -81t17.5 -102v-33h-401q4 -56 26.5 -98t60.5 -65t88 -23q49 0 85.5 20.5t62.5 60.5l68 -31q-20 -38 -52 -65t-73.5 -41.5t-88.5 -14.5z
M291 462q-41 0 -74.5 -20t-56 -55.5t-29.5 -82.5h313q-4 47 -25 82.5t-54 55.5t-74 20zM257 599l-122 143h78l79 -86l80 86h76l-122 -143h-69z" />
    <glyph glyph-name="lcaron" unicode="&#x13e;" horiz-adv-x="220" 
d="M70 0v742h80v-742h-80zM225 564l19 178h72l-36 -178h-55z" />
    <glyph glyph-name="ncaron" unicode="&#x148;" horiz-adv-x="573" 
d="M70 0v516h72l4 -82q23 44 66.5 70.5t100.5 26.5q59 0 103 -28t67.5 -79.5t23.5 -121.5v-302h-80v297q0 77 -33.5 119t-95.5 42q-43 0 -76.5 -19.5t-52.5 -54t-19 -78.5v-306h-80zM254 599l-122 143h78l79 -86l80 86h76l-122 -143h-69z" />
    <glyph glyph-name="rcaron" unicode="&#x159;" horiz-adv-x="375" 
d="M70 0v516h72l5 -96q19 48 57 75.5t89 27.5q17 0 30.5 -2.5t23.5 -6.5l-10 -76q-11 4 -23 5.5t-24 1.5q-42 0 -73.5 -21t-49 -59.5t-17.5 -90.5v-274h-80zM174 599l-122 143h78l79 -86l80 86h76l-122 -143h-69z" />
    <glyph glyph-name="scaron" unicode="&#x161;" horiz-adv-x="462" 
d="M233 -15q-45 0 -84.5 15t-68.5 43t-44 66l72 26q20 -38 52 -59t73 -21q33 0 58 11t39 30.5t14 43.5q0 65 -94 84l-39 8q-82 16 -121 52.5t-39 92.5q0 45 23 80t64.5 54.5t94.5 19.5q44 0 81 -14.5t63.5 -42.5t40.5 -66l-72 -24q-16 37 -45.5 57.5t-68.5 20.5
q-30 0 -52.5 -10t-35.5 -27t-13 -40q0 -32 24.5 -51t79.5 -30l39 -8q74 -15 113 -52.5t39 -95.5q0 -36 -14.5 -65.5t-40 -51.5t-61 -34t-77.5 -12zM197 599l-122 143h78l79 -86l80 86h76l-122 -143h-69z" />
    <glyph glyph-name="tcaron" unicode="&#x165;" horiz-adv-x="408" 
d="M263 -15q-47 0 -81 19t-52.5 56t-18.5 90v298h-95v68h95v173h80v-173h162v-68h-162v-294q0 -46 19.5 -71.5t59.5 -25.5q21 0 42.5 6.5t38.5 17.5l24 -62q-21 -15 -49 -24.5t-63 -9.5zM284 589l16 153h72l-33 -153h-55z" />
    <glyph glyph-name="zcaron" unicode="&#x17e;" horiz-adv-x="496" 
d="M44 0v56l292 392h-285v68h384v-55l-294 -393h311v-68h-408zM208 599l-122 143h78l79 -86l80 86h76l-122 -143h-69z" />
    <glyph glyph-name="amacron.ss01" horiz-adv-x="622" 
d="M286 -15q-51 0 -95 20.5t-77 57.5t-51.5 86.5t-18.5 107.5t18.5 108t52 87t78.5 58t97 21q60 0 109 -29t77 -80l4 94h72v-516h-72l-4 98q-28 -53 -77.5 -83t-112.5 -30zM300 58q38 0 69.5 15t55 41.5t36.5 63t13 80.5t-13 80.5t-36.5 63t-55 41.5t-69.5 15t-69.5 -15
t-55 -41.5t-36.5 -63t-13 -80.5t13 -80.5t36.5 -63t55 -41.5t69.5 -15zM159 611v64h292v-64h-292z" />
    <glyph glyph-name="amacron" unicode="&#x101;" horiz-adv-x="540" 
d="M230 -15q-54 0 -96 20.5t-65.5 56.5t-23.5 83q0 51 26.5 88t74.5 57.5t112 20.5q36 0 73 -8t66 -21v38q0 42 -16.5 73.5t-45.5 49t-68 17.5q-47 0 -81.5 -22t-51.5 -62l-70 24q14 40 43.5 69t71 45t89.5 16q62 0 108.5 -26.5t72 -74t25.5 -111.5v-318h-70l-5 80
q-22 -43 -66.5 -69t-102.5 -26zM126 148q0 -29 15 -50.5t42 -33.5t62 -12q43 0 77.5 19.5t54.5 53t20 76.5v19q-33 13 -66.5 20.5t-63.5 7.5q-66 0 -103.5 -27t-37.5 -73zM122 611v64h292v-64h-292z" />
    <glyph glyph-name="emacron" unicode="&#x113;" horiz-adv-x="572" 
d="M304 -15q-57 0 -104.5 20t-82.5 56.5t-54 86t-19 109.5q0 59 18.5 108.5t52 86.5t78.5 57.5t98 20.5q51 0 94.5 -19t75.5 -53t49.5 -81t17.5 -102v-33h-401q4 -56 26.5 -98t60.5 -65t88 -23q49 0 85.5 20.5t62.5 60.5l68 -31q-20 -38 -52 -65t-73.5 -41.5t-88.5 -14.5z
M291 462q-41 0 -74.5 -20t-56 -55.5t-29.5 -82.5h313q-4 47 -25 82.5t-54 55.5t-74 20zM145 611v64h292v-64h-292z" />
    <glyph glyph-name="imacron" unicode="&#x12b;" horiz-adv-x="220" 
d="M70 0v516h80v-516h-80zM-37 611v64h292v-64h-292z" />
    <glyph glyph-name="umacron" unicode="&#x16b;" horiz-adv-x="564" 
d="M280 -15q-66 0 -114 29t-74 82.5t-26 127.5v292h80v-293q0 -51 16.5 -88t47 -57t72.5 -20t72.5 20t47 57t16.5 88v293h80v-292q0 -72 -27 -126t-76 -83.5t-115 -29.5zM136 611v64h292v-64h-292z" />
    <glyph glyph-name="uni0308" unicode="&#x308;" 
d="M-95 615q-23 0 -38 15t-15 37t15 37t38 15t38 -15t15 -37t-15 -37t-38 -15zM95 615q-23 0 -38 15t-15 37t15 37t38 15t38 -15t15 -37t-15 -37t-38 -15z" />
    <glyph glyph-name="glyph396" 
d="M-108 789q-23 0 -38.5 15.5t-15.5 37.5t15.5 37.5t38.5 15.5t38.5 -15.5t15.5 -37.5t-15.5 -37.5t-38.5 -15.5zM109 789q-23 0 -38.5 15.5t-15.5 37.5t15.5 37.5t38.5 15.5t38.5 -15.5t15.5 -37.5t-15.5 -37.5t-38.5 -15.5z" />
    <glyph glyph-name="dieresis" unicode="&#xa8;" horiz-adv-x="573" 
d="M191 615q-23 0 -38 15t-15 37t15 37t38 15t38 -15t15 -37t-15 -37t-38 -15zM381 615q-23 0 -38 15t-15 37t15 37t38 15t38 -15t15 -37t-15 -37t-38 -15z" />
    <glyph glyph-name="uni0306" unicode="&#x306;" 
d="M0 598q-40 0 -71 15.5t-51.5 44t-27.5 67.5h68q8 -33 29 -50t53 -17t53 17t29 50h68q-7 -39 -27.5 -67.5t-51.5 -44t-71 -15.5z" />
    <glyph glyph-name="glyph399" 
d="M0 784q-42 0 -75.5 15.5t-55.5 44t-29 68.5h70q9 -32 32.5 -49.5t57.5 -17.5t57.5 17.5t32.5 49.5h70q-7 -40 -29 -68.5t-55.5 -44t-75.5 -15.5z" />
    <glyph glyph-name="breve" unicode="&#x2d8;" horiz-adv-x="573" 
d="M286 598q-40 0 -71 15.5t-51.5 44t-27.5 67.5h68q8 -33 29 -50t53 -17t53 17t29 50h68q-7 -39 -27.5 -67.5t-51.5 -44t-71 -15.5z" />
    <glyph glyph-name="Adieresis" unicode="&#xc4;" horiz-adv-x="707" 
d="M23 0l286 710h89l286 -710h-90l-79 202h-326l-79 -202h-87zM219 279h265l-132 338zM245 789q-23 0 -38.5 15.5t-15.5 37.5t15.5 37.5t38.5 15.5t38.5 -15.5t15.5 -37.5t-15.5 -37.5t-38.5 -15.5zM462 789q-23 0 -38.5 15.5t-15.5 37.5t15.5 37.5t38.5 15.5t38.5 -15.5
t15.5 -37.5t-15.5 -37.5t-38.5 -15.5z" />
    <glyph glyph-name="Edieresis" unicode="&#xcb;" horiz-adv-x="561" 
d="M78 0v710h409v-75h-325v-228h297v-76h-297v-255h335v-76h-419zM174 789q-23 0 -38.5 15.5t-15.5 37.5t15.5 37.5t38.5 15.5t38.5 -15.5t15.5 -37.5t-15.5 -37.5t-38.5 -15.5zM391 789q-23 0 -38.5 15.5t-15.5 37.5t15.5 37.5t38.5 15.5t38.5 -15.5t15.5 -37.5
t-15.5 -37.5t-38.5 -15.5z" />
    <glyph glyph-name="Idieresis" unicode="&#xcf;" horiz-adv-x="240" 
d="M78 0v710h84v-710h-84zM11 789q-23 0 -38.5 15.5t-15.5 37.5t15.5 37.5t38.5 15.5t38.5 -15.5t15.5 -37.5t-15.5 -37.5t-38.5 -15.5zM228 789q-23 0 -38.5 15.5t-15.5 37.5t15.5 37.5t38.5 15.5t38.5 -15.5t15.5 -37.5t-15.5 -37.5t-38.5 -15.5z" />
    <glyph glyph-name="Odieresis" unicode="&#xd6;" horiz-adv-x="798" 
d="M52 354q0 65 17 122t48 104t74 80.5t96 51.5t114 18q75 0 138 -27.5t109.5 -78t72 -119t25.5 -150.5q0 -65 -17 -122t-48 -104t-74 -80.5t-96 -51.5t-114 -18q-75 0 -138 27.5t-109.5 78t-72 119t-25.5 150.5zM138 355q0 -65 19.5 -120t54.5 -95t82.5 -62t104.5 -22
t104.5 22t82.5 62t54.5 95t19.5 120t-19.5 119.5t-54.5 94.5t-82.5 62t-104.5 22t-104.5 -22t-82.5 -62t-54.5 -94.5t-19.5 -119.5zM291 789q-23 0 -38.5 15.5t-15.5 37.5t15.5 37.5t38.5 15.5t38.5 -15.5t15.5 -37.5t-15.5 -37.5t-38.5 -15.5zM508 789q-23 0 -38.5 15.5
t-15.5 37.5t15.5 37.5t38.5 15.5t38.5 -15.5t15.5 -37.5t-15.5 -37.5t-38.5 -15.5z" />
    <glyph glyph-name="Udieresis" unicode="&#xdc;" horiz-adv-x="698" 
d="M348 -20q-64 0 -115.5 20.5t-88.5 59.5t-56.5 93.5t-19.5 121.5v435h84v-432q0 -68 24 -117.5t68 -76.5t105 -27t105 27t68 76.5t24 117.5v432h84v-435q0 -67 -20 -121t-57 -93t-89 -60t-116 -21zM240 789q-23 0 -38.5 15.5t-15.5 37.5t15.5 37.5t38.5 15.5t38.5 -15.5
t15.5 -37.5t-15.5 -37.5t-38.5 -15.5zM457 789q-23 0 -38.5 15.5t-15.5 37.5t15.5 37.5t38.5 15.5t38.5 -15.5t15.5 -37.5t-15.5 -37.5t-38.5 -15.5z" />
    <glyph glyph-name="Wdieresis" unicode="&#x1e84;" horiz-adv-x="1008" 
d="M974 710l-213 -710h-86l-171 604l-170 -604h-87l-213 710h91l167 -602l170 602h86l172 -602l167 602h87zM395 789q-23 0 -38.5 15.5t-15.5 37.5t15.5 37.5t38.5 15.5t38.5 -15.5t15.5 -37.5t-15.5 -37.5t-38.5 -15.5zM612 789q-23 0 -38.5 15.5t-15.5 37.5t15.5 37.5
t38.5 15.5t38.5 -15.5t15.5 -37.5t-15.5 -37.5t-38.5 -15.5z" />
    <glyph glyph-name="Ydieresis" unicode="&#x178;" horiz-adv-x="620" 
d="M268 0v286l-250 424h96l197 -348l197 348h94l-250 -424v-286h-84zM202 789q-23 0 -38.5 15.5t-15.5 37.5t15.5 37.5t38.5 15.5t38.5 -15.5t15.5 -37.5t-15.5 -37.5t-38.5 -15.5zM419 789q-23 0 -38.5 15.5t-15.5 37.5t15.5 37.5t38.5 15.5t38.5 -15.5t15.5 -37.5
t-15.5 -37.5t-38.5 -15.5z" />
    <glyph glyph-name="Abreve" unicode="&#x102;" horiz-adv-x="707" 
d="M23 0l286 710h89l286 -710h-90l-79 202h-326l-79 -202h-87zM219 279h265l-132 338zM353 784q-42 0 -75.5 15.5t-55.5 44t-29 68.5h70q9 -32 32.5 -49.5t57.5 -17.5t57.5 17.5t32.5 49.5h70q-7 -40 -29 -68.5t-55.5 -44t-75.5 -15.5z" />
    <glyph glyph-name="Gbreve" unicode="&#x11e;" horiz-adv-x="781" 
d="M404 -20q-77 0 -141.5 27.5t-111.5 77.5t-73 118t-26 148q0 65 17 123t49 105t75.5 80.5t96.5 52t113 18.5q64 0 120 -21t98.5 -59.5t68.5 -91.5l-78 -32q-32 60 -85.5 93.5t-122.5 33.5q-57 0 -105.5 -22.5t-84.5 -63t-56 -95.5t-20 -120q0 -63 19.5 -117t55.5 -94
t85 -62t108 -22q51 0 93.5 17t74.5 48t50 74t19 96h-217v74h303v-57q0 -73 -24 -133t-67.5 -104t-103 -68t-130.5 -24zM406 784q-42 0 -75.5 15.5t-55.5 44t-29 68.5h70q9 -32 32.5 -49.5t57.5 -17.5t57.5 17.5t32.5 49.5h70q-7 -40 -29 -68.5t-55.5 -44t-75.5 -15.5z" />
    <glyph glyph-name="adieresis" unicode="&#xe4;" horiz-adv-x="540" 
d="M230 -15q-54 0 -96 20.5t-65.5 56.5t-23.5 83q0 51 26.5 88t74.5 57.5t112 20.5q36 0 73 -8t66 -21v38q0 42 -16.5 73.5t-45.5 49t-68 17.5q-47 0 -81.5 -22t-51.5 -62l-70 24q14 40 43.5 69t71 45t89.5 16q62 0 108.5 -26.5t72 -74t25.5 -111.5v-318h-70l-5 80
q-22 -43 -66.5 -69t-102.5 -26zM126 148q0 -29 15 -50.5t42 -33.5t62 -12q43 0 77.5 19.5t54.5 53t20 76.5v19q-33 13 -66.5 20.5t-63.5 7.5q-66 0 -103.5 -27t-37.5 -73zM173 615q-23 0 -38 15t-15 37t15 37t38 15t38 -15t15 -37t-15 -37t-38 -15zM363 615q-23 0 -38 15
t-15 37t15 37t38 15t38 -15t15 -37t-15 -37t-38 -15z" />
    <glyph glyph-name="edieresis" unicode="&#xeb;" horiz-adv-x="572" 
d="M304 -15q-57 0 -104.5 20t-82.5 56.5t-54 86t-19 109.5q0 59 18.5 108.5t52 86.5t78.5 57.5t98 20.5q51 0 94.5 -19t75.5 -53t49.5 -81t17.5 -102v-33h-401q4 -56 26.5 -98t60.5 -65t88 -23q49 0 85.5 20.5t62.5 60.5l68 -31q-20 -38 -52 -65t-73.5 -41.5t-88.5 -14.5z
M291 462q-41 0 -74.5 -20t-56 -55.5t-29.5 -82.5h313q-4 47 -25 82.5t-54 55.5t-74 20zM196 615q-23 0 -38 15t-15 37t15 37t38 15t38 -15t15 -37t-15 -37t-38 -15zM386 615q-23 0 -38 15t-15 37t15 37t38 15t38 -15t15 -37t-15 -37t-38 -15z" />
    <glyph glyph-name="idieresis" unicode="&#xef;" horiz-adv-x="220" 
d="M70 0v516h80v-516h-80zM14 615q-23 0 -38 15t-15 37t15 37t38 15t38 -15t15 -37t-15 -37t-38 -15zM204 615q-23 0 -38 15t-15 37t15 37t38 15t38 -15t15 -37t-15 -37t-38 -15z" />
    <glyph glyph-name="odieresis" unicode="&#xf6;" horiz-adv-x="600" 
d="M299 -15q-55 0 -101.5 20.5t-81 57t-53.5 86.5t-19 109t19.5 109t54 86.5t81.5 57t102 20.5t101.5 -20.5t81 -57t53.5 -86.5t19 -109t-19.5 -109t-54 -86.5t-81.5 -57t-102 -20.5zM300 58q38 0 69.5 15t55 41.5t36.5 63t13 80.5t-13 80.5t-36.5 63t-55 41.5t-69.5 15
t-69.5 -15t-55 -41.5t-36.5 -63t-13 -80.5t13 -80.5t36.5 -63t55 -41.5t69.5 -15zM205 615q-23 0 -38 15t-15 37t15 37t38 15t38 -15t15 -37t-15 -37t-38 -15zM395 615q-23 0 -38 15t-15 37t15 37t38 15t38 -15t15 -37t-15 -37t-38 -15z" />
    <glyph glyph-name="udieresis" unicode="&#xfc;" horiz-adv-x="564" 
d="M280 -15q-66 0 -114 29t-74 82.5t-26 127.5v292h80v-293q0 -51 16.5 -88t47 -57t72.5 -20t72.5 20t47 57t16.5 88v293h80v-292q0 -72 -27 -126t-76 -83.5t-115 -29.5zM187 615q-23 0 -38 15t-15 37t15 37t38 15t38 -15t15 -37t-15 -37t-38 -15zM377 615q-23 0 -38 15
t-15 37t15 37t38 15t38 -15t15 -37t-15 -37t-38 -15z" />
    <glyph glyph-name="wdieresis" unicode="&#x1e85;" horiz-adv-x="797" 
d="M192 0l-174 516h84l129 -418l133 418h72l132 -418l129 418h82l-174 -516h-77l-129 413l-130 -413h-77zM303 615q-23 0 -38 15t-15 37t15 37t38 15t38 -15t15 -37t-15 -37t-38 -15zM493 615q-23 0 -38 15t-15 37t15 37t38 15t38 -15t15 -37t-15 -37t-38 -15z" />
    <glyph glyph-name="ydieresis" unicode="&#xff;" horiz-adv-x="523" 
d="M114 -214q-21 0 -39 4.5t-37 14.5l23 64q10 -6 22.5 -9t26.5 -3q31 0 54.5 19.5t40.5 61.5l27 67l-214 511h88l165 -424l149 424h85l-230 -597q-26 -68 -66 -100.5t-95 -32.5zM166 615q-23 0 -38 15t-15 37t15 37t38 15t38 -15t15 -37t-15 -37t-38 -15zM356 615
q-23 0 -38 15t-15 37t15 37t38 15t38 -15t15 -37t-15 -37t-38 -15z" />
    <glyph glyph-name="adieresis.ss01" horiz-adv-x="622" 
d="M286 -15q-51 0 -95 20.5t-77 57.5t-51.5 86.5t-18.5 107.5t18.5 108t52 87t78.5 58t97 21q60 0 109 -29t77 -80l4 94h72v-516h-72l-4 98q-28 -53 -77.5 -83t-112.5 -30zM300 58q38 0 69.5 15t55 41.5t36.5 63t13 80.5t-13 80.5t-36.5 63t-55 41.5t-69.5 15t-69.5 -15
t-55 -41.5t-36.5 -63t-13 -80.5t13 -80.5t36.5 -63t55 -41.5t69.5 -15zM210 615q-23 0 -38 15t-15 37t15 37t38 15t38 -15t15 -37t-15 -37t-38 -15zM400 615q-23 0 -38 15t-15 37t15 37t38 15t38 -15t15 -37t-15 -37t-38 -15z" />
    <glyph glyph-name="abreve.ss01" horiz-adv-x="622" 
d="M286 -15q-51 0 -95 20.5t-77 57.5t-51.5 86.5t-18.5 107.5t18.5 108t52 87t78.5 58t97 21q60 0 109 -29t77 -80l4 94h72v-516h-72l-4 98q-28 -53 -77.5 -83t-112.5 -30zM300 58q38 0 69.5 15t55 41.5t36.5 63t13 80.5t-13 80.5t-36.5 63t-55 41.5t-69.5 15t-69.5 -15
t-55 -41.5t-36.5 -63t-13 -80.5t13 -80.5t36.5 -63t55 -41.5t69.5 -15zM305 598q-40 0 -71 15.5t-51.5 44t-27.5 67.5h68q8 -33 29 -50t53 -17t53 17t29 50h68q-7 -39 -27.5 -67.5t-51.5 -44t-71 -15.5z" />
    <glyph glyph-name="abreve" unicode="&#x103;" horiz-adv-x="540" 
d="M230 -15q-54 0 -96 20.5t-65.5 56.5t-23.5 83q0 51 26.5 88t74.5 57.5t112 20.5q36 0 73 -8t66 -21v38q0 42 -16.5 73.5t-45.5 49t-68 17.5q-47 0 -81.5 -22t-51.5 -62l-70 24q14 40 43.5 69t71 45t89.5 16q62 0 108.5 -26.5t72 -74t25.5 -111.5v-318h-70l-5 80
q-22 -43 -66.5 -69t-102.5 -26zM126 148q0 -29 15 -50.5t42 -33.5t62 -12q43 0 77.5 19.5t54.5 53t20 76.5v19q-33 13 -66.5 20.5t-63.5 7.5q-66 0 -103.5 -27t-37.5 -73zM268 598q-40 0 -71 15.5t-51.5 44t-27.5 67.5h68q8 -33 29 -50t53 -17t53 17t29 50h68
q-7 -39 -27.5 -67.5t-51.5 -44t-71 -15.5z" />
    <glyph glyph-name="gbreve" unicode="&#x11f;" horiz-adv-x="616" 
d="M283 5q-51 0 -94.5 20t-76 55.5t-50.5 83.5t-18 103q0 56 18.5 104t51.5 84t77.5 56t95.5 20q59 0 107.5 -28t75.5 -77l4 90h72v-472q0 -59 -18 -107.5t-51 -83.5t-79 -53.5t-102 -18.5q-49 0 -92 14.5t-76.5 42t-55.5 65.5l67 34q29 -42 68.5 -64.5t88.5 -22.5
q52 0 90.5 23.5t59 66.5t20.5 101v66q-28 -48 -76 -75t-107 -27zM297 78q37 0 68.5 14t54.5 39.5t35.5 60.5t12.5 76t-12.5 76t-35.5 60.5t-54.5 39.5t-68.5 14t-68.5 -14t-54.5 -39.5t-35.5 -60.5t-12.5 -76t12.5 -76t35.5 -60.5t54.5 -39.5t68.5 -14zM300 598
q-40 0 -71 15.5t-51.5 44t-27.5 67.5h68q8 -33 29 -50t53 -17t53 17t29 50h68q-7 -39 -27.5 -67.5t-51.5 -44t-71 -15.5z" />
    <glyph glyph-name="uni0307" unicode="&#x307;" 
d="M55 667q0 -15 -7.5 -27.5t-20 -20t-27.5 -7.5t-27.5 7.5t-20 20t-7.5 27.5t7.5 27.5t20 20t27.5 7.5t27.5 -7.5t20 -20t7.5 -27.5z" />
    <glyph glyph-name="glyph422" 
d="M0 789q-16 0 -28.5 7.5t-20.5 20.5t-8 28t8 28t20.5 20.5t28.5 7.5t28.5 -7.5t20.5 -20.5t8 -28t-8 -28t-20.5 -20.5t-28.5 -7.5z" />
    <glyph glyph-name="dotaccent" unicode="&#x2d9;" horiz-adv-x="573" 
d="M341 667q0 -15 -7.5 -27.5t-20 -20t-27.5 -7.5t-27.5 7.5t-20 20t-7.5 27.5t7.5 27.5t20 20t27.5 7.5t27.5 -7.5t20 -20t7.5 -27.5z" />
    <glyph glyph-name="dotbelowcomb" unicode="&#x323;" 
d="M55 -151q0 -15 -7.5 -27.5t-20 -20t-27.5 -7.5t-27.5 7.5t-20 20t-7.5 27.5t7.5 27.5t20 20t27.5 7.5t27.5 -7.5t20 -20t7.5 -27.5z" />
    <glyph glyph-name="glyph425" 
d="M0 -213q-16 0 -28.5 7.5t-20.5 20.5t-8 28t8 28t20.5 20.5t28.5 7.5t28.5 -7.5t20.5 -20.5t8 -28t-8 -28t-20.5 -20.5t-28.5 -7.5z" />
    <glyph glyph-name="Edotaccent" unicode="&#x116;" horiz-adv-x="561" 
d="M78 0v710h409v-75h-325v-228h297v-76h-297v-255h335v-76h-419zM282 789q-16 0 -28.5 7.5t-20.5 20.5t-8 28t8 28t20.5 20.5t28.5 7.5t28.5 -7.5t20.5 -20.5t8 -28t-8 -28t-20.5 -20.5t-28.5 -7.5z" />
    <glyph glyph-name="Idotaccent" unicode="&#x130;" horiz-adv-x="240" 
d="M78 0v710h84v-710h-84zM119 789q-16 0 -28.5 7.5t-20.5 20.5t-8 28t8 28t20.5 20.5t28.5 7.5t28.5 -7.5t20.5 -20.5t8 -28t-8 -28t-20.5 -20.5t-28.5 -7.5z" />
    <glyph glyph-name="Cdotaccent" unicode="&#x10a;" horiz-adv-x="722" 
d="M389 -20q-73 0 -134.5 27.5t-107 77t-70.5 117t-25 147.5q0 65 16.5 122.5t47 105t72 82t92.5 53t108 18.5q64 0 119.5 -22t98 -62t65.5 -96l-77 -29q-31 63 -84.5 97.5t-120.5 34.5q-54 0 -99.5 -23t-79.5 -64t-53 -96t-19 -120q0 -64 18.5 -117.5t52.5 -93t80.5 -61
t101.5 -21.5q69 0 122.5 34t87.5 98l77 -29q-24 -56 -67 -96.5t-100 -62t-122 -21.5zM388 789q-16 0 -28.5 7.5t-20.5 20.5t-8 28t8 28t20.5 20.5t28.5 7.5t28.5 -7.5t20.5 -20.5t8 -28t-8 -28t-20.5 -20.5t-28.5 -7.5z" />
    <glyph glyph-name="Gdotaccent" unicode="&#x120;" horiz-adv-x="781" 
d="M404 -20q-77 0 -141.5 27.5t-111.5 77.5t-73 118t-26 148q0 65 17 123t49 105t75.5 80.5t96.5 52t113 18.5q64 0 120 -21t98.5 -59.5t68.5 -91.5l-78 -32q-32 60 -85.5 93.5t-122.5 33.5q-57 0 -105.5 -22.5t-84.5 -63t-56 -95.5t-20 -120q0 -63 19.5 -117t55.5 -94
t85 -62t108 -22q51 0 93.5 17t74.5 48t50 74t19 96h-217v74h303v-57q0 -73 -24 -133t-67.5 -104t-103 -68t-130.5 -24zM406 789q-16 0 -28.5 7.5t-20.5 20.5t-8 28t8 28t20.5 20.5t28.5 7.5t28.5 -7.5t20.5 -20.5t8 -28t-8 -28t-20.5 -20.5t-28.5 -7.5z" />
    <glyph glyph-name="Zdotaccent" unicode="&#x17b;" horiz-adv-x="616" 
d="M47 0v64l393 570h-378v76h485v-64l-393 -570h415v-76h-522zM305 789q-16 0 -28.5 7.5t-20.5 20.5t-8 28t8 28t20.5 20.5t28.5 7.5t28.5 -7.5t20.5 -20.5t8 -28t-8 -28t-20.5 -20.5t-28.5 -7.5z" />
    <glyph glyph-name="uni1E24" unicode="&#x1e24;" horiz-adv-x="718" 
d="M78 0v710h84v-302h394v302h84v-710h-84v331h-394v-331h-84zM358 -213q-16 0 -28.5 7.5t-20.5 20.5t-8 28t8 28t20.5 20.5t28.5 7.5t28.5 -7.5t20.5 -20.5t8 -28t-8 -28t-20.5 -20.5t-28.5 -7.5z" />
    <glyph glyph-name="uni1E36" unicode="&#x1e36;" horiz-adv-x="525" 
d="M78 0v710h84v-633h316v-77h-400zM277 -213q-16 0 -28.5 7.5t-20.5 20.5t-8 28t8 28t20.5 20.5t28.5 7.5t28.5 -7.5t20.5 -20.5t8 -28t-8 -28t-20.5 -20.5t-28.5 -7.5z" />
    <glyph glyph-name="edotaccent" unicode="&#x117;" horiz-adv-x="572" 
d="M304 -15q-57 0 -104.5 20t-82.5 56.5t-54 86t-19 109.5q0 59 18.5 108.5t52 86.5t78.5 57.5t98 20.5q51 0 94.5 -19t75.5 -53t49.5 -81t17.5 -102v-33h-401q4 -56 26.5 -98t60.5 -65t88 -23q49 0 85.5 20.5t62.5 60.5l68 -31q-20 -38 -52 -65t-73.5 -41.5t-88.5 -14.5z
M291 462q-41 0 -74.5 -20t-56 -55.5t-29.5 -82.5h313q-4 47 -25 82.5t-54 55.5t-74 20zM346 667q0 -15 -7.5 -27.5t-20 -20t-27.5 -7.5t-27.5 7.5t-20 20t-7.5 27.5t7.5 27.5t20 20t27.5 7.5t27.5 -7.5t20 -20t7.5 -27.5z" />
    <glyph glyph-name="cdotaccent" unicode="&#x10b;" horiz-adv-x="546" 
d="M292 -15q-53 0 -98 20t-79 56.5t-52.5 85.5t-18.5 107t19 108.5t53 88.5t80 59t100 21q50 0 90.5 -18t70 -49t45.5 -71l-73 -25q-22 42 -57 66t-79 24q-36 0 -66 -15.5t-53 -42.5t-35.5 -64.5t-12.5 -80.5t12.5 -79t34.5 -62.5t52.5 -41t66.5 -14.5q46 0 84.5 23.5
t58.5 65.5l73 -25q-16 -42 -48.5 -72.5t-76 -47.5t-91.5 -17zM349 667q0 -15 -7.5 -27.5t-20 -20t-27.5 -7.5t-27.5 7.5t-20 20t-7.5 27.5t7.5 27.5t20 20t27.5 7.5t27.5 -7.5t20 -20t7.5 -27.5z" />
    <glyph glyph-name="gdotaccent" unicode="&#x121;" horiz-adv-x="616" 
d="M283 5q-51 0 -94.5 20t-76 55.5t-50.5 83.5t-18 103q0 56 18.5 104t51.5 84t77.5 56t95.5 20q59 0 107.5 -28t75.5 -77l4 90h72v-472q0 -59 -18 -107.5t-51 -83.5t-79 -53.5t-102 -18.5q-49 0 -92 14.5t-76.5 42t-55.5 65.5l67 34q29 -42 68.5 -64.5t88.5 -22.5
q52 0 90.5 23.5t59 66.5t20.5 101v66q-28 -48 -76 -75t-107 -27zM297 78q37 0 68.5 14t54.5 39.5t35.5 60.5t12.5 76t-12.5 76t-35.5 60.5t-54.5 39.5t-68.5 14t-68.5 -14t-54.5 -39.5t-35.5 -60.5t-12.5 -76t12.5 -76t35.5 -60.5t54.5 -39.5t68.5 -14zM355 667
q0 -15 -7.5 -27.5t-20 -20t-27.5 -7.5t-27.5 7.5t-20 20t-7.5 27.5t7.5 27.5t20 20t27.5 7.5t27.5 -7.5t20 -20t7.5 -27.5z" />
    <glyph glyph-name="zdotaccent" unicode="&#x17c;" horiz-adv-x="496" 
d="M44 0v56l292 392h-285v68h384v-55l-294 -393h311v-68h-408zM297 667q0 -15 -7.5 -27.5t-20 -20t-27.5 -7.5t-27.5 7.5t-20 20t-7.5 27.5t7.5 27.5t20 20t27.5 7.5t27.5 -7.5t20 -20t7.5 -27.5z" />
    <glyph glyph-name="uni1E25" unicode="&#x1e25;" horiz-adv-x="573" 
d="M70 0v742h80v-301q23 41 66 65.5t97 24.5q59 0 103 -28t67.5 -79.5t23.5 -121.5v-302h-80v297q0 77 -33.5 119t-95.5 42q-43 0 -76.5 -19.5t-52.5 -54t-19 -78.5v-306h-80zM343 -151q0 -15 -7.5 -27.5t-20 -20t-27.5 -7.5t-27.5 7.5t-20 20t-7.5 27.5t7.5 27.5t20 20
t27.5 7.5t27.5 -7.5t20 -20t7.5 -27.5z" />
    <glyph glyph-name="uni1E37" unicode="&#x1e37;" horiz-adv-x="220" 
d="M70 0v742h80v-742h-80zM164 -151q0 -15 -7.5 -27.5t-20 -20t-27.5 -7.5t-27.5 7.5t-20 20t-7.5 27.5t7.5 27.5t20 20t27.5 7.5t27.5 -7.5t20 -20t7.5 -27.5z" />
    <glyph glyph-name="uni030A" unicode="&#x30a;" 
d="M0 572q-28 0 -51 13t-36.5 35.5t-13.5 49.5t13.5 49.5t36.5 35.5t51 13t51 -13t36.5 -35.5t13.5 -49.5t-13.5 -49.5t-36.5 -35.5t-51 -13zM0 620q20 0 34.5 14.5t14.5 35.5t-14.5 35.5t-34.5 14.5t-34.5 -14.5t-14.5 -35.5t14.5 -35.5t34.5 -14.5z" />
    <glyph glyph-name="glyph440" 
d="M0 751q-28 0 -51 13.5t-36.5 35.5t-13.5 49t13.5 49t36.5 35.5t51 13.5t51 -13.5t36.5 -35.5t13.5 -49t-13.5 -49t-36.5 -35.5t-51 -13.5zM0 801q19 0 33 14t14 34t-14 34t-33 14t-33 -14t-14 -34t14 -34t33 -14z" />
    <glyph glyph-name="ring" unicode="&#x2da;" horiz-adv-x="573" 
d="M286 572q-28 0 -51 13t-36.5 35.5t-13.5 49.5t13.5 49.5t36.5 35.5t51 13t51 -13t36.5 -35.5t13.5 -49.5t-13.5 -49.5t-36.5 -35.5t-51 -13zM286 620q20 0 34.5 14.5t14.5 35.5t-14.5 35.5t-34.5 14.5t-34.5 -14.5t-14.5 -35.5t14.5 -35.5t34.5 -14.5z" />
    <glyph glyph-name="Aring" unicode="&#xc5;" horiz-adv-x="707" 
d="M23 0l286 710h89l286 -710h-90l-79 202h-326l-79 -202h-87zM219 279h265l-132 338zM353 751q-28 0 -51 13.5t-36.5 35.5t-13.5 49t13.5 49t36.5 35.5t51 13.5t51 -13.5t36.5 -35.5t13.5 -49t-13.5 -49t-36.5 -35.5t-51 -13.5zM353 801q19 0 33 14t14 34t-14 34t-33 14
t-33 -14t-14 -34t14 -34t33 -14z" />
    <glyph glyph-name="Uring" unicode="&#x16e;" horiz-adv-x="698" 
d="M348 -20q-64 0 -115.5 20.5t-88.5 59.5t-56.5 93.5t-19.5 121.5v435h84v-432q0 -68 24 -117.5t68 -76.5t105 -27t105 27t68 76.5t24 117.5v432h84v-435q0 -67 -20 -121t-57 -93t-89 -60t-116 -21zM348 751q-28 0 -51 13.5t-36.5 35.5t-13.5 49t13.5 49t36.5 35.5t51 13.5
t51 -13.5t36.5 -35.5t13.5 -49t-13.5 -49t-36.5 -35.5t-51 -13.5zM348 801q19 0 33 14t14 34t-14 34t-33 14t-33 -14t-14 -34t14 -34t33 -14z" />
    <glyph glyph-name="aring" unicode="&#xe5;" horiz-adv-x="540" 
d="M230 -15q-54 0 -96 20.5t-65.5 56.5t-23.5 83q0 51 26.5 88t74.5 57.5t112 20.5q36 0 73 -8t66 -21v38q0 42 -16.5 73.5t-45.5 49t-68 17.5q-47 0 -81.5 -22t-51.5 -62l-70 24q14 40 43.5 69t71 45t89.5 16q62 0 108.5 -26.5t72 -74t25.5 -111.5v-318h-70l-5 80
q-22 -43 -66.5 -69t-102.5 -26zM126 148q0 -29 15 -50.5t42 -33.5t62 -12q43 0 77.5 19.5t54.5 53t20 76.5v19q-33 13 -66.5 20.5t-63.5 7.5q-66 0 -103.5 -27t-37.5 -73zM268 572q-28 0 -51 13t-36.5 35.5t-13.5 49.5t13.5 49.5t36.5 35.5t51 13t51 -13t36.5 -35.5
t13.5 -49.5t-13.5 -49.5t-36.5 -35.5t-51 -13zM268 620q20 0 34.5 14.5t14.5 35.5t-14.5 35.5t-34.5 14.5t-34.5 -14.5t-14.5 -35.5t14.5 -35.5t34.5 -14.5z" />
    <glyph glyph-name="uring" unicode="&#x16f;" horiz-adv-x="564" 
d="M280 -15q-66 0 -114 29t-74 82.5t-26 127.5v292h80v-293q0 -51 16.5 -88t47 -57t72.5 -20t72.5 20t47 57t16.5 88v293h80v-292q0 -72 -27 -126t-76 -83.5t-115 -29.5zM282 572q-28 0 -51 13t-36.5 35.5t-13.5 49.5t13.5 49.5t36.5 35.5t51 13t51 -13t36.5 -35.5
t13.5 -49.5t-13.5 -49.5t-36.5 -35.5t-51 -13zM282 620q20 0 34.5 14.5t14.5 35.5t-14.5 35.5t-34.5 14.5t-34.5 -14.5t-14.5 -35.5t14.5 -35.5t34.5 -14.5z" />
    <glyph glyph-name="aring.ss01" horiz-adv-x="622" 
d="M286 -15q-51 0 -95 20.5t-77 57.5t-51.5 86.5t-18.5 107.5t18.5 108t52 87t78.5 58t97 21q60 0 109 -29t77 -80l4 94h72v-516h-72l-4 98q-28 -53 -77.5 -83t-112.5 -30zM300 58q38 0 69.5 15t55 41.5t36.5 63t13 80.5t-13 80.5t-36.5 63t-55 41.5t-69.5 15t-69.5 -15
t-55 -41.5t-36.5 -63t-13 -80.5t13 -80.5t36.5 -63t55 -41.5t69.5 -15zM305 572q-28 0 -51 13t-36.5 35.5t-13.5 49.5t13.5 49.5t36.5 35.5t51 13t51 -13t36.5 -35.5t13.5 -49.5t-13.5 -49.5t-36.5 -35.5t-51 -13zM305 620q20 0 34.5 14.5t14.5 35.5t-14.5 35.5t-34.5 14.5
t-34.5 -14.5t-14.5 -35.5t14.5 -35.5t34.5 -14.5z" />
    <glyph glyph-name="colon_B_e_l_o_colon.dlig" horiz-adv-x="781" 
d="M390 92q-93 -102 -183 -102q-33 0 -61.5 12t-50 33t-34 49t-12.5 60q0 20 6.5 42.5t21.5 56.5q11 25 27 58.5t34.5 72t38 78t38 76t33.5 66t25 48.5q43 78 117 78q38 0 66.5 -19t50.5 -59q10 -19 25 -48.5t33.5 -66t38 -76t38 -78t34.5 -72t27 -58.5q15 -34 21.5 -56.5
t6.5 -42.5q0 -32 -12.5 -60t-34 -49t-50 -33t-61.5 -12q-90 0 -183 102zM390 674q-26 0 -43 -13t-35 -45q-8 -14 -22.5 -42.5t-33 -65t-38 -77t-38.5 -79.5t-34.5 -72.5t-25.5 -55.5q-14 -31 -19 -47.5t-5 -32.5q0 -29 15 -53.5t40 -39.5t55 -15q72 0 153 92
q-94 115 -94 200q0 36 16.5 64.5t44.5 45t64 16.5t64 -16.5t44.5 -45t16.5 -64.5q0 -85 -94 -200q81 -92 153 -92q30 0 55 15t40 39.5t15 53.5q0 16 -5 32.5t-19 47.5q-10 22 -25.5 55.5t-34.5 72.5t-38.5 79.5t-38 77t-33 65t-22.5 42.5q-18 32 -35 45t-43 13zM390 407
q-34 0 -56 -21.5t-22 -55.5q0 -32 20 -75.5t58 -90.5q38 47 58 90.5t20 75.5q0 34 -22 55.5t-56 21.5z" />
    <glyph glyph-name="uniFEFF" unicode="&#xfeff;" 
 />
    <glyph glyph-name="uniFFFD" unicode="&#xfffd;" horiz-adv-x="808" 
d="M404 -34l-389 389l389 389l389 -389zM374 226h49v72q58 17 90.5 55.5t32.5 88.5q0 36 -18.5 65.5t-51 46.5t-72.5 17q-35 0 -64.5 -13t-50.5 -37t-29 -57l47 -14q10 35 35.5 55t59.5 20q26 0 46.5 -11.5t32 -31.5t11.5 -45q0 -41 -30.5 -69t-87.5 -42v-100zM399 102
q14 0 25 11t11 26t-10.5 26t-25.5 11t-26 -10.5t-11 -26.5q0 -15 11 -26t26 -11z" />
    <glyph glyph-name="glyph450" horiz-adv-x="915" 
d="M207 370q7 0 14 -0.5t14 -1.5l66 199h-80q-7 0 -12.5 -5.5t-5.5 -12.5v-3t1 -4q5 -11 0.5 -23.5t-15.5 -17.5q-3 -1 -6.5 -1.5t-6.5 -0.5q-20 0 -28 18q-4 7 -5.5 15.5t-1.5 16.5q0 22 11 40t29 29t40 11h126q6 0 12 -3q11 -4 17 -12.5t6 -19.5v-6t-2 -6l-37 -112h221
l17 27h-33q-13 0 -22 9t-9 22t9 22t22 9h165q13 0 22 -9t9 -22t-9 -22t-22 -9h-59l-176 -284q-4 -7 -11 -11t-15 -4q-9 0 -17 5q-11 7 -14 19t4 23l80 130q7 11 1 22t-19 11h-146q-19 0 -27 -16l-21 -43q30 -15 53 -40.5t36 -57.5t13 -68q0 -39 -14.5 -73t-40.5 -60
t-59.5 -40.5t-72.5 -14.5t-73 14.5t-60 40.5t-40.5 59.5t-14.5 72.5t14.5 73t40.5 60t59.5 40.5t72.5 14.5zM707 370q39 0 73 -14.5t60 -40.5t40.5 -59.5t14.5 -72.5t-14.5 -73t-40.5 -60t-59.5 -40.5t-72.5 -14.5t-73 14.5t-60 40.5t-40.5 59.5t-14.5 72.5t14.5 73t40.5 60
t59.5 40.5t72.5 14.5z" />
    <glyph glyph-name="glyph451" horiz-adv-x="743" 
d="M27 731q5 5 14.5 4.5t18 -3t13.5 -3.5q20 -9 40 -23t31 -27l124 -154q6 -8 16 -8l324 5q22 0 43 -6.5t38 -19.5l20 -15q11 -8 13.5 -12.5t-5.5 -9t-30 -13.5l-260 -100q-5 -2 -6 -6.5t2 -7.5l46 -58q20 -25 49 -38.5t61 -14.5h36q13 0 19 -0.5t9.5 -3.5t8.5 -9l21 -25
q2 -2 1 -3.5t-6 -3.5l-117 -40q-8 -3 -16 -9q-7 -6 -12 -14l-59 -108q-3 -5 -4.5 -6t-2.5 1l-5 6l-17 20q-5 6 -7 9.5t-1.5 9.5t2.5 19l6 36q5 32 -3.5 62.5t-30.5 54.5l-48 56q-3 3 -7.5 3t-6.5 -5l-144 -239q-13 -20 -18.5 -27t-9.5 -3.5t-10 15.5l-11 22q-10 19 -13 40.5
t1 43.5l60 318q3 10 -4 18l-131 149q-11 12 -21 33.5t-15 41.5q-1 5 -2.5 14.5t0 19t6.5 14.5z" />
    <glyph glyph-name="glyph452" horiz-adv-x="614" 
d="M333 636q-19 0 -34 9t-24 24t-9 34q0 18 9 33t24 24t34 9t33.5 -9t23.5 -24t9 -33q0 -19 -9 -34t-23.5 -24t-33.5 -9zM27 518q9 14 25 17.5t30 -6.5l63 -37q10 7 24 16.5t28.5 20.5t27.5 20t20 15q25 20 53.5 27t57.5 4t56 -14q16 -6 38 -14.5t46.5 -19.5t46 -24.5
t35.5 -30t15 -35.5v-17v-27v-29v-23v-9q0 -16 -11.5 -28t-27.5 -12t-28 12t-12 28v61q0 20 -18 30q-13 6 -28.5 13.5t-30.5 14.5l18 -79q1 -2 2 -11t2.5 -22t3 -25.5t2.5 -21.5l1 -9l34 -130l48 -119q7 -17 -0.5 -33.5t-24.5 -22.5q-7 -3 -16 -3q-13 0 -24.5 7.5t-16.5 21.5
l-49 122l-27 74q-2 9 -9.5 14.5t-16.5 5.5h-37q-8 0 -15 -5t-10 -12l-37 -84q-3 -7 -3 -15v-85q0 -18 -12.5 -31t-30.5 -13t-31 13t-13 31v102q0 9 3 15l55 133q6 13 8 26t1 27q-4 52 -7 81l-3 29q-4 -3 -16 -11.5t-26.5 -18.5t-26.5 -17t-18 -7q-5 1 -17.5 7.5t-28 16
t-29.5 19t-23 16l-9 6.5q-14 10 -17 25.5t6 29.5z" />
    <glyph glyph-name="uF0001" unicode="&#xf0001;" horiz-adv-x="742" 
d="M711 219q15 -41 9 -81q-4 -28 -17.5 -53t-35 -44t-47.5 -29q-30 -12 -63 -12q-5 0 -10.5 0.5t-10.5 0.5q-37 4 -77 26q-22 12 -43.5 29.5t-44.5 41.5q-23 -24 -44.5 -41.5t-43.5 -29.5q-38 -22 -77 -26q-5 0 -10 -0.5t-10 -0.5q-33 0 -63 12q-41 16 -68 50t-33 76
q-6 40 9 81q2 7 4.5 13t6.5 14t7.5 16t9.5 21q39 83 80 164.5t84 163.5l2 4q5 8 7 12.5t5 9.5l6 12q8 14 14.5 23.5t13.5 17.5q40 46 100 46q29 0 55 -12t45 -34q7 -8 13.5 -17.5t14.5 -23.5q4 -7 7.5 -14.5t10.5 -19.5l2 -4q43 -82 84 -163.5t79 -163.5l18 -38
q4 -8 6.5 -14.5t4.5 -12.5zM659 147q4 24 -6 52l-4 10t-6 12q-1 3 -2 5.5t-3 5.5q-1 3 -2.5 6t-2.5 7q-1 2 -2.5 4.5t-3.5 8.5q-39 81 -79.5 162.5t-83.5 162.5l-3 5q-4 8 -5.5 10t-2.5 6q-2 4 -4.5 8t-4.5 8q-6 11 -10.5 18t-9.5 13q-21 24 -53 24t-53 -24q-5 -6 -9.5 -13
t-10.5 -18q-2 -4 -4.5 -8t-4.5 -9q-2 -3 -3.5 -6t-5.5 -10l-2 -4q-43 -80 -83.5 -162t-78.5 -162q-7 -13 -10.5 -22t-7.5 -16q-3 -7 -5.5 -12t-3.5 -10q-10 -28 -6 -52q4 -26 20.5 -47t42.5 -31q12 -5 26 -7t27 0q26 3 53 18q19 10 38 26t40 38q-34 43 -56.5 82.5
t-30.5 75.5q-8 33 -3 64q5 30 21 52q18 26 47 40.5t63 14.5t63 -14.5t47 -40.5q16 -22 21 -52q5 -31 -3 -64q-8 -36 -30.5 -75.5t-56.5 -82.5q21 -22 40 -38t38 -26q27 -15 53 -18q13 -2 26.5 0t26.5 7q26 10 42.5 31t20.5 47zM371 191q55 70 67 124q6 23 3 42q-1 7 -4 14
t-7 13q-9 13 -24.5 20.5t-34.5 7.5t-34.5 -7.5t-24.5 -20.5q-4 -6 -7 -13t-4 -14q-3 -19 3 -42q12 -54 67 -124z" />
    <glyph glyph-name="uF0002" unicode="&#xf0002;" horiz-adv-x="614" 
d="M591 460q7 -14 -1 -26l-307 -408q-11 -15 -23.5 -25.5t-25.5 -5.5q-11 4 -15.5 16t-3.5 30q1 14 3 36.5t4 48t4.5 50t4 44t2.5 28.5q1 13 -1.5 19.5t-14.5 5.5l-170 -14q-7 -1 -13.5 2.5t-10.5 9.5q-7 14 1 26l307 408q11 15 23.5 25t25.5 6q11 -4 15.5 -16t3.5 -30
q-1 -14 -3 -36.5t-4 -48.5t-4.5 -51t-4 -44t-2.5 -28q-1 -13 1 -19t14 -5l171 14q7 0 13.5 -3t10.5 -9z" />
    <glyph glyph-name="uF0003" unicode="&#xf0003;" horiz-adv-x="482" 
d="M449 550l-186 -157q-10 -6 -22 -6t-22 6l-186 157q-13 10 -13 23v153q0 4 4 7t9 3h416q5 0 9 -3t4 -7v-153q0 -13 -13 -23zM241 0q-35 0 -65.5 13t-53.5 36t-36 53.5t-13 65.5t13 65.5t36 54t53.5 36.5t65.5 13t65.5 -13t53.5 -36.5t36 -54t13 -65.5t-13 -65.5t-36 -53.5
t-53.5 -36t-65.5 -13z" />
    <glyph glyph-name="uF0004" unicode="&#xf0004;" horiz-adv-x="800" 
d="M707 472q42 -1 60 -14.5t11.5 -34.5t-40.5 -46l-154 -116l56 -184q12 -40 5 -61t-29 -21t-57 24l-159 109l-158 -109q-35 -24 -57.5 -24t-29.5 21t6 61l56 184l-154 116q-33 25 -40.5 46t11 34.5t60.5 14.5l193 3l63 182q14 39 32 52.5t36 0t32 -52.5l64 -182z" />
    <glyph glyph-name="uF0005" unicode="&#xf0005;" horiz-adv-x="800" 
d="M351 657q11 29 24 44t26 15v-587l-159 -110q-34 -24 -57 -24t-30 21t6 61l56 184l-154 116q-34 25 -41 46t11.5 34.5t60.5 14.5l193 3z" />
    <glyph glyph-name="uF0006" unicode="&#xf0006;" horiz-adv-x="800" 
d="M707 472q42 -1 60 -14t11.5 -34.5t-40.5 -46.5l-154 -116l56 -184q12 -40 5 -61t-29 -21t-57 24l-159 110l-158 -110q-35 -24 -57.5 -24t-29.5 21t6 61l56 184l-154 116q-34 25 -41 46t11.5 34.5t60.5 14.5l193 3l63 182q14 39 32 52.5t36 0t32 -52.5l64 -182zM511 239
l-15 51l42 32l100 75l-179 4l-17 49l-42 120l-42 -120l-17 -49l-179 -4l143 -107l-16 -51l-36 -120l147 102l43 -30l105 -72z" />
    <glyph glyph-name="uF0007" unicode="&#xf0007;" horiz-adv-x="704" 
d="M526 572q12 0 31.5 -5t41.5 -16.5t41.5 -32.5t31.5 -52.5t12 -75.5q0 -37 -14.5 -74t-39 -72.5t-55 -68.5t-63 -61.5t-62 -51.5t-52 -39.5t-34.5 -23.5q-5 -4 -12 -4t-12 4q-12 8 -34.5 24t-52 39t-62 51.5t-63 61.5t-55 68.5t-39 72.5t-14.5 74q0 44 12 75.5t31.5 52.5
t41.5 32.5t41.5 16.5t31.5 5h9t10 -1q19 -2 37.5 -8.5t37.5 -16.5q20 -11 39.5 -26.5t40.5 -37.5q21 22 40.5 37.5t39.5 26.5q19 10 37.5 16.5t36.5 8.5q5 1 10.5 1h9.5z" />
    <glyph glyph-name="uF0008" unicode="&#xf0008;" horiz-adv-x="929" 
d="M761 0h-593v556q24 0 42 2t32 16l4 3.5t12 16t21 39.5q16 34 27.5 55t23 32.5t25.5 16t35 4.5h149q21 0 35 -4.5t25.5 -16t23 -32.5t27.5 -55q13 -27 21 -39.5t12 -16l4 -3.5q13 -14 31.5 -16t42.5 -2v-556zM409 556h111h23t24.5 2t17.5 8t2 18l-26 58q-4 10 -8.5 17.5
t-13.5 7.5h-149q-9 0 -13.5 -7.5t-8.5 -17.5l-26 -58q-4 -12 2 -18t17.5 -8t24.5 -2h23zM131 0h-74q-9 0 -17.5 5.5t-14 14t-5.5 17.5v482q0 15 12 26t25 11h74v-556zM798 556h74q14 0 25.5 -11t11.5 -26v-482q0 -9 -5.5 -17.5t-14 -14t-17.5 -5.5h-74v556z" />
    <glyph glyph-name="uF0009" unicode="&#xf0009;" horiz-adv-x="800" 
d="M706 472q42 -1 60.5 -14t11.5 -34.5t-41 -46.5l-153 -116l56 -184q12 -40 5 -61t-29.5 -21t-57.5 24l-158 110l-158 -110q-35 -24 -57.5 -24t-29.5 21t6 61l55 184l-153 116q-34 25 -41 46t11.5 34.5t60.5 14.5l193 3l63 182q14 39 32 52.5t36 0t32 -52.5l63 -182z
M638 397l-179 4l-17 49l-42 120v-349l147 -102l-36 120l-16 51z" />
    <glyph glyph-name="uF0010" unicode="&#xf0010;" horiz-adv-x="609" 
d="M589 451q1 -41 -12 -85.5t-36 -88t-52 -84.5t-58.5 -77t-55.5 -64t-44 -46q-11 -11 -26.5 -11t-26.5 11q-18 18 -44 46t-55.5 64t-58.5 77t-52 84.5t-36.5 88t-11.5 85.5q0 47 14.5 89.5t40.5 78t61.5 61.5t78 40.5t89.5 14.5t89.5 -14.5t78.5 -40.5t62 -61.5t40.5 -78
t14.5 -89.5zM304 335q32 0 58.5 15.5t42 42t15.5 58.5q0 31 -15.5 57.5t-42 42t-58.5 15.5t-58 -15.5t-41.5 -42t-15.5 -57.5q0 -32 15.5 -58.5t41.5 -42t58 -15.5z" />
    <glyph glyph-name="uF0011" unicode="&#xf0011;" horiz-adv-x="1539" 
d="M797 360l-147 -343q-4 -7 -11 -12t-15 -5h-576q-11 0 -19.5 8.5t-8.5 19.5v679q0 12 8.5 20.5t19.5 8.5h576q8 0 15 -5t11 -12l147 -343q3 -8 0 -16zM1519 712v-688q0 -10 -6.5 -17t-16.5 -7h-757q-5 0 -8 4.5t-1 9.5l143 334l5 12q3 8 0 16l-5 12l-143 334q-2 5 1 9.5
t8 4.5h757q10 0 16.5 -7t6.5 -17zM1407 563q-1 13 -11 21t-23 8h-159q-5 0 -5 5v33q0 13 -8 22.5t-21 11.5q-14 2 -25 -8t-11 -24v-35q0 -5 -5 -5h-159q-13 0 -22.5 -8t-11.5 -21q-2 -14 8 -25t24 -11h47q6 0 6 -5q3 -28 13 -66.5t30 -83t56 -88.5q2 -2 2 -3.5t-2 -2.5
q-26 -24 -59.5 -46t-75.5 -40q-11 -5 -17 -16t-3 -22t12 -18t20 -7q5 0 13 3q47 21 85.5 46t67.5 53q3 3 7 0q18 -17 39.5 -33t46.5 -31l16 -9q12 -7 25 -13.5t27 -12.5q6 -3 12 -3q10 0 19.5 7t12.5 18t-3 22t-17 16q-21 9 -40 19.5t-36 21.5q-4 2 -8 5l-8 6q-24 17 -43 34
q-2 2 0 6q13 16 23.5 32t19.5 32l8 16l8 16q20 42 28.5 79t11.5 63q0 5 6 5h47q14 0 23.5 11t8.5 25zM564 167l-110 395q-4 14 -15 22t-25 8h-101q-14 0 -25 -8t-15 -22l-111 -394q-3 -11 1.5 -22.5t15.5 -16.5q7 -3 14 -3q11 0 19.5 7t11.5 17l39 139q2 7 9 7h182q7 0 9 -8
l39 -137q3 -11 12.5 -18.5t21.5 -6.5q16 2 24 14.5t4 26.5zM399 520l42 -152q1 -3 -1 -5.5t-5 -2.5h-143q-4 0 -6 2.5t-1 5.5l44 152q2 7 9 7h51q7 0 10 -7zM1258 521q-4 -26 -12 -57t-24 -64.5t-41 -66.5q-1 -1 -4 -1t-4 1q-37 50 -54 99.5t-22 88.5q0 6 6 6h148q7 0 7 -6z
" />
    <glyph glyph-name="uF0012" unicode="&#xf0012;" horiz-adv-x="714" 
d="M665 656q12 0 20.5 -8t8.5 -20v-600q0 -11 -8.5 -19.5t-20.5 -8.5h-616q-12 0 -20.5 8.5t-8.5 19.5v600q0 12 8.5 20t20.5 8h74q6 0 10.5 4.5t4.5 10.5v57q0 19 13 32t32 13t32.5 -13t13.5 -32v-57q0 -6 4 -10.5t10 -4.5h223q6 0 10 4.5t4 10.5v57q0 19 13.5 32t32.5 13
t32 -13t13 -32v-57q0 -6 4.5 -10.5t10.5 -4.5h79zM169 119h376q13 0 19 1.5t7.5 8.5t1.5 24v211q0 17 -1 24t-7.5 8.5t-20.5 1.5h-374q-14 0 -20.5 -1.5t-7.5 -8.5t-1 -24v-211q0 -17 1 -24t7 -8.5t20 -1.5z" />
    <glyph glyph-name="uF0013" unicode="&#xf0013;" horiz-adv-x="1216" 
d="M387 419l-250 -283q-12 -14 -29 -19.5t-34.5 -2t-30.5 15.5q-14 12 -19.5 29t-2.5 34t16 31l250 284q21 24 49 37.5t58 15.5t59.5 -8t53.5 -31q6 -5 11.5 -11t10.5 -13l185 -248q6 -8 15 -9t17 4l2 2t2 3l176 235h-142q-18 0 -33.5 9t-24.5 24.5t-9 33.5t9 33.5
t24.5 24.5t33.5 9h271q23 0 41 -13.5t24 -35.5l74 -266q4 -18 -0.5 -35t-16.5 -29.5t-30 -17.5t-35 -0.5t-30 16.5t-18 30l-36 131l-171 -229q-7 -9 -14.5 -17t-16.5 -15q-26 -20 -56 -27t-60 -2.5t-57 20t-46 41.5l-185 248l-3 3q-7 6 -16.5 5.5t-15.5 -7.5z" />
    <glyph glyph-name="uF0014" unicode="&#xf0014;" horiz-adv-x="691" 
d="M377 176v-44q0 -8 7 -8h24q13 0 22 -9t9 -22v-23q0 -3 2 -5.5t5 -2.5h8q13 0 22 -9t9 -22t-9 -22t-22 -9h-217q-13 0 -22 9t-9 22t9 22t22 9h8q3 0 5.5 2.5t2.5 5.5v23q0 13 8.5 22t22.5 9h23q3 0 5.5 2t2.5 6v44q0 5 -4 9.5t-9 5.5q-53 12 -90 56q-11 14 -19.5 31
t-15.5 35q-2 7 -8 9q-30 14 -54 38.5t-42 55.5t-29.5 65t-17.5 67.5t-6 61.5q0 36 7 60.5t19 39t25 22t25.5 10t21.5 2.5q23 0 42 -9t33.5 -22t24.5 -25q4 -6 12 -6h231q7 0 12 6q9 12 24 25t34 22t42 9q9 0 21.5 -2.5t25.5 -10t25 -22t19 -39t7 -60.5q0 -28 -6 -61.5
t-17.5 -67.5t-29.5 -65t-42 -55.5t-54 -38.5q-6 -2 -8 -9q-7 -18 -15.5 -35t-19.5 -31q-37 -44 -90 -56q-12 -3 -12 -15zM82 610q0 -32 7.5 -65.5t21 -65t32.5 -56.5q3 -3 8 -2q7 2 5 8q-2 43 0.5 83.5t7 73t8.5 51.5q0 4 -1 7.5t-3 5.5q-9 11 -22.5 21.5t-27.5 10.5
q-36 0 -36 -72zM573 682q-14 0 -27.5 -11t-22.5 -21q-2 -2 -3 -5.5t-1 -7.5q3 -19 8 -51.5t7.5 -73t0.5 -83.5q-2 -6 5 -8q4 -1 8 2q18 25 32 56.5t21.5 65t7.5 65.5q0 72 -36 72z" />
    <glyph glyph-name="uF0015" unicode="&#xf0015;" horiz-adv-x="800" 
d="M449 657l64 -182l193 -3q42 -1 60.5 -14.5t11.5 -34.5t-41 -46l-154 -116l56 -184q13 -40 6 -61t-30 -21t-57 24l-159 110v587q13 0 26 -15t24 -44z" />
    <glyph glyph-name="uF0016" unicode="&#xf0016;" horiz-adv-x="800" 
d="M94 472l193 3l63 182q14 39 32 52.5t36 0t32 -52.5l63 -182l193 -3q42 -1 60.5 -14.5t11.5 -34.5t-41 -46l-153 -116l55 -184q13 -40 6 -61t-29.5 -21t-57.5 24l-158 110l-158 -110q-35 -24 -57.5 -24t-29.5 21t5 61l56 184l-153 116q-34 25 -41 46.5t11.5 34.5t60.5 14z
M305 290l-16 -51l-36 -120l147 102v349l-42 -120l-17 -49l-179 -4z" />
    <glyph glyph-name="uF0017" unicode="&#xf0017;" horiz-adv-x="1539" 
d="M20 712q0 10 6.5 17t16.5 7h757q5 0 8 -4.5t1 -9.5l-143 -334l-5 -12q-3 -8 0 -16l5 -12l143 -334q2 -5 -1 -9.5t-8 -4.5h-757q-10 0 -16.5 7t-6.5 17v688zM742 360q-3 8 0 16l147 343q4 7 11 12t15 5h576q11 0 19.5 -8.5t8.5 -20.5v-679q0 -11 -8.5 -19.5t-19.5 -8.5
h-576q-8 0 -15 5t-11 12zM132 563q-2 -14 8 -25t24 -11h47q6 0 6 -5q3 -26 12 -63t28 -79q4 -8 7.5 -16t8.5 -16q9 -16 19.5 -32t23.5 -32q2 -4 0 -6q-19 -17 -43 -34q-4 -3 -7.5 -6t-8.5 -5q-17 -11 -36 -21.5t-40 -19.5q-11 -5 -17 -16t-3 -22t12 -18t20 -7q6 0 12 3
q14 6 27 12.5t25 13.5l16 9q25 15 46.5 31t39.5 33q3 3 7 0q29 -28 67.5 -53t85.5 -46q7 -3 13 -3q10 0 19.5 7t12.5 18t-3.5 22t-16.5 16q-42 18 -75.5 40t-59.5 46q-1 1 -1 2.5t1 3.5q35 44 55.5 88.5t30 83t13.5 66.5q0 5 6 5h47q14 0 23.5 11t8.5 25q-1 13 -11 21t-23 8
h-159q-5 0 -5 5v35q0 14 -11 24t-25 8q-13 -2 -21 -11.5t-8 -22.5v-33q0 -5 -5 -5h-159q-13 0 -22.5 -8t-11.5 -21zM975 167q-5 -14 3.5 -26.5t24.5 -14.5q12 -1 21.5 6.5t12.5 18.5l39 137q2 8 9 8h182q7 0 9 -7l39 -139q3 -10 12 -17t19 -7q6 0 14 3q10 5 15 16.5t2 22.5
l-111 394q-4 14 -15 22t-25 8h-101q-14 0 -25 -8t-15 -22zM281 521q0 6 7 6h148q6 0 6 -6q-5 -39 -21.5 -88.5t-54.5 -99.5q-2 -1 -4 -1t-4 1q-26 33 -41.5 66.5t-24 64.5t-11.5 57zM1140 520q4 7 10 7h51q7 0 9 -7l44 -152q1 -3 -1 -5.5t-6 -2.5h-143q-3 0 -5 2.5t-1 5.5z
" />
    <glyph glyph-name="uF0018" unicode="&#xf0018;" horiz-adv-x="646" 
d="M545 462q23 -1 41 -12.5t29 -29.5t11 -40v-298q0 -22 -11.5 -41t-31 -30t-42.5 -11h-436q-23 0 -42.5 11t-31 30t-11.5 41v298q0 22 11 40t29 29.5t40 12.5v79q0 41 16 76t43.5 62t63.5 42t78 15h44q41 0 77.5 -15t64 -42t43 -62t15.5 -76v-79zM203 541v-79h240v79
q0 29 -7 47.5t-18.5 28.5t-24.5 14t-25.5 4.5t-22.5 0.5h-44q-9 0 -21.5 -1t-25.5 -5t-25 -14t-19 -28t-7 -47z" />
    <glyph glyph-name="uF0019" unicode="&#xf0019;" horiz-adv-x="776" 
d="M665 465l86 -88q5 -6 5 -14t-6 -13l-96 -93v-134q0 -8 -6 -13.5t-13 -5.5h-140l-100 -97q-5 -5 -13 -5t-14 6l-93 96h-134q-7 0 -13 5.5t-6 13.5v139l-97 101q-5 5 -5 13t6 13l96 94v134q0 7 6 13t13 6h140l100 96q6 6 14 5.5t13 -5.5l93 -96h134q7 0 13 -6t6 -13v-7
l-258 -240l-79 83q-7 7 -12.5 7t-9.5 -2.5l-4 -2.5l-56 -53l-3 -3.5t-3.5 -10t6.5 -13.5l142 -152q7 -7 13 -6.5t10 3l4 2.5z" />
    <glyph glyph-name="uF0020" unicode="&#xf0020;" horiz-adv-x="530" 
d="M510 533v-492q0 -17 -12 -29t-29 -12h-408q-17 0 -29 12t-12 29v527q0 16 9.5 29t24.5 18l350 117q20 7 38 -2.5t25 -28.5l2 -6v-121q17 0 29 -12t12 -29zM190 574h198v66zM408 350q0 30 -11 55.5t-31 45t-45.5 30.5t-55.5 11t-55.5 -11t-45.5 -30.5t-31 -45t-11 -55.5
q-1 -25 8.5 -51t25.5 -52t34 -49t34.5 -41t27.5 -29q5 -5 13 -5t13 5q11 11 27.5 29t34.5 41t34 49t25.5 52t8.5 51zM323 350q0 -16 -8 -28.5t-21 -20.5t-29 -8t-29 8t-21 20.5t-8 28.5t8 29t21 21t29 8t29 -8t21 -21t8 -29z" />
    <glyph glyph-name="uF0101" unicode="&#xf0101;" horiz-adv-x="872" 
d="M850 376q-10 -16 -17 -34.5t-11 -37t-4 -32.5v-27q0 -11 -1.5 -23t-10.5 -33q-9 -25 -33 -50q-13 -14 -31.5 -25.5t-39.5 -19.5q-9 -4 -9 -13v-45q0 -17 -12 -29t-29 -12q-16 0 -28 12t-12 29v25q0 3 -1 5.5t-3 4.5l-5 2.5t-6 0.5h-300h-11.5t-10.5 1q-3 0 -6 -1.5
l-5 -2.5q-2 -2 -3 -4.5t-1 -5.5v-25q0 -17 -12 -29t-28 -12q-17 0 -29 12t-12 29v46q0 8 -9 12q-10 4 -19.5 8.5t-17.5 9.5q-47 29 -66 76v0.5t-1 0.5q-4 10 -6 19.5t-4 19.5q-1 5 -1 9v8v27q0 23 -9.5 52.5t-22.5 52.5q-6 8 -1 17q4 9 15 9l14 1q7 -1 12 4q3 2 4 5t1 6v220
q0 15 5 32t17.5 32t33.5 25q28 13 57 8t55 -26l2 -2q2 -2 3 0q19 9 42 9q21 0 45 -12q16 -6 31 -17q2 -2 4 -3l1 -1q10 -10 10 -25q0 -7 -2.5 -13t-7.5 -11l-1 -2l-90 -90l-2 -1q-1 -2 -2 -2.5l-3 -1.5q-9 -6 -19 -6q-17 0 -26 11l-3 4q-10 15 -18 30q-11 25 -11 46v10t1 9
q2 6 -2 8q-14 11 -22 10.5t-10 -2.5q-8 -3 -9.5 -9t-1.5 -8v-223q0 -7 4.5 -11t10.5 -4h675q10 0 15 -9q4 -9 0 -18z" />
    <glyph glyph-name="uF0102" unicode="&#xf0102;" horiz-adv-x="782" 
d="M394 387q2 -11 -7 -19q-19 -20 -31 -46.5t-12 -66.5v-232q0 -10 -6.5 -16.5t-16.5 -6.5h-271q-9 0 -15.5 6t-7.5 14q-4 32 -5.5 68.5t-1 73t3.5 69t7.5 57.5t11.5 38q11 21 37 46t72 59l11 8l4.5 4.5l3.5 3.5q1 2 0 4.5t-3 4.5q-1 2 -7 9q-24 29 -36.5 65.5t-12.5 83.5
q0 37 17 66t46 45.5t65 16.5q35 0 64 -17t46 -46t17 -65q0 -47 -12.5 -84.5t-37.5 -65.5q-6 -6 -8 -9.5t-1 -5.5q0 -2 1 -3.5t6 -4.5l10 -5l21 -12q3 -2 13.5 -7t23.5 -13q9 -6 11 -17zM761 250q0 -28 0.5 -51t0.5 -43v-19q0 -14 -0.5 -28.5t-0.5 -30.5v-55
q0 -10 -6.5 -16.5t-16.5 -6.5h-324q-10 0 -16.5 6.5t-6.5 16.5v232q0 34 11 55.5t35 38.5l37 21l8 4q4 2 7 3t6 3q5 2 6.5 3.5l1.5 1.5q0 5 -1 7t-5 6q0 1 -1 2q-28 30 -40.5 68t-12.5 84q0 23 8.5 46t25.5 42t41 30.5t54 11.5t54 -11t41 -30t25.5 -42t8.5 -47
q0 -44 -12.5 -83t-40.5 -69l-4 -4l-3 -4.5t-1 -5.5q0 -2 1 -3t5 -3q2 -2 5 -3t7 -3l21 -9q41 -19 61.5 -45t20.5 -70z" />
    <glyph glyph-name="uF0103" unicode="&#xf0103;" horiz-adv-x="895" 
d="M790 416q24 0 43 -11.5t30.5 -31t11.5 -43.5v-293q0 -17 -12.5 -29.5t-30.5 -12.5q-17 0 -29.5 12.5t-12.5 29.5v8q0 11 -8.5 19.5t-20.5 8.5h-627q-12 0 -20 -8.5t-8 -19.5v-8q0 -17 -13 -29.5t-30 -12.5q-18 0 -30.5 12.5t-12.5 29.5v293q0 24 11.5 43.5t31 31
t43.5 11.5v239q0 18 9 33t24 24t33 9h552q18 0 33 -9t24 -24t9 -33v-239zM403 432v103q0 13 -9.5 23t-23.5 10h-143q-13 0 -23 -10t-10 -23v-103q0 -7 5 -11.5t12 -4.5h176q7 0 11.5 4.5t4.5 11.5zM701 432v103q0 13 -9.5 23t-23.5 10h-143q-13 0 -23 -10t-10 -23v-103
q0 -7 4.5 -11.5t11.5 -4.5h176q8 0 12.5 4.5t4.5 11.5z" />
    <glyph glyph-name="uF0104" unicode="&#xf0104;" horiz-adv-x="778" 
d="M758 39q0 -17 -12 -28t-28 -11h-113q-22 0 -37.5 15t-15.5 38v479q0 10 -8 18t-19 8h-49v-618q0 -14 -11 -22q-10 -7 -23 -4l-265 84q-4 2 -8 2h-109q-16 0 -28 11t-12 28t12 28.5t28 11.5h66q11 0 19 8t8 19v513q0 8 5.5 15t13.5 10l270 86q13 3 23 -4q11 -8 11 -22v-66
h129q11 0 19 -8t8 -19v-505q0 -11 8 -19t18 -8h60q16 0 28 -11.5t12 -28.5z" />
    <glyph glyph-name="uF0105" unicode="&#xf0105;" horiz-adv-x="858" 
d="M371 664v-175q0 -24 -12 -44t-32 -32t-44 -12h-175q-24 0 -44 12t-32 32t-12 44v175q0 24 12 44t32 32t44 12h175q24 0 44 -12t32 -32t12 -44zM750 752q24 0 44 -12t32 -32t12 -44v-175q0 -24 -12 -44t-32 -32t-44 -12h-175q-24 0 -44 12t-32 32t-12 44v175q0 24 12 44
t32 32t44 12h175zM283 285q24 0 44 -12t32 -32t12 -44v-175q0 -24 -12 -44t-32 -32t-44 -12h-175q-24 0 -44 12t-32 32t-12 44v175q0 24 12 44t32 32t44 12h175zM750 285q24 0 44 -12t32 -32t12 -44v-175q0 -24 -12 -44t-32 -32t-44 -12h-175q-24 0 -44 12t-32 32t-12 44
v175q0 24 12 44t32 32t44 12h175z" />
    <glyph glyph-name="uF0201" unicode="&#xf0201;" horiz-adv-x="615" 
d="M102 488q-14 15 -14 36t14 36l170 169q6 8 16 11h1q5 2 9 3t9 1q11 0 19 -4h1q10 -3 16 -11l169 -169q15 -15 15 -36t-15 -36q-7 -8 -16 -11.5t-19 -3.5q-21 0 -36 15l-83 83v-351q0 -21 -15 -36t-36 -15t-35.5 15t-14.5 36v351l-83 -83q-15 -15 -36 -15t-36 15zM544 101
q21 0 36 -14.5t15 -35.5t-15 -36t-36 -15h-473q-21 0 -36 15t-15 36t15 35.5t36 14.5h473z" />
    <glyph glyph-name="uF0202" unicode="&#xf0202;" horiz-adv-x="615" 
d="M544 709q21 0 36 -15t15 -36t-15 -35.5t-36 -14.5h-473q-21 0 -36 14.5t-15 35.5t15 36t36 15h473zM512 221q15 -15 15 -36t-15 -36l-169 -169q-6 -8 -16 -11h-1q-8 -4 -19 -4q-5 0 -9 1t-9 3h-1q-10 3 -16 11l-170 169q-14 15 -14 36t14 36q15 14 36 14t36 -14l83 -83
v351q0 21 14.5 36t35.5 15t36 -15t15 -36v-351l83 83q15 14 36 14t35 -14z" />
    <glyph glyph-name="uF0203" unicode="&#xf0203;" horiz-adv-x="701" 
d="M650 266q15 -8 23 -22.5t8.5 -31t-8.5 -31.5t-23.5 -23t-30.5 -8q-8 0 -15.5 2t-15.5 6l-175 102v-203q0 -17 -8.5 -31t-22.5 -22.5t-31 -8.5t-31.5 8.5t-23 22.5t-8.5 31v203l-175 -102q-7 -4 -15 -6t-16 -2q-16 0 -30.5 8t-23.5 23q-8 15 -8 31.5t8 31t23 22.5l175 101
l-175 101q-15 8 -23 22.5t-8 31t8 31.5t22.5 23t31 8t31.5 -8l175 -102v203q0 17 8.5 31t23 22.5t31.5 8.5t31 -8.5t22.5 -22.5t8.5 -31v-203l175 102q15 8 31.5 8t30.5 -8t23 -23t8.5 -31.5t-8.5 -31t-23 -22.5l-175 -101z" />
    <glyph glyph-name="uF0301" unicode="&#xf0301;" horiz-adv-x="513" 
d="M290 611q83 -9 134.5 -67t68.5 -165q1 -7 -3 -13q-5 -5 -12 -5h-442q-7 0 -12 5q-2 3 -3.5 6t-0.5 7q36 214 207 232q5 58 37 90q36 38 103 38h78q13 0 22 -9.5t9 -22.5t-9 -22t-22 -9h-78q-40 0 -58 -19q-7 -7 -12 -19t-7 -27zM408 328q16 3 29.5 -6t15.5 -25
q3 -17 -6 -30t-26 -16q-16 -3 -29.5 6t-15.5 26q-3 16 6.5 29.5t25.5 15.5zM250 328q16 3 29.5 -6t16.5 -25q2 -17 -7 -30t-25 -16t-29.5 6t-16.5 26q-3 16 6.5 29.5t25.5 15.5zM138 297q3 -17 -6.5 -30t-25.5 -16t-29.5 6t-16.5 26q-3 16 6.5 29.5t25.5 15.5q16 3 29.5 -6
t16.5 -25zM408 202q16 3 29.5 -6.5t15.5 -25.5q3 -16 -6 -29t-26 -16q-16 -3 -29.5 6t-15.5 26q-3 16 6.5 29.5t25.5 15.5zM92 202q16 3 29.5 -6.5t16.5 -25.5t-6.5 -29t-25.5 -16t-29.5 6t-16.5 26q-3 16 6.5 29.5t25.5 15.5zM250 202q16 3 29.5 -6.5t16.5 -25.5
q2 -16 -7 -29t-25 -16t-29.5 6t-16.5 26q-3 16 6.5 29.5t25.5 15.5zM408 76q16 3 29.5 -6.5t15.5 -25.5q3 -16 -6 -29.5t-26 -15.5q-16 -3 -29.5 6t-15.5 26q-3 16 6.5 29t25.5 16zM92 76q16 3 29.5 -6.5t16.5 -25.5t-6.5 -29.5t-25.5 -15.5q-16 -3 -29.5 6t-16.5 26
q-3 16 6.5 29t25.5 16zM250 76q16 3 29.5 -6.5t16.5 -25.5q2 -16 -7 -29.5t-25 -15.5q-16 -3 -29.5 6t-16.5 26q-3 16 6.5 29t25.5 16z" />
    <glyph glyph-name="uF0302" unicode="&#xf0302;" horiz-adv-x="896" 
d="M121 655q0 21 10 38t27.5 27.5t38.5 10.5h501q21 0 38 -10.5t27.5 -27.5t10.5 -38v-135q-19 0 -36.5 -9.5t-32 -24.5t-23 -33.5t-8.5 -37.5v-160h-452v160q0 20 -8.5 38.5t-23.5 34t-33 24.5t-36 9v134zM800 468q18 0 35.5 -7.5t29 -24t11.5 -44.5q0 -22 -4 -34.5
t-10 -19t-13 -11.5t-15.5 -13.5t-8.5 -23.5v-174q0 -10 -7.5 -17.5t-17.5 -7.5h-26v-68q0 -15 -8 -21.5t-17 -6.5q-13 0 -21 4.5t-18 23.5l-32 68h-461l-33 -68q-10 -19 -18 -23.5t-21 -4.5q-8 0 -16.5 6.5t-8.5 21.5v68h-24q-10 0 -17.5 7.5t-7.5 17.5v14.5v31v39.5v40v33
v18q-1 14 -8.5 22t-14.5 14t-13.5 13t-10.5 19t-4 32q0 76 76 76q18 0 35.5 -6t29 -22t11.5 -48v-136q0 -21 15 -36t36 -15h450q21 0 36 15t15 36v136q0 26 9 41.5t22 23t25.5 9.5t19.5 2z" />
    <glyph glyph-name="uF0303" unicode="&#xf0303;" horiz-adv-x="695" 
d="M181 573h365l-88 94q-10 12 -10 29t10 29q11 12 27 12t27 -12l152 -164q11 -12 11 -29t-11 -29l-152 -164q-11 -12 -27 -12t-27 12q-10 12 -10 29t10 29l88 94h-365q-16 0 -27 12t-11 29t11 29t27 12zM515 163h-365l87 -94q11 -12 11 -29t-11 -29t-27 -12t-27 12
l-152 164q-11 12 -11 29t11 29l152 164q11 12 27 12t27 -12t11 -29t-11 -29l-87 -94h365q16 0 27 -12t11 -29t-11 -29t-27 -12z" />
    <glyph glyph-name="uF0401" unicode="&#xf0401;" horiz-adv-x="784" 
d="M392 739q61 0 117 -19t102.5 -53t80.5 -80.5t53 -102.5t19 -117t-19 -117t-53 -102.5t-80.5 -80.5t-102 -53t-117.5 -19q-61 0 -117 19t-102.5 53t-80.5 80.5t-53 102.5t-19 117t19 117t53 102.5t80.5 80.5t102 53t117.5 19zM180 252q9 -2 13 4l310 310q6 4 4 13
q-1 7 -8 12q-25 11 -52 17.5t-55 6.5q-51 0 -96 -19.5t-79 -53.5t-53.5 -79t-19.5 -96q0 -29 6.5 -55.5t17.5 -51.5q5 -7 12 -8zM392 119q51 0 96 19.5t79 53.5t53.5 79t19.5 96q0 29 -6.5 55.5t-17.5 51.5q-5 7 -12 8q-9 2 -13 -4l-310 -310q-6 -4 -4 -13q1 -7 8 -12
q25 -11 52 -17.5t55 -6.5z" />
    <glyph glyph-name="uF0402" unicode="&#xf0402;" horiz-adv-x="932" 
d="M838 618q20 0 37 -10t27 -27t10 -37v-475q0 -21 -10 -37.5t-27 -26.5t-37 -10h-744q-20 0 -37 10t-27 26.5t-10 37.5v475q0 20 10 37t27 27t37 10h744zM862 382v70q0 8 -6 14.5t-14 6.5h-752q-8 0 -14 -6.5t-6 -14.5v-70q0 -8 6 -14t14 -6h752q8 0 14 6t6 14z" />
    <glyph glyph-name="uF0403" unicode="&#xf0403;" horiz-adv-x="890" 
d="M866 732q4 -4 4 -9t-2 -10l-390 -709q-4 -7 -13 -9h-2q-9 0 -13 6l-110 119q-6 6 -13 6q-4 0 -7.5 -2t-5.5 -4l-62 -68q-3 -4 -7.5 -5.5t-9.5 -0.5q-10 3 -13 13l-68 259q-1 4 -4 8l-125 135q-7 9 -4 17q1 4 4 7t8 5l814 248q11 3 19 -6zM719 632q4 2 2 6q-2 3 -6 1
l-506 -254q-1 0 -3 -2q-13 -7 -16 -21.5t5 -27.5q8 -12 22.5 -15t26.5 5z" />
    <glyph glyph-name="uF0404" unicode="&#xf0404;" horiz-adv-x="714" 
d="M30 611q16 39 40 65.5t51.5 42t52.5 19.5q14 3 26.5 -2t21.5 -21q8 -14 16.5 -29t20.5 -37.5t30 -59.5q5 -9 7.5 -17t0 -17.5t-12.5 -23.5q-12 -17 -23 -33.5t-19.5 -29t-11.5 -16.5q-8 -10 -10 -23.5t9 -26.5q15 -19 33.5 -40.5t36.5 -43t33.5 -40t26 -31t12.5 -15.5
q6 -8 20 -11t29 4l87 39q17 8 29 8t28 -13q32 -25 52 -40.5t34 -27t26 -21.5q14 -11 17 -23t-3 -28q-13 -31 -34.5 -54.5t-47 -39t-51 -23t-45.5 -7.5q-31 0 -66.5 12t-73 33.5t-73.5 49t-68 58.5t-58 62q-28 34 -55 75.5t-48 86t-34.5 88.5t-15.5 83t10 68z" />
    <glyph glyph-name="uF0405" unicode="&#xf0405;" horiz-adv-x="761" 
d="M734 20q-1 -8 -7.5 -14t-14.5 -6h-378q-8 0 -15 6t-8 14q-1 13 -2 25.5t-2 26.5q-2 38 -2 76.5t3 73t7.5 61.5t11.5 40q11 22 37 46.5t72 57.5q12 9 16 13t2 8.5t-9 12.5q-24 28 -36.5 65t-12.5 84q0 36 17 64.5t46 45t64 16.5q10 0 19 -1.5t17 -3.5q27 -7 47 -24.5
t31.5 -42t11.5 -54.5q0 -94 -48 -149q-7 -8 -9 -12.5t2 -8.5t16 -13q46 -33 72 -57.5t36 -46.5q7 -13 11.5 -37.5t7.5 -57t3.5 -68.5t-1 -72t-5.5 -68zM250 519q20 0 33 -13.5t13 -32.5t-13 -32.5t-33 -13.5h-46v-46q0 -19 -13.5 -32.5t-32.5 -13.5t-32.5 13.5t-13.5 32.5
v46h-46q-13 0 -24 8q-10 6 -16 16t-6 22t6 22t16 16q11 8 24 8h46v46q0 19 13.5 32.5t32.5 13.5t32.5 -13.5t13.5 -32.5v-46h46z" />
    <glyph glyph-name="uF0406" unicode="&#xf0406;" horiz-adv-x="715" 
d="M433 323q7 -13 11.5 -37.5t7.5 -57t3.5 -68.5t-1 -72t-5.5 -68q-1 -8 -7.5 -14t-14.5 -6h-378q-8 0 -14.5 6t-7.5 14q-4 32 -5.5 68t-1 72t3.5 68.5t7.5 57t11.5 37.5q11 22 36.5 46.5t71.5 57.5q12 9 16 13t2 8.5t-9 12.5q-48 55 -48 148q0 37 16.5 65.5t45 45
t64.5 16.5t64.5 -16.5t45.5 -45t17 -65.5q0 -47 -12.5 -83.5t-36.5 -64.5q-7 -8 -9 -12.5t2.5 -8.5t15.5 -13q46 -33 71.5 -57.5t36.5 -46.5zM658 519q15 0 26 -13.5t11 -32.5t-11 -32.5t-26 -13.5h-149q-16 0 -26.5 13.5t-10.5 32.5t10.5 32.5t26.5 13.5h149z" />
    <glyph glyph-name="uF0501" unicode="&#xf0501;" horiz-adv-x="1079" 
d="M615 0v281l66 -66q16 -16 38 -16t38 16q11 11 14 25t0 28t-14 24l-156 157q-11 11 -25.5 14.5t-29 0t-25.5 -14.5l-156 -157q-11 -10 -14 -24t0 -28t14 -25q16 -16 38.5 -16t38.5 16l65 66v-281h-206q-89 0 -152 28.5t-96 82t-33 127.5q0 40 13 73t36 58q9 10 17.5 17.5
t16.5 12.5q-1 1 -1 3q-6 26 -6 53t9 52q14 43 54 73q41 32 84.5 34t84.5 -17q3 -1 5.5 -2t4.5 -3q2 2 3 4t3 4q10 14 23 28t28 27q43 37 95.5 59t113.5 22q72 0 134 -22t108.5 -63t73.5 -98t30 -128q10 -5 23 -14t26 -22q28 -29 44 -66.5t16 -84.5q0 -51 -19 -94t-52 -75.5
t-76 -50.5t-91 -18h-206z" />
    <glyph glyph-name="uF0601" unicode="&#xf0601;" horiz-adv-x="784" 
d="M392 744q61 0 117 -19t102.5 -53t80.5 -80.5t53 -102t19 -117.5q0 -61 -19 -117t-53 -102.5t-80.5 -80.5t-102 -53t-117.5 -19q-61 0 -117 19t-102.5 53t-80.5 80.5t-53 102t-19 117.5q0 61 19 117t53 102.5t80.5 80.5t102 53t117.5 19zM392 131q50 0 93.5 18.5t77 52
t52 77t18.5 93.5t-18.5 93.5t-52 77t-77 52t-93.5 18.5t-93.5 -18.5t-77 -52t-52 -77t-18.5 -93.5t18.5 -93.5t52 -77t77 -52t93.5 -18.5z" />
    <glyph glyph-name="uF1001" unicode="&#xf1001;" horiz-adv-x="779" 
d="M742 531q14 -10 17 -26.5t-8 -30.5q-12 -17 -32 -17h-61v-445q0 -5 -4 -8.5t-8 -3.5h-115q-4 0 -6.5 2.5t-2.5 6.5v193q0 16 -11 30t-27.5 22t-33.5 8q-16 0 -32 -8t-26.5 -22t-10.5 -30v-193q0 -4 -2.5 -6.5t-6.5 -2.5h-239q-5 0 -8.5 3.5t-3.5 8.5v445h-60
q-9 0 -18 4.5t-15 12.5q-10 14 -7 30.5t16 26.5l346 206q7 5 13 0zM275 330q24 0 40.5 16.5t16.5 40.5t-16.5 40.5t-40.5 16.5t-40.5 -16.5t-16.5 -40.5t16.5 -40.5t40.5 -16.5z" />
    <glyph glyph-name="uF1002" unicode="&#xf1002;" horiz-adv-x="657" 
d="M633 113q7 -15 1.5 -31t-19.5 -23l-121 -60q-7 -4 -18 -4q-3 0 -6 0.5t-6 1.5q-15 5 -23 20l-153 307q-24 -8 -48.5 -9.5t-48.5 3.5q-41 8 -76.5 30.5t-60 57.5t-32.5 82q-6 38 2.5 76.5t29 71.5t52.5 56q33 24 69.5 34t73 7t70 -17.5t61 -39.5t44.5 -60q22 -44 20 -93
t-23 -92q-11 -22 -27 -40t-35 -32l57 -114l88 45q15 7 30.5 1.5t22.5 -19.5q7 -15 2 -30.5t-19 -22.5l-89 -45l43 -86l85 42q15 8 31 2.5t23 -19.5zM218 552q20 10 27 31t-3 40q-10 20 -31 27.5t-41 -3.5q-20 -10 -27 -30.5t3 -40.5q6 -14 18.5 -21.5t26.5 -8.5t27 6z" />
    <glyph glyph-name="uF1101" unicode="&#xf1101;" horiz-adv-x="553" 
d="M277 610q-19 0 -34 9t-24 24t-9 34q0 18 9 33t24 24t34 9q18 0 33 -9t24 -24t9 -33q0 -19 -9 -34t-24 -24t-33 -9zM494 734q16 0 27.5 -11.5t11.5 -27.5v-65q0 -49 -25.5 -86.5t-78.5 -56.5q-10 -4 -16 -12.5t-6 -18.5q1 -14 1 -35t0.5 -43t0.5 -41v-31.5v-12.5v-259
q0 -16 -11.5 -27.5t-28.5 -11.5q-16 0 -27.5 11.5t-11.5 27.5v173q0 6 -2 13t-10 7h-70q-6 0 -8.5 -5.5t-3 -12t-0.5 -9.5v-166q0 -16 -11 -27.5t-28 -11.5t-28 11.5t-11 27.5v255q0 6 -4 9.5t-9 4.5q-29 3 -54 16t-42 34t-24.5 47.5t-2.5 56.5q6 33 26.5 57.5t50 38
t62.5 13.5h227q18 0 33.5 9t24.5 24t9 34v62q0 16 11.5 27.5t27.5 11.5zM157 370q1 37 1 70.5t2 55.5h-9q-17 0 -31 -8.5t-22.5 -22.5t-8.5 -31t11 -31.5t26.5 -23.5t30.5 -9z" />
    <glyph glyph-name="uF1201" unicode="&#xf1201;" horiz-adv-x="655" 
d="M407 432l-11 -18q-4 -8 -0.5 -15.5t13.5 -7.5l120 1q15 0 28 -7.5t21 -20t8 -28.5t-7.5 -29t-20 -21t-28.5 -8l-196 -1q-16 -1 -21.5 -4.5t-7.5 -7.5l-10 -15q-4 -7 1.5 -11t15.5 -4l114 1q16 0 28.5 -7.5t20.5 -20t8 -28.5q0 -24 -16.5 -40.5t-39.5 -17.5l-211 -2
q-12 -1 -26.5 -6.5t-25.5 -22.5l-51 -83q-6 -10 -17.5 -12.5t-21.5 3.5t-12.5 17.5t3.5 21.5l52 85q9 17 8 31t-6 25l-93 191q-7 14 -6 29t9.5 27.5t22.5 19.5t29 5.5t27.5 -9.5t19.5 -22l50 -102q4 -9 10 -12t11 4q4 7 5.5 9t3.5 6t3 10t-6 21l-86 176q-7 14 -6 29
t9.5 27.5t22.5 19.5t29 5.5t27.5 -9.5t19.5 -22l53 -108q4 -8 12.5 -8t13.5 7l3.5 6t3.5 7q3 4 6.5 12.5t-5.5 24.5l-63 127q-10 21 -2.5 43.5t28.5 32.5q22 10 44.5 2.5t32.5 -28.5l4 -9t10 -20.5t10.5 -20.5l4.5 -9q7 -16 14 -11.5t17 20.5l32 51q8 13 21.5 20t28.5 7
t28 -8q14 -8 20.5 -21.5t6.5 -28.5t-8 -28l-28 -46q-13 -20 -15 -29.5t18 -8.5h65q16 0 29 -7.5t21 -20t8 -28.5t-7.5 -28.5t-20.5 -20.5t-28 -8l-142 -2q-13 1 -19.5 -3t-10.5 -8z" />
    <glyph glyph-name="uF1202" unicode="&#xf1202;" horiz-adv-x="680" 
d="M131 448q-13 -2 -26 -1t-25 5q-8 2 -21 9t-24.5 21t-14.5 37v124q0 8 4 5.5t11.5 -11t19.5 -17.5t28 -14.5t36 -1.5t36 19.5t29 37t22.5 43t17.5 36.5q1 1 2.5 1.5t2.5 -1.5q7 -12 15.5 -29.5t18.5 -36t22 -35t26.5 -26.5t31.5 -10q18 0 31.5 10t24.5 26.5t20 35t17 36
t15 29.5q1 2 2.5 1.5t2.5 -1.5q8 -15 17.5 -36.5t22.5 -43t29 -37t36 -19.5t36 1.5t28 14.5t20 17.5t11.5 11t3.5 -5.5v-124q-3 -23 -14.5 -37t-24.5 -21t-21 -9q-12 -4 -25 -5t-26 1q-29 4 -53 18t-41 35q-2 3 -5 0q-19 -26 -47.5 -41.5t-62.5 -15.5t-62.5 15.5t-47.5 41.5
q-3 3 -5 0q-17 -21 -41 -35t-53 -18zM600 311q16 5 27 13.5t18.5 17t11 12.5t3.5 0v-311q0 -18 -12.5 -30.5t-30.5 -12.5h-554q-18 0 -30.5 12.5t-12.5 30.5v311q0 4 3.5 0t11 -12.5t18.5 -17t27 -13.5q24 -7 51 -3q19 2 36 13t31.5 25.5t25.5 28.5q1 1 2.5 1t2.5 -1
q13 -17 30.5 -33.5t38 -27t42.5 -10.5t42.5 10.5t38 27t30.5 33.5q1 1 2.5 1t2.5 -1q11 -14 25.5 -28.5t31.5 -25.5t36 -13q27 -4 51 3z" />
    <glyph glyph-name="uF1301" unicode="&#xf1301;" horiz-adv-x="781" 
d="M733 128q19 -16 25 -32.5t2 -31.5t-13 -28t-19 -22q-9 -7 -19.5 -10.5t-26.5 -3.5h-455q-14 0 -24 10t-10 24t10 24t24 10h163q-18 15 -35.5 33t-32.5 35.5t-26 30.5l-245 283q-13 15 -19 33.5t-3.5 37.5t15.5 33q6 6 18.5 21t29.5 33.5t35 37.5l43 44q18 20 30.5 31.5
t24 16t26.5 -0.5q5 -1 10.5 -3.5t12.5 -5.5q6 -3 13.5 -7t14 -8t9.5 -6q2 -1 4.5 -3t3.5 -3q16 -14 21.5 -30.5t6.5 -33.5q3 -23 8.5 -36t10.5 -14q8 -2 19 2t23.5 9.5t24.5 9.5t22 1q5 -1 8.5 -3t7.5 -4q14 -10 21.5 -24t9.5 -29.5t1 -28.5v-14q0 -12 2 -30.5t5.5 -39
t8.5 -40t10 -34.5q8 -22 22 -45.5t28.5 -43t24.5 -32.5q10 -9 30 -27.5t46 -41t53 -44.5zM193 548q1 37 -14 70l-11 -11q-16 -17 -31.5 -34.5t-28.5 -31.5q-7 -7 -12.5 -13.5t-9.5 -10.5q-3 -5 -1.5 -14t8.5 -16l44 -50q22 19 34 39.5t16.5 39t5.5 32.5zM426 326
q8 -27 31 -41.5t51 -18.5q-18 35 -32.5 79t-22.5 90t-6 88q1 10 -1 17.5t-3 11.5q-3 -2 -6.5 -3t-5.5 -3q-11 -4 -23 -8.5t-25 -6.5q4 -20 9 -48t11 -58t12 -56.5t11 -42.5zM116 68q14 0 24 -10t10 -24t-10 -24t-24 -10h-62q-14 0 -24 10t-10 24t10 24t24 10h62z" />
    <glyph glyph-name="uF1302" unicode="&#xf1302;" horiz-adv-x="710" 
d="M673 373q-11 -29 -29.5 -59t-44.5 -56.5t-59 -46.5q18 -10 37.5 -26.5t39.5 -41.5q10 -12 7 -27q-2 -16 -14 -24q-8 -6 -24.5 -16.5t-38.5 -19t-47 -8.5q-11 0 -22.5 2t-23.5 6q-12 5 -22 12.5t-17 15.5v-29q0 -17 -8 -30.5t-21.5 -21.5t-30.5 -8t-30.5 8t-21.5 21.5
t-8 30.5v30q-7 -9 -17 -16.5t-23 -12.5q-11 -4 -23 -6t-22 -2q-26 0 -47.5 8t-37 18t-24.5 16q-13 10 -16 26q-2 16 8 27q19 25 38.5 41.5t38.5 26.5q-33 20 -59 46.5t-44.5 56.5t-29.5 59q-13 35 -16 66.5t5 55.5t25 37q12 9 23 13q0 15 2 34.5t7.5 40t16.5 37.5t30 28
q53 31 143 -28q9 34 31 55.5t51 21.5t50.5 -21.5t31.5 -55.5q89 59 143 28q18 -11 29.5 -28t17 -37.5t7 -40t1.5 -34.5q6 -2 12 -5.5t12 -7.5q17 -13 25 -37t5 -55.5t-16 -66.5zM439 331q23 35 36 72t13 70q0 36 -11 64t-28 37q-11 6 -25 3.5t-28 -9.5t-25 -15l-15 -10
l-16 9q-14 8 -30.5 15.5t-32.5 7.5q-5 0 -10 -1t-10 -4q-17 -9 -26 -35t-9 -62q0 -40 14.5 -76t34.5 -66q13 -17 26 -21.5t21.5 3t8.5 29.5v90q0 11 8.5 19t19.5 8t19 -8t8 -19v-91q0 -21 9 -28.5t22 -3t26 21.5zM218 245q12 -2 17.5 5.5t3 20.5t-12.5 27l-4 7
q-21 32 -36 70.5t-18 81.5q-2 2 -10 10.5t-20.5 17t-26.5 11t-27 -7.5q-7 -4 -9 -29.5t13 -66.5q10 -26 25 -52.5t37 -49.5t53 -39zM494 250q32 16 57 39t42.5 50t27.5 53q11 28 13 48t-1 32.5t-7 15.5q-11 8 -22.5 7.5t-22 -6t-19.5 -12.5t-14.5 -13t-6.5 -7
q-4 -41 -22.5 -81t-42.5 -76q-10 -14 -12.5 -27.5t2.5 -22t17 -5.5q2 1 4.5 2t3.5 2q2 0 3 1z" />
    <glyph glyph-name="uF1303" unicode="&#xf1303;" horiz-adv-x="749" 
d="M717 265q8 -7 10.5 -17t-1.5 -19q-6 -11 -15.5 -25.5t-20 -28.5t-18.5 -23q-7 -8 -17.5 -8.5t-19.5 5.5l-212 132v-210h45q14 0 24.5 -10.5t10.5 -24.5t-10.5 -24.5t-24.5 -10.5h-158q-14 0 -24.5 10.5t-10.5 24.5t10.5 24.5t24.5 10.5h42v254l-78 49q-8 5 -15 1
q-37 -13 -77.5 -10t-75.5 24l-5 -7q-5 -7 -12 -10q-7 -2 -14 -1t-12 6q-8 7 -9 17t5 18l7 10q-28 30 -39 68.5t-5.5 78t30.5 74.5q16 23 37 39t45 25q31 12 64.5 11.5t65.5 -13.5l7 10q7 10 19 11t21 -8q7 -7 7 -16.5t-5 -17.5q-2 -2 -1.5 -5t2.5 -5q28 -24 43 -56t17 -67
q1 -11 5.5 -20t12.5 -16zM305 537q4 5 2 10q-3 31 -23 56q-4 5 -11.5 5t-11.5 -6l-101 -143q-4 -6 -1.5 -13t9.5 -9q29 -11 60 -3q5 2 8 6z" />
    <glyph glyph-name="uF1304" unicode="&#xf1304;" horiz-adv-x="769" 
d="M730 590q8 0 13.5 -5.5t5.5 -13.5q0 -7 -5.5 -12.5t-13.5 -5.5q-30 0 -51 -12t-34 -30.5t-19 -39.5t-6 -38q0 -8 -6 -13.5t-13 -5.5q-8 0 -13.5 5.5t-5.5 13.5q0 17 -6 38t-19 39.5t-34 30.5t-51 12q-8 0 -13.5 5.5t-5.5 12.5q0 8 5.5 13.5t13.5 5.5q30 0 51 12t34 30.5
t19 39.5t6 38q0 8 5.5 13.5t13.5 5.5q7 0 13 -5.5t6 -13.5q0 -17 6 -38t19 -39.5t34 -30.5t51 -12zM618 227q6 2 11 -2t3 -11q-1 -2 -1.5 -5t-2.5 -5q-15 -46 -43 -86t-71 -70q-29 -22 -65 -36q-45 -18 -92.5 -21.5t-93.5 7.5t-87.5 35t-74.5 60.5t-55 85.5
q-24 54 -26 112.5t17 114.5t58 100q6 8 12.5 14t12.5 12q44 40 97 61q31 13 65 18t67 4q7 -1 9 -7t-2 -11q-31 -40 -42.5 -89t-2.5 -99.5t40 -93.5t75 -68.5t94 -30.5t98 11zM185 334q21 -48 58 -83t83 -53t96 -17q-35 16 -66 41t-54 58q-34 48 -47 103t-5 110v3
q2 26 -1.5 34t-13.5 5q-22 -10 -38.5 -27.5t-25 -40t-7.5 -46.5q2 -23 7 -45t14 -42z" />
    <glyph glyph-name="uF1305" unicode="&#xf1305;" horiz-adv-x="636" 
d="M585 63q-14 -21 -33.5 -40.5t-43.5 -33t-51 -13.5q-38 0 -69.5 20.5t-44.5 56.5q-11 31 -6 60.5t21.5 52t42 36t55.5 13.5q23 0 48 -10.5t48 -26.5v195q0 17 -9 24t-28 15l-118 50l-124 65q-5 1 -9 -2t-4 -8v-207q0 -23 -9 -45.5t-22 -41.5q-14 -21 -33.5 -40.5
t-43.5 -33t-51 -13.5q-38 0 -69.5 20.5t-43.5 56.5q-11 31 -6 60.5t21.5 52t41.5 36t55 13.5q24 0 48.5 -10t47.5 -26v346q0 13 10 20.5t22 3.5l169 -75l208 -79q11 -3 11 -14v-392q0 -23 -9 -45t-22 -41z" />
    <glyph glyph-name="uF1306" unicode="&#xf1306;" horiz-adv-x="869" 
d="M835 375q6 -7 10 -17q6 -16 3 -41t-10 -65q-6 -32 -9 -49.5t-5 -28t-5 -22.5q-11 -41 -34 -76t-57 -56.5t-77 -24.5q-39 -2 -73 11t-60 37.5t-42 56.5q-6 14 -16.5 26t-25.5 12q-14 0 -24.5 -12t-17.5 -26q-15 -32 -41.5 -56.5t-60.5 -37.5t-73 -11q-42 3 -76 24.5
t-57.5 56.5t-34.5 76q-3 12 -5 22.5t-5 28t-8 49.5q-7 40 -10.5 65t2.5 41q2 5 5.5 9.5t7.5 8.5q1 1 15 16t36 38.5t48.5 52t54 58t51 55.5t40.5 44q9 10 23 10t27 -7t22 -18l19 -27q9 -10 8.5 -23.5t-10.5 -22.5t-24 -8.5t-23 11.5l-9 9q-2 3 -13 -9t-26.5 -32.5t-33 -44.5
t-32.5 -46q-10 -14 -6.5 -23t19.5 -10q20 -1 36.5 -2.5t25.5 -3.5q24 -3 41 -12t32 -26.5t36 -47.5q9 -14 15.5 -26t12 -19t13.5 -7t14 7t12 19t16 26q20 30 35.5 47.5t32 26.5t40.5 12q9 2 25.5 3.5t36.5 2.5q17 1 20.5 10t-7.5 23q-15 22 -32.5 46t-33 44.5t-26.5 32.5
t-13 9l-9 -9q-9 -11 -22.5 -11.5t-23.5 8.5q-11 9 -11.5 22.5t8.5 23.5l20 27q8 11 21 18t27 7t23 -10q14 -16 34.5 -37.5t44 -46.5t47.5 -50.5t45.5 -49t39 -42t27.5 -29zM110 188q0 -32 16 -58.5t42.5 -42.5t58.5 -16q33 0 59.5 16t42 42.5t15.5 58.5q0 10 -2 20t-5 19
q-8 23 -24 40.5t-38.5 27.5t-47.5 10t-47.5 -10t-38.5 -27.5t-24 -40.5q-3 -9 -5 -19t-2 -20zM525 188q0 -32 15.5 -58.5t42 -42.5t58.5 -16q33 0 59.5 16t42 42.5t15.5 58.5q0 10 -2 20t-5 19q-8 23 -24 40.5t-38.5 27.5t-47.5 10t-47 -10t-38 -27.5t-24 -40.5
q-4 -9 -5.5 -19t-1.5 -20z" />
    <glyph glyph-name="uF1307" unicode="&#xf1307;" horiz-adv-x="748" 
d="M668 513h32q12 0 20 -8t8 -19v-427q0 -16 -8 -29.5t-21 -21.5t-30 -8h-590q-17 0 -30 8t-21 21.5t-8 29.5v395q0 25 17 42t42 17h140q32 24 71.5 38t83.5 14q32 0 62 -8t57 -22v16q0 6 4 10t10 4h147q6 0 10 -4t4 -10v-38zM549 422q0 -14 9.5 -23.5t22.5 -9.5t23 9.5
t10 23.5t-10 23.5t-23 9.5t-22.5 -9.5t-9.5 -23.5zM208 278q0 -34 13 -64t36 -52.5t53 -35.5t64 -13t64 13t53 35.5t36 52.5t13 64t-13 64.5t-36 53t-53 35.5t-64 13t-64 -13t-53 -35.5t-36 -53t-13 -64.5zM320 370q10 8 25 13t30 5q30 0 54.5 -15t39.5 -39.5t15 -54.5
q0 -15 -5 -31.5t-14 -30t-21 -21.5q-15 -11 -27 -7t-14 20q-1 10 -5 23.5t-11.5 27t-18 24t-25.5 14.5q-23 5 -31.5 15t-8.5 21.5t5.5 21t11.5 14.5z" />
    <glyph glyph-name="uF1308" unicode="&#xf1308;" horiz-adv-x="641" 
d="M621 24q0 -10 -6.5 -17t-16.5 -7h-556q-10 0 -16.5 7t-5.5 17l32 509q0 4 3 7t7 3h63q5 0 9 4t5 9q2 38 16.5 71.5t39 58.5t55.5 39t67 14h7q35 0 66 -14t55.5 -39t39 -58.5t17.5 -71.5q0 -5 4 -9t9 -4h63q4 0 7 -3t4 -7zM316 675q-30 0 -54.5 -16.5t-40 -45t-17.5 -63.5
q0 -3 2.5 -5t5.5 -2h216q3 0 5.5 2t2.5 5q-2 35 -17.5 63.5t-40 45t-54.5 16.5h-8zM444 261q20 0 37 10.5t26 28.5t7 38l-9 110q0 7 -7 7h-357q-7 0 -7 -7l-8 -111q-1 -21 8.5 -38t25.5 -27.5t37 -10.5h247z" />
    <glyph glyph-name="uF1309" unicode="&#xf1309;" horiz-adv-x="817" 
d="M794 60q6 -14 2 -28t-15 -23t-27 -9h-378q-13 0 -28 14t-31.5 37t-32.5 52.5t-32 60t-30 59.5t-26 52t-20.5 36.5t-12.5 12.5q-6 -1 -11.5 -17t-10 -43t-9 -59.5t-8 -66t-6.5 -63t-6 -50.5q0 -3 -2.5 -9t-8 -11t-15.5 -5t-15 5t-7.5 11t-2.5 9l-41 523q0 30 8.5 55.5
t21.5 45t26 33.5t22 21q4 4 9 4t10 -3q48 -33 83 -79.5t53 -101.5l1 -3q30 -87 57 -147.5t51.5 -99.5t46.5 -61t43 -30.5t40 -8.5t38 4.5t37 10t36.5 6.5t37.5 -6q22 -9 45.5 -23t45 -31t38 -36t24.5 -38z" />
    <glyph glyph-name="uF1310" unicode="&#xf1310;" horiz-adv-x="681" 
d="M67 218q-9 0 -9 8q-2 22 -7 61.5t-11.5 92t-12 116t-7.5 133.5q-1 35 5.5 55.5t17.5 31t23 14t21 3.5q1 0 1 -0.5v-0.5q1 1 2 1q9 0 21 -3t23 -13t19 -30.5t8 -54.5q0 -70 -1.5 -133.5t-3.5 -116.5t-4 -92.5t-3 -61.5q0 -4 -2.5 -6.5t-6.5 -2.5zM246 633q-4 0 -7.5 2.5
t-3.5 6.5l-1 77q0 4 3 6.5t8 2.5l148 2q5 0 8 -2.5t3 -6.5l1 -77q0 -4 -3.5 -6.5t-7.5 -2.5zM567 604q-10 0 -16.5 -7t-6.5 -16q0 -10 6.5 -16.5t16.5 -6.5h87q7 0 7 -7v-86q0 -7 -7 -7h-87q-10 0 -16.5 -6.5t-6.5 -16.5q0 -9 6.5 -16t16.5 -7h87q7 0 7 -7v-85q0 -7 -7 -7
h-87q-10 0 -16.5 -6.5t-6.5 -16.5t6.5 -16.5t16.5 -6.5h87q7 0 7 -7v-85q0 -7 -7 -7h-87q-10 0 -16.5 -7t-6.5 -16q0 -10 6.5 -16.5t16.5 -6.5h87q7 0 7 -7v-100q0 -6 -4.5 -10.5t-10.5 -4.5h-158q-6 0 -10.5 4.5t-4.5 10.5v696q0 6 4.5 10.5t10.5 4.5h158q6 0 10.5 -4.5
t4.5 -10.5v-100q0 -7 -7 -7h-87zM394 570q5 0 9 -3t4 -7v-20t-0.5 -53.5t-0.5 -74.5v-85t-0.5 -84.5t-0.5 -72v-47.5q1 -21 -14 -41l-53 -71q-2 -3 -6 -7t-9 -4t-9.5 3.5t-6.5 6.5l-55 71q-15 18 -15 40q0 16 -0.5 47.5t-0.5 72v84.5v85v74.5v53.5v20q0 4 4 7t9 3zM160 170
q7 -8 11.5 -16.5t7.5 -18.5q1 -4 2 -14t-1 -21q-1 -10 -4.5 -20t-5.5 -15q-8 -17 -22 -33.5t-35.5 -27.5t-50.5 -12q-16 -1 -21.5 2.5t-4 9.5t5.5 13t7 14.5t0 13.5q-8 19 -15.5 33.5t-7.5 34.5q0 4 1.5 16.5t10.5 27.5q10 16 22 21.5t21 5.5h46q19 0 33 -14z" />
    <glyph glyph-name="uF1311" unicode="&#xf1311;" horiz-adv-x="614" 
d="M594 487q0 -50 -18.5 -93.5t-52 -77t-77 -52t-93.5 -18.5t-93.5 18.5t-77 52t-52 77t-18.5 93.5t18.5 93.5t52 77t77 52t93.5 18.5t93.5 -18.5t77 -52t52 -77t18.5 -93.5zM222 608q-3 -4 -5.5 -8t-4.5 -8q-3 -11 -3.5 -21.5t4.5 -19.5q7 -16 25.5 -27.5t45.5 -15.5
q10 -2 19.5 -8t15.5 -16q5 -9 8 -20.5t-2 -21.5q-9 -15 -12 -32.5t4.5 -40.5t31.5 -53q4 -5 9.5 -11.5t12 -11t14.5 -3.5q9 2 12.5 8t4 14.5t2.5 15.5q2 10 6 19.5t13 19.5q19 21 28.5 34t11 25t-3.5 29q-6 18 -16 23.5t-21 5.5t-19 -1q-9 -1 -16.5 -0.5t-12.5 3.5
q-9 8 -11 20q-1 11 0 24.5t10 23.5q10 11 22 12.5t22 1.5q8 -1 16.5 0t15.5 6q7 4 9 12t1 16q0 7 -2.5 13.5t-5.5 12.5q-3 5 -8 10.5t-10 8.5q-37 20 -80 20q-39 0 -72.5 -16t-58.5 -43zM273 220q48 -14 95.5 -10.5t91 22t78.5 51.5q8 7 20 7t20 -9q8 -8 7 -19.5t-9 -19.5
q-40 -38 -91 -60t-106 -27v-4q0 -26 12.5 -48t34 -34.5t47.5 -12.5q12 0 20 -8t8 -20q0 -11 -8 -19.5t-20 -8.5h-245q-11 0 -19.5 8.5t-8.5 19.5q0 12 8.5 20t19.5 8q26 0 48 12.5t34.5 34.5t12.5 48v4q-61 5 -115 31t-95 68.5t-65.5 97t-27.5 116.5v43q0 12 8 20t20 8
q11 0 19.5 -8t8.5 -20v-42q1 -13 2.5 -26t4.5 -26q11 -47 38.5 -86.5t66 -68t85.5 -42.5z" />
    <glyph glyph-name="uF1312" unicode="&#xf1312;" horiz-adv-x="701" 
d="M680 203q2 -5 -0.5 -10.5t-8.5 -7.5l-49 -16l7 -20q5 -15 -2.5 -28t-22.5 -17q-14 -3 -25 4.5t-16 20.5l-6 19l-93 -30l7 -21q5 -14 -3 -27.5t-23 -16.5q-13 -3 -24.5 4t-15.5 20l-6 20l-94 -30l7 -21q4 -14 -3 -27.5t-22 -17.5q-13 -2 -25 5t-16 20l-6 19l-47 -15
q-5 -2 -10 1t-7 8q-4 13 -11.5 35t-16.5 50t-18.5 57.5t-18 56t-15.5 47.5t-10 31q-3 8 4 14q12 11 15 25q1 4 3.5 6t5.5 3l279 88q3 2 6.5 0.5t5.5 -3.5q10 -8 22.5 -11.5t25.5 0.5q14 5 22.5 16.5t10 26t-6.5 28.5q-7 12 -20 18.5t-26 4.5q-17 -2 -28 -12.5t-14 -25.5
q-2 -7 -8 -9l-280 -88q-6 -1 -12 3q-10 10 -28 12q-8 2 -11 9l-31 96q-2 6 0.5 11.5t8.5 6.5l46 15l-8 27q-5 14 2.5 27.5t22.5 16.5q13 3 24.5 -4t15.5 -20l9 -26l93 31l-9 27q-4 14 3 27t22 17q13 3 25 -4.5t16 -20.5l8 -25l93 30l-8 27q-5 14 2.5 27.5t22.5 16.5
q14 3 25 -4t15 -20l9 -26l49 16q5 2 10.5 -0.5t6.5 -8.5l102 -313q1 -3 0 -6.5t-5 -5.5q-22 -11 -25 -34q-2 -6 -8 -8l-91 -30l-107 52q-4 2 -7 2t-6 -1l-177 -57q-7 -2 -10.5 -9.5t0.5 -14.5q3 -6 9 -8t12 0l170 55l108 -53q5 -3 12 -1l98 32q6 2 11 -3q7 -8 18 -11t23 -1
q8 0 10 -7z" />
    <glyph glyph-name="uF1313" unicode="&#xf1313;" horiz-adv-x="699" 
d="M585 447h-195q-4 0 -4 -4v-75q0 -5 4 -5h227q9 0 15 -6t6 -15v-158q0 -9 -6 -15t-15 -6h-226q-5 0 -5 -5v-127q0 -15 -10.5 -25.5t-25.5 -10.5t-26 10.5t-11 25.5v127q0 5 -4 5h-194q-10 0 -16 7l-75 84q-4 4 -4 9t4 9l75 84q6 7 16 7h194q4 0 4 5v75q0 4 -4 4h-227
q-8 0 -14.5 6t-6.5 15v159q0 8 6.5 14.5t14.5 6.5h227q4 0 4 4v46q0 15 11 25.5t26 10.5t25.5 -10.5t10.5 -25.5v-46q0 -4 4 -4h195q5 0 8.5 -2t6.5 -5l76 -85q3 -4 3 -9t-3 -9l-76 -84q-3 -3 -6.5 -5t-8.5 -2z" />
    <glyph glyph-name="uF1314" unicode="&#xf1314;" horiz-adv-x="802" 
d="M775 194q6 -6 7.5 -14t-3.5 -16q-6 -11 -19 -11h-4.5t-4.5 1q-61 22 -122.5 50.5t-117.5 55.5q-5 -62 -11 -127.5t-17 -128.5q-1 -8 -7.5 -13.5t-14.5 -5.5h-4q-7 1 -13 6t-7 13q-10 48 -17 95.5t-11 89t-6.5 74t-3.5 51.5q-10 4 -19.5 8.5t-16.5 7.5l-17 7
q-14 7 -29.5 10.5t-28.5 -5.5l-5 -4h-1q-22 -14 -49 -17t-53 4q-27 7 -48.5 26t-33.5 45q-3 6 -4.5 12t-3.5 12q-8 26 -19 39t-20 18l-9 5q-12 4 -18.5 15t-2.5 23q3 13 14.5 19.5t23.5 2.5q1 0 15 -6t31 -23q8 12 16 22q23 24 54.5 34.5t63.5 4.5q25 -4 46.5 -18t35.5 -35
q14 -22 19.5 -46.5t1.5 -49.5q-1 -1 -1 -2v-2l26 -11q17 -7 33.5 -12t31.5 -7q7 16 12 34.5t8 40.5l3 27q-1 1 -3 1q-25 9 -43.5 26t-29.5 40t-12.5 48.5t6.5 49.5q11 31 35.5 53t56.5 30q25 6 49.5 2t46 -17.5t36.5 -33.5q17 -23 23 -51t-1 -56q-7 -26 -23 -47t-39 -34v-1
l-6 -3q-15 -7 -20 -22t-6 -31l-2 -18q-1 -10 -2 -21t-2 -24q16 -10 43 -28t62 -42.5t73.5 -55t77.5 -64.5zM443 633q-8 -20 2 -41q7 -14 19 -21.5t26 -9t28 5.5q20 10 27.5 31t-2.5 41q-6 13 -17.5 21t-25.5 9q-5 1 -11 0t-11 -2l-7 -3q-20 -9 -28 -31zM246 403
q18 13 22.5 35t-8.5 41q-12 17 -35 22q-2 1 -4.5 1h-5.5q-17 0 -30 -10q-2 -1 -3.5 -2.5t-3.5 -2.5q-14 -13 -16 -33t9 -37q13 -19 35 -22q21 -5 40 8z" />
    <glyph glyph-name="uF1401" unicode="&#xf1401;" horiz-adv-x="842" 
d="M342 625q-17 18 -23 44q-7 27 -2 51t18 43t29 32q13 9 19 9.5t8 -5t3 -13.5t3 -15.5t7 -10.5q6 -4 17 -10t22 -14t18 -18q7 -11 10 -23t3 -21.5t-1 -13.5q-1 -8 -5.5 -16t-11.5 -12l-37 -26q-4 -3 -12.5 -6.5t-21.5 -0.5q-13 2 -25 10.5t-18 15.5zM797 228q17 -22 22 -39
t2.5 -29.5t-9 -20t-12.5 -12.5t-15.5 -8.5t-22 -2.5t-27.5 11.5t-31 33.5q-22 31 -49 70t-55 81l-55 82.5l-50 75t-39 59.5t-23 35q-3 6 2 11l48 35q7 3 11 -2q8 -9 26.5 -32t45 -55.5t57 -70.5t62 -77.5t60.5 -76.5t52 -68zM481 236q13 -9 26.5 -9.5t26 1t22.5 0t18 -13.5
q15 -23 10 -50.5t-26.5 -55t-55 -51t-75 -40t-87.5 -21t-92.5 5.5t-89.5 39q-50 34 -81 78.5t-45 93.5t-11.5 98t20.5 92t50 75t76 47t80.5 13t67 -15.5t55.5 -35.5q28 -25 44.5 -51t24.5 -51.5t12 -48.5t6 -43t7.5 -34.5t16.5 -22.5zM224 370q19 0 32 13t13 32t-13 32.5
t-32 13.5t-32.5 -13.5t-13.5 -32.5t13.5 -32t32.5 -13zM134 246q16 0 27.5 11t11.5 28q0 16 -11.5 27t-27.5 11t-27.5 -11t-11.5 -27q0 -17 11.5 -28t27.5 -11zM211 115q17 0 28 11.5t11 27.5t-11 27.5t-28 11.5q-16 0 -27 -11.5t-11 -27.5t11 -27.5t27 -11.5z" />
    <glyph glyph-name="uF1402" unicode="&#xf1402;" horiz-adv-x="668" 
d="M520 738q36 0 65 -17.5t46 -46.5t17 -64q0 -41 -23 -73.5t-60 -45.5q-15 -7 -15 -23v-453q0 -6 -4 -10.5t-10 -4.5h-403q-6 0 -10.5 4.5t-4.5 10.5v454q0 7 -4 13.5t-11 8.5q-24 9 -42.5 27t-29.5 42t-11 51q0 35 17 64.5t46 46.5t65 17zM520 537q20 0 36.5 10t26 26.5
t9.5 36.5t-9.5 36.5t-26 26t-36.5 9.5l-372 1q-20 0 -36.5 -9.5t-26 -26t-9.5 -36.5t9.5 -36.5t26 -26t36.5 -9.5q18 0 30 8.5t12 21.5q0 5 -2.5 10t-9.5 7h-33q-11 0 -19 8.5t-8 19.5q0 12 8 20t19 8l378 -1q11 0 19 -8.5t8 -19.5t-8 -19.5t-19 -8.5h-33q-7 -1 -9.5 -6.5
t-2.5 -10.5q0 -14 12 -22.5t30 -8.5zM235 440q0 8 -6 14t-14 6q-7 0 -13 -6t-6 -14v-197q0 -8 6 -13.5t13 -5.5q8 0 14 5.5t6 13.5v197zM356 440q0 8 -6 14t-14 6t-13.5 -6t-5.5 -14v-231q0 -8 5.5 -14t13.5 -6t14 6t6 14v231zM472 440q0 8 -6 14t-13 6q-8 0 -14 -6t-6 -14
v-197q0 -8 6 -13.5t14 -5.5q7 0 13 5.5t6 13.5v197z" />
    <glyph glyph-name="uF1403" unicode="&#xf1403;" horiz-adv-x="785" 
d="M449 246q-15 -16 -33 -32t-41 -33q-13 -10 -29 -13.5t-32 -0.5q-49 10 -86.5 24.5t-64 29.5t-42 26.5t-21.5 16.5l-5 7q-3 9 -12.5 36t-21.5 68.5t-23 94.5t-17 115q-2 22 7 42.5t27 33.5q23 16 63 33.5t104 31.5q59 14 103.5 14t73.5 -5q23 -3 41 -18t25 -37l15 -47
q18 -58 27.5 -108t14 -87.5t6.5 -56.5q0 -5 0.5 -8t0.5 -5q0 -3 -0.5 -5t-1.5 -4q-1 -3 -3 -8t-6 -11q-8 -16 -24.5 -40.5t-44.5 -53.5zM319 574q-4 -8 -6.5 -21.5t0.5 -32.5q1 -12 6 -14t11 2t14 9q18 14 35.5 19t31.5 6t22 3q5 0 7 4q3 5 -1 11t-11 12t-14 10
q-16 8 -35.5 12t-36 -0.5t-23.5 -19.5zM110 520q-5 -6 -9.5 -15t-5.5 -16.5t4 -9.5q5 -1 13.5 1.5t21.5 6.5t29.5 5t35.5 -4q9 -2 16 -3.5t11 1t2 12.5q-2 11 -7 21.5t-11 18.5l-9 12q-13 11 -30 8.5t-34 -13.5t-27 -25zM673 447l39 -4q18 -1 31.5 -12.5t19 -28.5t-0.5 -35
q-34 -106 -73.5 -187.5t-86.5 -132.5q-8 -7 -32 -18.5t-68 -20t-110 -8.5q-17 0 -28.5 4.5t-18.5 10.5t-10 10q-22 25 -37.5 46.5t-27.5 40.5q-4 7 0 9.5t10 2.5h6q4 -1 9 -2t9 -2q12 -3 25 -3q41 0 74 25q43 31 79 70q31 32 49.5 59t27.5 45q5 8 7.5 14t3.5 9q3 7 4.5 14
t0.5 15v6t-1 8q-1 13 -3.5 35t-6.5 51q-1 9 8 7.5t20 -5.5q20 -8 40 -13.5t41 -9.5zM214 329q-22 1 -40 1.5t-20 -0.5q-3 -1 8 -10.5t33.5 -22.5t53.5 -25t69 -18q6 -1 11 2q23 16 41.5 34t32.5 34q25 29 36 50t7 21q-3 0 -19 -7.5t-36 -18.5q-41 -22 -86 -31.5t-91 -8.5z
" />
    <glyph glyph-name="uF1404" unicode="&#xf1404;" horiz-adv-x="690" 
d="M663 560l7 -475q0 -15 -1.5 -21t-8 -8t-19.5 -4t-51.5 -8.5t-96 -17t-128.5 -26.5l-20 -5l-10 2t-10 3q-72 16 -129 26.5t-95.5 17t-51.5 8.5t-19.5 4t-8 8t-1.5 21l7 475q0 14 1 21.5t6 10t16 2.5h12q2 0 19.5 -1.5t46 -4.5t64 -9.5t75 -16.5t78.5 -26q39 16 78 26
t75 16.5t64.5 9.5t46 4.5t19.5 1.5h12q16 0 19.5 -6t3.5 -28zM379 448v-30q0 -3 2.5 -4.5t4.5 -0.5q50 17 98 26t85 13q2 0 3.5 2t0.5 4v34q0 2 -2 4t-4 1q-37 -5 -86.5 -15t-98.5 -29q-3 0 -3 -5zM379 346v-34q0 -7 7 -5q55 15 102.5 24.5t82.5 14.5q1 0 2.5 2t1.5 3v39
q-1 2 -2.5 4t-3.5 1q-38 -5 -87.5 -15t-99.5 -29q-3 -1 -3 -5zM379 242v-40q0 -2 2 -3.5t4 -0.5q59 13 106.5 22t81.5 14q4 2 4 5l-1 45q0 5 -5 5q-36 -6 -84.5 -16t-104.5 -26q-3 -1 -3 -5zM576 133q2 0 2 3v39q0 2 -3 2q-35 -6 -84.5 -15.5t-109.5 -22.5q-2 0 -2 -2v-38
q0 -3 3 -3q62 14 111.5 23t82.5 14z" />
    <glyph glyph-name="uF1405" unicode="&#xf1405;" horiz-adv-x="679" 
d="M645 464q6 0 10 -4t4 -10v-379q0 -19 -9.5 -35.5t-25.5 -26t-36 -9.5h-497q-19 0 -35.5 9.5t-26 26t-9.5 35.5v491q0 5 5 7l60 17l501 148h3q8 0 10 -8l29 -111q1 -4 -1.5 -7.5t-6.5 -4.5l-366 -110q-8 -2 -7.5 -4.5t4.5 -8.5l4 -7q5 -7 10 -8t13 -1h367zM88 494v-55
q0 -7 4.5 -8t13.5 -1h72q5 0 6.5 1t-3.5 8l-18 25l-2 2l-28 40q-5 8 -10 8t-15 -2l-15 -4q-4 -1 -4.5 -4.5t-0.5 -9.5zM591 241v98q0 5 -3.5 7.5t-7.5 2.5h-481q-5 0 -8 -2.5t-3 -7.5v-98q0 -5 3 -7.5t8 -2.5h481q4 0 7.5 2.5t3.5 7.5z" />
    <glyph glyph-name="uF1501" unicode="&#xf1501;" horiz-adv-x="705" 
d="M518 198q-2 -4 -10 -18.5t-21 -35t-28.5 -43t-32.5 -41.5t-34 -31q-21 -15 -42.5 -22t-39.5 -9.5t-31.5 -2t-18.5 0.5q-8 0 -26 2.5t-43.5 12t-55 29.5t-60.5 56q-24 29 -36 57t-16 53t-2.5 44.5t4 31t2.5 12.5q10 36 23 69.5t25.5 68.5t21.5 73.5t11 84.5q1 11 7.5 17
t15.5 7t17.5 -4t12.5 -17q12 -32 14 -62t-1.5 -56t-8.5 -45.5t-8 -31t0 -13.5q5 -3 14.5 7t18.5 26q16 28 38 62t46 70.5t47 70t42 60t30 42.5l11 16q8 10 20 11.5t23 -6.5q10 -8 11.5 -20t-5.5 -23l-137 -217q-6 -9 -6 -18.5t5.5 -16.5t13.5 -6.5t17 11.5l178 261
q8 10 20 11.5t23 -5.5q10 -7 12 -19t-5 -23l-158 -249q-9 -13 -9.5 -23.5t4 -16.5t12.5 -3.5t16 14.5l143 204q8 11 20.5 13t23.5 -6q10 -8 12 -20t-6 -22l-136 -204q-8 -13 -8 -23.5t5.5 -15.5t13.5 -2.5t17 14.5l105 159q7 10 19 13t23 -4q11 -6 13.5 -19.5t-4.5 -23.5
l-43 -63q-32 -49 -62 -100t-57 -103z" />
    <glyph glyph-name="uF1601" unicode="&#xf1601;" horiz-adv-x="376" 
d="M341 335q15 -17 15 -40t-15 -40l-216 -240q-18 -20 -45 -20q-10 0 -21 3.5t-19 11.5q-12 12 -17 27t-2 30.5t14 27.5l180 200l-180 200q-11 12 -14 27.5t2 30.5t17 27q12 11 28 14t31 -1.5t26 -17.5z" />
    <glyph glyph-name="uF1602" unicode="&#xf1602;" horiz-adv-x="640" 
d="M602 370q17 -16 18 -39t-15 -40l-244 -263q-7 -8 -18 -13t-23 -5t-23 5t-18 13l-244 263q-16 17 -15 40t18 39t40 15t39 -18l203 -218l203 218q16 17 39 18t40 -15z" />
    <glyph glyph-name="uF1603" unicode="&#xf1603;" horiz-adv-x="376" 
d="M35 335l216 240q11 13 26 17.5t31 1.5t28 -14q12 -12 17 -27t2 -30.5t-14 -27.5l-180 -200l180 -200q11 -12 14 -27.5t-2 -30.5t-17 -27q-8 -8 -19 -11.5t-21 -3.5q-27 0 -45 20l-216 240q-15 17 -15 40t15 40z" />
    <glyph glyph-name="uF1604" unicode="&#xf1604;" horiz-adv-x="640" 
d="M279 373q7 8 18 13t23 5t23 -5t18 -13l244 -263q16 -17 15 -40t-18 -39t-40 -15t-39 18l-203 218l-203 -218q-16 -17 -39 -18t-40 15t-18 39t15 40z" />
    <glyph glyph-name="uF1701" unicode="&#xf1701;" horiz-adv-x="982" 
d="M768 -34q0 -13 -9 -22t-23 -10h-684q-14 0 -23 9.5t-9 22.5v679q0 13 9 22.5t23 9.5h83q7 0 11.5 4.5t4.5 11.5v66q0 20 15 35t36 15q20 0 35 -15t15 -36v-65q0 -7 4.5 -11.5t11.5 -4.5h247q7 0 11.5 4.5t4.5 11.5v66q0 20 14.5 35t35.5 15t36 -15t15 -36v-65
q0 -7 4.5 -11.5t11.5 -4.5h88q14 0 23 -9.5t9 -22.5v-679zM931 509q13 0 22 -9t9 -22v-703q0 -13 -9 -22.5t-22 -9.5h-711q-14 0 -23 9.5t-9 22.5v81q0 7 7 7h595q28 0 40 23.5t12 58.5v558q0 2 2 4t4 2h83zM634 110v234q0 1 -0.5 1t-0.5 1q0 20 -1.5 28t-8 9.5t-22.5 1.5
h-414q-16 0 -22.5 -1.5t-8 -9.5t-1.5 -28v-238q0 -19 1.5 -27t7.5 -10t21 -2h418q15 0 21 2t7.5 10t1.5 27q0 1 0.5 1t0.5 1z" />
    <glyph glyph-name="uF1702" unicode="&#xf1702;" horiz-adv-x="808" 
d="M788 301q0 -66 -21 -125t-58.5 -107.5t-88.5 -83.5t-111 -52q-7 -2 -10.5 -5.5t-4.5 -11.5v-90q0 -13 -8.5 -21.5t-21.5 -8.5h-122q-12 0 -21 8.5t-9 21.5v78q0 15 -2.5 20.5t-12.5 8.5v1q-60 17 -110.5 52t-88 83.5t-58 107t-20.5 124.5q0 64 19.5 122t55.5 106t85 83
t107 53q0 1 3 3q9 3 13.5 14t6.5 25.5t2 26.5v44q0 13 9 22t21 9h122q13 0 21.5 -9t8.5 -22v-44q0 -12 1 -26t5.5 -25t13.5 -14q2 -1 3 -1t1 -1q58 -18 107.5 -53t86 -83.5t56.5 -106.5t20 -123zM404 46q53 0 99 20t81 55t55 81t20 99t-20 99.5t-55 81.5t-81 55t-99 20
t-99 -20t-81 -55t-55 -81.5t-20 -99.5t20 -99t55 -81t81 -55t99 -20zM496 162q-17 0 -32 12l-92 75q-19 16 -19 40v157q0 21 15 35.5t36 14.5t36 -14.5t15 -35.5v-133l74 -61q16 -13 18 -33.5t-11 -37.5q-16 -19 -40 -19z" />
    <glyph glyph-name="uF1703" unicode="&#xf1703;" horiz-adv-x="910" 
d="M867 809q10 0 16.5 -6.5t6.5 -16.5v-878q0 -19 -10 -35t-26 -26q-17 -9 -36 -8t-35 11l-152 93l-143 -93q-17 -11 -38 -11q-20 0 -37 11l-143 93l-143 -87q-16 -10 -35 -11t-36 8q-16 10 -26 26t-10 35v872q0 10 6.5 16.5t16.5 6.5h824zM348 372q-22 0 -36.5 15t-14.5 37
q0 21 14.5 36t36.5 15h360q19 0 31.5 12.5t12.5 31.5q0 18 -12.5 30.5t-31.5 12.5h-511q-19 0 -31.5 -12.5t-12.5 -30.5v-456q0 -25 4.5 -32.5t12 -4.5t17.5 10l47 30q8 6 17.5 8.5t19.5 2.5t19.5 -2.5t17.5 -8.5l127 -83q13 -8 26 0l126 83q17 11 37.5 11t37.5 -11l60 -40
q8 -5 15 -6.5t11 5.5t4 27v77q0 19 -14 33t-33 14h-357q-22 0 -36.5 15t-14.5 36q0 22 14.5 36.5t36.5 14.5h357q19 0 33 14t14 33t-14 33t-33 14h-357z" />
    <glyph glyph-name="uF1704" unicode="&#xf1704;" horiz-adv-x="1093" 
d="M836 475q10 -85 -21.5 -155t-100.5 -121t-169 -78q-19 -5 -39.5 -9.5t-41.5 -7.5q-14 -2 -26.5 -3t-25.5 -2q-12 0 -22 -6t-17 -16q-20 -30 -46.5 -55t-54 -44.5t-50 -31.5t-34.5 -16h-5q-8 0 -5 4q8 16 16.5 37t15.5 45.5t9.5 51t-3.5 53.5q-2 6 -6 12.5t-12 10.5h1
q-49 25 -86.5 61.5t-61 82.5t-29.5 100q-6 57 9 111t47.5 101.5t80 85t106.5 61.5t127 31q26 3 51 3q73 0 138 -21t117.5 -58.5t87 -89.5t46.5 -113l2 -12zM636 470q17 0 29 12t12 29t-12 29t-29 12h-415q-17 0 -29 -12t-12 -29t12 -29t29 -12h415zM977 80q-14 -10 -17 -18
q-2 -26 6 -50t19 -45t21 -36q2 -3 -2 -4t-9 1q-1 0 -3 0.5t-3 0.5q-11 4 -22 8.5t-21 9.5q-28 13 -57 30l-30 20q-7 5 -14 11t-15 10l-5 3q-16 8 -33.5 6.5t-34.5 -0.5q-21 1 -42 6t-41 12q-9 3 -18 7t-17 9q-5 3 -2 5.5t6 3.5l14 6q15 5 29 11.5t28 13.5t26.5 15t24.5 16
t22.5 16.5t21.5 18.5q11 9 20 19t18 21q8 10 15.5 21t14.5 22t13 23t10 24q5 13 9 25.5t7 25.5q2 13 4 26.5t3 26.5q1 14 0 28.5t-2 27.5q0 5 3.5 7.5t7.5 0.5q42 -20 73 -52t49 -72.5t19 -83.5q1 -56 -24.5 -100.5t-71.5 -76.5zM442 305q16 0 28.5 11.5t12.5 28.5t-12.5 29
t-28.5 12h-221q-17 0 -29 -12t-12 -29t12 -28.5t29 -11.5h221z" />
    <glyph glyph-name="uF1705" unicode="&#xf1705;" horiz-adv-x="813" 
d="M772 674q11 -4 17 -14t3 -21l-229 -821q-3 -11 -13.5 -17t-21.5 -3l-114 32q-18 5 -21 22q-7 34 -30 60t-56 35t-66 -1t-57 -36q-11 -12 -29 -9l-114 32q-11 3 -17 13.5t-3 21.5l229 821q3 11 13.5 17t21.5 3l114 -32q17 -5 20 -22q7 -35 30.5 -60.5t56.5 -34.5t66 1
t57 36q11 13 29 8zM535 98l88 315q2 6 -1 12.5t-10 7.5l-314 88q-7 1 -13 -2t-8 -10l-88 -315q-1 -7 2 -12.5t10 -7.5l314 -88q7 -2 13 1.5t7 10.5z" />
    <glyph glyph-name="uF1706" unicode="&#xf1706;" horiz-adv-x="801" 
d="M778 472q8 -76 -10 -141.5t-57 -125t-92 -117.5q-20 -22 -40 -49.5t-33 -62t-13 -76.5q0 -28 -13 -52t-35.5 -38t-51.5 -14l-64 1q-28 0 -51 14t-37 37.5t-14 51.5q0 42 -13 76.5t-33 62t-40 49.5q-53 58 -91.5 117.5t-57 125t-9.5 141.5q7 65 35.5 122.5t73.5 102.5
t102.5 74t122.5 36q11 1 22 1.5t21 0.5t21 -0.5t22 -1.5q65 -7 122.5 -36t102.5 -74t73.5 -102.5t36.5 -122.5zM533 166q51 56 81 104.5t41.5 94.5t6.5 94q-5 45 -25 84.5t-51.5 71t-71 51.5t-83.5 25q-8 1 -15.5 1h-15.5h-15t-15 -1q-45 -5 -84.5 -25t-71 -51.5t-51 -71
t-24.5 -84.5q-5 -48 6 -94t41 -94.5t81 -104.5q11 -10 21 -24h1q1 -1 2 -2.5t3 -3.5q0 -1 1 -1q3 -5 7.5 -9t7.5 -4t4 5.5t-2 20.5q-12 52 -22 92t-16.5 63t-6.5 24q-9 37 -2 71t27 60q20 24 47 37t58 13h7q31 0 57.5 -13t46.5 -37q20 -26 27 -59.5t-1 -68.5q0 -2 -7 -25.5
t-17 -64t-22 -92.5q-3 -15 -2 -21t4.5 -5t7.5 5t8 8.5t6 6.5q10 14 21 24zM449 352q3 14 0.5 28t-10.5 24q-12 17 -35 17q-3 0 -4 1q-1 -1 -3 -1q-22 0 -36 -17q-17 -21 -9 -55q0 -1 6 -22t15 -57.5t20 -84.5q3 -13 7.5 -11t6.5 13v1q11 47 20 83.5t15 57.5t7 23z" />
    <glyph glyph-name="uF1707" unicode="&#xf1707;" horiz-adv-x="892" 
d="M869 471q3 -15 3 -32.5t-4 -35t-12 -29.5l-305 -529q-14 -24 -37 -37t-49.5 -13.5t-50.5 13.5l-344 199q-24 14 -37 37t-13 49t13 50l306 529q7 12 20 24.5t28 22t30 12.5l279 75q22 6 42 0t35 -20.5t21 -35.5zM708 482q16 28 15.5 58.5t-15.5 57t-43 42.5
q-27 16 -58 15.5t-57.5 -15t-42.5 -42.5t-15.5 -59t15.5 -57.5t42 -42.5q28 -16 58.5 -15.5t57.5 15.5t43 43z" />
    <glyph glyph-name="uF1708" unicode="&#xf1708;" horiz-adv-x="1031" 
d="M775 656q15 0 38.5 -5t50 -16.5t52.5 -31.5t47.5 -50t34.5 -71.5t13 -97.5q0 -48 -17 -96.5t-46.5 -95.5t-66.5 -91.5t-78.5 -84.5t-83 -75t-78 -63t-64.5 -47.5t-43 -29.5q-9 -6 -18 -6q-10 0 -19 6q-15 10 -43 29.5t-64.5 47.5t-78 63t-83 75t-78.5 84.5t-66.5 91.5
t-46.5 95.5t-17 96.5q0 56 13 97.5t34.5 71.5t47.5 50t52.5 31.5t50 16.5t38.5 5q7 0 14.5 -0.5t14.5 -1.5q28 -3 55.5 -12t55.5 -25q30 -17 59 -40t61 -55q31 32 60 55t59 40q28 16 55.5 25t55.5 12q8 1 15 1.5t14 0.5z" />
    <glyph glyph-name="uF1709" unicode="&#xf1709;" horiz-adv-x="820" 
d="M20 419q0 65 19.5 123.5t55.5 107t85 84.5t107.5 55.5t122.5 19.5t122.5 -19.5t107.5 -55.5t85 -84.5t55.5 -107t19.5 -123.5q2 -48 -11.5 -99.5t-38 -103t-55.5 -101t-66 -95.5t-69 -86t-63.5 -71.5t-50.5 -52.5q-15 -15 -36 -15t-36 15q-21 21 -50.5 52.5t-63.5 71.5
t-69 86t-66 95.5t-55.5 101t-38 103t-11.5 99.5zM252 419q0 -33 12.5 -61.5t34 -50t50 -33.5t61.5 -12t61.5 12t50 33.5t34 50t12.5 61.5t-12.5 61.5t-34 50.5t-50 34t-61.5 12t-61.5 -12t-50 -34t-34 -50.5t-12.5 -61.5z" />
    <glyph glyph-name="uF1710" unicode="&#xf1710;" horiz-adv-x="910" 
d="M43 809h824q10 0 16.5 -6.5t6.5 -16.5v-872q0 -19 -10 -35t-26 -26q-17 -9 -36 -8t-35 11l-143 87l-143 -93q-17 -11 -37 -11q-21 0 -38 11l-143 93l-152 -93q-16 -10 -35 -11t-36 8q-16 10 -26 26t-10 35v878q0 10 6.5 16.5t16.5 6.5zM562 372h-357q-19 0 -33 -14
t-14 -33t14 -33t33 -14h357q22 0 36.5 -14.5t14.5 -36.5q0 -21 -14.5 -36t-36.5 -15h-357q-19 0 -33 -14t-14 -33v-77q0 -20 4 -27t11 -5.5t15 6.5l60 40q17 11 37.5 11t37.5 -11l126 -83q13 -8 26 0l127 83q8 6 17.5 8.5t19.5 2.5t19.5 -2.5t17.5 -8.5l47 -30
q10 -7 17.5 -10t12 4.5t4.5 32.5v456q0 18 -12.5 30.5t-31.5 12.5h-511q-19 0 -31.5 -12.5t-12.5 -30.5q0 -19 12.5 -31.5t31.5 -12.5h360q22 0 36.5 -15t14.5 -36q0 -22 -14.5 -37t-36.5 -15z" />
    <glyph glyph-name="uF1711" unicode="&#xf1711;" horiz-adv-x="1093" 
d="M257 475l2 12l2 12q12 61 46.5 113t87 89.5t117.5 58.5t138 21q26 0 51 -3q67 -7 126.5 -31t107 -61.5t80 -85t47.5 -101.5t9 -111q-5 -54 -29 -100t-62 -82.5t-86 -61.5h1q-8 -4 -12.5 -10.5t-5.5 -12.5q-6 -27 -3.5 -53.5t9.5 -51t16 -45.5t16 -37q3 -4 -5 -4h-5
q-12 4 -34.5 16t-50 31.5t-54 44.5t-46.5 55q-7 10 -17 16t-22 6l-26 2t-26 3q-21 3 -41 7.5t-40 9.5q-100 27 -169 78t-101 121t-21 155zM457 470h415q16 0 28.5 12t12.5 29t-12.5 29t-28.5 12h-415q-17 0 -29 -12t-12 -29t12 -29t29 -12zM116 80q-46 32 -71.5 76.5
t-24.5 100.5q1 43 19 83.5t49.5 72.5t72.5 52q4 2 7.5 -0.5t3.5 -7.5q-2 -13 -2.5 -27.5t0.5 -28.5q1 -13 3 -26.5t4 -26.5q3 -13 7 -25.5t9 -25.5q5 -12 10.5 -24t12.5 -23t14.5 -22t15.5 -21q9 -11 18.5 -21t19.5 -19q10 -10 21 -18.5t23 -16.5t25 -16t26 -15t27.5 -13.5
t29.5 -11.5l14 -6q3 -1 6 -3.5t-2 -5.5q-8 -5 -17 -9t-18 -7q-19 -7 -40.5 -12t-42.5 -6q-16 -1 -34 0.5t-34 -6.5l-5 -3q-7 -4 -14 -10t-15 -11l-30 -20q-28 -17 -57 -30q-11 -5 -22 -9.5t-21 -8.5q-2 0 -3 -0.5t-3 -0.5q-4 -2 -8 -1t-3 4q9 15 20.5 36t19 45t6.5 50
q-3 8 -17 18zM651 305h221q16 0 28.5 11.5t12.5 28.5t-12.5 29t-28.5 12h-221q-17 0 -29 -12t-12 -29t12 -28.5t29 -11.5z" />
    <glyph glyph-name="uF1712" unicode="&#xf1712;" horiz-adv-x="894" 
d="M447 727q71 0 135 -21.5t117.5 -60.5t92.5 -92.5t60.5 -117.5t21.5 -135t-21.5 -135t-60.5 -117.5t-92.5 -92.5t-117.5 -60.5t-135 -21.5t-135 21.5t-117.5 60.5t-92.5 92.5t-60.5 117.5t-21.5 135t21.5 135t60.5 117.5t92.5 92.5t117.5 60.5t135 21.5zM447 644
q-19 0 -38.5 -20.5t-36.5 -57.5t-29 -87h208q-12 50 -29 87t-36.5 57.5t-38.5 20.5zM258 479q17 77 45 134q-47 -22 -85.5 -56.5t-64.5 -77.5h105zM741 479q-26 43 -64.5 77.5t-85.5 56.5q28 -57 45 -134h105zM116 204h129q-2 23 -3.5 47t-1.5 49t1.5 49t3.5 47h-129
q-7 -22 -10 -46.5t-3 -49.5t3 -49.5t10 -46.5zM565 204q6 45 6 96t-6 96h-236q-6 -45 -6 -96t6 -96h236zM649 204h129q7 22 10 46.5t3 49.5t-3 49.5t-10 46.5h-129q2 -23 3.5 -47t1.5 -49t-1.5 -49t-3.5 -47zM153 121q26 -43 64.5 -77.5t85.5 -56.5q-28 57 -45 134h-105z
M447 -44q19 0 38.5 20.5t36.5 57.5t29 87h-208q12 -50 29 -87t36.5 -57.5t38.5 -20.5zM591 -13q47 22 85.5 56.5t64.5 77.5h-105q-17 -77 -45 -134z" />
    <glyph glyph-name="uF1801" unicode="&#xf1801;" horiz-adv-x="784" 
d="M392 739q61 0 117 -19t102.5 -53t80.5 -80.5t53 -102.5t19 -117t-19 -117t-53 -102.5t-80.5 -80.5t-102 -53t-117.5 -19q-61 0 -117 19t-102.5 53t-80.5 80.5t-53 102.5t-19 117t19 117t53 102.5t80.5 80.5t102 53t117.5 19zM208 387q-11 12 -27.5 12t-29.5 -11
q-12 -11 -12.5 -27.5t11.5 -28.5l131 -141q11 -12 28.5 -12t29.5 12l290 300q11 11 11 28t-12 28t-28.5 11t-28.5 -12l-260 -270z" />
    <glyph glyph-name="uF1802" unicode="&#xf1802;" horiz-adv-x="784" 
d="M392 739q61 0 117 -19t102.5 -53t80.5 -80.5t53 -102.5t19 -117t-19 -117t-53 -102.5t-80.5 -80.5t-102 -53t-117.5 -19q-61 0 -117 19t-102.5 53t-80.5 80.5t-53 102.5t-19 117t19 117t53 102.5t80.5 80.5t102 53t117.5 19zM516 194q7 -6 15 -8.5t16 -2.5q23 0 38 17
q13 16 11 35.5t-18 32.5l-137 109v222q0 20 -14.5 34t-34.5 14t-34.5 -14t-14.5 -34v-245q0 -22 18 -37z" />
    <glyph glyph-name="uF1803" unicode="&#xf1803;" horiz-adv-x="784" 
d="M392 739q61 0 117 -19t102.5 -53t80.5 -80.5t53 -102.5t19 -117t-19 -117t-53 -102.5t-80.5 -80.5t-102 -53t-117.5 -19q-61 0 -117 19t-102.5 53t-80.5 80.5t-53 102.5t-19 117t19 117t53 102.5t80.5 80.5t102 53t117.5 19zM347 594v-273q0 -19 13.5 -32t32.5 -13t32 13
t13 32v273q0 19 -13 32t-32 13t-32.5 -13t-13.5 -32zM393 94q25 0 42 17t17 42t-17 42t-42 17t-42 -17t-17 -42t17 -42t42 -17z" />
    <glyph glyph-name="uF1804" unicode="&#xf1804;" horiz-adv-x="784" 
d="M392 744q61 0 117 -19t102.5 -53t80.5 -80.5t53 -102t19 -117.5q0 -61 -19 -117t-53 -102.5t-80.5 -80.5t-102 -53t-117.5 -19q-61 0 -117 19t-102.5 53t-80.5 80.5t-53 102t-19 117.5q0 61 19 117t53 102.5t80.5 80.5t102 53t117.5 19zM622 491q10 10 10.5 24t-9.5 24
l-46 46q-10 10 -24 9.5t-24 -11.5l-26 -25l93 -93zM377 246l180 180l-93 93l-180 -180zM311 190q15 6 27 18l-92 92q-12 -12 -18 -27l-36 -88q-4 -7 -1 -16t11.5 -12.5t16.5 -0.5z" />
    <glyph glyph-name="uF1901" unicode="&#xf1901;" horiz-adv-x="677" 
d="M657 53q1 -10 -4 -18t-15 -10l-136 -28q-9 -1 -17.5 4t-9.5 14q-1 8 3 16t11 11q9 4 19 8t15.5 10t3.5 16l-32 158v1q-3 12 -9.5 17t-12.5 7q-30 9 -50 31t-32 50q-13 32 -22.5 69t-17 74t-13.5 70q-5 -33 -12.5 -69t-17.5 -72t-22 -68q-12 -29 -32.5 -51t-49.5 -31
q-6 -2 -12.5 -7t-9.5 -17l-32 -159q-2 -10 3.5 -16t15 -10t19.5 -8q8 -3 12 -10.5t2 -15.5q-2 -10 -10 -15t-17 -3l-136 28q-10 1 -15.5 9.5t-3.5 17.5t9 14t15 5q10 -1 20.5 -1t18.5 3.5t10 13.5l32 159q3 12 -1 19t-10 12q-23 21 -32.5 48.5t-8.5 58.5q1 37 6.5 77t14 79
t17.5 72.5t16 58t11 35.5q2 3 4.5 5t5.5 1l199 -41l182 37q7 2 10 -6q4 -11 11 -35.5t16 -58t17.5 -72t14 -79t6.5 -77.5q2 -31 -8 -58.5t-33 -47.5q-6 -5 -10 -12.5t-1 -19.5l32 -159q2 -9 10 -12.5t18.5 -3.5h20.5q8 1 15 -4.5t9 -13.5z" />
    <glyph glyph-name="uF1902" unicode="&#xf1902;" horiz-adv-x="750" 
d="M722 735q8 -7 8 -18t-8 -18l-658 -658q-8 -8 -18 -8t-18 8q-8 7 -8 18t8 18l159 160l3 13q2 12 -2 19.5t-9 12.5q-24 20 -33.5 47.5t-8.5 58.5q1 37 7 77t14.5 79t17 72.5t16 58t10.5 35.5q3 6 10 6l199 -41l181 37q3 1 6 -1t4 -5q2 -6 5 -16.5t8 -24.5l70 70q7 8 18 8
t19 -8zM402 553q-4 -30 -11.5 -63t-15.5 -65l43 43q-4 22 -8.5 44t-7.5 41zM720 53q2 -9 -3.5 -17t-15.5 -10l-135 -28q-10 -2 -18 3t-10 15q-2 8 2.5 15.5t12.5 10.5q9 4 18.5 8t15.5 10t4 16l-33 159q-2 12 -8.5 17t-12.5 7q-30 9 -50.5 31t-31.5 50q-1 4 -2 7.5t-3 6.5
l194 195q9 -41 15.5 -83.5t8.5 -81.5q1 -31 -9 -58.5t-33 -47.5q-6 -5 -9.5 -12.5t-1.5 -19.5l33 -158q2 -10 9.5 -13.5t18 -3t20.5 0.5q8 0 15 -5.5t9 -13.5zM266 19q-2 -9 -10 -14t-17 -4l-118 24l103 103l-10 -48q-2 -10 3.5 -16t15 -10t19.5 -8q8 -3 12 -11t2 -16z" />
    <glyph glyph-name="uF1903" unicode="&#xf1903;" horiz-adv-x="797" 
d="M717 621q35 -49 49.5 -100.5t10.5 -100.5t-24 -92.5t-53.5 -76.5t-78.5 -51.5t-99 -18.5h-99h-32.5t-42 3t-46.5 12.5t-47.5 27.5t-43.5 49q-17 25 -25 53t-16 57q-2 8 -6 27t-9.5 44.5t-11 53l-10.5 52.5t-9 44t-6 27q-3 10 -6 15t-11 5h-46q-14 0 -24.5 10.5
t-10.5 24.5t10.5 24.5t24.5 10.5h102q11 0 19.5 -6.5t11.5 -17.5l55 -241q3 -10 13 -14t22 -5t22 -1h129q11 0 20 7t13 16l94 269q2 4 6 6.5t9 0.5q44 -17 81.5 -46t64.5 -68zM386 75q0 -23 -11 -41t-29 -28.5t-40 -10.5h-1q-21 0 -39.5 10.5t-29.5 28.5t-11 41q0 22 11 40
t29.5 29t40.5 11t40 -11t29 -29t11 -40zM619 155q22 0 40 -11t29 -29t11 -40q0 -23 -11.5 -41t-29.5 -28.5t-39 -10.5h-1q-21 0 -39.5 10.5t-29.5 28.5t-11 41q0 22 11 40t29 29t41 11z" />
    <glyph glyph-name="uF1904" unicode="&#xf1904;" horiz-adv-x="801" 
d="M722 696l-658 -658q-4 -4 -9 -5.5t-9 -1.5q-11 0 -18 7q-8 8 -8 19t8 18l191 191l-2 4t-3 3q-16 25 -25 53.5t-16 57.5q-2 8 -6 27t-9.5 44.5t-10.5 52.5t-10.5 52.5t-9.5 44.5t-6 27q-2 9 -5 14t-11 5h-46q-15 0 -25.5 10.5t-10.5 24.5q0 15 10.5 25t25.5 10h101
q11 0 20 -6.5t12 -17.5l55 -241q3 -10 12.5 -14t22 -5t22.5 -1h85l105 105l65 187q2 4 6.5 6.5t9.5 0.5q19 -7 37.5 -17.5t35.5 -22.5l38 37q8 8 18 8t18 -8t8 -18t-8 -18zM721 621q35 -49 49.5 -100.5t10.5 -100.5t-24 -92.5t-53.5 -76.5t-78.5 -51.5t-99 -18.5h-100h-34.5
t-44.5 3.5t-49 15.5l423 422v-1zM309 156q23 0 41 -11t29 -29t11 -41t-11 -41t-29.5 -28.5t-39.5 -10.5h-1q-21 0 -39.5 10.5t-29.5 28.5t-11 41t11 41t29 29t40 11zM622 156q22 0 40.5 -11t29.5 -29t11 -41t-11.5 -41t-29.5 -28.5t-39 -10.5h-1q-21 0 -39.5 10.5
t-29.5 28.5t-11 41t11 41t29 29t40 11z" />
    <glyph glyph-name="uF1905" unicode="&#xf1905;" horiz-adv-x="771" 
d="M296 503q-16 0 -31.5 10.5t-28.5 27.5t-22.5 37.5t-15 39.5t-5.5 34q0 26 11.5 45.5t29.5 29.5t39 10q30 0 48.5 -17t27 -44.5t8.5 -59.5q0 -17 -3 -36.5t-10 -37t-18.5 -28.5t-29.5 -11zM475 503q-18 0 -29.5 11t-18.5 28.5t-10 37t-3 36.5q0 32 8.5 59.5t27 44.5
t48.5 17q20 0 38 -10t30 -28.5t12 -46.5q0 -14 -5 -33t-14.5 -39t-22.5 -37.5t-28.5 -28.5t-32.5 -11zM128 404q-19 0 -38 12.5t-35 32t-25.5 41t-9.5 40.5q0 20 10 36.5t27 26.5t37 10t35.5 -10t26.5 -25.5t17.5 -33.5t10 -34.5t3.5 -27.5q0 -33 -17 -50.5t-42 -17.5z
M751 529q0 -17 -9.5 -38.5t-24.5 -41t-34 -32.5t-39 -13q-26 0 -43 17.5t-17 50.5q0 18 6 40t17.5 43t29 34.5t40.5 13.5q21 0 37.5 -10t26.5 -27t10 -37zM649 155q0 -31 -5.5 -60t-18.5 -51.5t-34 -35.5t-53 -13q-25 0 -44 8.5t-34.5 21t-29 25t-27 20t-27.5 5.5
q-14 -1 -28 -12t-31.5 -24t-38.5 -23t-48 -10q-40 0 -64 20t-34 53t-10 73q0 44 11 88t32.5 84t53.5 71.5t74.5 49.5t94.5 18q47 0 87.5 -16t72.5 -45t54.5 -68t34.5 -84.5t12 -94.5z" />
    <glyph glyph-name="uF1906" unicode="&#xf1906;" horiz-adv-x="788" 
d="M722 696l-658 -658q-4 -4 -9 -5.5t-9 -1.5q-11 0 -18 7q-8 8 -8 19t8 18l112 113q4 40 17.5 80t36 75t53.5 61.5t70.5 42t87.5 15.5q2 0 4.5 -0.5t4.5 -0.5l51 51q-13 10 -20.5 27.5t-10.5 38t-3 37.5q0 32 8.5 59.5t26.5 44.5t49 17q19 0 37.5 -10t30.5 -29t12 -46v-4.5
t-1 -4.5l91 90q7 8 18 8t19 -8t8 -18t-8 -18zM313 502q-17 0 -32 10.5t-28 27.5t-23 37.5t-15.5 39.5t-5.5 34q0 27 11.5 46t29.5 29t39 10q31 0 49 -17t26.5 -44.5t8.5 -59.5q0 -17 -3 -36.5t-10 -37t-18.5 -28.5t-28.5 -11zM144 403q-19 0 -38 12.5t-34.5 32t-25 41
t-9.5 40.5q0 20 10 37t26.5 27t36.5 10t35.5 -10t27 -25.5t18 -33.5t10 -34.5t3.5 -27.5q0 -34 -17 -51.5t-43 -17.5zM700 602q19 -2 34.5 -12t24.5 -26t9 -35q0 -17 -9.5 -38.5t-25 -41.5t-34.5 -33t-39 -13q-25 0 -42 17.5t-17 51.5q0 8 1 16.5t4 18.5zM527 428
q43 -26 74 -68t48 -95t17 -111q0 -32 -5.5 -60.5t-18.5 -50.5t-34.5 -35t-52.5 -13q-25 0 -44 8.5t-35 21t-29.5 24.5t-27 19.5t-27.5 5.5q-13 -2 -27.5 -12.5t-31.5 -23.5t-38 -23t-48 -10q-34 0 -55.5 15t-34.5 39z" />
    </font>
</defs>
</svg>
