<?xml version="1.0" standalone="no"?>
<!DOCTYPE svg PUBLIC "-//W3C//DTD SVG 1.1//EN" "http://www.w3.org/Graphics/SVG/1.1/DTD/svg11.dtd" >
<svg xmlns="http://www.w3.org/2000/svg" xmlns:xlink="http://www.w3.org/1999/xlink" version="1.1">
<metadata>
Created by FontForge 20170924 at Wed Apr 18 17:03:58 2018
 By www-data
Copyright 2018 Airbnb. All rights reserved.
</metadata>
<defs>
<font id="AirbnbCerealApp-ExtraBold" horiz-adv-x="601" >
  <font-face 
    font-family="Airbnb Cereal App Extra"
    font-weight="800"
    font-stretch="normal"
    units-per-em="1000"
    panose-1="2 11 8 2 2 2 3 2 2 4"
    ascent="800"
    descent="-200"
    x-height="533"
    cap-height="710"
    bbox="-234 -284 1109 985"
    underline-thickness="63"
    underline-position="-131"
    unicode-range="U+000D-FFFD"
  />
<missing-glyph horiz-adv-x="500" 
d="M450 0h-400v750h400v-750zM100 50h300v650h-300v-650z" />
    <glyph glyph-name="f_i.liga" unicode="fi" horiz-adv-x="666" 
d="M107 0v404h-88v129h88v28q0 45 14 82t40 64t61.5 41.5t78.5 14.5q30 0 55.5 -6.5t47.5 -16.5l-29 -121q-10 5 -22 8t-23 3q-30 0 -45 -20.5t-15 -57.5v-19h345v-533h-163v404h-182v-404h-163zM624 673q0 -25 -11.5 -45t-32 -32t-47.5 -12q-26 0 -46.5 12t-32 32t-11.5 45
t11.5 45t32 32t46.5 12q27 0 47.5 -12t32 -32t11.5 -45z" />
    <glyph glyph-name="f_f.liga" unicode="ff" horiz-adv-x="767" 
d="M107 0v404h-88v129h88v28q0 45 15 82t42.5 64t65.5 41.5t84 14.5q32 0 59.5 -7t50.5 -19l-29 -121q-11 6 -26 10t-28 4q-35 0 -53 -20.5t-18 -57.5v-19h182v28q0 45 15 82t42.5 64t65.5 41.5t84 14.5q32 0 59.5 -7t50.5 -19l-29 -121q-11 6 -25.5 10t-28.5 4
q-35 0 -53 -20.5t-18 -57.5v-19h131v-129h-131v-404h-163v404h-182v-404h-163z" />
    <glyph glyph-name="f_f_i.liga" unicode="ffi" horiz-adv-x="1011" 
d="M107 0v404h-88v129h88v28q0 45 15 82t42.5 64t65.5 41.5t84 14.5q32 0 59.5 -7t50.5 -19l-29 -121q-11 6 -26 10t-28 4q-35 0 -53 -20.5t-18 -57.5v-19h182v28q0 45 14 82t40 64t61.5 41.5t78.5 14.5q30 0 55.5 -6.5t47.5 -16.5l-29 -121q-10 5 -22 8t-23 3
q-30 0 -45 -20.5t-15 -57.5v-19h345v-533h-163v404h-182v-404h-163v404h-182v-404h-163zM969 673q0 -25 -11.5 -45t-32.5 -32t-47 -12t-46.5 12t-32 32t-11.5 45t11.5 45t32 32t46.5 12t47 -12t32.5 -32t11.5 -45z" />
    <glyph glyph-name=".notdef" horiz-adv-x="500" 
d="M450 0h-400v750h400v-750zM100 50h300v650h-300v-650z" />
    <glyph glyph-name="glyph1" horiz-adv-x="0" 
 />
    <glyph glyph-name="glyph1" horiz-adv-x="0" 
 />
    <glyph glyph-name="uni000D" unicode="&#xd;" horiz-adv-x="206" 
 />
    <glyph glyph-name="space" unicode=" " horiz-adv-x="206" 
 />
    <glyph glyph-name="period" unicode="." horiz-adv-x="284" 
d="M142 -4q-28 0 -50.5 13.5t-35.5 36t-13 49.5t13 49.5t35.5 36t50.5 13.5t50.5 -13.5t35.5 -36t13 -49.5t-13 -49.5t-35.5 -36t-50.5 -13.5z" />
    <glyph glyph-name="colon" unicode=":" horiz-adv-x="284" 
d="M142 -4q-28 0 -50.5 13.5t-35.5 36t-13 49.5t13 49.5t35.5 36t50.5 13.5t50.5 -13.5t35.5 -36t13 -49.5t-13 -49.5t-35.5 -36t-50.5 -13.5zM142 339q-28 0 -50.5 13.5t-35.5 36t-13 49.5t13 49.5t35.5 36t50.5 13.5t50.5 -13.5t35.5 -36t13 -49.5t-13 -49.5t-35.5 -36
t-50.5 -13.5z" />
    <glyph glyph-name="comma" unicode="," horiz-adv-x="284" 
d="M79 -161l-26 87q31 6 55.5 21.5t38.5 36.5t14 44v5q-15 -9 -33 -9q-22 0 -40.5 11.5t-29.5 30.5t-11 42q0 24 12.5 44t33.5 31.5t47 11.5q34 0 61.5 -19.5t43.5 -53t16 -74.5q0 -51 -23 -94t-63.5 -73t-95.5 -42z" />
    <glyph glyph-name="semicolon" unicode=";" horiz-adv-x="284" 
d="M79 -161l-26 87q31 6 55.5 21.5t38.5 36.5t14 44v5q-15 -9 -33 -9q-22 0 -40.5 11.5t-29.5 30.5t-11 42q0 24 12.5 44t33.5 31.5t47 11.5q34 0 61.5 -19.5t43.5 -53t16 -74.5q0 -51 -23 -94t-63.5 -73t-95.5 -42zM142 339q-28 0 -50.5 13.5t-35.5 36t-13 49.5t13 49.5
t35.5 36t50.5 13.5t50.5 -13.5t35.5 -36t13 -49.5t-13 -49.5t-35.5 -36t-50.5 -13.5z" />
    <glyph glyph-name="question" unicode="?" horiz-adv-x="554" 
d="M189 234v150q83 20 123 51t40 72q0 32 -22.5 52.5t-58.5 20.5q-34 0 -59.5 -19t-36.5 -50l-155 32q9 40 31.5 73.5t56 57.5t76 37.5t91.5 13.5q54 0 99 -15.5t78.5 -43.5t51.5 -66.5t18 -84.5q0 -49 -21.5 -90.5t-61 -72t-94.5 -47.5v-71h-156zM267 -4q-27 0 -48.5 12.5
t-34 34t-12.5 48.5t12.5 48.5t34 34t48.5 12.5t48.5 -12.5t34 -34t12.5 -48.5t-12.5 -48.5t-34 -34t-48.5 -12.5z" />
    <glyph glyph-name="exclam" unicode="!" horiz-adv-x="276" 
d="M60 234l-10 476h176l-10 -476h-156zM138 -4q-26 0 -48 12.5t-34.5 34t-12.5 48.5t12.5 48.5t34.5 34t48 12.5t48 -12.5t34.5 -34t12.5 -48.5t-12.5 -48.5t-34.5 -34t-48 -12.5z" />
    <glyph glyph-name="questiondown" unicode="&#xbf;" horiz-adv-x="528" 
d="M281 347q-27 0 -48.5 12.5t-34 34t-12.5 48.5t12.5 48.5t34 34t48.5 12.5t48.5 -12.5t34 -34t12.5 -48.5t-12.5 -48.5t-34 -34t-48.5 -12.5zM273 -192q-54 0 -99 15.5t-78.5 43.5t-51.5 66.5t-18 84.5q0 49 21.5 90.5t61 72t94.5 47.5v71h156v-150q-83 -20 -123 -51
t-40 -72q0 -32 22.5 -52.5t58.5 -20.5q34 0 59.5 18.5t36.5 50.5l155 -32q-9 -40 -31.5 -73.5t-56 -57.5t-76 -37.5t-91.5 -13.5z" />
    <glyph glyph-name="exclamdown" unicode="&#xa1;" horiz-adv-x="276" 
d="M138 347q-26 0 -48 12.5t-34.5 34t-12.5 48.5t12.5 48.5t34.5 34t48 12.5t48 -12.5t34.5 -34t12.5 -48.5t-12.5 -48.5t-34.5 -34t-48 -12.5zM50 -177l10 476h156l10 -476h-176z" />
    <glyph glyph-name="quotesingle" unicode="'" horiz-adv-x="250" 
d="M59 425l-7 285h146l-7 -285h-132z" />
    <glyph glyph-name="quotedbl" unicode="&#x22;" horiz-adv-x="463" 
d="M59 425l-7 285h146l-7 -285h-132zM272 425l-7 285h146l-7 -285h-132z" />
    <glyph glyph-name="ellipsis" unicode="&#x2026;" horiz-adv-x="852" 
d="M142 -4q-28 0 -50.5 13.5t-35.5 36t-13 49.5t13 49.5t35.5 36t50.5 13.5t50.5 -13.5t35.5 -36t13 -49.5t-13 -49.5t-35.5 -36t-50.5 -13.5zM426 -4q-28 0 -50.5 13.5t-35.5 36t-13 49.5t13 49.5t35.5 36t50.5 13.5t50.5 -13.5t35.5 -36t13 -49.5t-13 -49.5t-35.5 -36
t-50.5 -13.5zM710 -4q-28 0 -50.5 13.5t-35.5 36t-13 49.5t13 49.5t35.5 36t50.5 13.5t50.5 -13.5t35.5 -36t13 -49.5t-13 -49.5t-35.5 -36t-50.5 -13.5z" />
    <glyph glyph-name="uni00A0" unicode="&#xa0;" horiz-adv-x="206" 
 />
    <glyph glyph-name="uni2000" unicode="&#x2000;" horiz-adv-x="500" 
 />
    <glyph glyph-name="uni2001" unicode="&#x2001;" horiz-adv-x="1000" 
 />
    <glyph glyph-name="uni2002" unicode="&#x2002;" horiz-adv-x="500" 
 />
    <glyph glyph-name="uni2003" unicode="&#x2003;" horiz-adv-x="1000" 
 />
    <glyph glyph-name="uni2004" unicode="&#x2004;" horiz-adv-x="333" 
 />
    <glyph glyph-name="uni2005" unicode="&#x2005;" horiz-adv-x="250" 
 />
    <glyph glyph-name="uni2006" unicode="&#x2006;" horiz-adv-x="166" 
 />
    <glyph glyph-name="uni2007" unicode="&#x2007;" 
 />
    <glyph glyph-name="uni2008" unicode="&#x2008;" horiz-adv-x="284" 
 />
    <glyph glyph-name="uni2009" unicode="&#x2009;" horiz-adv-x="200" 
 />
    <glyph glyph-name="uni200A" unicode="&#x200a;" horiz-adv-x="63" 
 />
    <glyph glyph-name="uni200B" unicode="&#x200b;" horiz-adv-x="0" 
 />
    <glyph glyph-name="zero" unicode="0" horiz-adv-x="624" 
d="M310 -15q-62 0 -111.5 25t-84.5 72t-53.5 113t-18.5 149t19 150t54 114t85 72t113 25q62 0 111.5 -25t84.5 -72t53.5 -113t18.5 -149t-19 -150t-54 -114t-85 -72t-113 -25zM311 138q49 0 75 53t26 154t-26 154t-75 53q-48 0 -74 -53t-26 -154t26 -154t74 -53z" />
    <glyph glyph-name="one" unicode="1" horiz-adv-x="452" 
d="M197 0v515l-131 -73l-52 138l205 110h144v-690h-166z" />
    <glyph glyph-name="two" unicode="2" horiz-adv-x="573" 
d="M40 0v118q47 40 82 69.5t61 53t46 42.5q42 41 69 73.5t40.5 62t13.5 57.5q0 37 -21.5 58t-55.5 21q-33 0 -56 -20.5t-31 -57.5l-157 25q9 46 31.5 83t56 64t75.5 41.5t90 14.5q52 0 95 -17t75 -47.5t49.5 -71.5t17.5 -89q0 -44 -16 -84.5t-50 -84t-88 -94.5l-40 -36
t-42 -36h248v-145h-493z" />
    <glyph glyph-name="three" unicode="3" horiz-adv-x="568" 
d="M278 -15q-64 0 -117 22t-90 64t-51 103l153 25q11 -32 37 -50.5t63 -18.5q27 0 48 9.5t33 27t12 39.5t-12 39.5t-33 27t-48 9.5h-72v140h63q40 0 64.5 20t24.5 51q0 30 -21.5 48.5t-55.5 18.5q-32 0 -56 -17.5t-34 -50.5l-154 25q8 42 30 76.5t55.5 59.5t76 38.5
t91.5 13.5t91.5 -14t73.5 -39.5t48.5 -61t17.5 -78.5q0 -50 -24 -88.5t-69 -62.5q53 -20 82 -63t29 -99q0 -47 -19 -86t-53.5 -68t-81.5 -44.5t-102 -15.5z" />
    <glyph glyph-name="four" unicode="4" horiz-adv-x="609" 
d="M338 0v133h-310v133l284 424h187v-419h73v-138h-73v-133h-161zM180 271h158v234z" />
    <glyph glyph-name="five" unicode="5" horiz-adv-x="565" 
d="M282 -15q-63 0 -115.5 23t-87.5 65.5t-47 98.5l156 22q10 -31 35 -47.5t57 -16.5q27 0 48.5 11.5t33.5 31t12 45.5t-12 46.5t-33 32t-47 11.5q-24 0 -47 -9t-38 -24l-131 13v402h424v-147h-266v-123q39 26 94 26q48 0 89 -17t71 -47.5t46.5 -71.5t16.5 -89
q0 -51 -19.5 -94t-55 -75t-82.5 -49.5t-102 -17.5z" />
    <glyph glyph-name="six" unicode="6" horiz-adv-x="606" 
d="M328 -15q-64 0 -116.5 24t-90.5 69t-58.5 106.5t-20.5 136.5q0 85 23.5 155.5t67 122t104 79t133.5 27.5q45 0 88 -11t81 -33l-39 -136q-14 8 -34 15t-42.5 11t-43.5 4q-46 0 -82 -21t-59 -60.5t-30 -94.5q24 32 62 50t86 18t89 -17t71.5 -47.5t47.5 -71t17 -88.5
q0 -50 -19.5 -93.5t-54 -76t-81 -50.5t-99.5 -18zM321 125q26 0 47.5 12.5t34 34t12.5 48.5t-12 48.5t-33.5 33.5t-48.5 12q-26 0 -47 -12t-33.5 -33.5t-12.5 -48.5t12.5 -48.5t33.5 -34t47 -12.5z" />
    <glyph glyph-name="seven" unicode="7" horiz-adv-x="565" 
d="M108 0l230 538h-306v152h492v-125l-231 -565h-185z" />
    <glyph glyph-name="eight" unicode="8" 
d="M298 -15q-58 0 -106.5 14.5t-84 42t-55 65.5t-19.5 85q0 57 29.5 102t83.5 67q-44 23 -67.5 61.5t-23.5 86.5q0 43 18.5 79t51.5 62.5t78 40.5t99 14q53 0 97.5 -14t77 -40t50.5 -61.5t18 -78.5q0 -49 -23.5 -87.5t-67.5 -61.5q52 -21 82.5 -64.5t30.5 -102.5
q0 -47 -19.5 -85.5t-55.5 -66.5t-85.5 -43t-108.5 -15zM300 420q24 0 43.5 9.5t30.5 26t11 37.5t-11 37t-30.5 25.5t-43.5 9.5t-43.5 -9.5t-30.5 -25.5t-11 -37t11 -37.5t30.5 -26t43.5 -9.5zM300 125q30 0 53 10t36 27.5t13 41.5t-13 42t-36 28.5t-53 10.5t-53 -10.5
t-36 -28.5t-13 -42t13 -41.5t36 -27.5t53 -10z" />
    <glyph glyph-name="nine" unicode="9" horiz-adv-x="605" 
d="M234 -15q-96 0 -173 44l39 136q14 -8 34 -15t43.5 -11t47.5 -4q46 0 82 17.5t59 56t30 101.5q-24 -31 -62.5 -49t-86.5 -18q-47 0 -88 17t-71.5 47.5t-47.5 71t-17 87.5q0 51 19.5 94.5t54 76t81 50.5t99.5 18q64 0 116.5 -23.5t90.5 -68.5t58.5 -109t20.5 -145
q0 -87 -24 -156t-67.5 -118t-104 -74.5t-133.5 -25.5zM283 376q27 0 48 12t33.5 33.5t12.5 48.5t-12.5 48.5t-33.5 34t-47 12.5t-47.5 -12.5t-34 -34t-12.5 -48.5t12 -48.5t33 -33.5t48 -12z" />
    <glyph glyph-name="zero.aalt" 
d="M299 -15q-62 0 -111.5 25t-84.5 72t-53.5 113t-18.5 149t19 150t54 114t85 72t113 25q62 0 111.5 -25t84.5 -72t53.5 -113t18.5 -149t-19 -150t-54 -114t-85 -72t-113 -25zM300 138q49 0 75 53t26 154t-26 154t-75 53q-48 0 -74 -53t-26 -154t26 -154t74 -53z" />
    <glyph glyph-name="one.aalt" 
d="M263 0v515l-131 -73l-52 138l205 110h144v-690h-166z" />
    <glyph glyph-name="two.aalt" 
d="M55 0v118q47 40 82 69.5t61 53t46 42.5q42 41 69 73.5t40.5 62t13.5 57.5q0 37 -21.5 58t-55.5 21q-33 0 -56 -20.5t-31 -57.5l-157 25q9 46 31.5 83t56 64t75.5 41.5t90 14.5q52 0 95 -17t75 -47.5t49.5 -71.5t17.5 -89q0 -44 -16 -84.5t-50 -84t-88 -94.5l-40 -36
t-42 -36h248v-145h-493z" />
    <glyph glyph-name="three.aalt" 
d="M296 -15q-64 0 -117 22t-90 64t-51 103l153 25q11 -32 37 -50.5t63 -18.5q27 0 48 9.5t33 27t12 39.5t-12 39.5t-33 27t-48 9.5h-72v140h63q40 0 64.5 20t24.5 51q0 30 -21.5 48.5t-55.5 18.5q-32 0 -56 -17.5t-34 -50.5l-154 25q8 42 30 76.5t55.5 59.5t76 38.5
t91.5 13.5t91.5 -14t73.5 -39.5t48.5 -61t17.5 -78.5q0 -50 -24 -88.5t-69 -62.5q53 -20 82 -63t29 -99q0 -47 -19 -86t-53.5 -68t-81.5 -44.5t-102 -15.5z" />
    <glyph glyph-name="four.aalt" 
d="M335 0v133h-310v133l284 424h187v-419h73v-138h-73v-133h-161zM177 271h158v234z" />
    <glyph glyph-name="five.aalt" 
d="M300 -15q-63 0 -115.5 23t-87.5 65.5t-47 98.5l156 22q10 -31 35 -47.5t57 -16.5q27 0 48.5 11.5t33.5 31t12 45.5t-12 46.5t-33 32t-47 11.5q-24 0 -47 -9t-38 -24l-131 13v402h424v-147h-266v-123q39 26 94 26q48 0 89 -17t71 -47.5t46.5 -71.5t16.5 -89
q0 -51 -19.5 -94t-55 -75t-82.5 -49.5t-102 -17.5z" />
    <glyph glyph-name="six.aalt" 
d="M319 -15q-64 0 -116.5 24t-90.5 69t-58.5 106.5t-20.5 136.5q0 85 23.5 155.5t67 122t104 79t133.5 27.5q45 0 88 -11t81 -33l-39 -136q-14 8 -34 15t-42.5 11t-43.5 4q-46 0 -82 -21t-59 -60.5t-30 -94.5q24 32 62 50t86 18t89 -17t71.5 -47.5t47.5 -71t17 -88.5
q0 -50 -19.5 -93.5t-54 -76t-81 -50.5t-99.5 -18zM312 125q26 0 47.5 12.5t34 34t12.5 48.5t-12 48.5t-33.5 33.5t-48.5 12q-26 0 -47 -12t-33.5 -33.5t-12.5 -48.5t12.5 -48.5t33.5 -34t47 -12.5z" />
    <glyph glyph-name="seven.aalt" 
d="M125 0l230 538h-306v152h492v-125l-231 -565h-185z" />
    <glyph glyph-name="eight.aalt" 
d="M298 -15q-58 0 -106.5 14.5t-84 42t-55 65.5t-19.5 85q0 57 29.5 102t83.5 67q-44 23 -67.5 61.5t-23.5 86.5q0 43 18.5 79t51.5 62.5t78 40.5t99 14q53 0 97.5 -14t77 -40t50.5 -61.5t18 -78.5q0 -49 -23.5 -87.5t-67.5 -61.5q52 -21 82.5 -64.5t30.5 -102.5
q0 -47 -19.5 -85.5t-55.5 -66.5t-85.5 -43t-108.5 -15zM300 420q24 0 43.5 9.5t30.5 26t11 37.5t-11 37t-30.5 25.5t-43.5 9.5t-43.5 -9.5t-30.5 -25.5t-11 -37t11 -37.5t30.5 -26t43.5 -9.5zM300 125q30 0 53 10t36 27.5t13 41.5t-13 42t-36 28.5t-53 10.5t-53 -10.5
t-36 -28.5t-13 -42t13 -41.5t36 -27.5t53 -10z" />
    <glyph glyph-name="nine.aalt" 
d="M240 -15q-96 0 -173 44l39 136q14 -8 34 -15t43.5 -11t47.5 -4q46 0 82 17.5t59 56t30 101.5q-24 -31 -62.5 -49t-86.5 -18q-47 0 -88 17t-71.5 47.5t-47.5 71t-17 87.5q0 51 19.5 94.5t54 76t81 50.5t99.5 18q64 0 116.5 -23.5t90.5 -68.5t58.5 -109t20.5 -145
q0 -87 -24 -156t-67.5 -118t-104 -74.5t-133.5 -25.5zM289 376q27 0 48 12t33.5 33.5t12.5 48.5t-12.5 48.5t-33.5 34t-47 12.5t-47.5 -12.5t-34 -34t-12.5 -48.5t12 -48.5t33 -33.5t48 -12z" />
    <glyph glyph-name="uni2080" unicode="&#x2080;" horiz-adv-x="361" 
d="M178 -9q-47 0 -81.5 24t-53 68t-18.5 105q0 62 19 106.5t54.5 68.5t83.5 24q47 0 81.5 -24t53 -68t18.5 -105q0 -62 -19.5 -106.5t-54.5 -68.5t-83 -24zM180 90q44 0 44 99t-44 99t-44 -99t44 -99z" />
    <glyph glyph-name="uni2081" unicode="&#x2081;" horiz-adv-x="361" 
d="M150 0v267l-72 -39l-32 89l117 63h97v-380h-110z" />
    <glyph glyph-name="uni2082" unicode="&#x2082;" horiz-adv-x="361" 
d="M40 0v74q14 10 32.5 25.5l37 31t29.5 25.5q36 32 52.5 56.5t16.5 43.5q0 16 -9 26.5t-25 10.5q-14 0 -25 -10t-14 -27l-101 14q6 34 26.5 60.5t52 41.5t68.5 15q39 0 70.5 -16t49.5 -44t18 -63q0 -36 -21.5 -72t-67.5 -74q-9 -7 -16.5 -13t-15.5 -12h128v-93h-286z" />
    <glyph glyph-name="uni2083" unicode="&#x2083;" horiz-adv-x="361" 
d="M176 -9q-40 0 -71 13.5t-51.5 37.5t-27.5 55l99 15q4 -13 16 -21t30 -8q20 0 31.5 10t11.5 24t-11 23t-30 9h-38v86h31q20 0 30.5 8.5t10.5 21.5t-10.5 21.5t-25.5 8.5q-13 0 -23.5 -7t-14.5 -20l-100 16q6 31 26 54t50.5 36t68.5 13q40 0 70 -13.5t47.5 -37.5t17.5 -56
q0 -27 -13.5 -48.5t-39.5 -34.5q30 -12 46.5 -35t16.5 -54q0 -34 -19 -60.5t-52.5 -41.5t-75.5 -15z" />
    <glyph glyph-name="uni2084" unicode="&#x2084;" horiz-adv-x="361" 
d="M186 0v70h-170v82l151 228h124v-226h37v-84h-37v-70h-105zM111 154h75v112z" />
    <glyph glyph-name="fraction" unicode="&#x2044;" horiz-adv-x="92" 
d="M-234 0l440 690h120l-440 -690h-120z" />
    <glyph glyph-name="percent" unicode="%" horiz-adv-x="769" 
d="M196 382q-35 0 -65 12t-52.5 33t-35 50t-12.5 63t12.5 63t35 50.5t52.5 33.5t65 12t65 -12t52.5 -33t35 -50t12.5 -63t-12.5 -63t-35 -50.5t-52.5 -33.5t-65 -12zM233 0h-128l431 690h128zM144 540q0 -26 15 -43.5t37 -17.5t37 17.5t15 43.5t-15 43.5t-37 17.5t-37 -17.5
t-15 -43.5zM573 -9q-35 0 -65 12t-52.5 33t-35 50t-12.5 63t12.5 63t35 50.5t52.5 33.5t65 12t65 -12t52.5 -33t35 -50t12.5 -63t-12.5 -63t-35 -50.5t-52.5 -33.5t-65 -12zM573 88q23 0 37.5 17.5t14.5 43.5t-14.5 43.5t-37.5 17.5t-37.5 -17.5t-14.5 -43.5t14.5 -43.5
t37.5 -17.5z" />
    <glyph glyph-name="perthousand" unicode="&#x2030;" horiz-adv-x="1140" 
d="M196 382q-35 0 -65 12t-52.5 33t-35 50t-12.5 63t12.5 63t35 50.5t52.5 33.5t65 12t65 -12t52.5 -33t35 -50t12.5 -63t-12.5 -63t-35 -50.5t-52.5 -33.5t-65 -12zM233 0h-128l431 690h128zM144 540q0 -26 15 -43.5t37 -17.5t37 17.5t15 43.5t-15 43.5t-37 17.5t-37 -17.5
t-15 -43.5zM573 -9q-35 0 -65 12t-52.5 33t-35 50t-12.5 63t12.5 63t35 50.5t52.5 33.5t65 12t65 -12t52.5 -33t35 -50t12.5 -63t-12.5 -63t-35 -50.5t-52.5 -33.5t-65 -12zM944 -9q-35 0 -65 12t-52.5 33t-35 50t-12.5 63t12.5 63t35 50.5t52.5 33.5t65 12t65 -12t52.5 -33
t35 -50t12.5 -63t-12.5 -63t-35 -50.5t-52.5 -33.5t-65 -12zM573 88q23 0 37.5 17.5t14.5 43.5t-14.5 43.5t-37.5 17.5t-37.5 -17.5t-14.5 -43.5t14.5 -43.5t37.5 -17.5zM944 88q22 0 37 17.5t15 43.5t-15 43.5t-37 17.5t-37 -17.5t-15 -43.5t15 -43.5t37 -17.5z" />
    <glyph glyph-name="onehalf" unicode="&#xbd;" horiz-adv-x="813" 
d="M117 0l440 690h120l-440 -690h-120zM492 0v74q14 10 32.5 25.5l37 31t29.5 25.5q36 32 52.5 56.5t16.5 43.5q0 16 -9 26.5t-25 10.5q-14 0 -25 -10t-14 -27l-101 14q6 34 26.5 60.5t52 41.5t68.5 15q39 0 70.5 -16t49.5 -44t18 -63q0 -36 -21.5 -72t-67.5 -74
q-9 -7 -16.5 -13t-15.5 -12h128v-93h-286zM150 310v267l-72 -39l-32 89l117 63h97v-380h-110z" />
    <glyph glyph-name="onequarter" unicode="&#xbc;" horiz-adv-x="813" 
d="M133 0l440 690h120l-440 -690h-120zM638 0v70h-170v82l151 228h124v-226h37v-84h-37v-70h-105zM563 154h75v112zM150 310v267l-72 -39l-32 89l117 63h97v-380h-110z" />
    <glyph glyph-name="threequarters" unicode="&#xbe;" horiz-adv-x="813" 
d="M139 0l440 690h120l-440 -690h-120zM638 0v70h-170v82l151 228h124v-226h37v-84h-37v-70h-105zM563 154h75v112zM176 301q-40 0 -71 13.5t-51.5 37.5t-27.5 55l99 15q4 -13 16 -21t30 -8q20 0 31.5 10t11.5 24t-11 23t-30 9h-38v86h31q20 0 30.5 8.5t10.5 21.5
t-10.5 21.5t-25.5 8.5q-13 0 -23.5 -7t-14.5 -20l-100 16q6 31 26 54t50.5 36t68.5 13q40 0 70 -13.5t47.5 -37.5t17.5 -56q0 -27 -13.5 -48.5t-39.5 -34.5q30 -12 46.5 -35t16.5 -54q0 -34 -19 -60.5t-52.5 -41.5t-75.5 -15z" />
    <glyph glyph-name="dollar" unicode="$" 
d="M244 -140v136q-52 9 -93.5 32.5t-69.5 60t-40 83.5l156 32q13 -38 40.5 -57t67.5 -19q39 0 63.5 19.5t24.5 50.5q0 25 -20.5 41.5t-64.5 25.5l-48 10q-100 21 -152.5 75t-52.5 136q0 53 24 96.5t67 72.5t98 40v125h113v-125q50 -9 89.5 -32.5t65.5 -59.5t35 -82l-150 -33
q-9 34 -34.5 52.5t-60.5 18.5t-57.5 -17.5t-22.5 -46.5q0 -24 21.5 -39.5t68.5 -25.5l48 -10q98 -20 148.5 -73t50.5 -133q0 -58 -25.5 -104.5t-71 -76.5t-105.5 -39v-134h-113z" />
    <glyph glyph-name="cent" unicode="&#xa2;" 
d="M255 -136v130q-47 10 -86 33.5t-68 58.5t-44.5 79.5t-15.5 95.5q0 52 15.5 97t44.5 81.5t68 61t86 35.5v112h113v-111q48 -8 87.5 -32t66.5 -61t38 -84l-158 -26q-13 31 -36 48.5t-53 17.5q-31 0 -54.5 -17.5t-37.5 -48t-14 -70.5q0 -39 13.5 -69t37.5 -47t55 -17
t56.5 17.5t37.5 48.5l158 -26q-11 -46 -38.5 -83t-68.5 -61t-90 -33v-130h-113z" />
    <glyph glyph-name="sterling" unicode="&#xa3;" 
d="M25 0v145h55l11 127h-67v122h77l7 87q6 69 36 119t80 77.5t116 27.5q62 0 110.5 -23.5t80.5 -66.5t42 -103l-157 -25q-13 68 -74 68q-32 0 -50.5 -19.5t-21.5 -56.5l-7 -85h155v-122h-165l-10 -127h327v-145h-545z" />
    <glyph glyph-name="yen" unicode="&#xa5;" 
d="M77 107v91h142v67h-142v91h106l-174 334h184l112 -263l109 263h179l-174 -334h106v-91h-142v-67h142v-91h-142v-107h-164v107h-142z" />
    <glyph glyph-name="Euro" unicode="&#x20ac;" 
d="M-4 231l21 85h52v17q0 18 1 36h-72l21 85h61q16 79 52 135t89.5 86t122.5 30q60 0 108.5 -22.5t81 -64.5t45.5 -100l-151 -25q-10 32 -32.5 49.5t-53.5 17.5q-37 0 -62 -27t-37 -79h180l-21 -85h-169q-1 -14 -1 -29v-24h160l-21 -85h-129q23 -101 98 -101q33 0 57.5 18
t34.5 49l151 -25q-13 -58 -47.5 -99.5t-85 -64.5t-112.5 -23q-106 0 -173.5 64t-87.5 182h-81z" />
    <glyph glyph-name="uni20BA" unicode="&#x20ba;" 
d="M115 0v199l-68 -33v101l68 33v69l-67 -32v101l67 32v220h164v-141l108 52v-101l-108 -52v-70l108 52v-101l-108 -52v-127q57 6 91.5 44t44.5 106l155 -13q-44 -287 -335 -287h-120z" />
    <glyph glyph-name="uni20B9" unicode="&#x20b9;" 
d="M77 579v111h476l-29 -111h-90q25 -30 37 -70h82l-29 -111h-49q-13 -66 -59 -111.5t-115 -62.5l251 -224h-219l-255 229h-1v104q22 -5 49.5 -8t49.5 -3q103 0 129 76h-228v111h227q-13 34 -42.5 52t-73.5 18h-111z" />
    <glyph glyph-name="colonmonetary" unicode="&#x20a1;" 
d="M122 -140l31 181q-55 43 -84.5 119t-29.5 178q0 98 27 173.5t77 122.5t119 61l20 120h79l-20 -116q26 -2 50 -9l21 125h79l-27 -160q73 -55 99 -164l-162 -24q-11 40 -32.5 62t-53.5 22q-50 0 -78.5 -53.5t-28.5 -156.5q0 -100 27.5 -151t78.5 -51q34 0 57.5 22.5
t32.5 61.5l162 -24q-13 -59 -43 -102.5t-73 -69.5t-97 -34l-22 -133h-79l22 132q-26 3 -49 11l-24 -143h-79z" />
    <glyph glyph-name="uni20AA" unicode="&#x20aa;" horiz-adv-x="933" 
d="M68 0v690h316q60 0 108 -19t82.5 -54.5t53 -85.5t18.5 -112v-193h-138v186q0 60 -34 91.5t-99 31.5h-169v-535h-138zM287 0v459h138v-304h170q65 0 99 31.5t34 91.5v412h138v-419q0 -62 -18.5 -112t-53 -85.5t-82.5 -54.5t-108 -19h-317z" />
    <glyph glyph-name="uni20A9" unicode="&#x20a9;" horiz-adv-x="975" 
d="M227 0l-50 196h-147v95h123l-17 66h-106v95h82l-61 238h176l89 -479l100 479h149l101 -479l88 479h170l-61 -238h82v-95h-106l-17 -66h123v-95h-147l-50 -196h-165l-95 444l-94 -444h-167z" />
    <glyph glyph-name="uni20AD" unicode="&#x20ad;" 
d="M66 0v300h-71v122h71v268h167v-291l168 291h180l-173 -268h137v-122h-125l197 -300h-200l-184 326v-326h-167z" />
    <glyph glyph-name="uni20A8" unicode="&#x20a8;" horiz-adv-x="1101" 
d="M56 0v690h227q85 0 146 -27.5t94 -78t33 -120.5q0 -39 -13.5 -75t-38 -66t-57.5 -50l150 -273h-182l-112 227q-14 -1 -29 -1q-12 0 -25.5 1t-28.5 3v-230h-164zM220 548v-177q15 -3 30.5 -4.5t33.5 -1.5q51 0 79 25t28 69q0 43 -28 66t-80 23h-63zM844 -15q-58 0 -105 18
t-80 51t-46 78l145 27q9 -23 32.5 -37t54.5 -14t49.5 12.5t18.5 32.5q0 19 -18.5 30t-63.5 18l-24 4q-87 15 -133.5 57.5t-46.5 108.5q0 39 15.5 71.5t44 56t67.5 36.5t86 13q55 0 100 -17.5t75.5 -49.5t42.5 -76l-144 -27q-9 22 -28.5 34.5t-45.5 12.5q-28 0 -44.5 -11.5
t-16.5 -30.5q0 -17 16.5 -27t63.5 -18l24 -4q89 -15 136 -57.5t47 -108.5q0 -40 -16 -74t-45.5 -58t-70.5 -37.5t-90 -13.5z" />
    <glyph glyph-name="uni20B1" unicode="&#x20b1;" 
d="M87 0v315h-76v95h76v67h-75v95h75v118h193q82 0 140.5 -31t88.5 -87h85v-95h-58q1 -13 1 -27q0 -21 -3 -40h60v-95h-91q-31 -53 -86.5 -82.5t-128.5 -29.5q-20 0 -40 2v-205h-161zM248 544v-192q12 -2 22 -2q51 0 78.5 25t27.5 73q0 47 -26 71.5t-74 24.5h-28z" />
    <glyph glyph-name="uni0E3F" unicode="&#xe3f;" 
d="M57 0v690h176v125h113v-127q61 -7 104.5 -30t66.5 -60.5t23 -86.5q0 -45 -20.5 -83.5t-60.5 -59.5q53 -20 82 -64t29 -106q0 -55 -27 -97t-77.5 -67.5t-119.5 -31.5v-142h-113v140h-176zM216 552v-132h81q39 0 59.5 17t20.5 49t-20.5 49t-59.5 17h-81zM216 138h98
q45 0 68.5 19t23.5 56t-24 56.5t-68 19.5h-98v-151z" />
    <glyph glyph-name="dong" unicode="&#x20ab;" 
d="M228 -15q-46 0 -85.5 19.5t-69 54t-46 80.5t-16.5 100q0 55 17 102.5t48 83t72.5 55t89.5 19.5q41 0 75 -16t57 -46v102h-122v95h122v56h163v-56h59v-95h-59v-539h-151l-4 67q-24 -38 -63.5 -60t-86.5 -22zM274 125q28 0 50 15.5t34.5 41.5t12.5 60t-12.5 60t-34.5 41.5
t-50 15.5t-50 -15.5t-34.5 -41.5t-12.5 -60t12.5 -60t34.5 -41.5t50 -15.5zM20 -158v95h543v-95h-543z" />
    <glyph glyph-name="currency" unicode="&#xa4;" 
d="M41 187l77 78q-13 22 -20 47t-7 52t7 52t20 47l-77 78l82 82l78 -79q22 13 47.5 19.5t52.5 6.5t52.5 -6.5t47.5 -19.5l78 79l82 -82l-77 -78q13 -22 20 -47t7 -52t-7 -52t-20 -47l77 -78l-82 -82l-78 79q-22 -13 -47.5 -19.5t-52.5 -6.5t-52.5 6.5t-47.5 19.5l-78 -79z
M227 364q0 -24 9.5 -42.5t26.5 -29t38 -10.5t38 10.5t26.5 29t9.5 42.5t-9.5 42.5t-26.5 29t-38 10.5t-38 -10.5t-26.5 -29t-9.5 -42.5z" />
    <glyph glyph-name="asciicircum" unicode="^" 
d="M60 337l170 353h141l170 -353h-151l-92 201l-93 -201h-145z" />
    <glyph glyph-name="plus" unicode="+" 
d="M76 207v136h154v156h140v-156h154v-136h-154v-161h-140v161h-154z" />
    <glyph glyph-name="minus" unicode="&#x2212;" 
d="M86 205v140h429v-140h-429z" />
    <glyph glyph-name="plusminus" unicode="&#xb1;" 
d="M234 179v144h-149v128h149v139h133v-139h149v-128h-149v-144h-133zM95 0v132h411v-132h-411z" />
    <glyph glyph-name="equal" unicode="=" 
d="M78 324v133h445v-133h-445zM78 93v133h445v-133h-445z" />
    <glyph glyph-name="divide" unicode="&#xf7;" 
d="M300 382q-20 0 -36.5 10t-26.5 27t-10 38t10 38t26.5 27t36.5 10t36.5 -10t26.5 -27t10 -38t-10 -38t-26.5 -27t-36.5 -10zM78 210v131h445v-131h-445zM300 19q-20 0 -36.5 10t-26.5 27t-10 38t10 38t26.5 27t36.5 10t36.5 -10t26.5 -27t10 -38t-10 -38t-26.5 -27
t-36.5 -10z" />
    <glyph glyph-name="less" unicode="&#x3c;" 
d="M490 501v-138l-252 -85l252 -86v-143l-403 161v130z" />
    <glyph glyph-name="greater" unicode="&#x3e;" 
d="M111 49v138l252 85l-252 86v143l403 -161v-130z" />
    <glyph glyph-name="asciitilde" unicode="~" 
d="M389 168q-25 0 -45.5 7t-37.5 17.5t-31 21t-26.5 17.5t-23.5 7q-31 0 -40 -62h-130q5 64 25 109t54 69t77 24q25 0 45.5 -7t37.5 -17.5t31 -21t26.5 -17.5t23.5 -7q31 0 40 62h130q-5 -64 -25 -109t-54 -69t-77 -24z" />
    <glyph glyph-name="logicalnot" unicode="&#xac;" 
d="M76 255v136h429v-297h-140v161h-289z" />
    <glyph glyph-name="multiply" unicode="&#xd7;" 
d="M171 59l-89 89l130 130l-123 122l89 89l122 -123l123 123l89 -89l-122 -122l129 -130l-89 -89l-130 129z" />
    <glyph glyph-name="underscore" unicode="_" horiz-adv-x="611" 
d="M30 -175v120h551v-120h-551z" />
    <glyph glyph-name="section" unicode="&#xa7;" horiz-adv-x="522" 
d="M258 -95q-58 0 -105 17t-80.5 49.5t-48.5 76.5l149 27q11 -23 33.5 -36t54.5 -13q31 0 50 12.5t19 33.5q0 41 -85 54l-41 6q-83 12 -128 53t-45 105q0 45 22 79.5t63 56.5q-35 22 -53.5 53t-18.5 71q0 38 16 70t45 55.5t69 36.5t88 13q56 0 100.5 -17t75.5 -48.5
t44 -75.5l-147 -27q-21 46 -75 46q-27 0 -44.5 -12.5t-17.5 -31.5t19 -31t62 -19l52 -8q80 -13 123.5 -53t43.5 -101q0 -45 -22.5 -80.5t-65.5 -58.5q75 -45 75 -126q0 -39 -16.5 -71.5t-47 -56t-72 -36.5t-91.5 -13zM352 313q0 49 -72 62l-15 3q-6 1 -10.5 1.5t-8.5 0.5
q-32 0 -50.5 -15.5t-18.5 -43.5q0 -49 72 -62l15 -3q6 -1 11 -1.5t8 -0.5q32 0 50.5 15.5t18.5 43.5z" />
    <glyph glyph-name="paragraph" unicode="&#xb6;" horiz-adv-x="593" 
d="M256 -92v316q-69 10 -119 42.5t-76.5 83.5t-26.5 116q0 76 34 131t98 84t154 29h35v-802h-99zM428 -92v802h100v-802h-100z" />
    <glyph glyph-name="numbersign" unicode="#" horiz-adv-x="669" 
d="M126 0l14 174h-90l9 111h90l10 123h-89l9 111h89l14 171h121l-14 -171h119l14 171h121l-14 -171h90l-9 -111h-90l-10 -123h89l-9 -111h-89l-14 -174h-121l14 174h-119l-14 -174h-121zM270 285h119l10 123h-119z" />
    <glyph glyph-name="bar" unicode="|" horiz-adv-x="283" 
d="M70 -118v884h143v-884h-143z" />
    <glyph glyph-name="dagger" unicode="&#x2020;" horiz-adv-x="488" 
d="M169 -82v497h-139v130h139v165h150v-165h139v-130h-139v-497h-150z" />
    <glyph glyph-name="daggerdbl" unicode="&#x2021;" horiz-adv-x="524" 
d="M48 88v130h139v197h-139v130h139v165h150v-165h139v-130h-139v-197h139v-130h-139v-170h-150v170h-139z" />
    <glyph glyph-name="ampersand" unicode="&#x26;" horiz-adv-x="712" 
d="M282 -20q-56 0 -102.5 15t-80 42.5t-52 65.5t-18.5 83q0 61 33 110.5t92 80.5q-27 31 -43 57t-23 50t-7 50q0 42 16 76.5t44.5 60.5t67 40t83.5 14q44 0 81 -13t64.5 -37t42.5 -56.5t15 -71.5q0 -112 -131 -186l119 -122q15 31 24.5 69.5t12.5 83.5l139 -11
q-8 -72 -28.5 -132.5t-51.5 -108.5l136 -140h-198l-37 38q-42 -28 -91.5 -43t-106.5 -15zM235 533q0 -18 11 -38.5t37 -49.5q31 16 48 39.5t17 49.5t-15.5 42.5t-39.5 16.5q-25 0 -41.5 -17.5t-16.5 -42.5zM192 209q0 -27 13.5 -47.5t38 -32t55.5 -11.5q46 0 86 19l-151 156
q-20 -15 -31 -36.5t-11 -47.5z" />
    <glyph glyph-name="asterisk" unicode="*" horiz-adv-x="440" 
d="M148 302l-98 70l93 107l-136 31l36 115l128 -54l-13 139h124l-13 -139l128 54l36 -115l-136 -31l93 -107l-98 -70l-72 121z" />
    <glyph glyph-name="hyphen" unicode="-" horiz-adv-x="372" 
d="M43 205v140h286v-140h-286z" />
    <glyph glyph-name="endash" unicode="&#x2013;" horiz-adv-x="500" 
d="M0 215v120h500v-120h-500z" />
    <glyph glyph-name="emdash" unicode="&#x2014;" horiz-adv-x="1000" 
d="M0 215v120h1000v-120h-1000z" />
    <glyph glyph-name="parenleft" unicode="(" horiz-adv-x="369" 
d="M357 -148h-154q-79 107 -120 227.5t-41 244.5t41 244.5t120 227.5h154q-82 -113 -123.5 -232.5t-41.5 -239.5t41.5 -239.5t123.5 -232.5z" />
    <glyph glyph-name="parenright" unicode=")" horiz-adv-x="369" 
d="M12 796h154q80 -107 120.5 -227.5t40.5 -244.5t-40.5 -244.5t-120.5 -227.5h-154q82 113 123.5 232.5t41.5 239.5t-41.5 239.5t-123.5 232.5z" />
    <glyph glyph-name="slash" unicode="/" horiz-adv-x="494" 
d="M6 -118l333 884h149l-333 -884h-149z" />
    <glyph glyph-name="backslash" unicode="\" horiz-adv-x="494" 
d="M339 -118l-333 884h149l333 -884h-149z" />
    <glyph glyph-name="bracketleft" unicode="[" horiz-adv-x="381" 
d="M70 -148v944h271v-125h-127v-694h127v-125h-271z" />
    <glyph glyph-name="bracketright" unicode="]" horiz-adv-x="381" 
d="M40 -148v125h127v694h-127v125h271v-944h-271z" />
    <glyph glyph-name="braceleft" unicode="{" horiz-adv-x="398" 
d="M358 796v-125h-33q-43 0 -63.5 -21.5t-20.5 -66.5q0 -21 3.5 -46t7.5 -49t4 -44q0 -28 -9.5 -52.5t-25.5 -42.5t-36 -25q20 -7 36 -25t25.5 -42.5t9.5 -52.5q0 -20 -4 -44t-7.5 -49t-3.5 -46q0 -45 20.5 -66.5t63.5 -21.5h33v-125h-46q-107 0 -162.5 50t-55.5 142
q0 31 4 61.5t7.5 56t3.5 42.5q0 29 -16.5 45t-47.5 16h-15v118h15q31 0 47.5 16t16.5 45q0 17 -3.5 42.5t-7.5 56t-4 61.5q0 92 55.5 142t162.5 50h46z" />
    <glyph glyph-name="braceright" unicode="}" horiz-adv-x="398" 
d="M40 -148v125h33q43 0 63.5 21.5t20.5 66.5q0 21 -3.5 46t-7.5 49t-4 44q0 28 9.5 52.5t25.5 42.5t36 25q-20 7 -36 25t-25.5 42.5t-9.5 52.5q0 20 4 44t7.5 49t3.5 46q0 45 -20.5 66.5t-63.5 21.5h-33v125h46q107 0 162.5 -50t55.5 -142q0 -31 -4 -61.5t-7.5 -56
t-3.5 -42.5q0 -29 16.5 -45t47.5 -16h15v-118h-15q-31 0 -47.5 -16t-16.5 -45q0 -17 3.5 -42.5t7.5 -56t4 -61.5q0 -92 -55.5 -142t-162.5 -50h-46z" />
    <glyph glyph-name="bullet" unicode="&#x2022;" horiz-adv-x="340" 
d="M170 147q-36 0 -65 17t-46.5 46.5t-17.5 65.5t17.5 65t46.5 46.5t65 17.5t65 -17.5t46.5 -46.5t17.5 -65t-17.5 -65.5t-46.5 -46.5t-65 -17z" />
    <glyph glyph-name="guilsinglleft" unicode="&#x2039;" horiz-adv-x="324" 
d="M152 91l-132 194l132 194h137l-127 -194l127 -194h-137z" />
    <glyph glyph-name="guilsinglright" unicode="&#x203a;" horiz-adv-x="324" 
d="M35 91l127 194l-127 194h137l132 -194l-132 -194h-137z" />
    <glyph glyph-name="guillemotleft" unicode="&#xab;" horiz-adv-x="558" 
d="M152 91l-132 194l132 194h137l-127 -194l127 -194h-137zM386 91l-132 194l132 194h137l-127 -194l127 -194h-137z" />
    <glyph glyph-name="guillemotright" unicode="&#xbb;" horiz-adv-x="558" 
d="M35 91l127 194l-127 194h137l132 -194l-132 -194h-137zM269 91l127 194l-127 194h137l132 -194l-132 -194h-137z" />
    <glyph glyph-name="at" unicode="@" horiz-adv-x="1019" 
d="M481 32q-44 0 -81.5 17.5t-65.5 48t-43.5 72t-15.5 89.5t15.5 89.5t43.5 73.5t65 49.5t79 17.5q41 0 74.5 -18t54.5 -50l3 57h127v-281q0 -25 11.5 -40t30.5 -15q23 0 39.5 19.5t26 53t9.5 75.5q0 69 -24.5 126.5t-69.5 99.5t-105.5 64.5t-132.5 22.5q-77 0 -141.5 -25.5
t-112.5 -72.5t-74 -110t-26 -138q0 -59 16.5 -111t47.5 -95t73 -74t94 -47.5t111 -16.5q51 0 104.5 13t99.5 37l50 -101q-53 -32 -118.5 -48t-133.5 -16q-82 0 -154 22.5t-130.5 63.5t-100.5 97.5t-65 126t-23 147.5q0 79 23.5 149.5t66.5 128t102.5 99t132.5 64t155 22.5
q79 0 148.5 -20.5t127 -58.5t99 -90.5t64 -117.5t22.5 -138q0 -79 -25.5 -137t-73 -90.5t-112.5 -32.5q-53 0 -90 21.5t-55 61.5q-21 -40 -58.5 -62t-84.5 -22zM507 157q27 0 48 13.5t33.5 36.5t12.5 53t-12.5 53.5t-33.5 37t-48 13.5t-48 -13.5t-33 -37t-12 -53.5t12 -53
t33 -36.5t48 -13.5z" />
    <glyph glyph-name="periodcentered" unicode="&#xb7;" horiz-adv-x="284" 
d="M142 177q-28 0 -50.5 13.5t-35.5 36t-13 49.5t13 49.5t35.5 36t50.5 13.5t50.5 -13.5t35.5 -36t13 -49.5t-13 -49.5t-35.5 -36t-50.5 -13.5z" />
    <glyph glyph-name="hyphen.aalt" horiz-adv-x="372" 
d="M43 297v140h286v-140h-286z" />
    <glyph glyph-name="endash.aalt" horiz-adv-x="500" 
d="M0 307v120h500v-120h-500z" />
    <glyph glyph-name="emdash.aalt" horiz-adv-x="1000" 
d="M0 307v120h1000v-120h-1000z" />
    <glyph glyph-name="parenleft.aalt" horiz-adv-x="369" 
d="M357 -117h-154q-79 107 -120 227.5t-41 244.5t41 244.5t120 227.5h154q-82 -113 -123.5 -232.5t-41.5 -239.5t41.5 -239.5t123.5 -232.5z" />
    <glyph glyph-name="parenright.aalt" horiz-adv-x="369" 
d="M12 827h154q80 -107 120.5 -227.5t40.5 -244.5t-40.5 -244.5t-120.5 -227.5h-154q82 113 123.5 232.5t41.5 239.5t-41.5 239.5t-123.5 232.5z" />
    <glyph glyph-name="slash.case" horiz-adv-x="494" 
d="M6 -87l333 884h149l-333 -884h-149z" />
    <glyph glyph-name="backslash.aalt" horiz-adv-x="494" 
d="M339 -87l-333 884h149l333 -884h-149z" />
    <glyph glyph-name="bracketleft.aalt" horiz-adv-x="381" 
d="M70 -117v944h271v-125h-127v-694h127v-125h-271z" />
    <glyph glyph-name="bracketright.aalt" horiz-adv-x="381" 
d="M40 -117v125h127v694h-127v125h271v-944h-271z" />
    <glyph glyph-name="braceleft.aalt" horiz-adv-x="398" 
d="M358 827v-125h-33q-43 0 -63.5 -21.5t-20.5 -66.5q0 -21 3.5 -46t7.5 -49t4 -44q0 -28 -9.5 -52.5t-25.5 -42.5t-36 -25q20 -7 36 -25t25.5 -42.5t9.5 -52.5q0 -20 -4 -44t-7.5 -49t-3.5 -46q0 -45 20.5 -66.5t63.5 -21.5h33v-125h-46q-107 0 -162.5 50t-55.5 142
q0 31 4 61.5t7.5 56t3.5 42.5q0 29 -16.5 45t-47.5 16h-15v118h15q31 0 47.5 16t16.5 45q0 17 -3.5 42.5t-7.5 56t-4 61.5q0 92 55.5 142t162.5 50h46z" />
    <glyph glyph-name="braceright.aalt" horiz-adv-x="398" 
d="M40 -117v125h33q43 0 63.5 21.5t20.5 66.5q0 21 -3.5 46t-7.5 49t-4 44q0 28 9.5 52.5t25.5 42.5t36 25q-20 7 -36 25t-25.5 42.5t-9.5 52.5q0 20 4 44t7.5 49t3.5 46q0 45 -20.5 66.5t-63.5 21.5h-33v125h46q107 0 162.5 -50t55.5 -142q0 -31 -4 -61.5t-7.5 -56
t-3.5 -42.5q0 -29 16.5 -45t47.5 -16h15v-118h-15q-31 0 -47.5 -16t-16.5 -45q0 -17 3.5 -42.5t7.5 -56t4 -61.5q0 -92 -55.5 -142t-162.5 -50h-46z" />
    <glyph glyph-name="bullet.aalt" horiz-adv-x="340" 
d="M170 236q-36 0 -65 17t-46.5 46.5t-17.5 65.5t17.5 65t46.5 46.5t65 17.5t65 -17.5t46.5 -46.5t17.5 -65t-17.5 -65.5t-46.5 -46.5t-65 -17z" />
    <glyph glyph-name="guilsinglleft.aalt" horiz-adv-x="324" 
d="M152 161l-132 194l132 194h137l-127 -194l127 -194h-137z" />
    <glyph glyph-name="guilsinglright.aalt" horiz-adv-x="324" 
d="M35 161l127 194l-127 194h137l132 -194l-132 -194h-137z" />
    <glyph glyph-name="guillemotleft.aalt" horiz-adv-x="558" 
d="M152 161l-132 194l132 194h137l-127 -194l127 -194h-137zM386 161l-132 194l132 194h137l-127 -194l127 -194h-137z" />
    <glyph glyph-name="guillemotright.aalt" horiz-adv-x="558" 
d="M35 161l127 194l-127 194h137l132 -194l-132 -194h-137zM269 161l127 194l-127 194h137l132 -194l-132 -194h-137z" />
    <glyph glyph-name="at.aalt" horiz-adv-x="1019" 
d="M481 128q-44 0 -81.5 17.5t-65.5 48t-43.5 72t-15.5 89.5t15.5 89.5t43.5 73.5t65 49.5t79 17.5q41 0 74.5 -18t54.5 -50l3 57h127v-281q0 -25 11.5 -40t30.5 -15q23 0 39.5 19.5t26 53t9.5 75.5q0 69 -24.5 126.5t-69.5 99.5t-105.5 64.5t-132.5 22.5
q-77 0 -141.5 -25.5t-112.5 -72.5t-74 -110t-26 -138q0 -59 16.5 -111t47.5 -95t73 -74t94 -47.5t111 -16.5q51 0 104.5 13t99.5 37l50 -101q-53 -32 -118.5 -48t-133.5 -16q-82 0 -154 22.5t-130.5 63.5t-100.5 97.5t-65 126t-23 147.5q0 79 23.5 149.5t66.5 128t102.5 99
t132.5 64t155 22.5q79 0 148.5 -20.5t127 -58.5t99 -90.5t64 -117.5t22.5 -138q0 -79 -25.5 -137t-73 -90.5t-112.5 -32.5q-53 0 -90 21.5t-55 61.5q-21 -40 -58.5 -62t-84.5 -22zM507 253q27 0 48 13.5t33.5 36.5t12.5 53t-12.5 53.5t-33.5 37t-48 13.5t-48 -13.5t-33 -37
t-12 -53.5t12 -53t33 -36.5t48 -13.5z" />
    <glyph glyph-name="periodcentered.case" horiz-adv-x="284" 
d="M142 279q-28 0 -50.5 13.5t-35.5 36t-13 49.5t13 49.5t35.5 36t50.5 13.5t50.5 -13.5t35.5 -36t13 -49.5t-13 -49.5t-35.5 -36t-50.5 -13.5z" />
    <glyph glyph-name="exclamdown.aalt" horiz-adv-x="276" 
d="M138 524q-26 0 -48 12.5t-34.5 34t-12.5 48.5t12.5 48.5t34.5 34t48 12.5t48 -12.5t34.5 -34t12.5 -48.5t-12.5 -48.5t-34.5 -34t-48 -12.5zM50 0l10 476h156l10 -476h-176z" />
    <glyph glyph-name="questiondown.aalt" horiz-adv-x="554" 
d="M287 524q-27 0 -48.5 12.5t-34 34t-12.5 48.5t12.5 48.5t34 34t48.5 12.5t48.5 -12.5t34 -34t12.5 -48.5t-12.5 -48.5t-34 -34t-48.5 -12.5zM279 -15q-54 0 -99 15.5t-78.5 43.5t-51.5 66.5t-18 84.5q0 49 21.5 90.5t61 72t94.5 47.5v71h156v-150q-83 -20 -123 -51
t-40 -72q0 -32 22.5 -52.5t58.5 -20.5q34 0 59.5 18.5t36.5 50.5l155 -32q-9 -40 -31.5 -73.5t-56 -57.5t-76 -37.5t-91.5 -13.5z" />
    <glyph glyph-name="A" unicode="A" horiz-adv-x="773" 
d="M13 0l281 710h185l281 -710h-180l-50 138h-293l-50 -138h-174zM290 284h187l-94 259z" />
    <glyph glyph-name="B" unicode="B" horiz-adv-x="627" 
d="M60 0v710h270q74 0 128 -22.5t83 -64t29 -98.5q0 -50 -22 -88.5t-63 -60.5q55 -21 85 -66.5t30 -106.5q0 -62 -32.5 -107.5t-92 -70.5t-140.5 -25h-275zM226 572v-144h85q43 0 66 18.5t23 52.5q0 35 -23 54t-66 19h-85zM226 138h102q49 0 75 21t26 60q0 40 -26 61t-75 21
h-102v-163z" />
    <glyph glyph-name="C" unicode="C" horiz-adv-x="748" 
d="M398 -20q-62 0 -116.5 18t-99 51t-76.5 78.5t-49.5 102t-17.5 120.5t17.5 121.5t50 105t77.5 82t99.5 53t115.5 18.5q57 0 108.5 -16t93 -45.5t71 -71t44.5 -93.5l-170 -38q-22 50 -61 77t-89 27q-38 0 -70.5 -16.5t-56.5 -46t-37 -69t-13 -86.5q0 -46 13 -85t37 -67.5
t57 -44t72 -15.5q52 0 91.5 26.5t63.5 77.5l170 -38q-20 -70 -66.5 -120.5t-112.5 -78t-146 -27.5z" />
    <glyph glyph-name="D" unicode="D" horiz-adv-x="767" 
d="M60 0v710h291q83 0 152 -25.5t119.5 -72.5t78 -112t27.5 -144t-27.5 -144t-78 -112.5t-120 -73.5t-153.5 -26h-289zM234 154h106q64 0 110.5 24.5t72 69.5t25.5 107t-25.5 107t-72 69.5t-110.5 24.5h-106v-402z" />
    <glyph glyph-name="E" unicode="E" horiz-adv-x="579" 
d="M60 0v710h459v-145h-289v-130h255v-145h-255v-145h299v-145h-469z" />
    <glyph glyph-name="F" unicode="F" horiz-adv-x="548" 
d="M60 0v710h449v-150h-277v-149h243v-149h-243v-262h-172z" />
    <glyph glyph-name="G" unicode="G" horiz-adv-x="807" 
d="M415 -20q-65 0 -122 18t-103.5 51.5t-80.5 79.5t-52 102.5t-18 121.5t18.5 122t52.5 104t81 80.5t104 52t122 18.5q75 0 138.5 -23.5t111 -68t75.5 -107.5l-170 -49q-24 44 -63.5 67t-91.5 23q-43 0 -79 -16t-62.5 -45t-41.5 -68.5t-15 -86.5q0 -48 15 -88t42.5 -69
t65 -45t82.5 -16q44 0 79.5 15t58.5 43t31 65h-161v140h340v-81q0 -75 -26 -137t-74 -107.5t-113.5 -70.5t-143.5 -25z" />
    <glyph glyph-name="H" unicode="H" horiz-adv-x="752" 
d="M60 0v710h174v-266h284v266h174v-710h-174v290h-284v-290h-174z" />
    <glyph glyph-name="I" unicode="I" horiz-adv-x="294" 
d="M60 0v710h174v-710h-174z" />
    <glyph glyph-name="J" unicode="J" horiz-adv-x="565" 
d="M262 -15q-64 0 -115.5 24t-86.5 70.5t-51 111.5l170 30q10 -39 30 -59.5t50 -20.5q36 0 57 25.5t21 68.5v475h174v-468q0 -57 -18 -104.5t-51 -81.5t-78.5 -52.5t-101.5 -18.5z" />
    <glyph glyph-name="K" unicode="K" horiz-adv-x="715" 
d="M60 0v710h174v-312l238 312h200l-263 -329l299 -381h-222l-252 342v-342h-174z" />
    <glyph glyph-name="L" unicode="L" horiz-adv-x="551" 
d="M60 0v710h174v-556h280v-154h-454z" />
    <glyph glyph-name="M" unicode="M" horiz-adv-x="863" 
d="M60 0v710h170l203 -379l204 379h166v-710h-167v416l-144 -268h-121l-144 268v-416h-167z" />
    <glyph glyph-name="N" unicode="N" horiz-adv-x="742" 
d="M60 0v710h149l306 -434v434h167v-710h-149l-306 434v-434h-167z" />
    <glyph glyph-name="O" unicode="O" horiz-adv-x="828" 
d="M413 -20q-64 0 -121 18t-103 51.5t-80 80t-52 103.5t-18 121t18 121.5t52 104t80.5 80t103.5 52t122 18.5q64 0 121 -18t103 -51.5t80 -80t52 -103.5t18 -121t-18 -121.5t-52 -104t-80.5 -80t-103.5 -52t-122 -18.5zM414 140q42 0 78 16t62 45t40.5 68t14.5 86t-14.5 86
t-40.5 68t-62 45t-78 16t-78 -16t-62 -45t-40.5 -68t-14.5 -86t14.5 -86t40.5 -68t62 -45t78 -16z" />
    <glyph glyph-name="P" unicode="P" horiz-adv-x="610" 
d="M60 0v710h240q90 0 154.5 -29t98.5 -84t34 -133q0 -54 -20.5 -99t-58 -77.5t-89.5 -50t-116 -17.5q-34 0 -72 6v-226h-171zM231 565v-195q35 -5 64 -5q56 0 86.5 25.5t30.5 74.5q0 48 -29.5 74t-85.5 26h-66z" />
    <glyph glyph-name="Q" unicode="Q" horiz-adv-x="828" 
d="M406 -20q-61 0 -116 18t-101 51.5t-79.5 80t-52 103.5t-18.5 121t18.5 121.5t52.5 104t80.5 80t103.5 52t121 18.5t121 -18.5t103 -52t80 -79t52 -101t18 -116.5q0 -75 -27 -141t-73 -117l80 -100l-113 -91l-84 104q-38 -18 -79.5 -28t-86.5 -10zM416 140q29 0 55 7
l-107 133l109 88l107 -133q14 24 21.5 53.5t7.5 63.5q0 48 -14.5 88t-40.5 69t-62 45t-78 16t-78 -16t-62 -45t-40.5 -68t-14.5 -86t14.5 -86t40.5 -68t62 -45t80 -16z" />
    <glyph glyph-name="R" unicode="R" horiz-adv-x="643" 
d="M60 0v710h241q90 0 155 -28t100 -80.5t35 -124.5q0 -40 -14.5 -77t-40.5 -68t-61 -52l157 -280h-190l-117 234q-16 -1 -33 -1q-28 0 -61 5v-238h-171zM231 565v-184q17 -3 34 -4.5t36 -1.5q54 0 84.5 25.5t30.5 70.5t-31 69.5t-87 24.5h-67z" />
    <glyph glyph-name="S" unicode="S" horiz-adv-x="581" 
d="M289 -15q-67 0 -123 23.5t-94 67t-52 104.5l161 32q13 -39 41 -59t68 -20t66 19.5t26 50.5q0 28 -24.5 46t-82.5 31l-27 6q-108 24 -159 79t-51 132q0 50 19.5 91.5t54 72t81.5 47.5t101 17q64 0 116 -23t87 -65.5t48 -101.5l-158 -32q-13 37 -37 55.5t-58 18.5
q-35 0 -58 -18t-23 -47q0 -22 13.5 -35.5t37.5 -22t54 -15.5l26 -6q108 -25 161 -78t53 -135q0 -52 -20 -95t-56 -74.5t-84.5 -48.5t-106.5 -17z" />
    <glyph glyph-name="T" unicode="T" horiz-adv-x="638" 
d="M232 0v556h-194v154h562v-154h-194v-556h-174z" />
    <glyph glyph-name="U" unicode="U" horiz-adv-x="740" 
d="M368 -20q-72 0 -129.5 22t-99 63t-63.5 98.5t-22 128.5v418h174v-410q0 -49 17.5 -85t49 -55.5t75.5 -19.5t75.5 19.5t49 55.5t17.5 85v410h174v-418q0 -71 -22.5 -128.5t-64 -98.5t-100.5 -63t-131 -22z" />
    <glyph glyph-name="V" unicode="V" horiz-adv-x="752" 
d="M281 0l-268 710h193l174 -516l174 516h185l-268 -710h-190z" />
    <glyph glyph-name="W" unicode="W" horiz-adv-x="1058" 
d="M1031 710l-212 -710h-162l-127 481l-127 -481h-164l-212 710h182l118 -481l127 481h156l127 -480l117 480h177z" />
    <glyph glyph-name="X" unicode="X" horiz-adv-x="708" 
d="M7 0l250 375l-220 335h193l126 -215l125 215h189l-220 -337l251 -373h-202l-149 247l-147 -247h-196z" />
    <glyph glyph-name="Y" unicode="Y" horiz-adv-x="684" 
d="M255 0v273l-247 437h197l140 -275l140 275h191l-247 -437v-273h-174z" />
    <glyph glyph-name="Z" unicode="Z" horiz-adv-x="649" 
d="M34 0v123l345 441h-330v146h549v-123l-346 -441h368v-146h-586z" />
    <glyph glyph-name="a" unicode="a" horiz-adv-x="566" 
d="M212 -15q-40 0 -74 12.5t-59 34.5t-39 52.5t-14 66.5q0 51 27.5 90t77 60.5t115.5 21.5q32 0 58 -5t53 -16v27q0 39 -22.5 62.5t-60.5 23.5q-28 0 -51 -13.5t-32 -36.5l-146 25q8 35 29 64t52.5 50t69.5 32.5t81 11.5q53 0 96.5 -16.5t75.5 -47t49 -72t17 -91.5v-321
h-146l-4 63q-20 -35 -60 -56.5t-93 -21.5zM186 161q0 -24 19.5 -39.5t51.5 -15.5q29 0 51.5 12t35.5 33t13 47v5q-18 8 -39 12.5t-42 4.5q-42 0 -66 -16t-24 -43z" />
    <glyph glyph-name="b" unicode="b" horiz-adv-x="647" 
d="M51 0v748h163v-279q27 37 69 58t91 21q51 0 94.5 -21.5t76 -59t51 -88.5t18.5 -109q0 -60 -19 -112t-53 -91t-80 -60.5t-99 -21.5q-51 0 -91.5 21.5t-66.5 60.5l-4 -67h-150zM330 132q34 0 60.5 17.5t42 48t15.5 68.5q0 39 -15.5 69.5t-42 48t-60.5 17.5t-60.5 -17.5
t-42 -48t-15.5 -69.5q0 -38 15.5 -68.5t42 -48t60.5 -17.5z" />
    <glyph glyph-name="c" unicode="c" horiz-adv-x="581" 
d="M304 -15q-58 0 -107.5 20.5t-86 58t-57 88t-20.5 110.5q0 61 21 113t58 91t87.5 60.5t108.5 21.5q61 0 111.5 -23t85 -65t47.5 -99l-158 -26q-13 31 -36 48.5t-53 17.5q-31 0 -54.5 -17.5t-37.5 -48.5t-14 -70t13.5 -69t37.5 -47t55 -17t56.5 17t37.5 49l158 -26
q-9 -42 -32.5 -76.5t-57 -59.5t-75.5 -38t-88 -13z" />
    <glyph glyph-name="d" unicode="d" horiz-adv-x="647" 
d="M273 -15q-51 0 -94.5 21.5t-76 59t-51 88t-18.5 109.5q0 60 19 112t53 91t80 60.5t99 21.5q47 0 85 -18t64 -52v270h163v-748h-150l-5 76q-27 -42 -71 -66.5t-97 -24.5zM317 132q33 0 60 17.5t42.5 48t15.5 69.5t-15.5 69t-42.5 47.5t-60 17.5t-60 -17.5t-42.5 -47.5
t-15.5 -69t15.5 -69.5t42.5 -48t60 -17.5z" />
    <glyph glyph-name="e" unicode="e" horiz-adv-x="596" 
d="M307 -15q-60 0 -110 20.5t-87 58.5t-57 90t-20 114q0 60 20.5 111t57 89t85.5 59t106 21q60 0 109 -20.5t84 -58.5t54 -91t19 -118v-36h-368q10 -49 38 -75.5t71 -26.5q32 0 56.5 13t43.5 39l149 -39q-19 -46 -56.5 -79.5t-87.5 -52t-107 -18.5zM302 426
q-40 0 -66.5 -25.5t-35.5 -72.5h200q-8 47 -33.5 72.5t-64.5 25.5z" />
    <glyph glyph-name="f" unicode="f" horiz-adv-x="422" 
d="M107 0v401h-88v132h88v28q0 45 15 82t42.5 64t65.5 41.5t84 14.5q32 0 59.5 -7t50.5 -19l-29 -121q-11 6 -26 10t-28 4q-35 0 -53 -20.5t-18 -57.5v-19h131v-132h-131v-401h-163z" />
    <glyph glyph-name="g" unicode="g" horiz-adv-x="637" 
d="M267 19q-49 0 -91.5 20.5t-74.5 57t-50 83.5t-18 100q0 55 18.5 103.5t52 85.5t78 58t96.5 21q49 0 89 -20t65 -56l4 61h150v-463q0 -62 -20 -112.5t-57 -87t-88 -56.5t-113 -20q-60 0 -110 18.5t-86 52t-56 78.5l160 34q15 -23 39 -36t55 -13q34 0 59.5 15.5t39.5 43.5
t14 65v41q-27 -35 -67.5 -54.5t-88.5 -19.5zM312 161q32 0 57.5 16t40.5 43.5t15 63.5q0 35 -15 62.5t-40.5 43.5t-57.5 16t-57.5 -16t-40.5 -43.5t-15 -62.5q0 -36 15 -63.5t40.5 -43.5t57.5 -16z" />
    <glyph glyph-name="h" unicode="h" 
d="M51 0v748h163v-273q24 34 61.5 53.5t85.5 19.5q57 0 99.5 -28t66 -78.5t23.5 -119.5v-322h-163v299q0 47 -21.5 74.5t-59.5 27.5q-27 0 -47.5 -13t-32.5 -35.5t-12 -50.5v-302h-163z" />
    <glyph glyph-name="i" unicode="i" horiz-adv-x="265" 
d="M223 673q0 -25 -11.5 -45t-32.5 -32t-47 -12t-46.5 12t-32 32t-11.5 45t11.5 45t32 32t46.5 12t47 -12t32.5 -32t11.5 -45zM51 0v533h163v-533h-163z" />
    <glyph glyph-name="j" unicode="j" horiz-adv-x="270" 
d="M228 673q0 -25 -11.5 -45t-32 -32t-47.5 -12q-26 0 -46.5 12t-32 32t-11.5 45t11.5 45t32 32t46.5 12q27 0 47.5 -12t32 -32t11.5 -45zM31 -206q-58 0 -104 26l29 122q9 -4 22 -7.5t23 -3.5q26 0 40.5 17.5t14.5 49.5v535h163v-543q0 -59 -23.5 -103t-65.5 -68.5
t-99 -24.5z" />
    <glyph glyph-name="k" unicode="k" 
d="M51 0v748h163v-428l176 213h185l-204 -236l228 -297h-201l-184 262v-262h-163z" />
    <glyph glyph-name="l" unicode="l" horiz-adv-x="265" 
d="M51 0v748h163v-748h-163z" />
    <glyph glyph-name="m" unicode="m" horiz-adv-x="925" 
d="M51 0v533h150l5 -70q22 39 61 62t88 23q52 0 92.5 -25.5t63.5 -71.5q25 43 70 70t103 27t101 -28t66 -79.5t23 -122.5v-318h-163v298q0 48 -21 75.5t-58 27.5q-26 0 -45.5 -13t-31 -36t-11.5 -52v-300h-163v298q0 48 -21 75.5t-58 27.5q-26 0 -45.5 -13t-31 -36
t-11.5 -52v-300h-163z" />
    <glyph glyph-name="n" unicode="n" 
d="M51 0v533h150l5 -70q23 39 63 62t92 23q57 0 99.5 -28t66 -78.5t23.5 -119.5v-322h-163v299q0 47 -21.5 74.5t-59.5 27.5q-27 0 -47.5 -13t-32.5 -35.5t-12 -50.5v-302h-163z" />
    <glyph glyph-name="o" unicode="o" horiz-adv-x="634" 
d="M315 -15q-60 0 -111.5 21t-90 59t-59.5 89t-21 111t21.5 111.5t60 90t91 60t113.5 21.5q60 0 111.5 -21t90 -59.5t59.5 -89.5t21 -111t-21.5 -111.5t-60 -89.5t-91 -59.5t-113.5 -21.5zM317 132q33 0 60 17.5t42.5 48t15.5 68.5q0 39 -15.5 69.5t-42.5 48t-60 17.5
t-60 -17.5t-42.5 -48t-15.5 -69.5q0 -38 15.5 -68.5t42.5 -48t60 -17.5z" />
    <glyph glyph-name="p" unicode="p" horiz-adv-x="647" 
d="M51 -191v724h150l5 -76q27 42 71 66.5t97 24.5q51 0 94.5 -21.5t76 -59t51 -88.5t18.5 -109q0 -60 -19 -112t-53 -91t-80 -60.5t-99 -21.5q-47 0 -85 18t-64 52v-246h-163zM330 132q34 0 60.5 17.5t42 48t15.5 68.5q0 39 -15.5 69.5t-42 48t-60.5 17.5t-60.5 -17.5
t-42 -48t-15.5 -69.5q0 -38 15.5 -68.5t42 -48t60.5 -17.5z" />
    <glyph glyph-name="q" unicode="q" horiz-adv-x="647" 
d="M273 -15q-51 0 -94.5 21.5t-76 59t-51 88t-18.5 109.5q0 60 19 112t53 91t80 60.5t99 21.5q51 0 91.5 -21.5t66.5 -60.5l4 67h150v-724h-163v255q-27 -37 -69 -58t-91 -21zM317 132q33 0 60 17.5t42.5 48t15.5 69.5t-15.5 69t-42.5 47.5t-60 17.5t-60 -17.5t-42.5 -47.5
t-15.5 -69t15.5 -69.5t42.5 -48t60 -17.5z" />
    <glyph glyph-name="r" unicode="r" horiz-adv-x="406" 
d="M51 0v533h150l6 -85q19 44 53 68t79 24q13 0 26 -2t23 -7l-16 -162q-11 4 -22.5 5.5t-23.5 1.5q-56 0 -84 -31.5t-28 -91.5v-253h-163z" />
    <glyph glyph-name="s" unicode="s" horiz-adv-x="505" 
d="M253 -15q-58 0 -106 18t-80.5 51t-46.5 78l150 27q9 -23 31.5 -37t52.5 -14q31 0 48.5 12.5t17.5 32.5q0 19 -18.5 30t-63.5 18l-24 4q-87 15 -133.5 57.5t-46.5 108.5q0 39 15.5 71.5t44.5 56t68.5 36.5t86.5 13q55 0 100.5 -17.5t76.5 -49.5t43 -76l-149 -27
q-9 22 -27.5 34.5t-43.5 12.5q-28 0 -43.5 -11.5t-15.5 -30.5q0 -17 17 -27t63 -18l24 -4q89 -15 136 -57.5t47 -108.5q0 -40 -16.5 -74t-46 -58t-71 -37.5t-90.5 -13.5z" />
    <glyph glyph-name="t" unicode="t" horiz-adv-x="449" 
d="M294 -15q-90 0 -138.5 49.5t-48.5 142.5v223h-88v133h88v182h163v-182h137v-133h-137v-203q0 -35 15 -53.5t46 -18.5q16 0 34.5 4.5t35.5 12.5l25 -124q-26 -14 -59 -23.5t-73 -9.5z" />
    <glyph glyph-name="u" unicode="u" horiz-adv-x="598" 
d="M298 -15q-74 0 -130 31.5t-86.5 88.5t-30.5 135v293h163v-296q0 -49 22.5 -77t62.5 -28t62.5 28t22.5 77v296h163v-293q0 -57 -17.5 -104t-50 -81t-78.5 -52t-103 -18z" />
    <glyph glyph-name="v" unicode="v" horiz-adv-x="576" 
d="M205 0l-197 533h179l103 -351l105 351h173l-197 -533h-166z" />
    <glyph glyph-name="w" unicode="w" horiz-adv-x="857" 
d="M184 0l-176 533h170l84 -337l96 337h144l96 -339l87 339h164l-176 -533h-151l-94 334l-95 -334h-149z" />
    <glyph glyph-name="x" unicode="x" horiz-adv-x="597" 
d="M11 0l195 282l-173 251h186l80 -142l83 142h182l-173 -252l195 -281h-195l-94 164l-96 -164h-190z" />
    <glyph glyph-name="y" unicode="y" horiz-adv-x="576" 
d="M155 -206q-29 0 -55 6t-49 19l29 125q11 -5 26.5 -9t29.5 -4q27 0 47 16.5t34 51.5l4 9l-213 525h179l110 -350l98 350h173l-212 -571q-32 -86 -81 -127t-120 -41z" />
    <glyph glyph-name="z" unicode="z" horiz-adv-x="536" 
d="M37 0v108l242 294h-234v131h437v-108l-242 -294h259v-131h-462z" />
    <glyph glyph-name="a.ss01" horiz-adv-x="647" 
d="M273 -15q-51 0 -94.5 21.5t-76 59t-51 88t-18.5 109.5q0 60 19 112t53 91t80 60.5t99 21.5q51 0 91.5 -21.5t66.5 -60.5l4 67h150v-533h-150l-5 76q-27 -42 -71 -66.5t-97 -24.5zM317 132q33 0 60 17.5t42.5 48t15.5 69.5t-15.5 69t-42.5 47.5t-60 17.5t-60 -17.5
t-42.5 -47.5t-15.5 -69t15.5 -69.5t42.5 -48t60 -17.5z" />
    <glyph glyph-name="trademark" unicode="&#x2122;" horiz-adv-x="808" 
d="M121 359v257h-94v94h296v-94h-94v-257h-108zM372 359v351h109l83 -172l82 172h107v-351h-103v189l-53 -116h-69l-53 116v-189h-103z" />
    <glyph glyph-name="ordfeminine.ss01" horiz-adv-x="481" 
d="M318 314l-4 54q-42 -63 -115 -63q-36 0 -67 14.5t-54 41t-36 62t-13 77.5q0 43 13 79.5t37 63.5t55.5 42t69.5 15q69 0 111 -59l3 49h115v-376h-115zM233 417q22 0 39.5 11t27.5 30.5t10 43.5t-10 43.5t-27.5 31t-39.5 11.5q-23 0 -40 -11.5t-27 -31t-10 -43.5t10 -43.5
t27 -30.5t40 -11z" />
    <glyph glyph-name="ordfeminine" unicode="&#xaa;" horiz-adv-x="432" 
d="M163 304q-37 0 -66.5 15t-46.5 41t-17 60q0 36 19 63.5t54 42.5t82 15q21 0 38 -2.5t35 -9.5v18q0 25 -14.5 40.5t-36.5 15.5q-17 0 -31 -9.5t-19 -23.5l-114 18q8 33 31.5 58.5t58.5 39.5t77 14q51 0 89.5 -20t60 -56t21.5 -84v-225h-113l-3 39q-15 -24 -42 -37t-63 -13
zM157 427q0 -16 11.5 -25t30.5 -9q27 0 44.5 17.5t17.5 42.5v3q-22 10 -49 10q-25 0 -40 -10.5t-15 -28.5z" />
    <glyph glyph-name="ordmasculine" unicode="&#xba;" horiz-adv-x="465" 
d="M234 304q-44 0 -81.5 15t-65 42t-43 63t-15.5 78t15.5 78t42.5 63t64 42t81 15t81.5 -15t65 -42t43 -63t15.5 -78t-15.5 -78t-42.5 -63t-64 -42t-81 -15zM233 419q22 0 39 10.5t26.5 29.5t9.5 43t-9.5 43t-26.5 29.5t-39 10.5t-39 -10.5t-26.5 -29.5t-9.5 -43t9.5 -43
t26.5 -29.5t39 -10.5z" />
    <glyph glyph-name="degree" unicode="&#xb0;" horiz-adv-x="382" 
d="M364 585q0 -35 -13.5 -65t-37.5 -53t-55 -36t-67 -13t-67 13t-55 36t-37.5 53t-13.5 65t13.5 65t37.5 53t55 36t67 13t67 -13t55 -36t37.5 -53t13.5 -65zM253 585q0 19 -8 34.5t-22.5 24.5t-31.5 9t-31.5 -9t-22.5 -24.5t-8 -34.5t8 -34.5t22.5 -24.5t31.5 -9t31.5 9
t22.5 24.5t8 34.5z" />
    <glyph glyph-name="copyright" unicode="&#xa9;" horiz-adv-x="840" 
d="M420 -21q-64 0 -121 18.5t-103.5 52.5t-80.5 80.5t-52.5 103.5t-18.5 121t18.5 120.5t52.5 103.5t80.5 80.5t103.5 52t121 18.5t121 -18.5t103.5 -52t80.5 -80.5t52.5 -103.5t18.5 -120.5t-18.5 -121t-52.5 -103.5t-80.5 -80.5t-103.5 -52.5t-121 -18.5zM420 68
q58 0 109 22t89.5 61.5t60 91.5t21.5 112t-21.5 111.5t-60 91t-89.5 61.5t-109 22t-109 -22t-89.5 -61.5t-60 -91t-21.5 -111.5t21.5 -112t60 -91.5t89.5 -61.5t109 -22zM423 157q-42 0 -77.5 15t-62 42t-41.5 63t-15 79q0 44 15 81t42.5 65t64 43.5t78.5 15.5
q43 0 79.5 -17.5t61.5 -48.5t34 -74l-117 -20q-8 22 -23.5 34t-34.5 12q-21 0 -37 -11.5t-25.5 -31.5t-9.5 -46q0 -38 20 -62.5t52 -24.5q20 0 37 11.5t25 34.5l117 -20q-8 -42 -34.5 -73.5t-65 -49t-83.5 -17.5z" />
    <glyph glyph-name="registered" unicode="&#xae;" horiz-adv-x="536" 
d="M268 270q-49 0 -90.5 17t-72.5 47.5t-48 71.5t-17 89t17 89t48 71.5t72.5 47.5t90.5 17t90.5 -17t72.5 -47.5t48 -71.5t17 -89t-17 -89t-48 -71.5t-72.5 -47.5t-90.5 -17zM268 329q35 0 65.5 12.5t53 35t35 53t12.5 65.5t-12.5 65.5t-35 53t-53 35t-65.5 12.5
t-65.5 -12.5t-53 -35t-35 -53t-12.5 -65.5t12.5 -65.5t35 -53t53 -35t65.5 -12.5zM180 381v232h86q46 0 72 -21t26 -57q0 -19 -10 -36.5t-26 -28.5l47 -89h-71l-33 71h-3h-4q-9 0 -19 1v-72h-65zM245 558v-51q5 -1 10 -1.5t12 -0.5q14 0 22 7.5t8 20.5q0 25 -32 25h-20z" />
    <glyph glyph-name="quoteleft" unicode="&#x2018;" horiz-adv-x="257" 
d="M138 401q-30 0 -55 17.5t-39.5 47.5t-14.5 66q0 46 20.5 85t57.5 66t86 38l23 -78q-28 -7 -49.5 -20.5t-34 -32t-12.5 -39.5v-5q12 8 29 8q20 0 36.5 -10t26.5 -27t10 -38t-11.5 -39t-30.5 -28.5t-42 -10.5z" />
    <glyph glyph-name="quoteright" unicode="&#x2019;" horiz-adv-x="257" 
d="M119 715q30 0 54.5 -17.5t39.5 -47.5t15 -66q0 -46 -20.5 -85t-57 -66t-86.5 -38l-23 78q28 7 49.5 20.5t34 32t12.5 39.5v5q-12 -8 -29 -8q-20 0 -36.5 10t-26.5 27t-10 38t11.5 39t30.5 28.5t42 10.5z" />
    <glyph glyph-name="quotesinglbase" unicode="&#x201a;" horiz-adv-x="263" 
d="M131 177q30 0 54.5 -17.5t39.5 -47.5t15 -66q0 -46 -20.5 -85t-57 -66t-86.5 -38l-23 78q28 7 49.5 20.5t34 32t12.5 39.5v5q-12 -8 -29 -8q-20 0 -36.5 10t-26.5 27t-10 38t11.5 39t30.5 28.5t42 10.5z" />
    <glyph glyph-name="quotedblleft" unicode="&#x201c;" horiz-adv-x="488" 
d="M138 401q-30 0 -55 17.5t-39.5 47.5t-14.5 66q0 46 20.5 85t57.5 66t86 38l23 -78q-28 -7 -49.5 -20.5t-34 -32t-12.5 -39.5v-5q12 8 29 8q20 0 36.5 -10t26.5 -27t10 -38t-11.5 -39t-30.5 -28.5t-42 -10.5zM369 401q-30 0 -55 17.5t-39.5 47.5t-14.5 66q0 46 20.5 85
t57.5 66t86 38l23 -78q-28 -7 -49.5 -20.5t-34 -32t-12.5 -39.5v-5q12 8 29 8q20 0 36.5 -10t26.5 -27t10 -38t-11.5 -39t-30.5 -28.5t-42 -10.5z" />
    <glyph glyph-name="quotedblright" unicode="&#x201d;" horiz-adv-x="488" 
d="M119 715q30 0 54.5 -17.5t39.5 -47.5t15 -66q0 -46 -20.5 -85t-57 -66t-86.5 -38l-23 78q28 7 49.5 20.5t34 32t12.5 39.5v5q-12 -8 -29 -8q-20 0 -36.5 10t-26.5 27t-10 38t11.5 39t30.5 28.5t42 10.5zM350 715q30 0 54.5 -17.5t39.5 -47.5t15 -66q0 -46 -20.5 -85
t-57 -66t-86.5 -38l-23 78q28 7 49.5 20.5t34 32t12.5 39.5v5q-12 -8 -29 -8q-20 0 -36.5 10t-26.5 27t-10 38t11.5 39t30.5 28.5t42 10.5z" />
    <glyph glyph-name="quotedblbase" unicode="&#x201e;" horiz-adv-x="495" 
d="M131 177q30 0 54.5 -17.5t39.5 -47.5t15 -66q0 -46 -20.5 -85t-57 -66t-86.5 -38l-23 78q28 7 49.5 20.5t34 32t12.5 39.5v5q-12 -8 -29 -8q-20 0 -36.5 10t-26.5 27t-10 38t11.5 39t30.5 28.5t42 10.5zM363 177q30 0 54.5 -17.5t39.5 -47.5t15 -66q0 -46 -20.5 -85
t-57 -66t-86.5 -38l-23 78q28 7 49.5 20.5t34 32t12.5 39.5v5q-12 -8 -29 -8q-20 0 -36.5 10t-26.5 27t-10 38t11.5 39t30.5 28.5t42 10.5z" />
    <glyph glyph-name="glyph199" horiz-adv-x="138" 
d="M69 298q-22 0 -40 11t-29 29t-11 41t11 41t29 29t40 11t40 -11t29 -29t11 -41t-11 -41t-29 -29t-40 -11z" />
    <glyph glyph-name="glyph200" horiz-adv-x="0" 
d="M-132 321q-24 0 -44 11.5t-31.5 31.5t-11.5 44t11.5 44t31.5 31.5t44 11.5t44 -11.5t31.5 -31.5t11.5 -44t-11.5 -44t-31.5 -31.5t-44 -11.5z" />
    <glyph glyph-name="dotlessi" unicode="&#x131;" horiz-adv-x="265" 
d="M51 0v533h163v-533h-163z" />
    <glyph glyph-name="uni0237" unicode="&#x237;" horiz-adv-x="270" 
d="M31 -206q-58 0 -104 26l29 122q9 -4 22 -7.5t23 -3.5q26 0 40.5 17.5t14.5 49.5v535h163v-543q0 -59 -23.5 -103t-65.5 -68.5t-99 -24.5z" />
    <glyph glyph-name="IJ" unicode="&#x132;" horiz-adv-x="716" 
d="M54 313v397h174v-397h-174zM361 -20q-77 0 -138.5 26t-104 75.5t-62.5 119.5l168 27q16 -42 49.5 -65t78.5 -23q42 0 72.5 19t47 54.5t16.5 83.5v413h174v-414q0 -72 -21.5 -130t-61 -99.5t-95 -64t-123.5 -22.5z" />
    <glyph glyph-name="ij" unicode="&#x133;" 
d="M223 673q0 -25 -11.5 -45t-32.5 -32t-47 -12t-46.5 12t-32 32t-11.5 45t11.5 45t32 32t46.5 12t47 -12t32.5 -32t11.5 -45zM559 673q0 -25 -11.5 -45t-32.5 -32t-47 -12t-46.5 12t-32 32t-11.5 45t11.5 45t32 32t46.5 12t47 -12t32.5 -32t11.5 -45zM240 19
q-57 0 -99.5 27.5t-66 78.5t-23.5 120v288h163v-265q0 -47 21.5 -74.5t59.5 -27.5q27 0 48 13t32.5 35t11.5 51v268h163v-475q0 -60 -18.5 -108.5t-53 -83t-82 -53.5t-105.5 -19q-55 0 -101.5 18t-81 50.5t-52.5 77.5l157 35q13 -23 34 -35t46 -12q43 0 68.5 31t25.5 82v51
q-24 -34 -61.5 -53.5t-85.5 -19.5z" />
    <glyph glyph-name="glyph205" 
d="M240 19q-57 0 -99.5 27.5t-66 78.5t-23.5 120v288h163v-265q0 -47 21.5 -74.5t59.5 -27.5q27 0 48 13t32.5 35t11.5 51v268h163v-475q0 -60 -18.5 -108.5t-53 -83t-82 -53.5t-105.5 -19q-55 0 -101.5 18t-81 50.5t-52.5 77.5l157 35q13 -23 34 -35t46 -12q43 0 68.5 31
t25.5 82v51q-24 -34 -61.5 -53.5t-85.5 -19.5z" />
    <glyph glyph-name="Thorn" unicode="&#xde;" horiz-adv-x="610" 
d="M60 0v710h171v-108h69q90 0 154.5 -29t98.5 -84t34 -133q0 -54 -20.5 -99t-58 -77.5t-89.5 -50t-116 -17.5q-34 0 -72 6v-118h-171zM231 457v-195q35 -5 64 -5q56 0 86.5 25.5t30.5 74.5q0 48 -29.5 74t-85.5 26h-66z" />
    <glyph glyph-name="AE" unicode="&#xc6;" horiz-adv-x="1036" 
d="M13 0l438 710h525v-145h-279v-130h245v-145h-245v-145h289v-145h-459v138h-242l-80 -138h-192zM369 284h158v274z" />
    <glyph glyph-name="OE" unicode="&#x152;" horiz-adv-x="1027" 
d="M416 0q-83 0 -152 25.5t-119.5 72.5t-78 112t-27.5 144t27.5 144t78 112.5t120 73.5t153.5 26h549v-145h-279v-130h245v-145h-245v-145h289v-145h-561zM427 154h91v402h-91q-64 0 -110.5 -24.5t-72 -69.5t-25.5 -107t25.5 -107t72 -69.5t110.5 -24.5z" />
    <glyph glyph-name="uni1E9E" unicode="&#x1e9e;" horiz-adv-x="671" 
d="M398 -15q-33 0 -62.5 6.5t-54.5 16.5l25 140q15 -7 34 -11t36 -4q28 0 50 11t34.5 31.5t12.5 47.5q0 40 -28.5 65.5t-84.5 26.5l-13 97l87 132q-16 12 -37 19t-44 7q-37 0 -65 -17.5t-44 -49.5t-16 -77v-426h-174v418q0 74 22 131t62 96.5t93 59.5t116 20t116 -18.5
t95 -50t70 -69.5l-113 -170q41 -16 71 -45.5t46 -69t16 -85.5q0 -49 -18 -91t-51 -73.5t-79 -49.5t-102 -18z" />
    <glyph glyph-name="thorn" unicode="&#xfe;" horiz-adv-x="647" 
d="M51 -191v939h163v-279q27 37 69 58t91 21q51 0 94.5 -21.5t76 -59t51 -88.5t18.5 -109q0 -60 -19 -112t-53 -91t-80 -60.5t-99 -21.5q-47 0 -85 18t-64 52v-246h-163zM330 132q34 0 60.5 17.5t42 48t15.5 68.5q0 39 -15.5 69.5t-42 48t-60.5 17.5t-60.5 -17.5t-42 -48
t-15.5 -69.5q0 -38 15.5 -68.5t42 -48t60.5 -17.5z" />
    <glyph glyph-name="ae.ss01" horiz-adv-x="971" 
d="M267 -15q-49 0 -91.5 21.5t-74.5 59t-50 88t-18 109.5q0 60 18.5 112t52 91t78 60.5t96.5 21.5q50 0 89.5 -23.5t63.5 -66.5l5 75h119l4 -59q32 39 72.5 56.5t84.5 17.5q51 0 93 -21t72 -59t46 -91t16 -117v-36h-358q9 -49 36.5 -75.5t70.5 -26.5q59 0 92 52l149 -39
q-16 -45 -49.5 -78.5t-77.5 -52.5t-94 -19q-94 0 -153 71l-4 -56h-119l-6 85q-24 -47 -67 -73.5t-96 -26.5zM681 426q-38 0 -63 -25.5t-33 -72.5h190q-7 47 -31.5 72.5t-62.5 25.5zM312 132q32 0 58 17.5t40.5 48t14.5 69.5q0 38 -15 68.5t-40.5 48t-57.5 17.5t-57.5 -17.5
t-40.5 -48t-15 -68.5q0 -39 14.5 -69.5t40.5 -48t58 -17.5z" />
    <glyph glyph-name="ae" unicode="&#xe6;" horiz-adv-x="892" 
d="M232 -15q-43 0 -80 12t-65.5 34.5t-44.5 53.5t-16 69q0 50 27 88t75 59.5t113 21.5q29 0 54 -5t52 -16v27q0 39 -21 62.5t-57 23.5q-27 0 -48.5 -13.5t-29.5 -36.5l-146 25q9 37 30 66t52 49.5t67.5 31.5t75.5 11q51 0 92.5 -18.5t69.5 -52.5q33 33 76.5 52t98.5 19
q57 0 104 -20.5t81 -58.5t53 -91t19 -118v-36h-358q9 -49 36 -75.5t70 -26.5q28 0 52 12.5t41 39.5l149 -39q-18 -46 -55 -79.5t-86 -52t-103 -18.5q-62 0 -111.5 24t-83.5 66q-16 -26 -42 -46t-61.5 -32t-79.5 -12zM603 426q-38 0 -63.5 -25.5t-34.5 -72.5h191
q-7 47 -31.5 72.5t-61.5 25.5zM186 161q0 -24 18 -39.5t49 -15.5q27 0 48 12t33.5 33t12.5 47v5q-17 8 -36.5 12.5t-40.5 4.5q-38 0 -61 -16t-23 -43z" />
    <glyph glyph-name="oe" unicode="&#x153;" horiz-adv-x="981" 
d="M306 -15q-57 0 -106.5 21t-87 59t-58.5 89t-21 111t21.5 111.5t59.5 90t88 60t107 21.5q60 0 109 -23.5t83 -64.5q34 41 83 64.5t111 23.5q57 0 104.5 -20.5t81.5 -58.5t53 -91t19 -118v-36h-358q9 -49 36 -75.5t70 -26.5q29 0 52.5 12.5t40.5 39.5l149 -39
q-19 -46 -55.5 -79.5t-85.5 -52t-104 -18.5q-62 0 -112.5 23.5t-85.5 65.5q-35 -42 -84.5 -65.5t-109.5 -23.5zM692 426q-38 0 -63.5 -25.5t-34.5 -72.5h191q-7 47 -31.5 72.5t-61.5 25.5zM312 132q32 0 57.5 17.5t40.5 48t15 68.5q0 39 -15 69.5t-40.5 48t-57.5 17.5
t-57.5 -17.5t-40.5 -48t-15 -69.5q0 -38 15 -68.5t40.5 -48t57.5 -17.5z" />
    <glyph glyph-name="germandbls" unicode="&#xdf;" horiz-adv-x="623" 
d="M349 -10q-23 0 -46.5 3.5t-42.5 9.5l21 134q10 -4 22.5 -5.5t23.5 -1.5q29 0 50.5 12.5t34 34t12.5 50.5t-14 51.5t-39 34.5t-58 12h-29v130h19q25 0 44.5 11t31 29.5t11.5 40.5t-11 40t-30 28.5t-44 10.5q-26 0 -46.5 -12.5t-32.5 -36.5t-12 -58v-508h-163v503
q0 58 18 105.5t52 82t80.5 53t103.5 18.5q53 0 98 -15.5t78.5 -43.5t52 -65.5t18.5 -81.5q0 -48 -22 -88.5t-60 -66.5q36 -13 63 -41t42 -65.5t15 -81.5q0 -48 -18 -88.5t-50.5 -71t-76.5 -47t-96 -16.5z" />
    <glyph glyph-name="kgreenlandic" unicode="&#x138;" 
d="M51 0v533h163v-222l176 222h185l-204 -244l228 -289h-201l-184 253v-253h-163z" />
    <glyph glyph-name="Eng" unicode="&#x14a;" horiz-adv-x="742" 
d="M60 0v710h149l306 -434v434h167v-696q0 -66 -26.5 -115.5t-74 -77t-111.5 -27.5q-40 0 -73.5 12t-52.5 25l36 121q13 -6 31.5 -11t34.5 -5q31 0 50 19.5t19 53.5v17l-288 408v-434h-167z" />
    <glyph glyph-name="eng" unicode="&#x14b;" 
d="M51 0v533h150l5 -70q23 39 63 62t92 23q57 0 99.5 -28t66 -78.5t23.5 -119.5v-332q0 -59 -22.5 -103t-63.5 -68.5t-96 -24.5q-58 0 -101 23l28 123q10 -4 21.5 -6.5t20.5 -2.5q24 0 37 17t13 50v301q0 47 -21.5 74.5t-59.5 27.5q-27 0 -47.5 -13t-32.5 -35.5t-12 -50.5
v-302h-163z" />
    <glyph glyph-name="Eth" unicode="&#xd0;" horiz-adv-x="777" 
d="M70 0v298h-74v129h74v283h291q83 0 152 -25.5t119.5 -72.5t78 -112t27.5 -144t-27.5 -144t-78 -112.5t-120 -73.5t-153.5 -26h-289zM244 154h106q64 0 110.5 24.5t72 69.5t25.5 107t-25.5 107t-72 69.5t-110.5 24.5h-106v-129h132v-129h-132v-144z" />
    <glyph glyph-name="Dcroat" unicode="&#x110;" horiz-adv-x="777" 
d="M70 0v298h-74v129h74v283h291q83 0 152 -25.5t119.5 -72.5t78 -112t27.5 -144t-27.5 -144t-78 -112.5t-120 -73.5t-153.5 -26h-289zM244 154h106q64 0 110.5 24.5t72 69.5t25.5 107t-25.5 107t-72 69.5t-110.5 24.5h-106v-129h132v-129h-132v-144z" />
    <glyph glyph-name="Hbar" unicode="&#x126;" horiz-adv-x="772" 
d="M70 0v523h-74v109h74v78h174v-78h284v78h174v-78h74v-109h-74v-523h-174v279h-284v-279h-174zM244 433h284v90h-284v-90z" />
    <glyph glyph-name="Tbar" unicode="&#x166;" horiz-adv-x="638" 
d="M232 0v255h-120v129h120v172h-194v154h562v-154h-194v-172h120v-129h-120v-255h-174z" />
    <glyph glyph-name="Lslash" unicode="&#x141;" horiz-adv-x="561" 
d="M70 0v203l-74 -53v149l74 54v357h174v-231l120 87v-150l-120 -87v-175h280v-154h-454z" />
    <glyph glyph-name="Oslash" unicode="&#xd8;" horiz-adv-x="828" 
d="M198 -35h-150l95 128q-48 50 -76 117t-28 144q0 64 18 121.5t52 104t80.5 80t103.5 52t122 18.5q47 0 90.5 -10.5t82.5 -30.5l42 56h150l-95 -128q48 -50 76 -117t28 -144q0 -64 -18 -121.5t-52 -104t-80.5 -80t-103.5 -52t-122 -18.5q-47 0 -90.5 10.5t-82.5 30.5z
M212 355q0 -36 8.5 -68t24.5 -58l248 332q-37 16 -79 16q-44 0 -81 -16.5t-64 -46t-42 -70.5t-15 -89zM414 133q44 0 81 16.5t64 46t42 70.5t15 89q0 36 -8.5 68t-24.5 58l-248 -332q37 -16 79 -16z" />
    <glyph glyph-name="eth" unicode="&#xf0;" horiz-adv-x="640" 
d="M314 -15q-60 0 -111.5 20.5t-89.5 57t-59 86t-21 108.5q0 55 19.5 104t53.5 86t79.5 58t96.5 21q40 0 73.5 -13t57.5 -37q-28 60 -74 119l-98 -44l-39 86l71 32q-34 33 -70 60l161 37q23 -16 44 -36l86 39l39 -86l-58 -26q39 -52 68 -111.5t44.5 -122t15.5 -123.5
q0 -70 -21 -128t-59.5 -100t-91.5 -64.5t-117 -22.5zM318 132q34 0 60.5 17t41.5 46t15 67t-15 67t-41.5 45.5t-60.5 16.5t-61 -17t-42.5 -46t-15.5 -66q0 -38 15.5 -67t42.5 -46t61 -17z" />
    <glyph glyph-name="dcroat" unicode="&#x111;" horiz-adv-x="647" 
d="M273 -15q-51 0 -94.5 21t-76 58t-51 87t-18.5 107q0 59 19 110t53 89t80 59.5t99 21.5q47 0 85 -18t64 -51v118h-124v99h124v62h163v-62h65v-99h-65v-587h-150l-5 74q-27 -41 -71 -65t-97 -24zM317 132q33 0 60 17t42.5 46t15.5 67q0 37 -15.5 66t-42.5 46t-60 17
t-60 -17t-42.5 -46t-15.5 -66q0 -38 15.5 -67t42.5 -46t60 -17z" />
    <glyph glyph-name="hbar" unicode="&#x127;" 
d="M51 0v587h-65v99h65v62h163v-62h124v-99h-124v-122q24 34 61.5 53.5t85.5 19.5q57 0 99.5 -28t66 -78.5t23.5 -119.5v-312h-163v289q0 47 -21.5 74.5t-59.5 27.5q-27 0 -47.5 -13t-32.5 -35.5t-12 -50.5v-292h-163z" />
    <glyph glyph-name="tbar" unicode="&#x167;" horiz-adv-x="449" 
d="M29 232v94h78v82h-88v125h88v182h163v-182h137v-125h-137v-82h127v-94h-127v-38q0 -34 15 -53t46 -19q16 0 34.5 5t35.5 12l25 -121q-26 -14 -59 -23.5t-73 -9.5q-90 0 -138.5 49.5t-48.5 142.5v55h-78z" />
    <glyph glyph-name="lslash" unicode="&#x142;" horiz-adv-x="316" 
d="M77 0v246l-69 -52v130l69 52v372h163v-251l68 51v-130l-68 -51v-367h-163z" />
    <glyph glyph-name="oslash" unicode="&#xf8;" horiz-adv-x="634" 
d="M165 -25h-125l71 96q-37 37 -57.5 87t-20.5 107q0 60 21.5 111.5t60 90t91 60t113.5 21.5q33 0 64 -7t59 -20l27 37h125l-71 -96q37 -38 57.5 -88t20.5 -107q0 -60 -21.5 -111.5t-60 -89.5t-91 -59.5t-113.5 -21.5q-33 0 -64 7t-59 20zM189 266q0 -38 14 -69l153 208
q-19 6 -39 6q-37 0 -65.5 -18.5t-45.5 -51.5t-17 -75zM317 122q37 0 65.5 18.5t45.5 51t17 74.5q0 38 -15 70l-152 -208q19 -6 39 -6z" />
    <glyph glyph-name="uni0327" unicode="&#x327;" horiz-adv-x="0" 
d="M-42 11h99l-17 -49q31 -11 49 -34t18 -52q0 -30 -19 -53.5t-51.5 -37t-75.5 -13.5q-22 0 -43.5 4t-41.5 12l13 81q14 -5 27.5 -7.5t23.5 -2.5q20 0 31.5 8t11.5 22q0 15 -15.5 23t-43.5 8z" />
    <glyph glyph-name="glyph234" horiz-adv-x="0" 
d="M-43 10h104l-19 -54q31 -11 49 -35.5t18 -54.5q0 -31 -19 -55t-52.5 -38t-77.5 -14q-23 0 -45.5 4.5t-44.5 11.5l15 85q13 -4 27 -7t24 -3q20 0 31.5 8t11.5 22t-15.5 22.5t-43.5 8.5z" />
    <glyph glyph-name="cedilla" unicode="&#xb8;" 
d="M267 11h99l-17 -49q31 -11 49 -34t18 -52q0 -30 -19 -53.5t-51.5 -37t-75.5 -13.5q-22 0 -43.5 4t-41.5 12l13 81q14 -5 27.5 -7.5t23.5 -2.5q20 0 31.5 8t11.5 22q0 15 -15.5 23t-43.5 8z" />
    <glyph glyph-name="uni0326" unicode="&#x326;" horiz-adv-x="0" 
d="M-36 -273l-23 59q22 7 37.5 19t21.5 26q-9 -4 -20 -4q-25 0 -42 16.5t-17 42.5q0 27 20.5 45t52.5 18q25 0 44.5 -11.5t30.5 -31t11 -44.5q0 -46 -31 -82t-85 -53z" />
    <glyph glyph-name="glyph237" horiz-adv-x="0" 
d="M-38 -284l-23 59q49 16 60 46q-8 -4 -20 -4q-25 0 -43 16.5t-18 43.5q0 19 10 33.5t27 23t39 8.5q26 0 45.5 -11.5t31 -31.5t11.5 -45q0 -47 -32 -84.5t-88 -53.5z" />
    <glyph glyph-name="uni0312" unicode="&#x312;" horiz-adv-x="0" 
d="M7 581q-25 0 -44.5 11.5t-30.5 31t-11 44.5q0 46 31 82t85 53l23 -59q-22 -7 -37.5 -19t-21.5 -26q9 4 20 4q25 0 42 -16.5t17 -42.5q0 -27 -21 -45t-52 -18z" />
    <glyph glyph-name="uni0328" unicode="&#x328;" horiz-adv-x="0" 
d="M-80 -226q-60 0 -94.5 26t-34.5 68q0 39 31.5 77t97.5 80l80 -25q-45 -36 -64.5 -59.5t-19.5 -40.5q0 -14 10 -22.5t29 -8.5q9 0 21.5 2.5t20.5 6.5l11 -86q-40 -18 -88 -18z" />
    <glyph glyph-name="glyph240" horiz-adv-x="0" 
d="M-82 -230q-61 0 -96 26.5t-35 71.5q0 38 30.5 76.5t97.5 81.5l85 -26q-45 -36 -64.5 -59.5t-19.5 -40.5q0 -14 10 -22.5t27 -8.5q11 0 23 2.5t21 6.5l11 -90q-48 -18 -90 -18z" />
    <glyph glyph-name="glyph241" horiz-adv-x="0" 
d="M-80 -226q-40 0 -68.5 12.5t-44.5 34.5t-16 51q0 39 31 79.5t98 86.5l97 19q-54 -55 -77.5 -90t-23.5 -60q0 -18 10 -28t30 -10q9 0 20.5 2.5t20.5 6.5l11 -86q-44 -18 -88 -18z" />
    <glyph glyph-name="glyph242" horiz-adv-x="0" 
d="M-82 -230q-40 0 -69.5 12.5t-45.5 35t-16 52.5q0 40 31 81.5t98 88.5l101 19q-53 -53 -77 -90t-24 -62q0 -17 10 -27.5t29 -10.5q8 0 20.5 2.5t21.5 6.5l11 -90q-45 -18 -90 -18z" />
    <glyph glyph-name="ogonek" unicode="&#x2db;" 
d="M321 -226q-60 0 -94.5 26t-34.5 68q0 39 31.5 77t97.5 80l80 -25q-45 -36 -64.5 -59.5t-19.5 -40.5q0 -14 10 -22.5t29 -8.5q9 0 21.5 2.5t20.5 6.5l11 -86q-40 -18 -88 -18z" />
    <glyph glyph-name="Ccedilla" unicode="&#xc7;" horiz-adv-x="748" 
d="M398 -20q-62 0 -116.5 18t-99 51t-76.5 78.5t-49.5 102t-17.5 120.5t17.5 121.5t50 105t77.5 82t99.5 53t115.5 18.5q57 0 108.5 -16t93 -45.5t71 -71t44.5 -93.5l-170 -38q-22 50 -61 77t-89 27q-38 0 -70.5 -16.5t-56.5 -46t-37 -69t-13 -86.5q0 -46 13 -85t37 -67.5
t57 -44t72 -15.5q52 0 91.5 26.5t63.5 77.5l170 -38q-20 -70 -66.5 -120.5t-112.5 -78t-146 -27.5zM355 10h104l-19 -54q31 -11 49 -35.5t18 -54.5q0 -31 -19 -55t-52.5 -38t-77.5 -14q-23 0 -45.5 4.5t-44.5 11.5l15 85q13 -4 27 -7t24 -3q20 0 31.5 8t11.5 22t-15.5 22.5
t-43.5 8.5z" />
    <glyph glyph-name="Scedilla" unicode="&#x15e;" horiz-adv-x="581" 
d="M289 -15q-67 0 -123 23.5t-94 67t-52 104.5l161 32q13 -39 41 -59t68 -20t66 19.5t26 50.5q0 28 -24.5 46t-82.5 31l-27 6q-108 24 -159 79t-51 132q0 50 19.5 91.5t54 72t81.5 47.5t101 17q64 0 116 -23t87 -65.5t48 -101.5l-158 -32q-13 37 -37 55.5t-58 18.5
q-35 0 -58 -18t-23 -47q0 -22 13.5 -35.5t37.5 -22t54 -15.5l26 -6q108 -25 161 -78t53 -135q0 -52 -20 -95t-56 -74.5t-84.5 -48.5t-106.5 -17zM246 10h104l-19 -54q31 -11 49 -35.5t18 -54.5q0 -31 -19 -55t-52.5 -38t-77.5 -14q-23 0 -45.5 4.5t-44.5 11.5l15 85
q13 -4 27 -7t24 -3q20 0 31.5 8t11.5 22t-15.5 22.5t-43.5 8.5z" />
    <glyph glyph-name="uni0122" unicode="&#x122;" horiz-adv-x="807" 
d="M415 -20q-65 0 -122 18t-103.5 51.5t-80.5 79.5t-52 102.5t-18 121.5t18.5 122t52.5 104t81 80.5t104 52t122 18.5q75 0 138.5 -23.5t111 -68t75.5 -107.5l-170 -49q-24 44 -63.5 67t-91.5 23q-43 0 -79 -16t-62.5 -45t-41.5 -68.5t-15 -86.5q0 -48 15 -88t42.5 -69
t65 -45t82.5 -16q44 0 79.5 15t58.5 43t31 65h-161v140h340v-81q0 -75 -26 -137t-74 -107.5t-113.5 -70.5t-143.5 -25zM381 -284l-23 59q49 16 60 46q-8 -4 -20 -4q-25 0 -43 16.5t-18 43.5q0 19 10 33.5t27 23t39 8.5q26 0 45.5 -11.5t31 -31.5t11.5 -45q0 -47 -32 -84.5
t-88 -53.5z" />
    <glyph glyph-name="uni0136" unicode="&#x136;" horiz-adv-x="715" 
d="M60 0v710h174v-312l238 312h200l-263 -329l299 -381h-222l-252 342v-342h-174zM315 -284l-23 59q49 16 60 46q-8 -4 -20 -4q-25 0 -43 16.5t-18 43.5q0 19 10 33.5t27 23t39 8.5q26 0 45.5 -11.5t31 -31.5t11.5 -45q0 -47 -32 -84.5t-88 -53.5z" />
    <glyph glyph-name="uni013B" unicode="&#x13b;" horiz-adv-x="551" 
d="M60 0v710h174v-556h280v-154h-454zM248 -284l-23 59q49 16 60 46q-8 -4 -20 -4q-25 0 -43 16.5t-18 43.5q0 19 10 33.5t27 23t39 8.5q26 0 45.5 -11.5t31 -31.5t11.5 -45q0 -47 -32 -84.5t-88 -53.5z" />
    <glyph glyph-name="uni0145" unicode="&#x145;" horiz-adv-x="742" 
d="M60 0v710h149l306 -434v434h167v-710h-149l-306 434v-434h-167zM333 -284l-23 59q49 16 60 46q-8 -4 -20 -4q-25 0 -43 16.5t-18 43.5q0 19 10 33.5t27 23t39 8.5q26 0 45.5 -11.5t31 -31.5t11.5 -45q0 -47 -32 -84.5t-88 -53.5z" />
    <glyph glyph-name="uni0218" unicode="&#x218;" horiz-adv-x="581" 
d="M289 -15q-67 0 -123 23.5t-94 67t-52 104.5l161 32q13 -39 41 -59t68 -20t66 19.5t26 50.5q0 28 -24.5 46t-82.5 31l-27 6q-108 24 -159 79t-51 132q0 50 19.5 91.5t54 72t81.5 47.5t101 17q64 0 116 -23t87 -65.5t48 -101.5l-158 -32q-13 37 -37 55.5t-58 18.5
q-35 0 -58 -18t-23 -47q0 -22 13.5 -35.5t37.5 -22t54 -15.5l26 -6q108 -25 161 -78t53 -135q0 -52 -20 -95t-56 -74.5t-84.5 -48.5t-106.5 -17zM251 -284l-23 59q49 16 60 46q-8 -4 -20 -4q-25 0 -43 16.5t-18 43.5q0 19 10 33.5t27 23t39 8.5q26 0 45.5 -11.5t31 -31.5
t11.5 -45q0 -47 -32 -84.5t-88 -53.5z" />
    <glyph glyph-name="uni021A" unicode="&#x21a;" horiz-adv-x="638" 
d="M232 0v556h-194v154h562v-154h-194v-556h-174zM280 -284l-23 59q49 16 60 46q-8 -4 -20 -4q-25 0 -43 16.5t-18 43.5q0 19 10 33.5t27 23t39 8.5q26 0 45.5 -11.5t31 -31.5t11.5 -45q0 -47 -32 -84.5t-88 -53.5z" />
    <glyph glyph-name="Aogonek" unicode="&#x104;" horiz-adv-x="773" 
d="M13 0l281 710h185l281 -710h-180l-50 138h-293l-50 -138h-174zM290 284h187l-94 259zM678 -230q-61 0 -96 26.5t-35 71.5q0 38 30.5 76.5t97.5 81.5l85 -26q-45 -36 -64.5 -59.5t-19.5 -40.5q0 -14 10 -22.5t27 -8.5q11 0 23 2.5t21 6.5l11 -90q-48 -18 -90 -18z" />
    <glyph glyph-name="Eogonek" unicode="&#x118;" horiz-adv-x="579" 
d="M60 0v710h459v-145h-289v-130h255v-145h-255v-145h299v-145h-469zM448 -230q-61 0 -96 26.5t-35 71.5q0 38 30.5 76.5t97.5 81.5l85 -26q-45 -36 -64.5 -59.5t-19.5 -40.5q0 -14 10 -22.5t27 -8.5q11 0 23 2.5t21 6.5l11 -90q-48 -18 -90 -18z" />
    <glyph glyph-name="Iogonek" unicode="&#x12e;" horiz-adv-x="294" 
d="M60 0v710h174v-710h-174zM152 -230q-61 0 -96 26.5t-35 71.5q0 38 30.5 76.5t97.5 81.5l85 -26q-45 -36 -64.5 -59.5t-19.5 -40.5q0 -14 10 -22.5t27 -8.5q11 0 23 2.5t21 6.5l11 -90q-48 -18 -90 -18z" />
    <glyph glyph-name="Uogonek" unicode="&#x172;" horiz-adv-x="740" 
d="M368 -20q-72 0 -129.5 22t-99 63t-63.5 98.5t-22 128.5v418h174v-410q0 -49 17.5 -85t49 -55.5t75.5 -19.5t75.5 19.5t49 55.5t17.5 85v410h174v-418q0 -71 -22.5 -128.5t-64 -98.5t-100.5 -63t-131 -22zM491 -230q-40 0 -69.5 12.5t-45.5 35t-16 52.5q0 40 31 81.5
t98 88.5l101 19q-53 -53 -77 -90t-24 -62q0 -17 10 -27.5t29 -10.5q8 0 20.5 2.5t21.5 6.5l11 -90q-45 -18 -90 -18z" />
    <glyph glyph-name="ccedilla" unicode="&#xe7;" horiz-adv-x="581" 
d="M304 -15q-58 0 -107.5 20.5t-86 58t-57 88t-20.5 110.5q0 61 21 113t58 91t87.5 60.5t108.5 21.5q61 0 111.5 -23t85 -65t47.5 -99l-158 -26q-13 31 -36 48.5t-53 17.5q-31 0 -54.5 -17.5t-37.5 -48.5t-14 -70t13.5 -69t37.5 -47t55 -17t56.5 17t37.5 49l158 -26
q-9 -42 -32.5 -76.5t-57 -59.5t-75.5 -38t-88 -13zM264 11h99l-17 -49q31 -11 49 -34t18 -52q0 -30 -19 -53.5t-51.5 -37t-75.5 -13.5q-22 0 -43.5 4t-41.5 12l13 81q14 -5 27.5 -7.5t23.5 -2.5q20 0 31.5 8t11.5 22q0 15 -15.5 23t-43.5 8z" />
    <glyph glyph-name="scedilla" unicode="&#x15f;" horiz-adv-x="505" 
d="M253 -15q-58 0 -106 18t-80.5 51t-46.5 78l150 27q9 -23 31.5 -37t52.5 -14q31 0 48.5 12.5t17.5 32.5q0 19 -18.5 30t-63.5 18l-24 4q-87 15 -133.5 57.5t-46.5 108.5q0 39 15.5 71.5t44.5 56t68.5 36.5t86.5 13q55 0 100.5 -17.5t76.5 -49.5t43 -76l-149 -27
q-9 22 -27.5 34.5t-43.5 12.5q-28 0 -43.5 -11.5t-15.5 -30.5q0 -17 17 -27t63 -18l24 -4q89 -15 136 -57.5t47 -108.5q0 -40 -16.5 -74t-46 -58t-71 -37.5t-90.5 -13.5zM209 11h99l-17 -49q31 -11 49 -34t18 -52q0 -30 -19 -53.5t-51.5 -37t-75.5 -13.5q-22 0 -43.5 4
t-41.5 12l13 81q14 -5 27.5 -7.5t23.5 -2.5q20 0 31.5 8t11.5 22q0 15 -15.5 23t-43.5 8z" />
    <glyph glyph-name="uni0123" unicode="&#x123;" horiz-adv-x="637" 
d="M267 19q-49 0 -91.5 20.5t-74.5 57t-50 83.5t-18 100q0 55 18.5 103.5t52 85.5t78 58t96.5 21q49 0 89 -20t65 -56l4 61h150v-463q0 -62 -20 -112.5t-57 -87t-88 -56.5t-113 -20q-60 0 -110 18.5t-86 52t-56 78.5l160 34q15 -23 39 -36t55 -13q34 0 59.5 15.5t39.5 43.5
t14 65v41q-27 -35 -67.5 -54.5t-88.5 -19.5zM312 161q32 0 57.5 16t40.5 43.5t15 63.5q0 35 -15 62.5t-40.5 43.5t-57.5 16t-57.5 -16t-40.5 -43.5t-15 -62.5q0 -36 15 -63.5t40.5 -43.5t57.5 -16zM316 581q-25 0 -44.5 11.5t-30.5 31t-11 44.5q0 46 31 82t85 53l23 -59
q-22 -7 -37.5 -19t-21.5 -26q9 4 20 4q25 0 42 -16.5t17 -42.5q0 -27 -21 -45t-52 -18z" />
    <glyph glyph-name="uni0137" unicode="&#x137;" 
d="M51 0v748h163v-428l176 213h185l-204 -236l228 -297h-201l-184 262v-262h-163zM259 -273l-23 59q22 7 37.5 19t21.5 26q-9 -4 -20 -4q-25 0 -42 16.5t-17 42.5q0 27 20.5 45t52.5 18q25 0 44.5 -11.5t30.5 -31t11 -44.5q0 -46 -31 -82t-85 -53z" />
    <glyph glyph-name="uni013C" unicode="&#x13c;" horiz-adv-x="265" 
d="M51 0v748h163v-748h-163zM95 -273l-23 59q22 7 37.5 19t21.5 26q-9 -4 -20 -4q-25 0 -42 16.5t-17 42.5q0 27 20.5 45t52.5 18q25 0 44.5 -11.5t30.5 -31t11 -44.5q0 -46 -31 -82t-85 -53z" />
    <glyph glyph-name="uni0146" unicode="&#x146;" 
d="M51 0v533h150l5 -70q23 39 63 62t92 23q57 0 99.5 -28t66 -78.5t23.5 -119.5v-322h-163v299q0 47 -21.5 74.5t-59.5 27.5q-27 0 -47.5 -13t-32.5 -35.5t-12 -50.5v-302h-163zM264 -273l-23 59q22 7 37.5 19t21.5 26q-9 -4 -20 -4q-25 0 -42 16.5t-17 42.5q0 27 20.5 45
t52.5 18q25 0 44.5 -11.5t30.5 -31t11 -44.5q0 -46 -31 -82t-85 -53z" />
    <glyph glyph-name="uni0219" unicode="&#x219;" horiz-adv-x="505" 
d="M253 -15q-58 0 -106 18t-80.5 51t-46.5 78l150 27q9 -23 31.5 -37t52.5 -14q31 0 48.5 12.5t17.5 32.5q0 19 -18.5 30t-63.5 18l-24 4q-87 15 -133.5 57.5t-46.5 108.5q0 39 15.5 71.5t44.5 56t68.5 36.5t86.5 13q55 0 100.5 -17.5t76.5 -49.5t43 -76l-149 -27
q-9 22 -27.5 34.5t-43.5 12.5q-28 0 -43.5 -11.5t-15.5 -30.5q0 -17 17 -27t63 -18l24 -4q89 -15 136 -57.5t47 -108.5q0 -40 -16.5 -74t-46 -58t-71 -37.5t-90.5 -13.5zM215 -273l-23 59q22 7 37.5 19t21.5 26q-9 -4 -20 -4q-25 0 -42 16.5t-17 42.5q0 27 20.5 45t52.5 18
q25 0 44.5 -11.5t30.5 -31t11 -44.5q0 -46 -31 -82t-85 -53z" />
    <glyph glyph-name="uni021B" unicode="&#x21b;" horiz-adv-x="449" 
d="M294 -15q-90 0 -138.5 49.5t-48.5 142.5v223h-88v133h88v182h163v-182h137v-133h-137v-203q0 -35 15 -53.5t46 -18.5q16 0 34.5 4.5t35.5 12.5l25 -124q-26 -14 -59 -23.5t-73 -9.5zM219 -273l-23 59q22 7 37.5 19t21.5 26q-9 -4 -20 -4q-25 0 -42 16.5t-17 42.5
q0 27 20.5 45t52.5 18q25 0 44.5 -11.5t30.5 -31t11 -44.5q0 -46 -31 -82t-85 -53z" />
    <glyph glyph-name="aogonek.ss01" horiz-adv-x="647" 
d="M273 -15q-51 0 -94.5 21.5t-76 59t-51 88t-18.5 109.5q0 60 19 112t53 91t80 60.5t99 21.5q51 0 91.5 -21.5t66.5 -60.5l4 67h150v-533h-150l-5 76q-27 -42 -71 -66.5t-97 -24.5zM317 132q33 0 60 17.5t42.5 48t15.5 69.5t-15.5 69t-42.5 47.5t-60 17.5t-60 -17.5
t-42.5 -47.5t-15.5 -69t15.5 -69.5t42.5 -48t60 -17.5zM516 -226q-60 0 -94.5 26t-34.5 68q0 39 31.5 77t97.5 80l80 -25q-45 -36 -64.5 -59.5t-19.5 -40.5q0 -14 10 -22.5t29 -8.5q9 0 21.5 2.5t20.5 6.5l11 -86q-40 -18 -88 -18z" />
    <glyph glyph-name="aogonek" unicode="&#x105;" horiz-adv-x="566" 
d="M212 -15q-40 0 -74 12.5t-59 34.5t-39 52.5t-14 66.5q0 51 27.5 90t77 60.5t115.5 21.5q32 0 58 -5t53 -16v27q0 39 -22.5 62.5t-60.5 23.5q-28 0 -51 -13.5t-32 -36.5l-146 25q8 35 29 64t52.5 50t69.5 32.5t81 11.5q53 0 96.5 -16.5t75.5 -47t49 -72t17 -91.5v-321
h-146l-4 63q-20 -35 -60 -56.5t-93 -21.5zM186 161q0 -24 19.5 -39.5t51.5 -15.5q29 0 51.5 12t35.5 33t13 47v5q-18 8 -39 12.5t-42 4.5q-42 0 -66 -16t-24 -43zM435 -226q-60 0 -94.5 26t-34.5 68q0 39 31.5 77t97.5 80l80 -25q-45 -36 -64.5 -59.5t-19.5 -40.5
q0 -14 10 -22.5t29 -8.5q9 0 21.5 2.5t20.5 6.5l11 -86q-40 -18 -88 -18z" />
    <glyph glyph-name="eogonek" unicode="&#x119;" horiz-adv-x="596" 
d="M307 -15q-60 0 -110 20.5t-87 58.5t-57 90t-20 114q0 60 20.5 111t57 89t85.5 59t106 21q60 0 109 -20.5t84 -58.5t54 -91t19 -118v-36h-368q10 -49 38 -75.5t71 -26.5q32 0 56.5 13t43.5 39l149 -39q-19 -46 -56.5 -79.5t-87.5 -52t-107 -18.5zM302 426
q-40 0 -66.5 -25.5t-35.5 -72.5h200q-8 47 -33.5 72.5t-64.5 25.5zM402 -226q-40 0 -68.5 12.5t-44.5 34.5t-16 51q0 39 31 79.5t98 86.5l97 19q-54 -55 -77.5 -90t-23.5 -60q0 -18 10 -28t30 -10q9 0 20.5 2.5t20.5 6.5l11 -86q-44 -18 -88 -18z" />
    <glyph glyph-name="iogonek" unicode="&#x12f;" horiz-adv-x="265" 
d="M223 673q0 -25 -11.5 -45t-32.5 -32t-47 -12t-46.5 12t-32 32t-11.5 45t11.5 45t32 32t46.5 12t47 -12t32.5 -32t11.5 -45zM51 0v533h163v-533h-163zM134 -226q-60 0 -94.5 26t-34.5 68q0 39 31.5 77t97.5 80l80 -25q-45 -36 -64.5 -59.5t-19.5 -40.5q0 -14 10 -22.5
t29 -8.5q9 0 21.5 2.5t20.5 6.5l11 -86q-40 -18 -88 -18z" />
    <glyph glyph-name="uogonek" unicode="&#x173;" horiz-adv-x="598" 
d="M298 -15q-74 0 -130 31.5t-86.5 88.5t-30.5 135v293h163v-296q0 -49 22.5 -77t62.5 -28t62.5 28t22.5 77v296h163v-293q0 -57 -17.5 -104t-50 -81t-78.5 -52t-103 -18zM383 -226q-40 0 -68.5 12.5t-44.5 34.5t-16 51q0 39 31 79.5t98 86.5l97 19q-54 -55 -77.5 -90
t-23.5 -60q0 -18 10 -28t30 -10q9 0 20.5 2.5t20.5 6.5l11 -86q-44 -18 -88 -18z" />
    <glyph glyph-name="acutecomb" unicode="&#x301;" horiz-adv-x="0" 
d="M-103 605l112 143h180l-140 -143h-152z" />
    <glyph glyph-name="glyph270" horiz-adv-x="0" 
d="M-123 782l139 138h202l-175 -138h-166z" />
    <glyph glyph-name="acute" unicode="&#xb4;" 
d="M154 605l112 143h180l-140 -143h-152z" />
    <glyph glyph-name="uni030B" unicode="&#x30b;" horiz-adv-x="0" 
d="M-176 605l96 143h153l-124 -143h-125zM25 605l96 143h153l-124 -143h-125z" />
    <glyph glyph-name="glyph273" horiz-adv-x="0" 
d="M-232 782l132 138h190l-168 -138h-154zM16 782l132 138h190l-168 -138h-154z" />
    <glyph glyph-name="hungarumlaut" unicode="&#x2dd;" 
d="M75 605l96 143h153l-124 -143h-125zM276 605l96 143h153l-124 -143h-125z" />
    <glyph glyph-name="Aacute" unicode="&#xc1;" horiz-adv-x="773" 
d="M13 0l281 710h185l281 -710h-180l-50 138h-293l-50 -138h-174zM290 284h187l-94 259zM263 782l139 138h202l-175 -138h-166z" />
    <glyph glyph-name="Cacute" unicode="&#x106;" horiz-adv-x="748" 
d="M398 -20q-62 0 -116.5 18t-99 51t-76.5 78.5t-49.5 102t-17.5 120.5t17.5 121.5t50 105t77.5 82t99.5 53t115.5 18.5q57 0 108.5 -16t93 -45.5t71 -71t44.5 -93.5l-170 -38q-22 50 -61 77t-89 27q-38 0 -70.5 -16.5t-56.5 -46t-37 -69t-13 -86.5q0 -46 13 -85t37 -67.5
t57 -44t72 -15.5q52 0 91.5 26.5t63.5 77.5l170 -38q-20 -70 -66.5 -120.5t-112.5 -78t-146 -27.5zM274 782l139 138h202l-175 -138h-166z" />
    <glyph glyph-name="Eacute" unicode="&#xc9;" horiz-adv-x="579" 
d="M60 0v710h459v-145h-289v-130h255v-145h-255v-145h299v-145h-469zM166 782l139 138h202l-175 -138h-166z" />
    <glyph glyph-name="Iacute" unicode="&#xcd;" horiz-adv-x="294" 
d="M60 0v710h174v-710h-174zM24 782l139 138h202l-175 -138h-166z" />
    <glyph glyph-name="Iacute_J_acutecomb.locl" horiz-adv-x="716" 
d="M54 313v397h174v-397h-174zM361 -20q-77 0 -138.5 26t-104 75.5t-62.5 119.5l168 27q16 -42 49.5 -65t78.5 -23q42 0 72.5 19t47 54.5t16.5 83.5v413h174v-414q0 -72 -21.5 -130t-61 -99.5t-95 -64t-123.5 -22.5zM18 782l139 138h202l-175 -138h-166zM452 782l139 138
h202l-175 -138h-166z" />
    <glyph glyph-name="Lacute" unicode="&#x139;" horiz-adv-x="551" 
d="M60 0v710h174v-556h280v-154h-454zM24 782l139 138h202l-175 -138h-166z" />
    <glyph glyph-name="Nacute" unicode="&#x143;" horiz-adv-x="742" 
d="M60 0v710h149l306 -434v434h167v-710h-149l-306 434v-434h-167zM248 782l139 138h202l-175 -138h-166z" />
    <glyph glyph-name="Oacute" unicode="&#xd3;" horiz-adv-x="828" 
d="M413 -20q-64 0 -121 18t-103 51.5t-80 80t-52 103.5t-18 121t18 121.5t52 104t80.5 80t103.5 52t122 18.5q64 0 121 -18t103 -51.5t80 -80t52 -103.5t18 -121t-18 -121.5t-52 -104t-80.5 -80t-103.5 -52t-122 -18.5zM414 140q42 0 78 16t62 45t40.5 68t14.5 86t-14.5 86
t-40.5 68t-62 45t-78 16t-78 -16t-62 -45t-40.5 -68t-14.5 -86t14.5 -86t40.5 -68t62 -45t78 -16zM291 782l139 138h202l-175 -138h-166z" />
    <glyph glyph-name="Racute" unicode="&#x154;" horiz-adv-x="643" 
d="M60 0v710h241q90 0 155 -28t100 -80.5t35 -124.5q0 -40 -14.5 -77t-40.5 -68t-61 -52l157 -280h-190l-117 234q-16 -1 -33 -1q-28 0 -61 5v-238h-171zM231 565v-184q17 -3 34 -4.5t36 -1.5q54 0 84.5 25.5t30.5 70.5t-31 69.5t-87 24.5h-67zM173 782l139 138h202
l-175 -138h-166z" />
    <glyph glyph-name="Sacute" unicode="&#x15a;" horiz-adv-x="581" 
d="M289 -15q-67 0 -123 23.5t-94 67t-52 104.5l161 32q13 -39 41 -59t68 -20t66 19.5t26 50.5q0 28 -24.5 46t-82.5 31l-27 6q-108 24 -159 79t-51 132q0 50 19.5 91.5t54 72t81.5 47.5t101 17q64 0 116 -23t87 -65.5t48 -101.5l-158 -32q-13 37 -37 55.5t-58 18.5
q-35 0 -58 -18t-23 -47q0 -22 13.5 -35.5t37.5 -22t54 -15.5l26 -6q108 -25 161 -78t53 -135q0 -52 -20 -95t-56 -74.5t-84.5 -48.5t-106.5 -17zM170 782l139 138h202l-175 -138h-166z" />
    <glyph glyph-name="Uacute" unicode="&#xda;" horiz-adv-x="740" 
d="M368 -20q-72 0 -129.5 22t-99 63t-63.5 98.5t-22 128.5v418h174v-410q0 -49 17.5 -85t49 -55.5t75.5 -19.5t75.5 19.5t49 55.5t17.5 85v410h174v-418q0 -71 -22.5 -128.5t-64 -98.5t-100.5 -63t-131 -22zM247 782l139 138h202l-175 -138h-166z" />
    <glyph glyph-name="Wacute" unicode="&#x1e82;" horiz-adv-x="1058" 
d="M1031 710l-212 -710h-162l-127 481l-127 -481h-164l-212 710h182l118 -481l127 481h156l127 -480l117 480h177zM406 782l139 138h202l-175 -138h-166z" />
    <glyph glyph-name="Yacute" unicode="&#xdd;" horiz-adv-x="684" 
d="M255 0v273l-247 437h197l140 -275l140 275h191l-247 -437v-273h-174zM219 782l139 138h202l-175 -138h-166z" />
    <glyph glyph-name="Zacute" unicode="&#x179;" horiz-adv-x="649" 
d="M34 0v123l345 441h-330v146h549v-123l-346 -441h368v-146h-586zM200 782l139 138h202l-175 -138h-166z" />
    <glyph glyph-name="Ohungarumlaut" unicode="&#x150;" horiz-adv-x="828" 
d="M413 -20q-64 0 -121 18t-103 51.5t-80 80t-52 103.5t-18 121t18 121.5t52 104t80.5 80t103.5 52t122 18.5q64 0 121 -18t103 -51.5t80 -80t52 -103.5t18 -121t-18 -121.5t-52 -104t-80.5 -80t-103.5 -52t-122 -18.5zM414 140q42 0 78 16t62 45t40.5 68t14.5 86t-14.5 86
t-40.5 68t-62 45t-78 16t-78 -16t-62 -45t-40.5 -68t-14.5 -86t14.5 -86t40.5 -68t62 -45t78 -16zM182 782l132 138h190l-168 -138h-154zM430 782l132 138h190l-168 -138h-154z" />
    <glyph glyph-name="Uhungarumlaut" unicode="&#x170;" horiz-adv-x="740" 
d="M368 -20q-72 0 -129.5 22t-99 63t-63.5 98.5t-22 128.5v418h174v-410q0 -49 17.5 -85t49 -55.5t75.5 -19.5t75.5 19.5t49 55.5t17.5 85v410h174v-418q0 -71 -22.5 -128.5t-64 -98.5t-100.5 -63t-131 -22zM138 782l132 138h190l-168 -138h-154zM386 782l132 138h190
l-168 -138h-154z" />
    <glyph glyph-name="aacute" unicode="&#xe1;" horiz-adv-x="566" 
d="M212 -15q-40 0 -74 12.5t-59 34.5t-39 52.5t-14 66.5q0 51 27.5 90t77 60.5t115.5 21.5q32 0 58 -5t53 -16v27q0 39 -22.5 62.5t-60.5 23.5q-28 0 -51 -13.5t-32 -36.5l-146 25q8 35 29 64t52.5 50t69.5 32.5t81 11.5q53 0 96.5 -16.5t75.5 -47t49 -72t17 -91.5v-321
h-146l-4 63q-20 -35 -60 -56.5t-93 -21.5zM186 161q0 -24 19.5 -39.5t51.5 -15.5q29 0 51.5 12t35.5 33t13 47v5q-18 8 -39 12.5t-42 4.5q-42 0 -66 -16t-24 -43zM178 605l112 143h180l-140 -143h-152z" />
    <glyph glyph-name="cacute" unicode="&#x107;" horiz-adv-x="581" 
d="M304 -15q-58 0 -107.5 20.5t-86 58t-57 88t-20.5 110.5q0 61 21 113t58 91t87.5 60.5t108.5 21.5q61 0 111.5 -23t85 -65t47.5 -99l-158 -26q-13 31 -36 48.5t-53 17.5q-31 0 -54.5 -17.5t-37.5 -48.5t-14 -70t13.5 -69t37.5 -47t55 -17t56.5 17t37.5 49l158 -26
q-9 -42 -32.5 -76.5t-57 -59.5t-75.5 -38t-88 -13zM205 605l112 143h180l-140 -143h-152z" />
    <glyph glyph-name="eacute" unicode="&#xe9;" horiz-adv-x="596" 
d="M307 -15q-60 0 -110 20.5t-87 58.5t-57 90t-20 114q0 60 20.5 111t57 89t85.5 59t106 21q60 0 109 -20.5t84 -58.5t54 -91t19 -118v-36h-368q10 -49 38 -75.5t71 -26.5q32 0 56.5 13t43.5 39l149 -39q-19 -46 -56.5 -79.5t-87.5 -52t-107 -18.5zM302 426
q-40 0 -66.5 -25.5t-35.5 -72.5h200q-8 47 -33.5 72.5t-64.5 25.5zM199 605l112 143h180l-140 -143h-152z" />
    <glyph glyph-name="iacute" unicode="&#xed;" horiz-adv-x="265" 
d="M51 0v533h163v-533h-163zM28 605l112 143h180l-140 -143h-152z" />
    <glyph glyph-name="iacute_j_acutecomb.locl" 
d="M240 19q-57 0 -99.5 27.5t-66 78.5t-23.5 120v288h163v-265q0 -47 21.5 -74.5t59.5 -27.5q27 0 48 13t32.5 35t11.5 51v268h163v-475q0 -60 -18.5 -108.5t-53 -83t-82 -53.5t-105.5 -19q-55 0 -101.5 18t-81 50.5t-52.5 77.5l157 35q13 -23 34 -35t46 -12q43 0 68.5 31
t25.5 82v51q-24 -34 -61.5 -53.5t-85.5 -19.5zM29 605l112 143h180l-140 -143h-152zM365 605l112 143h180l-140 -143h-152z" />
    <glyph glyph-name="lacute" unicode="&#x13a;" horiz-adv-x="265" 
d="M51 0v748h163v-748h-163zM28 811l112 143h180l-140 -143h-152z" />
    <glyph glyph-name="nacute" unicode="&#x144;" 
d="M51 0v533h150l5 -70q23 39 63 62t92 23q57 0 99.5 -28t66 -78.5t23.5 -119.5v-322h-163v299q0 47 -21.5 74.5t-59.5 27.5q-27 0 -47.5 -13t-32.5 -35.5t-12 -50.5v-302h-163zM197 605l112 143h180l-140 -143h-152z" />
    <glyph glyph-name="oacute" unicode="&#xf3;" horiz-adv-x="634" 
d="M315 -15q-60 0 -111.5 21t-90 59t-59.5 89t-21 111t21.5 111.5t60 90t91 60t113.5 21.5q60 0 111.5 -21t90 -59.5t59.5 -89.5t21 -111t-21.5 -111.5t-60 -89.5t-91 -59.5t-113.5 -21.5zM317 132q33 0 60 17.5t42.5 48t15.5 68.5q0 39 -15.5 69.5t-42.5 48t-60 17.5
t-60 -17.5t-42.5 -48t-15.5 -69.5q0 -38 15.5 -68.5t42.5 -48t60 -17.5zM214 605l112 143h180l-140 -143h-152z" />
    <glyph glyph-name="racute" unicode="&#x155;" horiz-adv-x="406" 
d="M51 0v533h150l6 -85q19 44 53 68t79 24q13 0 26 -2t23 -7l-16 -162q-11 4 -22.5 5.5t-23.5 1.5q-56 0 -84 -31.5t-28 -91.5v-253h-163zM119 605l112 143h180l-140 -143h-152z" />
    <glyph glyph-name="sacute" unicode="&#x15b;" horiz-adv-x="505" 
d="M253 -15q-58 0 -106 18t-80.5 51t-46.5 78l150 27q9 -23 31.5 -37t52.5 -14q31 0 48.5 12.5t17.5 32.5q0 19 -18.5 30t-63.5 18l-24 4q-87 15 -133.5 57.5t-46.5 108.5q0 39 15.5 71.5t44.5 56t68.5 36.5t86.5 13q55 0 100.5 -17.5t76.5 -49.5t43 -76l-149 -27
q-9 22 -27.5 34.5t-43.5 12.5q-28 0 -43.5 -11.5t-15.5 -30.5q0 -17 17 -27t63 -18l24 -4q89 -15 136 -57.5t47 -108.5q0 -40 -16.5 -74t-46 -58t-71 -37.5t-90.5 -13.5zM144 605l112 143h180l-140 -143h-152z" />
    <glyph glyph-name="uacute" unicode="&#xfa;" horiz-adv-x="598" 
d="M298 -15q-74 0 -130 31.5t-86.5 88.5t-30.5 135v293h163v-296q0 -49 22.5 -77t62.5 -28t62.5 28t22.5 77v296h163v-293q0 -57 -17.5 -104t-50 -81t-78.5 -52t-103 -18zM195 605l112 143h180l-140 -143h-152z" />
    <glyph glyph-name="wacute" unicode="&#x1e83;" horiz-adv-x="857" 
d="M184 0l-176 533h170l84 -337l96 337h144l96 -339l87 339h164l-176 -533h-151l-94 334l-95 -334h-149zM325 605l112 143h180l-140 -143h-152z" />
    <glyph glyph-name="yacute" unicode="&#xfd;" horiz-adv-x="576" 
d="M155 -206q-29 0 -55 6t-49 19l29 125q11 -5 26.5 -9t29.5 -4q27 0 47 16.5t34 51.5l4 9l-213 525h179l110 -350l98 350h173l-212 -571q-32 -86 -81 -127t-120 -41zM184 605l112 143h180l-140 -143h-152z" />
    <glyph glyph-name="zacute" unicode="&#x17a;" horiz-adv-x="536" 
d="M37 0v108l242 294h-234v131h437v-108l-242 -294h259v-131h-462zM160 605l112 143h180l-140 -143h-152z" />
    <glyph glyph-name="aacute.ss01" horiz-adv-x="647" 
d="M273 -15q-51 0 -94.5 21.5t-76 59t-51 88t-18.5 109.5q0 60 19 112t53 91t80 60.5t99 21.5q51 0 91.5 -21.5t66.5 -60.5l4 67h150v-533h-150l-5 76q-27 -42 -71 -66.5t-97 -24.5zM317 132q33 0 60 17.5t42.5 48t15.5 69.5t-15.5 69t-42.5 47.5t-60 17.5t-60 -17.5
t-42.5 -47.5t-15.5 -69t15.5 -69.5t42.5 -48t60 -17.5zM219 605l112 143h180l-140 -143h-152z" />
    <glyph glyph-name="ohungarumlaut" unicode="&#x151;" horiz-adv-x="634" 
d="M315 -15q-60 0 -111.5 21t-90 59t-59.5 89t-21 111t21.5 111.5t60 90t91 60t113.5 21.5q60 0 111.5 -21t90 -59.5t59.5 -89.5t21 -111t-21.5 -111.5t-60 -89.5t-91 -59.5t-113.5 -21.5zM317 132q33 0 60 17.5t42.5 48t15.5 68.5q0 39 -15.5 69.5t-42.5 48t-60 17.5
t-60 -17.5t-42.5 -48t-15.5 -69.5q0 -38 15.5 -68.5t42.5 -48t60 -17.5zM141 605l96 143h153l-124 -143h-125zM342 605l96 143h153l-124 -143h-125z" />
    <glyph glyph-name="uhungarumlaut" unicode="&#x171;" horiz-adv-x="598" 
d="M298 -15q-74 0 -130 31.5t-86.5 88.5t-30.5 135v293h163v-296q0 -49 22.5 -77t62.5 -28t62.5 28t22.5 77v296h163v-293q0 -57 -17.5 -104t-50 -81t-78.5 -52t-103 -18zM122 605l96 143h153l-124 -143h-125zM323 605l96 143h153l-124 -143h-125z" />
    <glyph glyph-name="gravecomb" unicode="&#x300;" horiz-adv-x="0" 
d="M-49 605l-140 143h180l112 -143h-152z" />
    <glyph glyph-name="glyph309" horiz-adv-x="0" 
d="M-43 782l-175 138h202l139 -138h-166z" />
    <glyph glyph-name="grave" unicode="`" 
d="M294 605l-140 143h180l112 -143h-152z" />
    <glyph glyph-name="uni02CB" unicode="&#x2cb;" 
d="M294 605l-140 143h180l112 -143h-152z" />
    <glyph glyph-name="Agrave" unicode="&#xc0;" horiz-adv-x="773" 
d="M13 0l281 710h185l281 -710h-180l-50 138h-293l-50 -138h-174zM290 284h187l-94 259zM343 782l-175 138h202l139 -138h-166z" />
    <glyph glyph-name="Egrave" unicode="&#xc8;" horiz-adv-x="579" 
d="M60 0v710h459v-145h-289v-130h255v-145h-255v-145h299v-145h-469zM246 782l-175 138h202l139 -138h-166z" />
    <glyph glyph-name="Igrave" unicode="&#xcc;" horiz-adv-x="294" 
d="M60 0v710h174v-710h-174zM104 782l-175 138h202l139 -138h-166z" />
    <glyph glyph-name="Ograve" unicode="&#xd2;" horiz-adv-x="828" 
d="M413 -20q-64 0 -121 18t-103 51.5t-80 80t-52 103.5t-18 121t18 121.5t52 104t80.5 80t103.5 52t122 18.5q64 0 121 -18t103 -51.5t80 -80t52 -103.5t18 -121t-18 -121.5t-52 -104t-80.5 -80t-103.5 -52t-122 -18.5zM414 140q42 0 78 16t62 45t40.5 68t14.5 86t-14.5 86
t-40.5 68t-62 45t-78 16t-78 -16t-62 -45t-40.5 -68t-14.5 -86t14.5 -86t40.5 -68t62 -45t78 -16zM371 782l-175 138h202l139 -138h-166z" />
    <glyph glyph-name="Ugrave" unicode="&#xd9;" horiz-adv-x="740" 
d="M368 -20q-72 0 -129.5 22t-99 63t-63.5 98.5t-22 128.5v418h174v-410q0 -49 17.5 -85t49 -55.5t75.5 -19.5t75.5 19.5t49 55.5t17.5 85v410h174v-418q0 -71 -22.5 -128.5t-64 -98.5t-100.5 -63t-131 -22zM327 782l-175 138h202l139 -138h-166z" />
    <glyph glyph-name="Wgrave" unicode="&#x1e80;" horiz-adv-x="1058" 
d="M1031 710l-212 -710h-162l-127 481l-127 -481h-164l-212 710h182l118 -481l127 481h156l127 -480l117 480h177zM486 782l-175 138h202l139 -138h-166z" />
    <glyph glyph-name="Ygrave" unicode="&#x1ef2;" horiz-adv-x="684" 
d="M255 0v273l-247 437h197l140 -275l140 275h191l-247 -437v-273h-174zM299 782l-175 138h202l139 -138h-166z" />
    <glyph glyph-name="agrave" unicode="&#xe0;" horiz-adv-x="566" 
d="M212 -15q-40 0 -74 12.5t-59 34.5t-39 52.5t-14 66.5q0 51 27.5 90t77 60.5t115.5 21.5q32 0 58 -5t53 -16v27q0 39 -22.5 62.5t-60.5 23.5q-28 0 -51 -13.5t-32 -36.5l-146 25q8 35 29 64t52.5 50t69.5 32.5t81 11.5q53 0 96.5 -16.5t75.5 -47t49 -72t17 -91.5v-321
h-146l-4 63q-20 -35 -60 -56.5t-93 -21.5zM186 161q0 -24 19.5 -39.5t51.5 -15.5q29 0 51.5 12t35.5 33t13 47v5q-18 8 -39 12.5t-42 4.5q-42 0 -66 -16t-24 -43zM232 605l-140 143h180l112 -143h-152z" />
    <glyph glyph-name="egrave" unicode="&#xe8;" horiz-adv-x="596" 
d="M307 -15q-60 0 -110 20.5t-87 58.5t-57 90t-20 114q0 60 20.5 111t57 89t85.5 59t106 21q60 0 109 -20.5t84 -58.5t54 -91t19 -118v-36h-368q10 -49 38 -75.5t71 -26.5q32 0 56.5 13t43.5 39l149 -39q-19 -46 -56.5 -79.5t-87.5 -52t-107 -18.5zM302 426
q-40 0 -66.5 -25.5t-35.5 -72.5h200q-8 47 -33.5 72.5t-64.5 25.5zM253 605l-140 143h180l112 -143h-152z" />
    <glyph glyph-name="igrave" unicode="&#xec;" horiz-adv-x="265" 
d="M51 0v533h163v-533h-163zM82 605l-140 143h180l112 -143h-152z" />
    <glyph glyph-name="ograve" unicode="&#xf2;" horiz-adv-x="634" 
d="M315 -15q-60 0 -111.5 21t-90 59t-59.5 89t-21 111t21.5 111.5t60 90t91 60t113.5 21.5q60 0 111.5 -21t90 -59.5t59.5 -89.5t21 -111t-21.5 -111.5t-60 -89.5t-91 -59.5t-113.5 -21.5zM317 132q33 0 60 17.5t42.5 48t15.5 68.5q0 39 -15.5 69.5t-42.5 48t-60 17.5
t-60 -17.5t-42.5 -48t-15.5 -69.5q0 -38 15.5 -68.5t42.5 -48t60 -17.5zM268 605l-140 143h180l112 -143h-152z" />
    <glyph glyph-name="ugrave" unicode="&#xf9;" horiz-adv-x="598" 
d="M298 -15q-74 0 -130 31.5t-86.5 88.5t-30.5 135v293h163v-296q0 -49 22.5 -77t62.5 -28t62.5 28t22.5 77v296h163v-293q0 -57 -17.5 -104t-50 -81t-78.5 -52t-103 -18zM249 605l-140 143h180l112 -143h-152z" />
    <glyph glyph-name="wgrave" unicode="&#x1e81;" horiz-adv-x="857" 
d="M184 0l-176 533h170l84 -337l96 337h144l96 -339l87 339h164l-176 -533h-151l-94 334l-95 -334h-149zM379 605l-140 143h180l112 -143h-152z" />
    <glyph glyph-name="ygrave" unicode="&#x1ef3;" horiz-adv-x="576" 
d="M155 -206q-29 0 -55 6t-49 19l29 125q11 -5 26.5 -9t29.5 -4q27 0 47 16.5t34 51.5l4 9l-213 525h179l110 -350l98 350h173l-212 -571q-32 -86 -81 -127t-120 -41zM238 605l-140 143h180l112 -143h-152z" />
    <glyph glyph-name="agrave.ss01" horiz-adv-x="647" 
d="M273 -15q-51 0 -94.5 21.5t-76 59t-51 88t-18.5 109.5q0 60 19 112t53 91t80 60.5t99 21.5q51 0 91.5 -21.5t66.5 -60.5l4 67h150v-533h-150l-5 76q-27 -42 -71 -66.5t-97 -24.5zM317 132q33 0 60 17.5t42.5 48t15.5 69.5t-15.5 69t-42.5 47.5t-60 17.5t-60 -17.5
t-42.5 -47.5t-15.5 -69t15.5 -69.5t42.5 -48t60 -17.5zM273 605l-140 143h180l112 -143h-152z" />
    <glyph glyph-name="uni0302" unicode="&#x302;" horiz-adv-x="0" 
d="M-200 605l137 143h127l137 -143h-139l-63 57l-65 -57h-134z" />
    <glyph glyph-name="glyph328" horiz-adv-x="0" 
d="M-226 782l149 138h155l149 -138h-159l-69 57l-71 -57h-154z" />
    <glyph glyph-name="circumflex" unicode="&#x2c6;" 
d="M100 605l137 143h127l137 -143h-139l-63 57l-65 -57h-134z" />
    <glyph glyph-name="tildecomb" unicode="&#x303;" horiz-adv-x="0" 
d="M66 600q-22 0 -39 7t-31.5 15.5t-26.5 15.5t-24 7q-26 0 -32 -39h-93q4 44 19.5 76.5t40 50t55.5 17.5q22 0 39 -7t31.5 -15.5t26.5 -15.5t24 -7q26 0 32 39h93q-4 -44 -19.5 -76.5t-39.5 -50t-56 -17.5z" />
    <glyph glyph-name="glyph331" horiz-adv-x="0" 
d="M73 777q-25 0 -44.5 7.5t-35.5 17t-30.5 17t-27.5 7.5q-15 0 -25.5 -11t-13.5 -32h-100q4 46 21.5 80t46 52.5t64.5 18.5q25 0 44.5 -7.5t35.5 -17t30 -17t28 -7.5q15 0 25.5 11t13.5 32h100q-4 -46 -21.5 -80t-45.5 -52.5t-65 -18.5z" />
    <glyph glyph-name="tilde" unicode="&#x2dc;" 
d="M366 600q-22 0 -39 7t-31.5 15.5t-26.5 15.5t-24 7q-26 0 -32 -39h-93q4 44 19.5 76.5t40 50t55.5 17.5q22 0 39 -7t31.5 -15.5t26.5 -15.5t24 -7q26 0 32 39h93q-4 -44 -19.5 -76.5t-39.5 -50t-56 -17.5z" />
    <glyph glyph-name="Acircumflex" unicode="&#xc2;" horiz-adv-x="773" 
d="M13 0l281 710h185l281 -710h-180l-50 138h-293l-50 -138h-174zM290 284h187l-94 259zM160 782l149 138h155l149 -138h-159l-69 57l-71 -57h-154z" />
    <glyph glyph-name="Ecircumflex" unicode="&#xca;" horiz-adv-x="579" 
d="M60 0v710h459v-145h-289v-130h255v-145h-255v-145h299v-145h-469zM63 782l149 138h155l149 -138h-159l-69 57l-71 -57h-154z" />
    <glyph glyph-name="Icircumflex" unicode="&#xce;" horiz-adv-x="294" 
d="M60 0v710h174v-710h-174zM-79 782l149 138h155l149 -138h-159l-69 57l-71 -57h-154z" />
    <glyph glyph-name="Ocircumflex" unicode="&#xd4;" horiz-adv-x="828" 
d="M413 -20q-64 0 -121 18t-103 51.5t-80 80t-52 103.5t-18 121t18 121.5t52 104t80.5 80t103.5 52t122 18.5q64 0 121 -18t103 -51.5t80 -80t52 -103.5t18 -121t-18 -121.5t-52 -104t-80.5 -80t-103.5 -52t-122 -18.5zM414 140q42 0 78 16t62 45t40.5 68t14.5 86t-14.5 86
t-40.5 68t-62 45t-78 16t-78 -16t-62 -45t-40.5 -68t-14.5 -86t14.5 -86t40.5 -68t62 -45t78 -16zM188 782l149 138h155l149 -138h-159l-69 57l-71 -57h-154z" />
    <glyph glyph-name="Ucircumflex" unicode="&#xdb;" horiz-adv-x="740" 
d="M368 -20q-72 0 -129.5 22t-99 63t-63.5 98.5t-22 128.5v418h174v-410q0 -49 17.5 -85t49 -55.5t75.5 -19.5t75.5 19.5t49 55.5t17.5 85v410h174v-418q0 -71 -22.5 -128.5t-64 -98.5t-100.5 -63t-131 -22zM144 782l149 138h155l149 -138h-159l-69 57l-71 -57h-154z" />
    <glyph glyph-name="Wcircumflex" unicode="&#x174;" horiz-adv-x="1058" 
d="M1031 710l-212 -710h-162l-127 481l-127 -481h-164l-212 710h182l118 -481l127 481h156l127 -480l117 480h177zM303 782l149 138h155l149 -138h-159l-69 57l-71 -57h-154z" />
    <glyph glyph-name="Ycircumflex" unicode="&#x176;" horiz-adv-x="684" 
d="M255 0v273l-247 437h197l140 -275l140 275h191l-247 -437v-273h-174zM116 782l149 138h155l149 -138h-159l-69 57l-71 -57h-154z" />
    <glyph glyph-name="Atilde" unicode="&#xc3;" horiz-adv-x="773" 
d="M13 0l281 710h185l281 -710h-180l-50 138h-293l-50 -138h-174zM290 284h187l-94 259zM459 777q-25 0 -44.5 7.5t-35.5 17t-30.5 17t-27.5 7.5q-15 0 -25.5 -11t-13.5 -32h-100q4 46 21.5 80t46 52.5t64.5 18.5q25 0 44.5 -7.5t35.5 -17t30 -17t28 -7.5q15 0 25.5 11
t13.5 32h100q-4 -46 -21.5 -80t-45.5 -52.5t-65 -18.5z" />
    <glyph glyph-name="Itilde" unicode="&#x128;" horiz-adv-x="294" 
d="M60 0v710h174v-710h-174zM220 777q-25 0 -44.5 7.5t-35.5 17t-30.5 17t-27.5 7.5q-15 0 -25.5 -11t-13.5 -32h-100q4 46 21.5 80t46 52.5t64.5 18.5q25 0 44.5 -7.5t35.5 -17t30 -17t28 -7.5q15 0 25.5 11t13.5 32h100q-4 -46 -21.5 -80t-45.5 -52.5t-65 -18.5z" />
    <glyph glyph-name="Ntilde" unicode="&#xd1;" horiz-adv-x="742" 
d="M60 0v710h149l306 -434v434h167v-710h-149l-306 434v-434h-167zM444 777q-25 0 -44.5 7.5t-35.5 17t-30.5 17t-27.5 7.5q-15 0 -25.5 -11t-13.5 -32h-100q4 46 21.5 80t46 52.5t64.5 18.5q25 0 44.5 -7.5t35.5 -17t30 -17t28 -7.5q15 0 25.5 11t13.5 32h100
q-4 -46 -21.5 -80t-45.5 -52.5t-65 -18.5z" />
    <glyph glyph-name="Otilde" unicode="&#xd5;" horiz-adv-x="828" 
d="M413 -20q-64 0 -121 18t-103 51.5t-80 80t-52 103.5t-18 121t18 121.5t52 104t80.5 80t103.5 52t122 18.5q64 0 121 -18t103 -51.5t80 -80t52 -103.5t18 -121t-18 -121.5t-52 -104t-80.5 -80t-103.5 -52t-122 -18.5zM414 140q42 0 78 16t62 45t40.5 68t14.5 86t-14.5 86
t-40.5 68t-62 45t-78 16t-78 -16t-62 -45t-40.5 -68t-14.5 -86t14.5 -86t40.5 -68t62 -45t78 -16zM487 777q-25 0 -44.5 7.5t-35.5 17t-30.5 17t-27.5 7.5q-15 0 -25.5 -11t-13.5 -32h-100q4 46 21.5 80t46 52.5t64.5 18.5q25 0 44.5 -7.5t35.5 -17t30 -17t28 -7.5
q15 0 25.5 11t13.5 32h100q-4 -46 -21.5 -80t-45.5 -52.5t-65 -18.5z" />
    <glyph glyph-name="Utilde" unicode="&#x168;" horiz-adv-x="740" 
d="M368 -20q-72 0 -129.5 22t-99 63t-63.5 98.5t-22 128.5v418h174v-410q0 -49 17.5 -85t49 -55.5t75.5 -19.5t75.5 19.5t49 55.5t17.5 85v410h174v-418q0 -71 -22.5 -128.5t-64 -98.5t-100.5 -63t-131 -22zM443 777q-25 0 -44.5 7.5t-35.5 17t-30.5 17t-27.5 7.5
q-15 0 -25.5 -11t-13.5 -32h-100q4 46 21.5 80t46 52.5t64.5 18.5q25 0 44.5 -7.5t35.5 -17t30 -17t28 -7.5q15 0 25.5 11t13.5 32h100q-4 -46 -21.5 -80t-45.5 -52.5t-65 -18.5z" />
    <glyph glyph-name="acircumflex" unicode="&#xe2;" horiz-adv-x="566" 
d="M212 -15q-40 0 -74 12.5t-59 34.5t-39 52.5t-14 66.5q0 51 27.5 90t77 60.5t115.5 21.5q32 0 58 -5t53 -16v27q0 39 -22.5 62.5t-60.5 23.5q-28 0 -51 -13.5t-32 -36.5l-146 25q8 35 29 64t52.5 50t69.5 32.5t81 11.5q53 0 96.5 -16.5t75.5 -47t49 -72t17 -91.5v-321
h-146l-4 63q-20 -35 -60 -56.5t-93 -21.5zM186 161q0 -24 19.5 -39.5t51.5 -15.5q29 0 51.5 12t35.5 33t13 47v5q-18 8 -39 12.5t-42 4.5q-42 0 -66 -16t-24 -43zM81 605l137 143h127l137 -143h-139l-63 57l-65 -57h-134z" />
    <glyph glyph-name="ecircumflex" unicode="&#xea;" horiz-adv-x="596" 
d="M307 -15q-60 0 -110 20.5t-87 58.5t-57 90t-20 114q0 60 20.5 111t57 89t85.5 59t106 21q60 0 109 -20.5t84 -58.5t54 -91t19 -118v-36h-368q10 -49 38 -75.5t71 -26.5q32 0 56.5 13t43.5 39l149 -39q-19 -46 -56.5 -79.5t-87.5 -52t-107 -18.5zM302 426
q-40 0 -66.5 -25.5t-35.5 -72.5h200q-8 47 -33.5 72.5t-64.5 25.5zM102 605l137 143h127l137 -143h-139l-63 57l-65 -57h-134z" />
    <glyph glyph-name="icircumflex" unicode="&#xee;" horiz-adv-x="265" 
d="M51 0v533h163v-533h-163zM-69 605l137 143h127l137 -143h-139l-63 57l-65 -57h-134z" />
    <glyph glyph-name="ocircumflex" unicode="&#xf4;" horiz-adv-x="634" 
d="M315 -15q-60 0 -111.5 21t-90 59t-59.5 89t-21 111t21.5 111.5t60 90t91 60t113.5 21.5q60 0 111.5 -21t90 -59.5t59.5 -89.5t21 -111t-21.5 -111.5t-60 -89.5t-91 -59.5t-113.5 -21.5zM317 132q33 0 60 17.5t42.5 48t15.5 68.5q0 39 -15.5 69.5t-42.5 48t-60 17.5
t-60 -17.5t-42.5 -48t-15.5 -69.5q0 -38 15.5 -68.5t42.5 -48t60 -17.5zM117 605l137 143h127l137 -143h-139l-63 57l-65 -57h-134z" />
    <glyph glyph-name="ucircumflex" unicode="&#xfb;" horiz-adv-x="598" 
d="M298 -15q-74 0 -130 31.5t-86.5 88.5t-30.5 135v293h163v-296q0 -49 22.5 -77t62.5 -28t62.5 28t22.5 77v296h163v-293q0 -57 -17.5 -104t-50 -81t-78.5 -52t-103 -18zM98 605l137 143h127l137 -143h-139l-63 57l-65 -57h-134z" />
    <glyph glyph-name="wcircumflex" unicode="&#x175;" horiz-adv-x="857" 
d="M184 0l-176 533h170l84 -337l96 337h144l96 -339l87 339h164l-176 -533h-151l-94 334l-95 -334h-149zM228 605l137 143h127l137 -143h-139l-63 57l-65 -57h-134z" />
    <glyph glyph-name="ycircumflex" unicode="&#x177;" horiz-adv-x="576" 
d="M155 -206q-29 0 -55 6t-49 19l29 125q11 -5 26.5 -9t29.5 -4q27 0 47 16.5t34 51.5l4 9l-213 525h179l110 -350l98 350h173l-212 -571q-32 -86 -81 -127t-120 -41zM87 605l137 143h127l137 -143h-139l-63 57l-65 -57h-134z" />
    <glyph glyph-name="acircumflex.ss01" horiz-adv-x="647" 
d="M273 -15q-51 0 -94.5 21.5t-76 59t-51 88t-18.5 109.5q0 60 19 112t53 91t80 60.5t99 21.5q51 0 91.5 -21.5t66.5 -60.5l4 67h150v-533h-150l-5 76q-27 -42 -71 -66.5t-97 -24.5zM317 132q33 0 60 17.5t42.5 48t15.5 69.5t-15.5 69t-42.5 47.5t-60 17.5t-60 -17.5
t-42.5 -47.5t-15.5 -69t15.5 -69.5t42.5 -48t60 -17.5zM122 605l137 143h127l137 -143h-139l-63 57l-65 -57h-134z" />
    <glyph glyph-name="atilde.ss01" horiz-adv-x="647" 
d="M273 -15q-51 0 -94.5 21.5t-76 59t-51 88t-18.5 109.5q0 60 19 112t53 91t80 60.5t99 21.5q51 0 91.5 -21.5t66.5 -60.5l4 67h150v-533h-150l-5 76q-27 -42 -71 -66.5t-97 -24.5zM317 132q33 0 60 17.5t42.5 48t15.5 69.5t-15.5 69t-42.5 47.5t-60 17.5t-60 -17.5
t-42.5 -47.5t-15.5 -69t15.5 -69.5t42.5 -48t60 -17.5zM388 600q-22 0 -39 7t-31.5 15.5t-26.5 15.5t-24 7q-26 0 -32 -39h-93q4 44 19.5 76.5t40 50t55.5 17.5q22 0 39 -7t31.5 -15.5t26.5 -15.5t24 -7q26 0 32 39h93q-4 -44 -19.5 -76.5t-39.5 -50t-56 -17.5z" />
    <glyph glyph-name="atilde" unicode="&#xe3;" horiz-adv-x="566" 
d="M212 -15q-40 0 -74 12.5t-59 34.5t-39 52.5t-14 66.5q0 51 27.5 90t77 60.5t115.5 21.5q32 0 58 -5t53 -16v27q0 39 -22.5 62.5t-60.5 23.5q-28 0 -51 -13.5t-32 -36.5l-146 25q8 35 29 64t52.5 50t69.5 32.5t81 11.5q53 0 96.5 -16.5t75.5 -47t49 -72t17 -91.5v-321
h-146l-4 63q-20 -35 -60 -56.5t-93 -21.5zM186 161q0 -24 19.5 -39.5t51.5 -15.5q29 0 51.5 12t35.5 33t13 47v5q-18 8 -39 12.5t-42 4.5q-42 0 -66 -16t-24 -43zM347 600q-22 0 -39 7t-31.5 15.5t-26.5 15.5t-24 7q-26 0 -32 -39h-93q4 44 19.5 76.5t40 50t55.5 17.5
q22 0 39 -7t31.5 -15.5t26.5 -15.5t24 -7q26 0 32 39h93q-4 -44 -19.5 -76.5t-39.5 -50t-56 -17.5z" />
    <glyph glyph-name="itilde" unicode="&#x129;" horiz-adv-x="265" 
d="M51 0v533h163v-533h-163zM197 600q-22 0 -39 7t-31.5 15.5t-26.5 15.5t-24 7q-26 0 -32 -39h-93q4 44 19.5 76.5t40 50t55.5 17.5q22 0 39 -7t31.5 -15.5t26.5 -15.5t24 -7q26 0 32 39h93q-4 -44 -19.5 -76.5t-39.5 -50t-56 -17.5z" />
    <glyph glyph-name="ntilde" unicode="&#xf1;" 
d="M51 0v533h150l5 -70q23 39 63 62t92 23q57 0 99.5 -28t66 -78.5t23.5 -119.5v-322h-163v299q0 47 -21.5 74.5t-59.5 27.5q-27 0 -47.5 -13t-32.5 -35.5t-12 -50.5v-302h-163zM366 600q-22 0 -39 7t-31.5 15.5t-26.5 15.5t-24 7q-26 0 -32 -39h-93q4 44 19.5 76.5t40 50
t55.5 17.5q22 0 39 -7t31.5 -15.5t26.5 -15.5t24 -7q26 0 32 39h93q-4 -44 -19.5 -76.5t-39.5 -50t-56 -17.5z" />
    <glyph glyph-name="otilde" unicode="&#xf5;" horiz-adv-x="634" 
d="M315 -15q-60 0 -111.5 21t-90 59t-59.5 89t-21 111t21.5 111.5t60 90t91 60t113.5 21.5q60 0 111.5 -21t90 -59.5t59.5 -89.5t21 -111t-21.5 -111.5t-60 -89.5t-91 -59.5t-113.5 -21.5zM317 132q33 0 60 17.5t42.5 48t15.5 68.5q0 39 -15.5 69.5t-42.5 48t-60 17.5
t-60 -17.5t-42.5 -48t-15.5 -69.5q0 -38 15.5 -68.5t42.5 -48t60 -17.5zM383 600q-22 0 -39 7t-31.5 15.5t-26.5 15.5t-24 7q-26 0 -32 -39h-93q4 44 19.5 76.5t40 50t55.5 17.5q22 0 39 -7t31.5 -15.5t26.5 -15.5t24 -7q26 0 32 39h93q-4 -44 -19.5 -76.5t-39.5 -50
t-56 -17.5z" />
    <glyph glyph-name="utilde" unicode="&#x169;" horiz-adv-x="598" 
d="M298 -15q-74 0 -130 31.5t-86.5 88.5t-30.5 135v293h163v-296q0 -49 22.5 -77t62.5 -28t62.5 28t22.5 77v296h163v-293q0 -57 -17.5 -104t-50 -81t-78.5 -52t-103 -18zM364 600q-22 0 -39 7t-31.5 15.5t-26.5 15.5t-24 7q-26 0 -32 -39h-93q4 44 19.5 76.5t40 50
t55.5 17.5q22 0 39 -7t31.5 -15.5t26.5 -15.5t24 -7q26 0 32 39h93q-4 -44 -19.5 -76.5t-39.5 -50t-56 -17.5z" />
    <glyph glyph-name="uni030C" unicode="&#x30c;" horiz-adv-x="0" 
d="M-63 605l-137 143h139l63 -57l65 57h134l-137 -143h-127z" />
    <glyph glyph-name="glyph360" horiz-adv-x="0" 
d="M-77 782l-149 138h159l69 -57l71 57h154l-149 -138h-155z" />
    <glyph glyph-name="caron" unicode="&#x2c7;" 
d="M237 605l-137 143h139l63 -57l65 57h134l-137 -143h-127z" />
    <glyph glyph-name="uni0315" unicode="&#x315;" horiz-adv-x="0" 
d="M64 551l13 197h136l-62 -197h-87z" />
    <glyph glyph-name="glyph363" horiz-adv-x="0" 
d="M67 595l10 153h131l-49 -153h-92z" />
    <glyph glyph-name="uni0304" unicode="&#x304;" horiz-adv-x="0" 
d="M-164 609v105h328v-105h-328z" />
    <glyph glyph-name="glyph365" horiz-adv-x="0" 
d="M-188 787v113h376v-113h-376z" />
    <glyph glyph-name="uni02C9" unicode="&#x2c9;" 
d="M136 609v105h328v-105h-328z" />
    <glyph glyph-name="macron" unicode="&#xaf;" 
d="M136 609v105h328v-105h-328z" />
    <glyph glyph-name="Ccaron" unicode="&#x10c;" horiz-adv-x="748" 
d="M398 -20q-62 0 -116.5 18t-99 51t-76.5 78.5t-49.5 102t-17.5 120.5t17.5 121.5t50 105t77.5 82t99.5 53t115.5 18.5q57 0 108.5 -16t93 -45.5t71 -71t44.5 -93.5l-170 -38q-22 50 -61 77t-89 27q-38 0 -70.5 -16.5t-56.5 -46t-37 -69t-13 -86.5q0 -46 13 -85t37 -67.5
t57 -44t72 -15.5q52 0 91.5 26.5t63.5 77.5l170 -38q-20 -70 -66.5 -120.5t-112.5 -78t-146 -27.5zM320 782l-149 138h159l69 -57l71 57h154l-149 -138h-155z" />
    <glyph glyph-name="Dcaron" unicode="&#x10e;" horiz-adv-x="767" 
d="M60 0v710h291q83 0 152 -25.5t119.5 -72.5t78 -112t27.5 -144t-27.5 -144t-78 -112.5t-120 -73.5t-153.5 -26h-289zM234 154h106q64 0 110.5 24.5t72 69.5t25.5 107t-25.5 107t-72 69.5t-110.5 24.5h-106v-402zM279 782l-149 138h159l69 -57l71 57h154l-149 -138h-155z
" />
    <glyph glyph-name="Ecaron" unicode="&#x11a;" horiz-adv-x="579" 
d="M60 0v710h459v-145h-289v-130h255v-145h-255v-145h299v-145h-469zM212 782l-149 138h159l69 -57l71 57h154l-149 -138h-155z" />
    <glyph glyph-name="Lcaron" unicode="&#x13d;" horiz-adv-x="551" 
d="M60 0v710h174v-556h280v-154h-454zM298 551l13 197h136l-62 -197h-87z" />
    <glyph glyph-name="Ncaron" unicode="&#x147;" horiz-adv-x="742" 
d="M60 0v710h149l306 -434v434h167v-710h-149l-306 434v-434h-167zM294 782l-149 138h159l69 -57l71 57h154l-149 -138h-155z" />
    <glyph glyph-name="Rcaron" unicode="&#x158;" horiz-adv-x="643" 
d="M60 0v710h241q90 0 155 -28t100 -80.5t35 -124.5q0 -40 -14.5 -77t-40.5 -68t-61 -52l157 -280h-190l-117 234q-16 -1 -33 -1q-28 0 -61 5v-238h-171zM231 565v-184q17 -3 34 -4.5t36 -1.5q54 0 84.5 25.5t30.5 70.5t-31 69.5t-87 24.5h-67zM219 782l-149 138h159l69 -57
l71 57h154l-149 -138h-155z" />
    <glyph glyph-name="Scaron" unicode="&#x160;" horiz-adv-x="581" 
d="M289 -15q-67 0 -123 23.5t-94 67t-52 104.5l161 32q13 -39 41 -59t68 -20t66 19.5t26 50.5q0 28 -24.5 46t-82.5 31l-27 6q-108 24 -159 79t-51 132q0 50 19.5 91.5t54 72t81.5 47.5t101 17q64 0 116 -23t87 -65.5t48 -101.5l-158 -32q-13 37 -37 55.5t-58 18.5
q-35 0 -58 -18t-23 -47q0 -22 13.5 -35.5t37.5 -22t54 -15.5l26 -6q108 -25 161 -78t53 -135q0 -52 -20 -95t-56 -74.5t-84.5 -48.5t-106.5 -17zM216 782l-149 138h159l69 -57l71 57h154l-149 -138h-155z" />
    <glyph glyph-name="Tcaron" unicode="&#x164;" horiz-adv-x="638" 
d="M232 0v556h-194v154h562v-154h-194v-556h-174zM241 782l-149 138h159l69 -57l71 57h154l-149 -138h-155z" />
    <glyph glyph-name="Zcaron" unicode="&#x17d;" horiz-adv-x="649" 
d="M34 0v123l345 441h-330v146h549v-123l-346 -441h368v-146h-586zM246 782l-149 138h159l69 -57l71 57h154l-149 -138h-155z" />
    <glyph glyph-name="Amacron" unicode="&#x100;" horiz-adv-x="773" 
d="M13 0l281 710h185l281 -710h-180l-50 138h-293l-50 -138h-174zM290 284h187l-94 259zM198 787v113h376v-113h-376z" />
    <glyph glyph-name="Emacron" unicode="&#x112;" horiz-adv-x="579" 
d="M60 0v710h459v-145h-289v-130h255v-145h-255v-145h299v-145h-469zM101 787v113h376v-113h-376z" />
    <glyph glyph-name="Imacron" unicode="&#x12a;" horiz-adv-x="294" 
d="M60 0v710h174v-710h-174zM-41 787v113h376v-113h-376z" />
    <glyph glyph-name="Umacron" unicode="&#x16a;" horiz-adv-x="740" 
d="M368 -20q-72 0 -129.5 22t-99 63t-63.5 98.5t-22 128.5v418h174v-410q0 -49 17.5 -85t49 -55.5t75.5 -19.5t75.5 19.5t49 55.5t17.5 85v410h174v-418q0 -71 -22.5 -128.5t-64 -98.5t-100.5 -63t-131 -22zM182 787v113h376v-113h-376z" />
    <glyph glyph-name="ccaron" unicode="&#x10d;" horiz-adv-x="581" 
d="M304 -15q-58 0 -107.5 20.5t-86 58t-57 88t-20.5 110.5q0 61 21 113t58 91t87.5 60.5t108.5 21.5q61 0 111.5 -23t85 -65t47.5 -99l-158 -26q-13 31 -36 48.5t-53 17.5q-31 0 -54.5 -17.5t-37.5 -48.5t-14 -70t13.5 -69t37.5 -47t55 -17t56.5 17t37.5 49l158 -26
q-9 -42 -32.5 -76.5t-57 -59.5t-75.5 -38t-88 -13zM245 605l-137 143h139l63 -57l65 57h134l-137 -143h-127z" />
    <glyph glyph-name="dcaron" unicode="&#x10f;" horiz-adv-x="697" 
d="M273 -15q-51 0 -94.5 21.5t-76 59t-51 88t-18.5 109.5q0 60 19 112t53 91t80 60.5t99 21.5q47 0 85 -18t64 -52v270h163v-748h-150l-5 76q-27 -42 -71 -66.5t-97 -24.5zM317 132q33 0 60 17.5t42.5 48t15.5 69.5t-15.5 69t-42.5 47.5t-60 17.5t-60 -17.5t-42.5 -47.5
t-15.5 -69t15.5 -69.5t42.5 -48t60 -17.5zM660 551l13 197h136l-62 -197h-87z" />
    <glyph glyph-name="ecaron" unicode="&#x11b;" horiz-adv-x="596" 
d="M307 -15q-60 0 -110 20.5t-87 58.5t-57 90t-20 114q0 60 20.5 111t57 89t85.5 59t106 21q60 0 109 -20.5t84 -58.5t54 -91t19 -118v-36h-368q10 -49 38 -75.5t71 -26.5q32 0 56.5 13t43.5 39l149 -39q-19 -46 -56.5 -79.5t-87.5 -52t-107 -18.5zM302 426
q-40 0 -66.5 -25.5t-35.5 -72.5h200q-8 47 -33.5 72.5t-64.5 25.5zM239 605l-137 143h139l63 -57l65 57h134l-137 -143h-127z" />
    <glyph glyph-name="lcaron" unicode="&#x13e;" horiz-adv-x="315" 
d="M51 0v748h163v-748h-163zM278 551l13 197h136l-62 -197h-87z" />
    <glyph glyph-name="ncaron" unicode="&#x148;" 
d="M51 0v533h150l5 -70q23 39 63 62t92 23q57 0 99.5 -28t66 -78.5t23.5 -119.5v-322h-163v299q0 47 -21.5 74.5t-59.5 27.5q-27 0 -47.5 -13t-32.5 -35.5t-12 -50.5v-302h-163zM237 605l-137 143h139l63 -57l65 57h134l-137 -143h-127z" />
    <glyph glyph-name="rcaron" unicode="&#x159;" horiz-adv-x="406" 
d="M51 0v533h150l6 -85q19 44 53 68t79 24q13 0 26 -2t23 -7l-16 -162q-11 4 -22.5 5.5t-23.5 1.5q-56 0 -84 -31.5t-28 -91.5v-253h-163zM159 605l-137 143h139l63 -57l65 57h134l-137 -143h-127z" />
    <glyph glyph-name="scaron" unicode="&#x161;" horiz-adv-x="505" 
d="M253 -15q-58 0 -106 18t-80.5 51t-46.5 78l150 27q9 -23 31.5 -37t52.5 -14q31 0 48.5 12.5t17.5 32.5q0 19 -18.5 30t-63.5 18l-24 4q-87 15 -133.5 57.5t-46.5 108.5q0 39 15.5 71.5t44.5 56t68.5 36.5t86.5 13q55 0 100.5 -17.5t76.5 -49.5t43 -76l-149 -27
q-9 22 -27.5 34.5t-43.5 12.5q-28 0 -43.5 -11.5t-15.5 -30.5q0 -17 17 -27t63 -18l24 -4q89 -15 136 -57.5t47 -108.5q0 -40 -16.5 -74t-46 -58t-71 -37.5t-90.5 -13.5zM184 605l-137 143h139l63 -57l65 57h134l-137 -143h-127z" />
    <glyph glyph-name="tcaron" unicode="&#x165;" horiz-adv-x="449" 
d="M294 -15q-90 0 -138.5 49.5t-48.5 142.5v223h-88v133h88v182h163v-182h137v-133h-137v-203q0 -35 15 -53.5t46 -18.5q16 0 34.5 4.5t35.5 12.5l25 -124q-26 -14 -59 -23.5t-73 -9.5zM341 595l10 153h131l-49 -153h-92z" />
    <glyph glyph-name="zcaron" unicode="&#x17e;" horiz-adv-x="536" 
d="M37 0v108l242 294h-234v131h437v-108l-242 -294h259v-131h-462zM200 605l-137 143h139l63 -57l65 57h134l-137 -143h-127z" />
    <glyph glyph-name="amacron.ss01" horiz-adv-x="647" 
d="M273 -15q-51 0 -94.5 21.5t-76 59t-51 88t-18.5 109.5q0 60 19 112t53 91t80 60.5t99 21.5q51 0 91.5 -21.5t66.5 -60.5l4 67h150v-533h-150l-5 76q-27 -42 -71 -66.5t-97 -24.5zM317 132q33 0 60 17.5t42.5 48t15.5 69.5t-15.5 69t-42.5 47.5t-60 17.5t-60 -17.5
t-42.5 -47.5t-15.5 -69t15.5 -69.5t42.5 -48t60 -17.5zM158 609v105h328v-105h-328z" />
    <glyph glyph-name="amacron" unicode="&#x101;" horiz-adv-x="566" 
d="M212 -15q-40 0 -74 12.5t-59 34.5t-39 52.5t-14 66.5q0 51 27.5 90t77 60.5t115.5 21.5q32 0 58 -5t53 -16v27q0 39 -22.5 62.5t-60.5 23.5q-28 0 -51 -13.5t-32 -36.5l-146 25q8 35 29 64t52.5 50t69.5 32.5t81 11.5q53 0 96.5 -16.5t75.5 -47t49 -72t17 -91.5v-321
h-146l-4 63q-20 -35 -60 -56.5t-93 -21.5zM186 161q0 -24 19.5 -39.5t51.5 -15.5q29 0 51.5 12t35.5 33t13 47v5q-18 8 -39 12.5t-42 4.5q-42 0 -66 -16t-24 -43zM117 609v105h328v-105h-328z" />
    <glyph glyph-name="emacron" unicode="&#x113;" horiz-adv-x="596" 
d="M307 -15q-60 0 -110 20.5t-87 58.5t-57 90t-20 114q0 60 20.5 111t57 89t85.5 59t106 21q60 0 109 -20.5t84 -58.5t54 -91t19 -118v-36h-368q10 -49 38 -75.5t71 -26.5q32 0 56.5 13t43.5 39l149 -39q-19 -46 -56.5 -79.5t-87.5 -52t-107 -18.5zM302 426
q-40 0 -66.5 -25.5t-35.5 -72.5h200q-8 47 -33.5 72.5t-64.5 25.5zM138 609v105h328v-105h-328z" />
    <glyph glyph-name="imacron" unicode="&#x12b;" horiz-adv-x="265" 
d="M51 0v533h163v-533h-163zM-33 609v105h328v-105h-328z" />
    <glyph glyph-name="umacron" unicode="&#x16b;" horiz-adv-x="598" 
d="M298 -15q-74 0 -130 31.5t-86.5 88.5t-30.5 135v293h163v-296q0 -49 22.5 -77t62.5 -28t62.5 28t22.5 77v296h163v-293q0 -57 -17.5 -104t-50 -81t-78.5 -52t-103 -18zM134 609v105h328v-105h-328z" />
    <glyph glyph-name="uni0308" unicode="&#x308;" horiz-adv-x="0" 
d="M-112 590q-24 0 -43 11t-30 30t-11 42t11 42t30 30t43 11t43 -11t30 -30t11 -42t-11 -42t-30 -30t-43 -11zM112 590q-24 0 -43 11t-30 30t-11 42t11 42t30 30t43 11t43 -11t30 -30t11 -42t-11 -42t-30 -30t-43 -11z" />
    <glyph glyph-name="glyph396" horiz-adv-x="0" 
d="M-126 767q-24 0 -44 11.5t-31.5 31.5t-11.5 44t11.5 44t31.5 31.5t44 11.5t44 -11.5t31.5 -31.5t11.5 -44t-11.5 -44t-31.5 -31.5t-44 -11.5zM126 767q-24 0 -44 11.5t-31.5 31.5t-11.5 44t11.5 44t31.5 31.5t44 11.5t44 -11.5t31.5 -31.5t11.5 -44t-11.5 -44
t-31.5 -31.5t-44 -11.5z" />
    <glyph glyph-name="dieresis" unicode="&#xa8;" 
d="M188 590q-24 0 -43 11t-30 30t-11 42t11 42t30 30t43 11t43 -11t30 -30t11 -42t-11 -42t-30 -30t-43 -11zM412 590q-24 0 -43 11t-30 30t-11 42t11 42t30 30t43 11t43 -11t30 -30t11 -42t-11 -42t-30 -30t-43 -11z" />
    <glyph glyph-name="uni0306" unicode="&#x306;" horiz-adv-x="0" 
d="M0 602q-48 0 -86 17.5t-63 49.5t-32 75h116q5 -24 22 -36.5t43 -12.5t43 12.5t22 36.5h116q-7 -43 -32 -75t-63 -49.5t-86 -17.5z" />
    <glyph glyph-name="glyph399" horiz-adv-x="0" 
d="M0 777q-51 0 -92 18.5t-68 52.5t-35 80h128q6 -25 23.5 -39t43.5 -14t43.5 14t23.5 39h128q-8 -46 -35 -80t-68 -52.5t-92 -18.5z" />
    <glyph glyph-name="breve" unicode="&#x2d8;" 
d="M300 602q-48 0 -86 17.5t-63 49.5t-32 75h116q5 -24 22 -36.5t43 -12.5t43 12.5t22 36.5h116q-7 -43 -32 -75t-63 -49.5t-86 -17.5z" />
    <glyph glyph-name="Adieresis" unicode="&#xc4;" horiz-adv-x="773" 
d="M13 0l281 710h185l281 -710h-180l-50 138h-293l-50 -138h-174zM290 284h187l-94 259zM260 767q-24 0 -44 11.5t-31.5 31.5t-11.5 44t11.5 44t31.5 31.5t44 11.5t44 -11.5t31.5 -31.5t11.5 -44t-11.5 -44t-31.5 -31.5t-44 -11.5zM512 767q-24 0 -44 11.5t-31.5 31.5
t-11.5 44t11.5 44t31.5 31.5t44 11.5t44 -11.5t31.5 -31.5t11.5 -44t-11.5 -44t-31.5 -31.5t-44 -11.5z" />
    <glyph glyph-name="Edieresis" unicode="&#xcb;" horiz-adv-x="579" 
d="M60 0v710h459v-145h-289v-130h255v-145h-255v-145h299v-145h-469zM163 767q-24 0 -44 11.5t-31.5 31.5t-11.5 44t11.5 44t31.5 31.5t44 11.5t44 -11.5t31.5 -31.5t11.5 -44t-11.5 -44t-31.5 -31.5t-44 -11.5zM415 767q-24 0 -44 11.5t-31.5 31.5t-11.5 44t11.5 44
t31.5 31.5t44 11.5t44 -11.5t31.5 -31.5t11.5 -44t-11.5 -44t-31.5 -31.5t-44 -11.5z" />
    <glyph glyph-name="Idieresis" unicode="&#xcf;" horiz-adv-x="294" 
d="M60 0v710h174v-710h-174zM21 767q-24 0 -44 11.5t-31.5 31.5t-11.5 44t11.5 44t31.5 31.5t44 11.5t44 -11.5t31.5 -31.5t11.5 -44t-11.5 -44t-31.5 -31.5t-44 -11.5zM273 767q-24 0 -44 11.5t-31.5 31.5t-11.5 44t11.5 44t31.5 31.5t44 11.5t44 -11.5t31.5 -31.5
t11.5 -44t-11.5 -44t-31.5 -31.5t-44 -11.5z" />
    <glyph glyph-name="Odieresis" unicode="&#xd6;" horiz-adv-x="828" 
d="M413 -20q-64 0 -121 18t-103 51.5t-80 80t-52 103.5t-18 121t18 121.5t52 104t80.5 80t103.5 52t122 18.5q64 0 121 -18t103 -51.5t80 -80t52 -103.5t18 -121t-18 -121.5t-52 -104t-80.5 -80t-103.5 -52t-122 -18.5zM414 140q42 0 78 16t62 45t40.5 68t14.5 86t-14.5 86
t-40.5 68t-62 45t-78 16t-78 -16t-62 -45t-40.5 -68t-14.5 -86t14.5 -86t40.5 -68t62 -45t78 -16zM288 767q-24 0 -44 11.5t-31.5 31.5t-11.5 44t11.5 44t31.5 31.5t44 11.5t44 -11.5t31.5 -31.5t11.5 -44t-11.5 -44t-31.5 -31.5t-44 -11.5zM540 767q-24 0 -44 11.5
t-31.5 31.5t-11.5 44t11.5 44t31.5 31.5t44 11.5t44 -11.5t31.5 -31.5t11.5 -44t-11.5 -44t-31.5 -31.5t-44 -11.5z" />
    <glyph glyph-name="Udieresis" unicode="&#xdc;" horiz-adv-x="740" 
d="M368 -20q-72 0 -129.5 22t-99 63t-63.5 98.5t-22 128.5v418h174v-410q0 -49 17.5 -85t49 -55.5t75.5 -19.5t75.5 19.5t49 55.5t17.5 85v410h174v-418q0 -71 -22.5 -128.5t-64 -98.5t-100.5 -63t-131 -22zM244 767q-24 0 -44 11.5t-31.5 31.5t-11.5 44t11.5 44t31.5 31.5
t44 11.5t44 -11.5t31.5 -31.5t11.5 -44t-11.5 -44t-31.5 -31.5t-44 -11.5zM496 767q-24 0 -44 11.5t-31.5 31.5t-11.5 44t11.5 44t31.5 31.5t44 11.5t44 -11.5t31.5 -31.5t11.5 -44t-11.5 -44t-31.5 -31.5t-44 -11.5z" />
    <glyph glyph-name="Wdieresis" unicode="&#x1e84;" horiz-adv-x="1058" 
d="M1031 710l-212 -710h-162l-127 481l-127 -481h-164l-212 710h182l118 -481l127 481h156l127 -480l117 480h177zM403 767q-24 0 -44 11.5t-31.5 31.5t-11.5 44t11.5 44t31.5 31.5t44 11.5t44 -11.5t31.5 -31.5t11.5 -44t-11.5 -44t-31.5 -31.5t-44 -11.5zM655 767
q-24 0 -44 11.5t-31.5 31.5t-11.5 44t11.5 44t31.5 31.5t44 11.5t44 -11.5t31.5 -31.5t11.5 -44t-11.5 -44t-31.5 -31.5t-44 -11.5z" />
    <glyph glyph-name="Ydieresis" unicode="&#x178;" horiz-adv-x="684" 
d="M255 0v273l-247 437h197l140 -275l140 275h191l-247 -437v-273h-174zM216 767q-24 0 -44 11.5t-31.5 31.5t-11.5 44t11.5 44t31.5 31.5t44 11.5t44 -11.5t31.5 -31.5t11.5 -44t-11.5 -44t-31.5 -31.5t-44 -11.5zM468 767q-24 0 -44 11.5t-31.5 31.5t-11.5 44t11.5 44
t31.5 31.5t44 11.5t44 -11.5t31.5 -31.5t11.5 -44t-11.5 -44t-31.5 -31.5t-44 -11.5z" />
    <glyph glyph-name="Abreve" unicode="&#x102;" horiz-adv-x="773" 
d="M13 0l281 710h185l281 -710h-180l-50 138h-293l-50 -138h-174zM290 284h187l-94 259zM386 777q-51 0 -92 18.5t-68 52.5t-35 80h128q6 -25 23.5 -39t43.5 -14t43.5 14t23.5 39h128q-8 -46 -35 -80t-68 -52.5t-92 -18.5z" />
    <glyph glyph-name="Gbreve" unicode="&#x11e;" horiz-adv-x="807" 
d="M415 -20q-65 0 -122 18t-103.5 51.5t-80.5 79.5t-52 102.5t-18 121.5t18.5 122t52.5 104t81 80.5t104 52t122 18.5q75 0 138.5 -23.5t111 -68t75.5 -107.5l-170 -49q-24 44 -63.5 67t-91.5 23q-43 0 -79 -16t-62.5 -45t-41.5 -68.5t-15 -86.5q0 -48 15 -88t42.5 -69
t65 -45t82.5 -16q44 0 79.5 15t58.5 43t31 65h-161v140h340v-81q0 -75 -26 -137t-74 -107.5t-113.5 -70.5t-143.5 -25zM420 777q-51 0 -92 18.5t-68 52.5t-35 80h128q6 -25 23.5 -39t43.5 -14t43.5 14t23.5 39h128q-8 -46 -35 -80t-68 -52.5t-92 -18.5z" />
    <glyph glyph-name="adieresis" unicode="&#xe4;" horiz-adv-x="566" 
d="M212 -15q-40 0 -74 12.5t-59 34.5t-39 52.5t-14 66.5q0 51 27.5 90t77 60.5t115.5 21.5q32 0 58 -5t53 -16v27q0 39 -22.5 62.5t-60.5 23.5q-28 0 -51 -13.5t-32 -36.5l-146 25q8 35 29 64t52.5 50t69.5 32.5t81 11.5q53 0 96.5 -16.5t75.5 -47t49 -72t17 -91.5v-321
h-146l-4 63q-20 -35 -60 -56.5t-93 -21.5zM186 161q0 -24 19.5 -39.5t51.5 -15.5q29 0 51.5 12t35.5 33t13 47v5q-18 8 -39 12.5t-42 4.5q-42 0 -66 -16t-24 -43zM169 590q-24 0 -43 11t-30 30t-11 42t11 42t30 30t43 11t43 -11t30 -30t11 -42t-11 -42t-30 -30t-43 -11z
M393 590q-24 0 -43 11t-30 30t-11 42t11 42t30 30t43 11t43 -11t30 -30t11 -42t-11 -42t-30 -30t-43 -11z" />
    <glyph glyph-name="edieresis" unicode="&#xeb;" horiz-adv-x="596" 
d="M307 -15q-60 0 -110 20.5t-87 58.5t-57 90t-20 114q0 60 20.5 111t57 89t85.5 59t106 21q60 0 109 -20.5t84 -58.5t54 -91t19 -118v-36h-368q10 -49 38 -75.5t71 -26.5q32 0 56.5 13t43.5 39l149 -39q-19 -46 -56.5 -79.5t-87.5 -52t-107 -18.5zM302 426
q-40 0 -66.5 -25.5t-35.5 -72.5h200q-8 47 -33.5 72.5t-64.5 25.5zM190 590q-24 0 -43 11t-30 30t-11 42t11 42t30 30t43 11t43 -11t30 -30t11 -42t-11 -42t-30 -30t-43 -11zM414 590q-24 0 -43 11t-30 30t-11 42t11 42t30 30t43 11t43 -11t30 -30t11 -42t-11 -42t-30 -30
t-43 -11z" />
    <glyph glyph-name="idieresis" unicode="&#xef;" horiz-adv-x="265" 
d="M51 0v533h163v-533h-163zM19 590q-24 0 -43 11t-30 30t-11 42t11 42t30 30t43 11t43 -11t30 -30t11 -42t-11 -42t-30 -30t-43 -11zM243 590q-24 0 -43 11t-30 30t-11 42t11 42t30 30t43 11t43 -11t30 -30t11 -42t-11 -42t-30 -30t-43 -11z" />
    <glyph glyph-name="odieresis" unicode="&#xf6;" horiz-adv-x="634" 
d="M315 -15q-60 0 -111.5 21t-90 59t-59.5 89t-21 111t21.5 111.5t60 90t91 60t113.5 21.5q60 0 111.5 -21t90 -59.5t59.5 -89.5t21 -111t-21.5 -111.5t-60 -89.5t-91 -59.5t-113.5 -21.5zM317 132q33 0 60 17.5t42.5 48t15.5 68.5q0 39 -15.5 69.5t-42.5 48t-60 17.5
t-60 -17.5t-42.5 -48t-15.5 -69.5q0 -38 15.5 -68.5t42.5 -48t60 -17.5zM205 590q-24 0 -43 11t-30 30t-11 42t11 42t30 30t43 11t43 -11t30 -30t11 -42t-11 -42t-30 -30t-43 -11zM429 590q-24 0 -43 11t-30 30t-11 42t11 42t30 30t43 11t43 -11t30 -30t11 -42t-11 -42
t-30 -30t-43 -11z" />
    <glyph glyph-name="udieresis" unicode="&#xfc;" horiz-adv-x="598" 
d="M298 -15q-74 0 -130 31.5t-86.5 88.5t-30.5 135v293h163v-296q0 -49 22.5 -77t62.5 -28t62.5 28t22.5 77v296h163v-293q0 -57 -17.5 -104t-50 -81t-78.5 -52t-103 -18zM186 590q-24 0 -43 11t-30 30t-11 42t11 42t30 30t43 11t43 -11t30 -30t11 -42t-11 -42t-30 -30
t-43 -11zM410 590q-24 0 -43 11t-30 30t-11 42t11 42t30 30t43 11t43 -11t30 -30t11 -42t-11 -42t-30 -30t-43 -11z" />
    <glyph glyph-name="wdieresis" unicode="&#x1e85;" horiz-adv-x="857" 
d="M184 0l-176 533h170l84 -337l96 337h144l96 -339l87 339h164l-176 -533h-151l-94 334l-95 -334h-149zM316 590q-24 0 -43 11t-30 30t-11 42t11 42t30 30t43 11t43 -11t30 -30t11 -42t-11 -42t-30 -30t-43 -11zM540 590q-24 0 -43 11t-30 30t-11 42t11 42t30 30t43 11
t43 -11t30 -30t11 -42t-11 -42t-30 -30t-43 -11z" />
    <glyph glyph-name="ydieresis" unicode="&#xff;" horiz-adv-x="576" 
d="M155 -206q-29 0 -55 6t-49 19l29 125q11 -5 26.5 -9t29.5 -4q27 0 47 16.5t34 51.5l4 9l-213 525h179l110 -350l98 350h173l-212 -571q-32 -86 -81 -127t-120 -41zM175 590q-24 0 -43 11t-30 30t-11 42t11 42t30 30t43 11t43 -11t30 -30t11 -42t-11 -42t-30 -30t-43 -11z
M399 590q-24 0 -43 11t-30 30t-11 42t11 42t30 30t43 11t43 -11t30 -30t11 -42t-11 -42t-30 -30t-43 -11z" />
    <glyph glyph-name="adieresis.ss01" horiz-adv-x="647" 
d="M273 -15q-51 0 -94.5 21.5t-76 59t-51 88t-18.5 109.5q0 60 19 112t53 91t80 60.5t99 21.5q51 0 91.5 -21.5t66.5 -60.5l4 67h150v-533h-150l-5 76q-27 -42 -71 -66.5t-97 -24.5zM317 132q33 0 60 17.5t42.5 48t15.5 69.5t-15.5 69t-42.5 47.5t-60 17.5t-60 -17.5
t-42.5 -47.5t-15.5 -69t15.5 -69.5t42.5 -48t60 -17.5zM210 590q-24 0 -43 11t-30 30t-11 42t11 42t30 30t43 11t43 -11t30 -30t11 -42t-11 -42t-30 -30t-43 -11zM434 590q-24 0 -43 11t-30 30t-11 42t11 42t30 30t43 11t43 -11t30 -30t11 -42t-11 -42t-30 -30t-43 -11z" />
    <glyph glyph-name="abreve.ss01" horiz-adv-x="647" 
d="M273 -15q-51 0 -94.5 21.5t-76 59t-51 88t-18.5 109.5q0 60 19 112t53 91t80 60.5t99 21.5q51 0 91.5 -21.5t66.5 -60.5l4 67h150v-533h-150l-5 76q-27 -42 -71 -66.5t-97 -24.5zM317 132q33 0 60 17.5t42.5 48t15.5 69.5t-15.5 69t-42.5 47.5t-60 17.5t-60 -17.5
t-42.5 -47.5t-15.5 -69t15.5 -69.5t42.5 -48t60 -17.5zM322 602q-48 0 -86 17.5t-63 49.5t-32 75h116q5 -24 22 -36.5t43 -12.5t43 12.5t22 36.5h116q-7 -43 -32 -75t-63 -49.5t-86 -17.5z" />
    <glyph glyph-name="abreve" unicode="&#x103;" horiz-adv-x="566" 
d="M212 -15q-40 0 -74 12.5t-59 34.5t-39 52.5t-14 66.5q0 51 27.5 90t77 60.5t115.5 21.5q32 0 58 -5t53 -16v27q0 39 -22.5 62.5t-60.5 23.5q-28 0 -51 -13.5t-32 -36.5l-146 25q8 35 29 64t52.5 50t69.5 32.5t81 11.5q53 0 96.5 -16.5t75.5 -47t49 -72t17 -91.5v-321
h-146l-4 63q-20 -35 -60 -56.5t-93 -21.5zM186 161q0 -24 19.5 -39.5t51.5 -15.5q29 0 51.5 12t35.5 33t13 47v5q-18 8 -39 12.5t-42 4.5q-42 0 -66 -16t-24 -43zM281 602q-48 0 -86 17.5t-63 49.5t-32 75h116q5 -24 22 -36.5t43 -12.5t43 12.5t22 36.5h116q-7 -43 -32 -75
t-63 -49.5t-86 -17.5z" />
    <glyph glyph-name="gbreve" unicode="&#x11f;" horiz-adv-x="637" 
d="M267 19q-49 0 -91.5 20.5t-74.5 57t-50 83.5t-18 100q0 55 18.5 103.5t52 85.5t78 58t96.5 21q49 0 89 -20t65 -56l4 61h150v-463q0 -62 -20 -112.5t-57 -87t-88 -56.5t-113 -20q-60 0 -110 18.5t-86 52t-56 78.5l160 34q15 -23 39 -36t55 -13q34 0 59.5 15.5t39.5 43.5
t14 65v41q-27 -35 -67.5 -54.5t-88.5 -19.5zM312 161q32 0 57.5 16t40.5 43.5t15 63.5q0 35 -15 62.5t-40.5 43.5t-57.5 16t-57.5 -16t-40.5 -43.5t-15 -62.5q0 -36 15 -63.5t40.5 -43.5t57.5 -16zM309 602q-48 0 -86 17.5t-63 49.5t-32 75h116q5 -24 22 -36.5t43 -12.5
t43 12.5t22 36.5h116q-7 -43 -32 -75t-63 -49.5t-86 -17.5z" />
    <glyph glyph-name="uni0307" unicode="&#x307;" horiz-adv-x="0" 
d="M91 680q0 -25 -11.5 -45t-32.5 -32t-47 -12t-46.5 12t-32 32t-11.5 45t11.5 45t32 32t46.5 12t47 -12t32.5 -32t11.5 -45z" />
    <glyph glyph-name="glyph422" horiz-adv-x="0" 
d="M0 767q-26 0 -47.5 12t-33.5 33t-12 47t12 47t33.5 33t47.5 12t47.5 -12t33.5 -33t12 -47t-12 -47t-33.5 -33t-47.5 -12z" />
    <glyph glyph-name="dotaccent" unicode="&#x2d9;" 
d="M391 680q0 -25 -11.5 -45t-32.5 -32t-47 -12t-46.5 12t-32 32t-11.5 45t11.5 45t32 32t46.5 12t47 -12t32.5 -32t11.5 -45z" />
    <glyph glyph-name="dotbelowcomb" unicode="&#x323;" horiz-adv-x="0" 
d="M91 -144q0 -25 -11.5 -45t-32.5 -32t-47 -12t-46.5 12t-32 32t-11.5 45t11.5 45t32 32t46.5 12t47 -12t32.5 -32t11.5 -45z" />
    <glyph glyph-name="glyph425" horiz-adv-x="0" 
d="M0 -244q-26 0 -47.5 12t-33.5 33t-12 47t12 47t33.5 33t47.5 12t47.5 -12t33.5 -33t12 -47t-12 -47t-33.5 -33t-47.5 -12z" />
    <glyph glyph-name="Edotaccent" unicode="&#x116;" horiz-adv-x="579" 
d="M60 0v710h459v-145h-289v-130h255v-145h-255v-145h299v-145h-469zM289 767q-26 0 -47.5 12t-33.5 33t-12 47t12 47t33.5 33t47.5 12t47.5 -12t33.5 -33t12 -47t-12 -47t-33.5 -33t-47.5 -12z" />
    <glyph glyph-name="Idotaccent" unicode="&#x130;" horiz-adv-x="294" 
d="M60 0v710h174v-710h-174zM147 767q-26 0 -47.5 12t-33.5 33t-12 47t12 47t33.5 33t47.5 12t47.5 -12t33.5 -33t12 -47t-12 -47t-33.5 -33t-47.5 -12z" />
    <glyph glyph-name="Cdotaccent" unicode="&#x10a;" horiz-adv-x="748" 
d="M398 -20q-62 0 -116.5 18t-99 51t-76.5 78.5t-49.5 102t-17.5 120.5t17.5 121.5t50 105t77.5 82t99.5 53t115.5 18.5q57 0 108.5 -16t93 -45.5t71 -71t44.5 -93.5l-170 -38q-22 50 -61 77t-89 27q-38 0 -70.5 -16.5t-56.5 -46t-37 -69t-13 -86.5q0 -46 13 -85t37 -67.5
t57 -44t72 -15.5q52 0 91.5 26.5t63.5 77.5l170 -38q-20 -70 -66.5 -120.5t-112.5 -78t-146 -27.5zM397 767q-26 0 -47.5 12t-33.5 33t-12 47t12 47t33.5 33t47.5 12t47.5 -12t33.5 -33t12 -47t-12 -47t-33.5 -33t-47.5 -12z" />
    <glyph glyph-name="Gdotaccent" unicode="&#x120;" horiz-adv-x="807" 
d="M415 -20q-65 0 -122 18t-103.5 51.5t-80.5 79.5t-52 102.5t-18 121.5t18.5 122t52.5 104t81 80.5t104 52t122 18.5q75 0 138.5 -23.5t111 -68t75.5 -107.5l-170 -49q-24 44 -63.5 67t-91.5 23q-43 0 -79 -16t-62.5 -45t-41.5 -68.5t-15 -86.5q0 -48 15 -88t42.5 -69
t65 -45t82.5 -16q44 0 79.5 15t58.5 43t31 65h-161v140h340v-81q0 -75 -26 -137t-74 -107.5t-113.5 -70.5t-143.5 -25zM420 767q-26 0 -47.5 12t-33.5 33t-12 47t12 47t33.5 33t47.5 12t47.5 -12t33.5 -33t12 -47t-12 -47t-33.5 -33t-47.5 -12z" />
    <glyph glyph-name="Zdotaccent" unicode="&#x17b;" horiz-adv-x="649" 
d="M34 0v123l345 441h-330v146h549v-123l-346 -441h368v-146h-586zM323 767q-26 0 -47.5 12t-33.5 33t-12 47t12 47t33.5 33t47.5 12t47.5 -12t33.5 -33t12 -47t-12 -47t-33.5 -33t-47.5 -12z" />
    <glyph glyph-name="uni1E24" unicode="&#x1e24;" horiz-adv-x="752" 
d="M60 0v710h174v-266h284v266h174v-710h-174v290h-284v-290h-174zM376 -244q-26 0 -47.5 12t-33.5 33t-12 47t12 47t33.5 33t47.5 12t47.5 -12t33.5 -33t12 -47t-12 -47t-33.5 -33t-47.5 -12z" />
    <glyph glyph-name="uni1E36" unicode="&#x1e36;" horiz-adv-x="551" 
d="M60 0v710h174v-556h280v-154h-454zM286 -244q-26 0 -47.5 12t-33.5 33t-12 47t12 47t33.5 33t47.5 12t47.5 -12t33.5 -33t12 -47t-12 -47t-33.5 -33t-47.5 -12z" />
    <glyph glyph-name="edotaccent" unicode="&#x117;" horiz-adv-x="596" 
d="M307 -15q-60 0 -110 20.5t-87 58.5t-57 90t-20 114q0 60 20.5 111t57 89t85.5 59t106 21q60 0 109 -20.5t84 -58.5t54 -91t19 -118v-36h-368q10 -49 38 -75.5t71 -26.5q32 0 56.5 13t43.5 39l149 -39q-19 -46 -56.5 -79.5t-87.5 -52t-107 -18.5zM302 426
q-40 0 -66.5 -25.5t-35.5 -72.5h200q-8 47 -33.5 72.5t-64.5 25.5zM393 680q0 -25 -11.5 -45t-32.5 -32t-47 -12t-46.5 12t-32 32t-11.5 45t11.5 45t32 32t46.5 12t47 -12t32.5 -32t11.5 -45z" />
    <glyph glyph-name="cdotaccent" unicode="&#x10b;" horiz-adv-x="581" 
d="M304 -15q-58 0 -107.5 20.5t-86 58t-57 88t-20.5 110.5q0 61 21 113t58 91t87.5 60.5t108.5 21.5q61 0 111.5 -23t85 -65t47.5 -99l-158 -26q-13 31 -36 48.5t-53 17.5q-31 0 -54.5 -17.5t-37.5 -48.5t-14 -70t13.5 -69t37.5 -47t55 -17t56.5 17t37.5 49l158 -26
q-9 -42 -32.5 -76.5t-57 -59.5t-75.5 -38t-88 -13zM399 680q0 -25 -11.5 -45t-32.5 -32t-47 -12t-46.5 12t-32 32t-11.5 45t11.5 45t32 32t46.5 12t47 -12t32.5 -32t11.5 -45z" />
    <glyph glyph-name="gdotaccent" unicode="&#x121;" horiz-adv-x="637" 
d="M267 19q-49 0 -91.5 20.5t-74.5 57t-50 83.5t-18 100q0 55 18.5 103.5t52 85.5t78 58t96.5 21q49 0 89 -20t65 -56l4 61h150v-463q0 -62 -20 -112.5t-57 -87t-88 -56.5t-113 -20q-60 0 -110 18.5t-86 52t-56 78.5l160 34q15 -23 39 -36t55 -13q34 0 59.5 15.5t39.5 43.5
t14 65v41q-27 -35 -67.5 -54.5t-88.5 -19.5zM312 161q32 0 57.5 16t40.5 43.5t15 63.5q0 35 -15 62.5t-40.5 43.5t-57.5 16t-57.5 -16t-40.5 -43.5t-15 -62.5q0 -36 15 -63.5t40.5 -43.5t57.5 -16zM400 680q0 -25 -11.5 -45t-32.5 -32t-47 -12t-46.5 12t-32 32t-11.5 45
t11.5 45t32 32t46.5 12t47 -12t32.5 -32t11.5 -45z" />
    <glyph glyph-name="zdotaccent" unicode="&#x17c;" horiz-adv-x="536" 
d="M37 0v108l242 294h-234v131h437v-108l-242 -294h259v-131h-462zM354 680q0 -25 -11.5 -45t-32.5 -32t-47 -12t-46.5 12t-32 32t-11.5 45t11.5 45t32 32t46.5 12t47 -12t32.5 -32t11.5 -45z" />
    <glyph glyph-name="uni1E25" unicode="&#x1e25;" 
d="M51 0v748h163v-273q24 34 61.5 53.5t85.5 19.5q57 0 99.5 -28t66 -78.5t23.5 -119.5v-322h-163v299q0 47 -21.5 74.5t-59.5 27.5q-27 0 -47.5 -13t-32.5 -35.5t-12 -50.5v-302h-163zM391 -144q0 -25 -11.5 -45t-32.5 -32t-47 -12t-46.5 12t-32 32t-11.5 45t11.5 45t32 32
t46.5 12t47 -12t32.5 -32t11.5 -45z" />
    <glyph glyph-name="uni1E37" unicode="&#x1e37;" horiz-adv-x="265" 
d="M51 0v748h163v-748h-163zM222 -144q0 -25 -11.5 -45t-32.5 -32t-47 -12t-46.5 12t-32 32t-11.5 45t11.5 45t32 32t46.5 12t47 -12t32.5 -32t11.5 -45z" />
    <glyph glyph-name="uni030A" unicode="&#x30a;" horiz-adv-x="0" 
d="M0 578q-34 0 -60.5 15t-42.5 41t-16 57t16 57t42.5 41t60.5 15t60.5 -15t42.5 -41t16 -57t-16 -57t-42.5 -41t-60.5 -15zM0 648q17 0 29.5 12.5t12.5 30.5t-12.5 30.5t-29.5 12.5t-29.5 -12.5t-12.5 -30.5t12.5 -30.5t29.5 -12.5z" />
    <glyph glyph-name="glyph440" horiz-adv-x="0" 
d="M0 751q-35 0 -63 15.5t-44 42t-16 59.5t16 59.5t44 42t63 15.5t63 -15.5t44 -42t16 -59.5t-16 -59.5t-44 -42t-63 -15.5zM0 825q17 0 29.5 12.5t12.5 30.5t-12.5 30.5t-29.5 12.5t-29.5 -12.5t-12.5 -30.5t12.5 -30.5t29.5 -12.5z" />
    <glyph glyph-name="ring" unicode="&#x2da;" 
d="M300 578q-34 0 -60.5 15t-42.5 41t-16 57t16 57t42.5 41t60.5 15t60.5 -15t42.5 -41t16 -57t-16 -57t-42.5 -41t-60.5 -15zM300 648q17 0 29.5 12.5t12.5 30.5t-12.5 30.5t-29.5 12.5t-29.5 -12.5t-12.5 -30.5t12.5 -30.5t29.5 -12.5z" />
    <glyph glyph-name="Aring" unicode="&#xc5;" horiz-adv-x="773" 
d="M13 0l281 710h185l281 -710h-180l-50 138h-293l-50 -138h-174zM290 284h187l-94 259zM386 751q-35 0 -63 15.5t-44 42t-16 59.5t16 59.5t44 42t63 15.5t63 -15.5t44 -42t16 -59.5t-16 -59.5t-44 -42t-63 -15.5zM386 825q17 0 29.5 12.5t12.5 30.5t-12.5 30.5t-29.5 12.5
t-29.5 -12.5t-12.5 -30.5t12.5 -30.5t29.5 -12.5z" />
    <glyph glyph-name="Uring" unicode="&#x16e;" horiz-adv-x="740" 
d="M368 -20q-72 0 -129.5 22t-99 63t-63.5 98.5t-22 128.5v418h174v-410q0 -49 17.5 -85t49 -55.5t75.5 -19.5t75.5 19.5t49 55.5t17.5 85v410h174v-418q0 -71 -22.5 -128.5t-64 -98.5t-100.5 -63t-131 -22zM370 751q-35 0 -63 15.5t-44 42t-16 59.5t16 59.5t44 42t63 15.5
t63 -15.5t44 -42t16 -59.5t-16 -59.5t-44 -42t-63 -15.5zM370 825q17 0 29.5 12.5t12.5 30.5t-12.5 30.5t-29.5 12.5t-29.5 -12.5t-12.5 -30.5t12.5 -30.5t29.5 -12.5z" />
    <glyph glyph-name="aring" unicode="&#xe5;" horiz-adv-x="566" 
d="M212 -15q-40 0 -74 12.5t-59 34.5t-39 52.5t-14 66.5q0 51 27.5 90t77 60.5t115.5 21.5q32 0 58 -5t53 -16v27q0 39 -22.5 62.5t-60.5 23.5q-28 0 -51 -13.5t-32 -36.5l-146 25q8 35 29 64t52.5 50t69.5 32.5t81 11.5q53 0 96.5 -16.5t75.5 -47t49 -72t17 -91.5v-321
h-146l-4 63q-20 -35 -60 -56.5t-93 -21.5zM186 161q0 -24 19.5 -39.5t51.5 -15.5q29 0 51.5 12t35.5 33t13 47v5q-18 8 -39 12.5t-42 4.5q-42 0 -66 -16t-24 -43zM281 578q-34 0 -60.5 15t-42.5 41t-16 57t16 57t42.5 41t60.5 15t60.5 -15t42.5 -41t16 -57t-16 -57
t-42.5 -41t-60.5 -15zM281 648q17 0 29.5 12.5t12.5 30.5t-12.5 30.5t-29.5 12.5t-29.5 -12.5t-12.5 -30.5t12.5 -30.5t29.5 -12.5z" />
    <glyph glyph-name="uring" unicode="&#x16f;" horiz-adv-x="598" 
d="M298 -15q-74 0 -130 31.5t-86.5 88.5t-30.5 135v293h163v-296q0 -49 22.5 -77t62.5 -28t62.5 28t22.5 77v296h163v-293q0 -57 -17.5 -104t-50 -81t-78.5 -52t-103 -18zM298 578q-34 0 -60.5 15t-42.5 41t-16 57t16 57t42.5 41t60.5 15t60.5 -15t42.5 -41t16 -57t-16 -57
t-42.5 -41t-60.5 -15zM298 648q17 0 29.5 12.5t12.5 30.5t-12.5 30.5t-29.5 12.5t-29.5 -12.5t-12.5 -30.5t12.5 -30.5t29.5 -12.5z" />
    <glyph glyph-name="aring.ss01" horiz-adv-x="647" 
d="M273 -15q-51 0 -94.5 21.5t-76 59t-51 88t-18.5 109.5q0 60 19 112t53 91t80 60.5t99 21.5q51 0 91.5 -21.5t66.5 -60.5l4 67h150v-533h-150l-5 76q-27 -42 -71 -66.5t-97 -24.5zM317 132q33 0 60 17.5t42.5 48t15.5 69.5t-15.5 69t-42.5 47.5t-60 17.5t-60 -17.5
t-42.5 -47.5t-15.5 -69t15.5 -69.5t42.5 -48t60 -17.5zM322 578q-34 0 -60.5 15t-42.5 41t-16 57t16 57t42.5 41t60.5 15t60.5 -15t42.5 -41t16 -57t-16 -57t-42.5 -41t-60.5 -15zM322 648q17 0 29.5 12.5t12.5 30.5t-12.5 30.5t-29.5 12.5t-29.5 -12.5t-12.5 -30.5
t12.5 -30.5t29.5 -12.5z" />
    <glyph glyph-name="colon_B_e_l_o_colon.dlig" horiz-adv-x="781" 
d="M390 92q-93 -102 -183 -102q-33 0 -61.5 12t-50 33t-34 49t-12.5 60q0 20 6.5 42.5t21.5 56.5q11 25 27 58.5t34.5 72t38 78t38 76t33.5 66t25 48.5q43 78 117 78q38 0 66.5 -19t50.5 -59q10 -19 25 -48.5t33.5 -66t38 -76t38 -78t34.5 -72t27 -58.5q15 -34 21.5 -56.5
t6.5 -42.5q0 -32 -12.5 -60t-34 -49t-50 -33t-61.5 -12q-90 0 -183 102zM390 674q-26 0 -43 -13t-35 -45q-8 -14 -22.5 -42.5t-33 -65t-38 -77t-38.5 -79.5t-34.5 -72.5t-25.5 -55.5q-14 -31 -19 -47.5t-5 -32.5q0 -29 15 -53.5t40 -39.5t55 -15q72 0 153 92
q-94 115 -94 200q0 36 16.5 64.5t44.5 45t64 16.5t64 -16.5t44.5 -45t16.5 -64.5q0 -85 -94 -200q81 -92 153 -92q30 0 55 15t40 39.5t15 53.5q0 16 -5 32.5t-19 47.5q-10 22 -25.5 55.5t-34.5 72.5t-38.5 79.5t-38 77t-33 65t-22.5 42.5q-18 32 -35 45t-43 13zM390 407
q-34 0 -56 -21.5t-22 -55.5q0 -32 20 -75.5t58 -90.5q38 47 58 90.5t20 75.5q0 34 -22 55.5t-56 21.5z" />
    <glyph glyph-name="uniFEFF" unicode="&#xfeff;" horiz-adv-x="0" 
 />
    <glyph glyph-name="uniFFFD" unicode="&#xfffd;" horiz-adv-x="808" 
d="M404 -34l-389 389l389 389l389 -389zM351 259h94v46q52 16 80 49.5t28 78.5q0 37 -19 65.5t-52.5 45t-77.5 16.5q-40 0 -72.5 -14t-54 -39t-28.5 -58l92 -20q7 21 22.5 32.5t36.5 11.5q22 0 36.5 -13t14.5 -34q0 -52 -100 -77v-90zM398 110q16 0 29 8t21 21t8 29
q0 25 -17 41.5t-41 16.5t-40.5 -16.5t-16.5 -41.5q0 -24 16.5 -41t40.5 -17z" />
    </font>
</defs>
</svg>
